<svg width="20" height="20" viewBox="0 0 20 20" fill="none" xmlns="http://www.w3.org/2000/svg">
<path fill-rule="evenodd" clip-rule="evenodd" d="M6.1 19.212C7.31667 19.7373 8.6167 20 10 20C11.3833 20 12.6833 19.7373 13.9 19.212C15.1167 18.6873 16.175 17.975 17.075 17.075C17.975 16.175 18.6873 15.1167 19.212 13.9C19.7373 12.6833 20 11.3833 20 10C20 8.6167 19.7373 7.31667 19.212 6.1C18.6873 4.88333 17.975 3.825 17.075 2.925C16.175 2.025 15.1167 1.31233 13.9 0.787C12.6833 0.26233 11.3833 0 10 0C8.6167 0 7.31667 0.26233 6.1 0.787C4.88333 1.31233 3.825 2.025 2.925 2.925C2.025 3.825 1.31267 4.88333 0.788 6.1C0.26267 7.31667 0 8.6167 0 10C0 11.3833 0.26267 12.6833 0.788 13.9C1.31267 15.1167 2.025 16.175 2.925 17.075C3.825 17.975 4.88333 18.6873 6.1 19.212ZM15.675 15.675C14.125 17.225 12.2333 18 10 18C7.76667 18 5.875 17.225 4.325 15.675C2.775 14.125 2 12.2333 2 10C2 7.7667 2.775 5.875 4.325 4.325C5.875 2.775 7.76667 2 10 2C12.2333 2 14.125 2.775 15.675 4.325C17.225 5.875 18 7.7667 18 10C18 12.2333 17.225 14.125 15.675 15.675Z" fill="white"/>
</svg>
