<svg width="982" height="691" viewBox="0 0 982 691" fill="none" xmlns="http://www.w3.org/2000/svg">
<path d="M237.499 71.7438C279.257 75.5383 306.077 79.3587 345.831 92.2428C377.563 102.527 418.467 107.006 454.428 113C472.763 116.056 492.346 116.996 510.914 117.641C533.668 118.431 558.354 114.571 580.792 118.801C633.273 128.694 686.407 149.287 728.771 180.943C783.766 222.037 824.147 277.572 828.616 346.224C832.06 399.132 1014.32 475.904 974.245 510C913.026 562.083 619.469 550.341 541.411 551.859C494.567 552.77 449.826 559.405 404.969 572.616C364.672 584.484 334.866 604.256 301.543 628.182C272.633 648.94 240.9 666.734 207.267 679.107C177.117 690.2 141.851 689.768 110.073 688.132C63.9333 685.757 6.80751 679.777 -33.6617 655.643C-67.755 635.312 -93.7884 601.639 -116.402 570.553C-133.619 546.887 -149.848 519.017 -132.712 492.553C-122.512 476.803 -109.02 463.525 -99.2972 447.172C-86.3342 425.371 -75.6545 404.368 -65.7502 381.034C-38.431 316.671 -36.7489 245.049 -5.55118 181.974C6.21964 158.176 24.6475 138.393 45.2334 121.38C68.7532 101.942 100.685 80.5422 131.024 72.9041C164.032 64.5941 204.089 68.7079 237.499 71.7438Z" fill="white" stroke="white" stroke-width="3" stroke-linecap="round"/>
<path d="M474.534 412.958C473.706 412.958 473.034 412.286 473.034 411.458C473.034 410.63 473.706 409.958 474.534 409.958C475.363 409.958 476.034 410.63 476.034 411.458C476.034 412.286 475.363 412.958 474.534 412.958Z" fill="black"/>
<path d="M556.495 231.095C556.026 231.778 555.093 231.952 554.41 231.483C553.726 231.014 553.553 230.081 554.022 229.397C554.49 228.714 555.424 228.541 556.107 229.009C556.79 229.478 556.964 230.412 556.495 231.095Z" fill="black"/>
<path d="M328.193 395.259C327.515 395.735 326.58 395.571 326.104 394.893C325.628 394.215 325.792 393.28 326.47 392.804C327.148 392.328 328.083 392.492 328.559 393.17C329.035 393.848 328.871 394.783 328.193 395.259Z" fill="black"/>
<path d="M259.044 144.815C258.054 145.393 256.688 145.194 255.994 144.37C255.299 143.547 255.538 142.411 256.528 141.833C257.518 141.255 258.883 141.454 259.578 142.277C260.272 143.101 260.033 144.237 259.044 144.815Z" fill="black"/>
<path d="M162.044 90.8148C161.054 91.3928 159.688 91.1938 158.994 90.3703C158.299 89.5468 158.538 88.4107 159.528 87.8327C160.518 87.2547 161.883 87.4537 162.578 88.2772C163.272 89.1007 163.033 90.2368 162.044 90.8148Z" fill="black"/>
<path d="M339.175 240.674C338.282 241.195 337.05 241.016 336.423 240.273C335.796 239.53 336.012 238.504 336.905 237.983C337.798 237.461 339.03 237.641 339.657 238.384C340.284 239.127 340.068 240.152 339.175 240.674Z" fill="black"/>
<path d="M600.15 518.757C601.179 518.656 602.224 519.333 602.484 520.27C602.744 521.206 602.12 522.048 601.091 522.15C600.062 522.251 599.017 521.574 598.757 520.637C598.497 519.701 599.121 518.859 600.15 518.757Z" fill="black"/>
<path d="M494.855 573.279C495.811 572.884 497.007 573.231 497.526 574.053C498.045 574.875 497.691 575.861 496.735 576.255C495.779 576.649 494.583 576.303 494.064 575.481C493.545 574.659 493.899 573.673 494.855 573.279Z" fill="black"/>
<path d="M395.499 527.721C396.455 527.327 397.651 527.673 398.17 528.495C398.689 529.317 398.335 530.303 397.379 530.697C396.423 531.091 395.227 530.745 394.708 529.923C394.189 529.101 394.543 528.115 395.499 527.721Z" fill="black"/>
<path d="M458.499 395.721C459.455 395.327 460.651 395.673 461.17 396.495C461.689 397.317 461.335 398.303 460.379 398.697C459.423 399.091 458.227 398.745 457.708 397.923C457.189 397.101 457.543 396.115 458.499 395.721Z" fill="black"/>
<path d="M576.499 343.721C577.455 343.327 578.651 343.673 579.17 344.495C579.689 345.317 579.335 346.303 578.379 346.697C577.423 347.091 576.227 346.745 575.708 345.923C575.189 345.101 575.543 344.115 576.499 343.721Z" fill="black"/>
<path d="M694.499 291.721C695.455 291.327 696.651 291.673 697.17 292.495C697.689 293.317 697.335 294.303 696.379 294.697C695.423 295.091 694.227 294.745 693.708 293.923C693.189 293.101 693.543 292.115 694.499 291.721Z" fill="black"/>
<path d="M535.534 410.958C534.706 410.958 534.034 410.286 534.034 409.458C534.034 408.63 534.706 407.958 535.534 407.958C536.363 407.958 537.034 408.63 537.034 409.458C537.034 410.286 536.363 410.958 535.534 410.958Z" fill="black"/>
<path d="M589.361 179.667C588.892 180.35 587.959 180.524 587.276 180.055C586.593 179.586 586.419 178.653 586.888 177.97C587.356 177.287 588.29 177.113 588.973 177.582C589.656 178.05 589.83 178.984 589.361 179.667Z" fill="black"/>
<path d="M376.973 358.577C376.294 359.053 375.359 358.889 374.883 358.211C374.407 357.533 374.571 356.597 375.249 356.122C375.927 355.646 376.863 355.809 377.339 356.488C377.814 357.166 377.651 358.101 376.973 358.577Z" fill="black"/>
<path d="M451.997 207.69C451.425 208.092 450.635 207.953 450.233 207.381C449.831 206.808 449.969 206.018 450.542 205.616C451.114 205.214 451.905 205.352 452.306 205.925C452.708 206.498 452.57 207.288 451.997 207.69Z" fill="black"/>
<path d="M330.242 100.267C329.253 100.845 327.887 100.646 327.192 99.822C326.498 98.9986 326.737 97.8624 327.727 97.2844C328.716 96.7064 330.082 96.9054 330.776 97.7289C331.471 98.5524 331.232 99.6885 330.242 100.267Z" fill="black"/>
<path d="M233.242 46.2664C232.253 46.8444 230.887 46.6454 230.192 45.822C229.498 44.9985 229.737 43.8624 230.727 43.2844C231.716 42.7064 233.082 42.9054 233.776 43.7288C234.471 44.5523 234.232 45.6884 233.242 46.2664Z" fill="black"/>
<path d="M403.417 200.478C402.524 200.999 401.292 200.82 400.665 200.077C400.039 199.334 400.254 198.309 401.147 197.787C402.04 197.265 403.273 197.445 403.899 198.188C404.526 198.931 404.31 199.956 403.417 200.478Z" fill="black"/>
<path d="M524.998 528.5C526.027 528.398 527.072 529.075 527.331 530.012C527.591 530.949 526.968 531.79 525.938 531.892C524.909 531.994 523.864 531.317 523.605 530.38C523.345 529.443 523.968 528.601 524.998 528.5Z" fill="black"/>
<path d="M425.715 604.302C426.671 603.908 427.866 604.254 428.386 605.076C428.905 605.898 428.551 606.884 427.595 607.278C426.639 607.672 425.443 607.326 424.924 606.504C424.404 605.682 424.759 604.696 425.715 604.302Z" fill="black"/>
<path d="M326.359 558.744C327.315 558.35 328.511 558.696 329.03 559.518C329.549 560.34 329.195 561.326 328.239 561.72C327.283 562.115 326.087 561.768 325.568 560.946C325.049 560.124 325.403 559.138 326.359 558.744Z" fill="black"/>
<path d="M389.359 426.744C390.315 426.35 391.511 426.696 392.03 427.518C392.549 428.34 392.195 429.326 391.239 429.72C390.283 430.115 389.087 429.768 388.568 428.946C388.049 428.124 388.403 427.139 389.359 426.744Z" fill="black"/>
<path d="M507.359 374.744C508.315 374.35 509.511 374.696 510.03 375.518C510.549 376.34 510.195 377.326 509.239 377.72C508.283 378.115 507.087 377.768 506.568 376.946C506.049 376.124 506.403 375.139 507.359 374.744Z" fill="black"/>
<path d="M625.359 322.744C626.315 322.35 627.511 322.696 628.03 323.518C628.549 324.34 628.195 325.326 627.239 325.72C626.283 326.115 625.087 325.768 624.568 324.946C624.049 324.124 624.403 323.138 625.359 322.744Z" fill="black"/>
<path d="M517.534 383.958C516.706 383.958 516.034 383.286 516.034 382.458C516.034 381.63 516.706 380.958 517.534 380.958C518.363 380.958 519.034 381.63 519.034 382.458C519.034 383.286 518.363 383.958 517.534 383.958Z" fill="black"/>
<path d="M556.914 179.231C556.445 179.914 555.512 180.088 554.829 179.619C554.146 179.151 553.972 178.217 554.441 177.534C554.909 176.851 555.843 176.677 556.526 177.146C557.209 177.615 557.383 178.548 556.914 179.231Z" fill="black"/>
<path d="M346.728 346.819C346.05 347.295 345.114 347.131 344.638 346.453C344.162 345.775 344.326 344.839 345.004 344.363C345.682 343.887 346.618 344.051 347.094 344.729C347.57 345.407 347.406 346.343 346.728 346.819Z" fill="black"/>
<path d="M426.455 197.76C425.882 198.162 425.092 198.023 424.69 197.45C424.288 196.878 424.427 196.088 424.999 195.686C425.572 195.284 426.362 195.422 426.764 195.995C427.166 196.568 427.028 197.358 426.455 197.76Z" fill="black"/>
<path d="M286.097 85.9867C285.107 86.5647 283.742 86.3657 283.047 85.5422C282.352 84.7187 282.591 83.5826 283.581 83.0046C284.571 82.4266 285.936 82.6256 286.631 83.4491C287.326 84.2725 287.087 85.4087 286.097 85.9867Z" fill="black"/>
<path d="M189.097 31.9867C188.107 32.5647 186.742 32.3657 186.047 31.5422C185.352 30.7187 185.591 29.5826 186.581 29.0046C187.571 28.4266 188.936 28.6256 189.631 29.4491C190.326 30.2725 190.086 31.4087 189.097 31.9867Z" fill="black"/>
<path d="M363.585 187.593C362.692 188.115 361.46 187.935 360.833 187.192C360.206 186.449 360.422 185.424 361.315 184.902C362.208 184.381 363.44 184.56 364.067 185.303C364.694 186.046 364.478 187.072 363.585 187.593Z" fill="black"/>
<path d="M555.827 556.822C556.857 556.72 557.902 557.397 558.161 558.334C558.421 559.271 557.798 560.112 556.768 560.214C555.739 560.316 554.694 559.639 554.435 558.702C554.175 557.765 554.798 556.924 555.827 556.822Z" fill="black"/>
<path d="M463.408 622.518C464.364 622.124 465.56 622.47 466.079 623.292C466.598 624.114 466.244 625.1 465.288 625.494C464.332 625.889 463.136 625.542 462.617 624.72C462.098 623.898 462.452 622.912 463.408 622.518Z" fill="black"/>
<path d="M364.052 576.96C365.008 576.566 366.204 576.912 366.723 577.734C367.243 578.556 366.888 579.542 365.932 579.936C364.976 580.331 363.781 579.984 363.261 579.162C362.742 578.341 363.096 577.355 364.052 576.96Z" fill="black"/>
<path d="M427.052 444.96C428.008 444.566 429.204 444.912 429.723 445.734C430.243 446.556 429.888 447.542 428.932 447.936C427.976 448.331 426.781 447.984 426.261 447.162C425.742 446.34 426.096 445.355 427.052 444.96Z" fill="black"/>
<path d="M545.052 392.96C546.008 392.566 547.204 392.912 547.723 393.734C548.243 394.556 547.888 395.542 546.932 395.936C545.976 396.331 544.781 395.984 544.261 395.162C543.742 394.34 544.096 393.355 545.052 392.96Z" fill="black"/>
<path d="M663.052 340.96C664.008 340.566 665.204 340.912 665.723 341.734C666.243 342.556 665.888 343.542 664.932 343.936C663.976 344.331 662.781 343.984 662.261 343.162C661.742 342.34 662.096 341.355 663.052 340.96Z" fill="black"/>
<path d="M492.534 371.958C491.706 371.958 491.034 371.286 491.034 370.458C491.034 369.63 491.706 368.958 492.534 368.958C493.363 368.958 494.034 369.63 494.034 370.458C494.034 371.286 493.363 371.958 492.534 371.958Z" fill="black"/>
<path d="M532.874 193.055C532.406 193.738 531.472 193.911 530.789 193.443C530.106 192.974 529.932 192.04 530.401 191.357C530.869 190.674 531.803 190.5 532.486 190.969C533.169 191.438 533.343 192.372 532.874 193.055Z" fill="black"/>
<path d="M319.371 351.359C318.693 351.835 317.758 351.672 317.282 350.993C316.806 350.315 316.97 349.38 317.648 348.904C318.326 348.428 319.261 348.592 319.737 349.27C320.213 349.948 320.049 350.884 319.371 351.359Z" fill="black"/>
<path d="M403.352 201.594C402.779 201.996 401.989 201.858 401.587 201.285C401.185 200.713 401.323 199.923 401.896 199.521C402.469 199.119 403.259 199.257 403.661 199.83C404.063 200.402 403.924 201.192 403.352 201.594Z" fill="black"/>
<path d="M246.167 91.5012C245.177 92.0792 243.812 91.8803 243.117 91.0568C242.422 90.2333 242.661 89.0972 243.651 88.5192C244.641 87.9412 246.006 88.1402 246.701 88.9636C247.396 89.7871 247.157 90.9232 246.167 91.5012Z" fill="black"/>
<path d="M149.167 37.5013C148.177 38.0793 146.812 37.8803 146.117 37.0568C145.422 36.2334 145.661 35.0972 146.651 34.5192C147.641 33.9412 149.006 34.1402 149.701 34.9637C150.396 35.7872 150.156 36.9233 149.167 37.5013Z" fill="black"/>
<path d="M327.556 192.569C326.663 193.09 325.431 192.911 324.804 192.168C324.177 191.425 324.393 190.4 325.286 189.878C326.179 189.357 327.411 189.536 328.038 190.279C328.665 191.022 328.449 192.047 327.556 192.569Z" fill="black"/>
<path d="M590.649 567.325C591.678 567.223 592.723 567.9 592.983 568.837C593.243 569.774 592.619 570.615 591.59 570.717C590.561 570.818 589.516 570.141 589.256 569.205C588.996 568.268 589.62 567.426 590.649 567.325Z" fill="black"/>
<path d="M499.779 622.521C500.735 622.127 501.931 622.473 502.45 623.295C502.969 624.117 502.615 625.103 501.659 625.497C500.703 625.892 499.507 625.545 498.988 624.723C498.469 623.901 498.823 622.915 499.779 622.521Z" fill="black"/>
<path d="M400.423 576.963C401.379 576.569 402.575 576.915 403.094 577.737C403.613 578.559 403.259 579.545 402.303 579.939C401.347 580.334 400.151 579.987 399.632 579.165C399.113 578.344 399.467 577.358 400.423 576.963Z" fill="black"/>
<path d="M463.423 444.963C464.379 444.569 465.575 444.915 466.094 445.737C466.613 446.559 466.259 447.545 465.303 447.939C464.347 448.334 463.151 447.987 462.632 447.165C462.113 446.344 462.467 445.358 463.423 444.963Z" fill="black"/>
<path d="M581.423 392.963C582.379 392.569 583.575 392.915 584.094 393.737C584.613 394.559 584.259 395.545 583.303 395.939C582.347 396.334 581.151 395.987 580.632 395.165C580.113 394.344 580.467 393.358 581.423 392.963Z" fill="black"/>
<path d="M699.423 340.963C700.379 340.569 701.575 340.915 702.094 341.737C702.613 342.559 702.259 343.545 701.303 343.939C700.347 344.334 699.151 343.987 698.632 343.165C698.113 342.344 698.467 341.358 699.423 340.963Z" fill="black"/>
<path d="M503.534 440.958C502.706 440.958 502.034 440.286 502.034 439.458C502.034 438.63 502.706 437.958 503.534 437.958C504.363 437.958 505.034 438.63 505.034 439.458C505.034 440.286 504.363 440.958 503.534 440.958Z" fill="black"/>
<path d="M595.991 223.027C595.522 223.71 594.588 223.884 593.905 223.415C593.222 222.946 593.048 222.012 593.517 221.329C593.986 220.646 594.92 220.472 595.603 220.941C596.286 221.41 596.459 222.344 595.991 223.027Z" fill="black"/>
<path d="M368.016 401.516C367.338 401.992 366.402 401.828 365.926 401.15C365.45 400.472 365.614 399.537 366.292 399.061C366.97 398.585 367.906 398.749 368.382 399.427C368.858 400.105 368.694 401.04 368.016 401.516Z" fill="black"/>
<path d="M444.433 243.953C443.861 244.355 443.071 244.217 442.669 243.644C442.267 243.071 442.405 242.281 442.978 241.879C443.55 241.477 444.34 241.616 444.742 242.188C445.144 242.761 445.006 243.551 444.433 243.953Z" fill="black"/>
<path d="M317.169 152.414C316.179 152.992 314.814 152.793 314.119 151.969C313.424 151.146 313.664 150.01 314.653 149.432C315.643 148.854 317.009 149.053 317.703 149.876C318.398 150.7 318.159 151.836 317.169 152.414Z" fill="black"/>
<path d="M220.169 98.4138C219.179 98.9918 217.814 98.7928 217.119 97.9693C216.424 97.1458 216.664 96.0097 217.653 95.4317C218.643 94.8537 220.009 95.0527 220.703 95.8762C221.398 96.6997 221.159 97.8358 220.169 98.4138Z" fill="black"/>
<path d="M391.621 247.53C390.728 248.052 389.496 247.872 388.869 247.129C388.243 246.386 388.458 245.361 389.351 244.839C390.244 244.318 391.476 244.498 392.103 245.241C392.73 245.984 392.514 247.009 391.621 247.53Z" fill="black"/>
<path d="M555.341 490.654C556.37 490.552 557.415 491.229 557.675 492.166C557.935 493.102 557.311 493.944 556.282 494.046C555.253 494.147 554.208 493.47 553.948 492.534C553.689 491.597 554.312 490.755 555.341 490.654Z" fill="black"/>
<path d="M443.84 559.307C444.796 558.913 445.992 559.259 446.512 560.081C447.031 560.903 446.677 561.889 445.721 562.283C444.765 562.678 443.569 562.331 443.05 561.509C442.53 560.688 442.884 559.702 443.84 559.307Z" fill="black"/>
<path d="M344.485 513.749C345.441 513.355 346.637 513.702 347.156 514.523C347.675 515.345 347.321 516.331 346.365 516.725C345.409 517.12 344.213 516.773 343.694 515.952C343.175 515.13 343.529 514.144 344.485 513.749Z" fill="black"/>
<path d="M407.485 381.749C408.441 381.355 409.637 381.701 410.156 382.523C410.675 383.345 410.321 384.331 409.365 384.725C408.409 385.12 407.213 384.773 406.694 383.951C406.175 383.13 406.529 382.144 407.485 381.749Z" fill="black"/>
<path d="M501.423 253.672C502.379 253.278 503.575 253.624 504.094 254.446C504.613 255.268 504.259 256.254 503.303 256.648C502.347 257.043 501.151 256.696 500.632 255.874C500.113 255.052 500.467 254.066 501.423 253.672Z" fill="black"/>
<path d="M501.423 253.672C502.379 253.278 503.575 253.624 504.094 254.446C504.613 255.268 504.259 256.254 503.303 256.648C502.347 257.043 501.151 256.696 500.632 255.874C500.113 255.052 500.467 254.066 501.423 253.672Z" fill="black"/>
<path d="M563.362 113.148C564.317 112.754 565.513 113.1 566.033 113.922C566.552 114.744 566.198 115.73 565.242 116.124C564.286 116.518 563.09 116.172 562.571 115.35C562.051 114.528 562.406 113.542 563.362 113.148Z" fill="black"/>
<path d="M285.361 388.148C286.317 387.754 287.513 388.1 288.033 388.922C288.552 389.744 288.198 390.73 287.242 391.124C286.286 391.518 285.09 391.172 284.571 390.35C284.051 389.528 284.406 388.542 285.361 388.148Z" fill="black"/>
<path d="M643.485 277.749C644.441 277.355 645.637 277.701 646.156 278.523C646.675 279.345 646.321 280.331 645.365 280.725C644.409 281.12 643.213 280.773 642.694 279.951C642.175 279.13 642.529 278.144 643.485 277.749Z" fill="black"/>
<path d="M705.423 137.225C706.379 136.831 707.575 137.177 708.094 137.999C708.613 138.821 708.259 139.807 707.303 140.201C706.347 140.596 705.151 140.249 704.632 139.427C704.113 138.606 704.467 137.62 705.423 137.225Z" fill="black"/>
<path d="M427.423 412.225C428.379 411.831 429.575 412.177 430.094 412.999C430.613 413.821 430.259 414.807 429.303 415.201C428.347 415.596 427.151 415.249 426.632 414.427C426.113 413.606 426.467 412.62 427.423 412.225Z" fill="black"/>
<path d="M464.534 459.958C463.706 459.958 463.034 459.286 463.034 458.458C463.034 457.63 463.706 456.958 464.534 456.958C465.363 456.958 466.034 457.63 466.034 458.458C466.034 459.286 465.363 459.958 464.534 459.958Z" fill="black"/>
<path d="M526.473 319.434C525.644 319.434 524.973 318.762 524.973 317.934C524.973 317.106 525.644 316.434 526.473 316.434C527.301 316.434 527.973 317.106 527.973 317.934C527.973 318.762 527.301 319.434 526.473 319.434Z" fill="black"/>
<path d="M248.473 594.434C247.644 594.434 246.973 593.762 246.973 592.934C246.973 592.106 247.644 591.434 248.473 591.434C249.301 591.434 249.973 592.106 249.973 592.934C249.973 593.762 249.301 594.434 248.473 594.434Z" fill="black"/>
<path d="M589.59 265.934C589.121 266.617 588.187 266.791 587.504 266.322C586.821 265.853 586.647 264.919 587.116 264.236C587.585 263.553 588.518 263.38 589.202 263.848C589.885 264.317 590.058 265.251 589.59 265.934Z" fill="black"/>
<path d="M651.528 125.41C651.059 126.093 650.126 126.267 649.442 125.798C648.759 125.329 648.586 124.395 649.054 123.712C649.523 123.029 650.457 122.856 651.14 123.324C651.823 123.793 651.997 124.727 651.528 125.41Z" fill="black"/>
<path d="M373.528 400.41C373.059 401.093 372.126 401.267 371.442 400.798C370.759 400.329 370.586 399.395 371.054 398.712C371.523 398.029 372.457 397.856 373.14 398.324C373.823 398.793 373.997 399.727 373.528 400.41Z" fill="black"/>
<path d="M347.01 439.474C346.332 439.95 345.397 439.786 344.921 439.108C344.445 438.43 344.609 437.494 345.287 437.018C345.965 436.542 346.9 436.706 347.376 437.384C347.852 438.062 347.688 438.998 347.01 439.474Z" fill="black"/>
<path d="M408.949 298.949C408.271 299.425 407.335 299.262 406.859 298.583C406.383 297.905 406.547 296.97 407.225 296.494C407.903 296.018 408.839 296.182 409.315 296.86C409.791 297.538 409.627 298.473 408.949 298.949Z" fill="black"/>
<path d="M130.949 573.949C130.271 574.425 129.335 574.262 128.859 573.583C128.383 572.905 128.547 571.97 129.225 571.494C129.903 571.018 130.839 571.182 131.315 571.86C131.791 572.538 131.627 573.474 130.949 573.949Z" fill="black"/>
<path d="M488.632 135.485C488.059 135.887 487.269 135.749 486.867 135.176C486.465 134.603 486.604 133.813 487.176 133.411C487.749 133.009 488.539 133.148 488.941 133.72C489.343 134.293 489.205 135.083 488.632 135.485Z" fill="black"/>
<path d="M210.632 410.485C210.059 410.887 209.269 410.749 208.867 410.176C208.465 409.603 208.604 408.813 209.176 408.411C209.749 408.009 210.539 408.148 210.941 408.72C211.343 409.293 211.204 410.083 210.632 410.485Z" fill="black"/>
<path d="M286.509 198.511C285.519 199.089 284.154 198.89 283.459 198.066C282.764 197.243 283.004 196.107 283.993 195.529C284.983 194.951 286.349 195.15 287.043 195.973C287.738 196.797 287.499 197.933 286.509 198.511Z" fill="black"/>
<path d="M348.447 57.9867C347.458 58.5647 346.092 58.3657 345.398 57.5422C344.703 56.7187 344.942 55.5826 345.932 55.0046C346.921 54.4266 348.287 54.6256 348.982 55.4491C349.676 56.2725 349.437 57.4087 348.447 57.9867Z" fill="black"/>
<path d="M70.4474 332.987C69.4577 333.565 68.0923 333.366 67.3976 332.542C66.7029 331.719 66.9421 330.583 67.9317 330.005C68.9214 329.427 70.2869 329.626 70.9816 330.449C71.6763 331.273 71.4371 332.409 70.4474 332.987Z" fill="black"/>
<path d="M189.509 144.511C188.519 145.089 187.154 144.89 186.459 144.066C185.764 143.243 186.004 142.107 186.993 141.529C187.983 140.951 189.349 141.15 190.043 141.973C190.738 142.797 190.499 143.933 189.509 144.511Z" fill="black"/>
<path d="M251.447 3.98666C250.458 4.56466 249.092 4.36566 248.398 3.54219C247.703 2.71872 247.942 1.5826 248.932 1.0046C249.921 0.426597 251.287 0.625591 251.982 1.44906C252.676 2.27254 252.437 3.40865 251.447 3.98666Z" fill="black"/>
<path d="M-26.5526 278.987C-27.5422 279.565 -28.9077 279.366 -29.6024 278.542C-30.2971 277.719 -30.0579 276.583 -29.0682 276.005C-28.0786 275.427 -26.7131 275.626 -26.0184 276.449C-25.3237 277.273 -25.5629 278.409 -26.5526 278.987Z" fill="black"/>
<path d="M363.957 289.123C363.064 289.645 361.832 289.465 361.205 288.722C360.578 287.979 360.794 286.954 361.687 286.433C362.58 285.911 363.812 286.091 364.439 286.834C365.066 287.577 364.85 288.602 363.957 289.123Z" fill="black"/>
<path d="M597.831 464.387C598.86 464.285 599.905 464.962 600.165 465.899C600.425 466.836 599.801 467.677 598.772 467.779C597.743 467.881 596.698 467.204 596.438 466.267C596.178 465.33 596.802 464.488 597.831 464.387Z" fill="black"/>
<path d="M476.938 521.893C477.894 521.498 479.09 521.845 479.609 522.667C480.129 523.488 479.774 524.474 478.818 524.869C477.862 525.263 476.667 524.917 476.147 524.095C475.628 523.273 475.982 522.287 476.938 521.893Z" fill="black"/>
<path d="M377.582 476.335C378.538 475.94 379.734 476.287 380.254 477.109C380.773 477.931 380.419 478.916 379.463 479.311C378.507 479.705 377.311 479.359 376.792 478.537C376.272 477.715 376.626 476.729 377.582 476.335Z" fill="black"/>
<path d="M440.582 344.335C441.538 343.94 442.734 344.287 443.254 345.109C443.773 345.931 443.419 346.917 442.463 347.311C441.507 347.705 440.311 347.359 439.792 346.537C439.272 345.715 439.626 344.729 440.582 344.335Z" fill="black"/>
<path d="M558.582 292.335C559.538 291.94 560.734 292.287 561.254 293.109C561.773 293.931 561.419 294.917 560.463 295.311C559.507 295.705 558.311 295.359 557.792 294.537C557.272 293.715 557.626 292.729 558.582 292.335Z" fill="black"/>
<path d="M676.582 240.335C677.538 239.94 678.734 240.287 679.254 241.109C679.773 241.931 679.419 242.917 678.463 243.311C677.507 243.705 676.311 243.359 675.792 242.537C675.272 241.715 675.626 240.729 676.582 240.335Z" fill="black"/>
<path d="M443.534 501.958C442.706 501.958 442.034 501.286 442.034 500.458C442.034 499.63 442.706 498.958 443.534 498.958C444.363 498.958 445.034 499.63 445.034 500.458C445.034 501.286 444.363 501.958 443.534 501.958Z" fill="black"/>
<path d="M612.337 307.014C611.869 307.697 610.935 307.87 610.252 307.402C609.569 306.933 609.395 305.999 609.864 305.316C610.333 304.633 611.266 304.459 611.949 304.928C612.632 305.397 612.806 306.33 612.337 307.014Z" fill="black"/>
<path d="M353.951 485.915C353.273 486.391 352.338 486.227 351.862 485.549C351.386 484.871 351.55 483.936 352.228 483.46C352.906 482.984 353.841 483.148 354.317 483.826C354.793 484.504 354.629 485.439 353.951 485.915Z" fill="black"/>
<path d="M432.555 315.23C431.983 315.632 431.193 315.494 430.791 314.921C430.389 314.349 430.527 313.558 431.1 313.157C431.672 312.755 432.462 312.893 432.864 313.466C433.266 314.038 433.128 314.828 432.555 315.23Z" fill="black"/>
<path d="M296.64 254.911C295.65 255.489 294.285 255.29 293.59 254.467C292.896 253.644 293.135 252.507 294.124 251.929C295.114 251.351 296.48 251.55 297.174 252.374C297.869 253.197 297.63 254.333 296.64 254.911Z" fill="black"/>
<path d="M199.64 200.911C198.65 201.489 197.285 201.29 196.59 200.467C195.895 199.644 196.135 198.507 197.124 197.929C198.114 197.351 199.48 197.55 200.174 198.374C200.869 199.197 200.63 200.333 199.64 200.911Z" fill="black"/>
<path d="M373.098 340.014C372.205 340.535 370.973 340.356 370.346 339.613C369.719 338.87 369.935 337.845 370.828 337.323C371.721 336.801 372.953 336.981 373.58 337.724C374.207 338.467 373.991 339.492 373.098 340.014Z" fill="black"/>
<path d="M610.746 414.321C611.775 414.219 612.82 414.896 613.08 415.833C613.339 416.77 612.716 417.611 611.687 417.713C610.657 417.815 609.613 417.138 609.353 416.201C609.093 415.264 609.716 414.422 610.746 414.321Z" fill="black"/>
<path d="M474.85 470.23C475.806 469.836 477.001 470.182 477.521 471.004C478.04 471.826 477.686 472.812 476.73 473.206C475.774 473.601 474.578 473.254 474.059 472.432C473.539 471.61 473.894 470.624 474.85 470.23Z" fill="black"/>
<path d="M375.494 424.672C376.45 424.278 377.646 424.624 378.165 425.446C378.684 426.268 378.33 427.254 377.374 427.648C376.418 428.043 375.222 427.696 374.703 426.874C374.184 426.052 374.538 425.066 375.494 424.672Z" fill="black"/>
<path d="M438.494 292.672C439.45 292.278 440.646 292.624 441.165 293.446C441.684 294.268 441.33 295.254 440.374 295.648C439.418 296.043 438.222 295.696 437.703 294.874C437.184 294.052 437.538 293.066 438.494 292.672Z" fill="black"/>
<path d="M556.494 240.672C557.45 240.278 558.646 240.624 559.165 241.446C559.684 242.268 559.33 243.254 558.374 243.648C557.418 244.043 556.222 243.696 555.703 242.874C555.184 242.052 555.538 241.066 556.494 240.672Z" fill="black"/>
<path d="M683.162 190.874C684.118 190.48 685.314 190.826 685.833 191.648C686.353 192.47 685.998 193.456 685.042 193.85C684.086 194.245 682.891 193.898 682.371 193.076C681.852 192.255 682.206 191.269 683.162 190.874Z" fill="black"/>
<path d="M218.998 330.667C218.998 330.667 216.644 328.575 210.767 327.889L213.469 338.475C218.023 333.977 218.998 330.667 218.998 330.667ZM210.025 327.729C203.306 326.944 192.301 327.871 175.495 335.033C174.955 335.248 174.456 335.456 173.995 335.657C173.535 335.858 173.112 336.051 172.727 336.234C172.342 336.418 171.993 336.591 171.68 336.753C171.367 336.915 171.089 337.066 170.845 337.203C170.6 337.34 170.39 337.464 170.212 337.572C170.033 337.681 169.887 337.774 169.771 337.85C169.539 338.002 169.43 338.086 169.43 338.086C169.43 338.086 169.445 338.059 169.499 337.996C169.553 337.934 169.646 337.835 169.802 337.694C169.88 337.623 169.973 337.541 170.085 337.447C170.198 337.353 170.328 337.247 170.481 337.129C170.634 337.01 170.808 336.878 171.006 336.732C171.205 336.586 171.429 336.426 171.68 336.251C171.931 336.076 172.191 335.905 172.452 335.739C172.714 335.574 172.978 335.414 173.239 335.261C173.499 335.109 173.756 334.964 174.003 334.828C174.1 334.775 174.187 334.73 174.28 334.679L157.926 329.91L153.71 331.379L165.004 341.822L168.997 357.464L164.507 373.676L168.721 372.199L180.009 357.247C179.905 357.268 179.81 357.289 179.702 357.31C179.434 357.363 179.153 357.414 178.865 357.461C178.579 357.509 178.285 357.553 177.991 357.591C177.696 357.629 177.401 357.66 177.111 357.683C176.821 357.705 176.562 357.722 176.329 357.734C176.096 357.746 175.89 357.753 175.708 357.756C175.526 357.76 175.368 357.76 175.232 357.757C175.095 357.754 174.979 357.748 174.881 357.741C174.686 357.728 174.563 357.709 174.489 357.693C174.415 357.677 174.39 357.665 174.39 357.665C174.39 357.665 174.52 357.661 174.783 357.632C174.914 357.618 175.079 357.598 175.278 357.568C175.476 357.539 175.708 357.501 175.975 357.452C176.241 357.402 176.542 357.342 176.877 357.267C177.212 357.192 177.583 357.103 177.988 356.997C178.393 356.891 178.832 356.769 179.308 356.628C179.784 356.486 180.295 356.325 180.842 356.143C198.149 350.846 207.719 344.25 212.929 339.104L210.025 327.729ZM199.762 337.652C199.764 337.657 199.766 337.662 199.767 337.668C199.77 337.678 199.772 337.687 199.774 337.697C199.776 337.707 199.779 337.716 199.781 337.726C199.784 337.736 199.786 337.745 199.788 337.754C199.791 337.764 199.793 337.774 199.795 337.783C199.797 337.793 199.8 337.803 199.802 337.812C199.804 337.822 199.806 337.832 199.808 337.841C199.81 337.851 199.812 337.861 199.815 337.87C199.817 337.88 199.819 337.89 199.821 337.899C199.823 337.909 199.825 337.918 199.827 337.928C199.829 337.938 199.831 337.948 199.833 337.958C199.835 337.967 199.837 337.977 199.839 337.987C199.841 337.996 199.843 338.006 199.845 338.016C199.847 338.025 199.849 338.035 199.851 338.045C199.852 338.055 199.854 338.065 199.856 338.074C199.858 338.084 199.86 338.094 199.861 338.104C199.863 338.114 199.865 338.123 199.867 338.133C199.868 338.143 199.87 338.153 199.872 338.162C199.873 338.172 199.875 338.182 199.877 338.192C199.878 338.202 199.88 338.212 199.881 338.221C199.883 338.231 199.884 338.241 199.886 338.251C199.888 338.261 199.889 338.271 199.891 338.28C199.892 338.29 199.893 338.3 199.895 338.31C199.896 338.32 199.898 338.33 199.899 338.34C199.9 338.35 199.902 338.359 199.903 338.369C199.905 338.379 199.906 338.389 199.907 338.399C199.909 338.409 199.91 338.419 199.911 338.428C199.912 338.438 199.914 338.448 199.915 338.458C199.916 338.468 199.917 338.478 199.918 338.488C199.92 338.498 199.921 338.508 199.922 338.518C199.923 338.527 199.924 338.538 199.925 338.547C199.926 338.558 199.927 338.567 199.928 338.577C199.929 338.587 199.93 338.597 199.931 338.607C199.932 338.617 199.933 338.627 199.934 338.637C199.935 338.647 199.936 338.657 199.937 338.667C199.938 338.677 199.939 338.687 199.939 338.696C199.94 338.706 199.941 338.716 199.942 338.727C199.942 338.736 199.943 338.746 199.944 338.756C199.945 338.766 199.946 338.776 199.947 338.786C199.947 338.796 199.948 338.806 199.948 338.816C199.949 338.826 199.95 338.836 199.95 338.846C199.951 338.856 199.951 338.866 199.952 338.876C199.953 338.886 199.953 338.896 199.953 338.906C199.954 338.916 199.954 338.926 199.955 338.936C199.955 338.946 199.956 338.956 199.956 338.966C199.957 338.976 199.957 338.986 199.958 338.996C199.958 339.006 199.958 339.016 199.959 339.026C199.959 339.036 199.959 339.046 199.959 339.056C199.96 339.066 199.96 339.076 199.96 339.086C199.96 339.096 199.961 339.106 199.961 339.116C199.961 339.126 199.961 339.136 199.961 339.146C199.961 339.156 199.961 339.166 199.962 339.176C199.962 339.186 199.962 339.196 199.962 339.206C199.962 339.216 199.962 339.226 199.962 339.236C199.962 339.246 199.962 339.256 199.962 339.266C199.962 339.276 199.962 339.286 199.962 339.296C199.962 339.306 199.962 339.316 199.961 339.326C199.961 339.336 199.961 339.346 199.961 339.356C199.961 339.366 199.96 339.376 199.96 339.386C199.96 339.396 199.96 339.406 199.959 339.416C199.959 339.426 199.959 339.436 199.958 339.446C199.958 339.456 199.958 339.466 199.957 339.476C199.957 339.486 199.957 339.496 199.956 339.506C199.956 339.516 199.955 339.526 199.955 339.536C199.955 339.546 199.954 339.556 199.953 339.566C199.953 339.576 199.952 339.586 199.952 339.595C199.951 339.606 199.95 339.616 199.95 339.626C199.949 339.636 199.949 339.646 199.948 339.656C199.947 339.665 199.947 339.676 199.946 339.686C199.946 339.695 199.945 339.706 199.944 339.716C199.943 339.725 199.943 339.736 199.942 339.745C199.941 339.755 199.94 339.765 199.939 339.775C199.938 339.785 199.937 339.795 199.937 339.805C199.936 339.815 199.935 339.825 199.934 339.835C199.933 339.845 199.932 339.855 199.931 339.865C199.93 339.875 199.929 339.885 199.928 339.894C199.927 339.905 199.926 339.915 199.925 339.924C199.924 339.934 199.922 339.944 199.921 339.954C199.92 339.964 199.919 339.974 199.918 339.984C199.917 339.994 199.916 340.004 199.915 340.014C199.913 340.024 199.912 340.034 199.911 340.043C199.909 340.053 199.908 340.063 199.907 340.073C199.906 340.083 199.904 340.093 199.903 340.103C199.901 340.113 199.9 340.122 199.899 340.132C199.897 340.142 199.896 340.152 199.894 340.162C199.893 340.171 199.892 340.182 199.89 340.192C199.888 340.202 199.887 340.211 199.886 340.221C199.884 340.23 199.882 340.24 199.881 340.25C199.879 340.26 199.878 340.27 199.876 340.28C199.874 340.289 199.873 340.299 199.871 340.309C199.869 340.319 199.868 340.329 199.866 340.339C199.864 340.349 199.863 340.358 199.861 340.368C199.859 340.378 199.857 340.387 199.855 340.397C199.854 340.407 199.852 340.416 199.85 340.427C199.848 340.436 199.846 340.446 199.844 340.456C199.842 340.466 199.84 340.475 199.838 340.485C199.836 340.495 199.835 340.504 199.832 340.514C199.83 340.524 199.828 340.534 199.826 340.544C199.824 340.553 199.822 340.563 199.82 340.572C199.818 340.582 199.816 340.592 199.814 340.602C199.812 340.611 199.81 340.621 199.807 340.63C199.805 340.64 199.803 340.65 199.801 340.659C199.799 340.669 199.796 340.679 199.794 340.688C199.792 340.698 199.79 340.708 199.787 340.717C199.785 340.727 199.782 340.736 199.78 340.746C199.778 340.756 199.775 340.765 199.773 340.775C199.771 340.784 199.768 340.794 199.766 340.804C199.763 340.813 199.761 340.823 199.758 340.832C199.756 340.842 199.753 340.851 199.751 340.861C199.748 340.87 199.746 340.88 199.743 340.889C199.741 340.899 199.738 340.908 199.735 340.918C199.733 340.928 199.73 340.937 199.727 340.946C199.725 340.956 199.722 340.966 199.719 340.975C199.717 340.984 199.714 340.994 199.711 341.003C199.708 341.013 199.705 341.022 199.703 341.031C199.7 341.041 199.697 341.05 199.694 341.06C199.691 341.069 199.688 341.078 199.685 341.088C199.682 341.097 199.68 341.107 199.677 341.116C199.674 341.125 199.671 341.135 199.668 341.144C199.665 341.153 199.662 341.163 199.659 341.172C199.656 341.181 199.653 341.191 199.65 341.2C199.647 341.209 199.644 341.218 199.64 341.228C199.637 341.237 199.634 341.247 199.631 341.256C199.628 341.265 199.625 341.274 199.621 341.284C199.619 341.293 199.615 341.302 199.612 341.311C199.609 341.321 199.606 341.33 199.602 341.339C199.599 341.348 199.596 341.357 199.592 341.367C199.589 341.376 199.586 341.385 199.582 341.394C199.579 341.403 199.575 341.412 199.572 341.422C199.569 341.431 199.565 341.44 199.562 341.449C199.558 341.458 199.555 341.467 199.551 341.476C199.548 341.485 199.544 341.495 199.541 341.503C199.537 341.512 199.534 341.522 199.53 341.531C199.526 341.54 199.523 341.549 199.519 341.558C199.516 341.567 199.512 341.576 199.508 341.584C199.505 341.594 199.501 341.602 199.497 341.612C199.493 341.621 199.49 341.63 199.486 341.639C199.482 341.647 199.479 341.657 199.475 341.666C199.471 341.674 199.467 341.683 199.463 341.692C199.459 341.701 199.455 341.71 199.451 341.719C199.448 341.727 199.444 341.736 199.44 341.745C199.436 341.754 199.432 341.763 199.428 341.772C199.424 341.781 199.42 341.789 199.416 341.798C199.412 341.807 199.408 341.816 199.404 341.824C199.4 341.833 199.396 341.842 199.392 341.851C199.388 341.86 199.384 341.868 199.38 341.877C199.376 341.885 199.372 341.894 199.367 341.903C199.363 341.912 199.359 341.92 199.355 341.929C199.35 341.938 199.346 341.946 199.342 341.955C199.338 341.963 199.334 341.972 199.329 341.981C199.325 341.989 199.321 341.998 199.316 342.007C199.312 342.015 199.307 342.024 199.303 342.032C199.299 342.041 199.294 342.049 199.29 342.058C199.286 342.066 199.281 342.074 199.277 342.083C199.272 342.092 199.268 342.1 199.264 342.108C199.259 342.117 199.255 342.125 199.25 342.134C199.245 342.143 199.241 342.151 199.236 342.159C199.232 342.167 199.227 342.176 199.223 342.184C199.218 342.193 199.214 342.201 199.209 342.209C199.204 342.217 199.2 342.226 199.195 342.234C199.19 342.242 199.185 342.251 199.18 342.259C199.176 342.267 199.171 342.276 199.166 342.283C199.162 342.292 199.157 342.3 199.152 342.308C199.147 342.316 199.143 342.325 199.138 342.333C199.133 342.341 199.128 342.349 199.123 342.358C199.118 342.365 199.114 342.373 199.108 342.382C199.104 342.389 199.099 342.398 199.094 342.406C199.089 342.414 199.084 342.422 199.079 342.43C199.074 342.438 199.069 342.446 199.064 342.454C199.059 342.462 199.054 342.47 199.049 342.478C199.043 342.486 199.038 342.494 199.033 342.502C199.028 342.51 199.023 342.518 199.018 342.526C199.013 342.534 199.008 342.541 199.003 342.549C198.997 342.557 198.992 342.565 198.987 342.573C198.982 342.581 198.976 342.588 198.971 342.596C198.966 342.604 198.961 342.612 198.956 342.62C198.95 342.627 198.945 342.635 198.94 342.643C198.934 342.65 198.929 342.658 198.924 342.666C198.918 342.674 198.913 342.681 198.908 342.689C198.902 342.697 198.897 342.704 198.891 342.712C198.886 342.72 198.881 342.727 198.875 342.734C198.87 342.742 198.864 342.75 198.858 342.757C198.853 342.765 198.847 342.772 198.842 342.78C198.837 342.787 198.831 342.795 198.825 342.802C198.82 342.81 198.814 342.817 198.809 342.825C198.803 342.832 198.797 342.84 198.792 342.847C198.786 342.855 198.78 342.862 198.775 342.869C198.769 342.876 198.764 342.884 198.758 342.891C198.752 342.898 198.746 342.906 198.741 342.913C198.735 342.92 198.729 342.928 198.723 342.935C198.718 342.942 198.712 342.949 198.706 342.957C198.7 342.964 198.694 342.971 198.688 342.978C198.683 342.985 198.677 342.993 198.671 342.999C198.665 343.006 198.659 343.014 198.653 343.021C198.647 343.028 198.641 343.035 198.635 343.042C198.629 343.049 198.623 343.056 198.618 343.063C198.612 343.07 198.606 343.077 198.6 343.084C198.594 343.091 198.587 343.098 198.582 343.105C198.576 343.112 198.569 343.119 198.563 343.125C198.557 343.132 198.551 343.14 198.545 343.146C198.539 343.153 198.533 343.16 198.527 343.166C198.52 343.174 198.515 343.18 198.508 343.187C198.502 343.194 198.496 343.2 198.49 343.207C198.484 343.214 198.477 343.22 198.471 343.227C198.465 343.234 198.459 343.241 198.452 343.247C198.446 343.254 198.44 343.26 198.433 343.267C198.427 343.273 198.421 343.28 198.415 343.286C198.408 343.293 198.402 343.3 198.395 343.306C198.389 343.313 198.383 343.319 198.376 343.326C198.37 343.332 198.364 343.339 198.357 343.345C198.351 343.351 198.344 343.358 198.338 343.364C198.332 343.371 198.325 343.377 198.319 343.383C198.312 343.39 198.306 343.396 198.299 343.402C198.293 343.409 198.286 343.415 198.28 343.421C198.273 343.427 198.266 343.434 198.26 343.44C198.253 343.446 198.247 343.452 198.241 343.459C198.234 343.465 198.227 343.471 198.22 343.477C198.214 343.483 198.207 343.489 198.201 343.495C198.194 343.501 198.187 343.507 198.181 343.513C198.174 343.519 198.167 343.525 198.161 343.531C198.154 343.537 198.147 343.543 198.14 343.549C198.134 343.555 198.127 343.561 198.12 343.567C198.113 343.573 198.106 343.579 198.1 343.585C198.093 343.59 198.086 343.596 198.079 343.602C198.072 343.608 198.066 343.614 198.059 343.62C198.052 343.625 198.045 343.631 198.038 343.636C198.032 343.642 198.025 343.648 198.018 343.654C198.011 343.659 198.004 343.665 197.997 343.671C197.99 343.676 197.983 343.682 197.976 343.687C197.969 343.693 197.962 343.699 197.955 343.704C197.948 343.71 197.941 343.715 197.934 343.721C197.928 343.726 197.92 343.732 197.913 343.737C197.907 343.743 197.899 343.748 197.892 343.753C197.885 343.759 197.878 343.764 197.871 343.769C197.864 343.775 197.857 343.78 197.85 343.786C197.843 343.791 197.836 343.796 197.828 343.801C197.821 343.807 197.814 343.812 197.807 343.817C197.8 343.822 197.793 343.827 197.786 343.832C197.779 343.838 197.772 343.843 197.764 343.848C197.757 343.853 197.75 343.858 197.742 343.863C197.735 343.868 197.728 343.873 197.721 343.878C197.714 343.883 197.706 343.888 197.699 343.893C197.692 343.898 197.685 343.903 197.677 343.908C197.67 343.913 197.663 343.917 197.655 343.923C197.648 343.927 197.641 343.932 197.633 343.937C197.626 343.942 197.619 343.946 197.611 343.951C197.604 343.956 197.596 343.961 197.589 343.966C197.582 343.97 197.574 343.975 197.567 343.98C197.56 343.984 197.552 343.989 197.545 343.994C197.537 343.998 197.53 344.003 197.522 344.007C197.515 344.012 197.507 344.017 197.5 344.021C197.493 344.026 197.485 344.03 197.478 344.035C197.47 344.039 197.462 344.043 197.455 344.048C197.448 344.052 197.44 344.056 197.433 344.061C197.425 344.065 197.417 344.069 197.41 344.074C197.402 344.078 197.395 344.082 197.387 344.086C197.379 344.091 197.372 344.095 197.365 344.099C197.357 344.103 197.349 344.108 197.342 344.112C197.334 344.116 197.327 344.12 197.319 344.124C197.311 344.129 197.303 344.132 197.296 344.137C197.288 344.141 197.281 344.145 197.273 344.149C197.265 344.153 197.258 344.157 197.25 344.161C197.242 344.165 197.234 344.168 197.227 344.173C197.219 344.177 197.211 344.18 197.204 344.184C197.196 344.188 197.188 344.192 197.181 344.196C197.173 344.2 197.165 344.203 197.157 344.207C197.15 344.211 197.142 344.214 197.134 344.218C197.127 344.222 197.119 344.226 197.111 344.229C197.103 344.233 197.095 344.236 197.087 344.24C197.08 344.244 197.072 344.247 197.064 344.251C197.056 344.255 197.048 344.258 197.04 344.261C197.032 344.264 197.025 344.268 197.017 344.272C197.009 344.275 197.001 344.279 196.993 344.282C196.985 344.285 196.977 344.289 196.969 344.292C196.962 344.294 196.954 344.299 196.946 344.302C196.938 344.305 196.93 344.309 196.922 344.312C196.914 344.315 196.907 344.319 196.899 344.322C196.891 344.325 196.883 344.329 196.875 344.332C196.867 344.335 196.859 344.338 196.851 344.341C196.843 344.344 196.835 344.347 196.827 344.35C196.819 344.352 196.811 344.355 196.803 344.358C196.798 344.36 196.794 344.362 196.789 344.363C196.781 344.366 196.773 344.369 196.765 344.372C196.757 344.375 196.749 344.378 196.741 344.381C196.733 344.384 196.725 344.387 196.717 344.39C196.709 344.393 196.701 344.395 196.693 344.398C196.685 344.401 196.677 344.403 196.669 344.406C196.661 344.409 196.652 344.41 196.645 344.413C196.637 344.416 196.628 344.418 196.62 344.421C196.612 344.424 196.604 344.425 196.596 344.428C196.588 344.431 196.58 344.433 196.572 344.436C196.564 344.439 196.555 344.44 196.547 344.443C196.539 344.446 196.531 344.447 196.523 344.45C196.515 344.453 196.506 344.454 196.498 344.457C196.49 344.459 196.482 344.462 196.474 344.464C196.466 344.465 196.458 344.468 196.45 344.47C196.441 344.472 196.433 344.475 196.425 344.477C196.417 344.478 196.409 344.481 196.4 344.483C196.392 344.484 196.384 344.487 196.376 344.489C196.367 344.49 196.359 344.493 196.351 344.495C196.343 344.496 196.335 344.499 196.326 344.5C196.318 344.502 196.31 344.504 196.302 344.506C196.294 344.507 196.285 344.51 196.277 344.512C196.269 344.513 196.261 344.515 196.252 344.517C196.244 344.518 196.236 344.52 196.228 344.522C196.219 344.524 196.211 344.525 196.203 344.527C196.195 344.529 196.187 344.53 196.178 344.531C196.17 344.533 196.162 344.535 196.153 344.536C196.145 344.537 196.137 344.539 196.128 344.54C196.12 344.542 196.112 344.543 196.104 344.544C196.096 344.546 196.087 344.548 196.079 344.549C196.071 344.55 196.062 344.552 196.054 344.553C196.046 344.554 196.038 344.555 196.029 344.556C196.021 344.558 196.012 344.559 196.004 344.56C195.996 344.562 195.988 344.563 195.98 344.564C195.971 344.565 195.963 344.566 195.954 344.567C195.946 344.568 195.938 344.569 195.929 344.57C195.921 344.571 195.913 344.572 195.905 344.573C195.896 344.574 195.888 344.575 195.88 344.576C195.871 344.577 195.863 344.578 195.855 344.578C195.846 344.579 195.838 344.58 195.83 344.581C195.821 344.582 195.813 344.582 195.804 344.583C195.796 344.584 195.788 344.584 195.779 344.585C195.771 344.586 195.763 344.586 195.755 344.587C195.746 344.588 195.737 344.588 195.729 344.589C195.721 344.589 195.713 344.59 195.704 344.591C195.696 344.591 195.687 344.591 195.679 344.592C195.671 344.592 195.662 344.593 195.654 344.593C195.646 344.594 195.638 344.594 195.629 344.594C195.621 344.594 195.612 344.595 195.604 344.595C195.596 344.596 195.587 344.596 195.579 344.596C195.571 344.596 195.562 344.596 195.554 344.597C195.545 344.597 195.537 344.597 195.529 344.597C195.52 344.597 195.512 344.597 195.504 344.597C195.495 344.597 195.487 344.597 195.479 344.597C195.47 344.597 195.462 344.597 195.454 344.597C195.445 344.597 195.437 344.597 195.428 344.597C195.42 344.597 195.412 344.596 195.403 344.596C195.395 344.597 195.387 344.596 195.378 344.596C195.37 344.596 195.362 344.595 195.353 344.595C195.345 344.595 195.336 344.595 195.328 344.594C195.32 344.594 195.312 344.593 195.303 344.593C195.294 344.593 195.286 344.592 195.278 344.592C195.27 344.591 195.261 344.591 195.253 344.59C195.244 344.59 195.236 344.589 195.228 344.589C195.219 344.588 195.211 344.588 195.203 344.587C195.195 344.587 195.186 344.586 195.178 344.585C195.169 344.584 195.161 344.584 195.153 344.583C195.144 344.582 195.136 344.582 195.128 344.581C195.119 344.58 195.111 344.579 195.103 344.579C195.094 344.578 195.086 344.577 195.078 344.576C195.069 344.575 195.061 344.574 195.053 344.573C195.045 344.572 195.036 344.571 195.028 344.57C195.019 344.569 195.011 344.568 195.003 344.567C194.994 344.566 194.986 344.565 194.978 344.563C194.97 344.562 194.961 344.561 194.953 344.56C194.945 344.559 194.936 344.558 194.928 344.557C194.92 344.555 194.911 344.554 194.903 344.553C194.895 344.551 194.887 344.55 194.878 344.549C194.87 344.548 194.862 344.546 194.853 344.545C194.845 344.543 194.837 344.542 194.829 344.541C194.82 344.539 194.812 344.537 194.804 344.536C194.796 344.534 194.787 344.533 194.779 344.531C194.771 344.53 194.763 344.529 194.754 344.527C194.746 344.525 194.738 344.523 194.729 344.522C194.721 344.52 194.713 344.519 194.705 344.517C194.696 344.515 194.688 344.513 194.68 344.511C194.672 344.51 194.663 344.508 194.655 344.506C194.647 344.504 194.639 344.503 194.63 344.501C194.623 344.499 194.614 344.497 194.606 344.495C194.598 344.493 194.59 344.491 194.582 344.489C194.573 344.487 194.565 344.484 194.557 344.482C194.549 344.48 194.541 344.478 194.532 344.476C194.524 344.474 194.516 344.472 194.508 344.47C194.5 344.468 194.491 344.465 194.484 344.463C194.475 344.461 194.467 344.459 194.459 344.457C194.451 344.454 194.443 344.452 194.435 344.45C194.426 344.447 194.418 344.445 194.41 344.442C194.402 344.44 194.394 344.438 194.386 344.435C194.378 344.433 194.37 344.431 194.361 344.428C194.353 344.426 194.345 344.423 194.337 344.42C194.329 344.418 194.321 344.415 194.313 344.413C194.305 344.41 194.297 344.407 194.288 344.405C194.281 344.402 194.273 344.399 194.264 344.397C194.256 344.394 194.249 344.391 194.24 344.389C194.232 344.386 194.225 344.383 194.216 344.38C194.208 344.377 194.2 344.375 194.192 344.372C194.184 344.369 194.176 344.366 194.168 344.363C194.16 344.36 194.152 344.357 194.144 344.354C194.136 344.351 194.128 344.348 194.12 344.345C194.112 344.342 194.104 344.339 194.096 344.336C194.088 344.333 194.081 344.33 194.073 344.326C194.065 344.323 194.057 344.32 194.049 344.317C194.041 344.314 194.033 344.31 194.025 344.307C194.017 344.304 194.009 344.301 194.001 344.297C193.993 344.294 193.985 344.291 193.978 344.288C193.97 344.284 193.962 344.281 193.954 344.277C193.946 344.274 193.938 344.27 193.93 344.267C193.923 344.264 193.915 344.26 193.907 344.257C193.899 344.253 193.891 344.249 193.883 344.246C193.876 344.242 193.868 344.239 193.86 344.235C193.852 344.231 193.845 344.228 193.837 344.224C193.829 344.221 193.821 344.217 193.814 344.213C193.806 344.209 193.798 344.206 193.79 344.202C193.782 344.198 193.774 344.194 193.767 344.19C193.759 344.187 193.751 344.183 193.744 344.179C193.736 344.175 193.728 344.171 193.721 344.167C193.713 344.163 193.705 344.159 193.698 344.156C193.69 344.151 193.682 344.147 193.674 344.143C193.667 344.14 193.659 344.136 193.652 344.131C193.644 344.127 193.636 344.123 193.629 344.119C193.621 344.115 193.614 344.111 193.606 344.107C193.598 344.102 193.591 344.098 193.583 344.094C193.575 344.089 193.568 344.085 193.56 344.081C193.553 344.077 193.546 344.073 193.538 344.068C193.53 344.064 193.523 344.059 193.515 344.055C193.508 344.051 193.5 344.046 193.493 344.042C193.485 344.037 193.478 344.033 193.47 344.028C193.463 344.024 193.455 344.019 193.448 344.015C193.441 344.01 193.433 344.006 193.426 344.002C193.418 343.997 193.411 343.992 193.403 343.987C193.396 343.983 193.388 343.978 193.381 343.973C193.374 343.969 193.366 343.964 193.359 343.96C193.351 343.954 193.344 343.95 193.337 343.945C193.33 343.94 193.322 343.935 193.315 343.931C193.308 343.926 193.3 343.921 193.293 343.916C193.286 343.911 193.278 343.906 193.271 343.901C193.264 343.896 193.257 343.891 193.249 343.886C193.242 343.881 193.235 343.877 193.228 343.871C193.22 343.866 193.213 343.861 193.206 343.856C193.199 343.851 193.191 343.846 193.184 343.841C193.177 343.836 193.17 343.831 193.163 343.825C193.156 343.82 193.149 343.815 193.141 343.81C193.134 343.804 193.127 343.8 193.12 343.794C193.113 343.789 193.106 343.784 193.099 343.778C193.091 343.773 193.085 343.768 193.078 343.762C193.07 343.757 193.063 343.752 193.056 343.746C193.049 343.741 193.042 343.735 193.035 343.73C193.028 343.724 193.021 343.719 193.014 343.713C193.007 343.708 193 343.702 192.993 343.697C192.986 343.691 192.979 343.686 192.972 343.68C192.966 343.674 192.958 343.669 192.952 343.663C192.945 343.658 192.938 343.652 192.931 343.646C192.924 343.641 192.917 343.635 192.911 343.629C192.904 343.623 192.897 343.617 192.89 343.612C192.883 343.606 192.876 343.6 192.869 343.594C192.863 343.589 192.856 343.583 192.849 343.577C192.842 343.571 192.836 343.565 192.829 343.559C192.822 343.553 192.815 343.547 192.809 343.542C192.802 343.535 192.795 343.529 192.788 343.523C192.782 343.517 192.775 343.511 192.769 343.505C192.762 343.499 192.756 343.493 192.749 343.487C192.742 343.481 192.736 343.475 192.729 343.469C192.722 343.462 192.715 343.456 192.709 343.45C192.702 343.444 192.696 343.438 192.689 343.432C192.683 343.425 192.676 343.419 192.67 343.413C192.663 343.407 192.657 343.4 192.65 343.394C192.644 343.388 192.637 343.381 192.631 343.375C192.624 343.368 192.618 343.362 192.612 343.356C192.605 343.35 192.599 343.343 192.592 343.337C192.586 343.33 192.58 343.324 192.573 343.317C192.567 343.311 192.56 343.304 192.554 343.297C192.548 343.291 192.542 343.285 192.535 343.278C192.529 343.271 192.523 343.265 192.516 343.258C192.51 343.252 192.504 343.245 192.498 343.238C192.491 343.232 192.485 343.225 192.479 343.218C192.472 343.211 192.467 343.205 192.46 343.198C192.454 343.191 192.448 343.184 192.441 343.178C192.436 343.171 192.429 343.164 192.423 343.157C192.417 343.15 192.411 343.144 192.405 343.137C192.399 343.13 192.393 343.123 192.387 343.116C192.381 343.109 192.375 343.102 192.369 343.095C192.363 343.089 192.357 343.081 192.351 343.075C192.345 343.067 192.339 343.06 192.333 343.053C192.327 343.046 192.321 343.039 192.315 343.032C192.309 343.025 192.303 343.018 192.297 343.011C192.291 343.004 192.286 342.997 192.28 342.99C192.274 342.982 192.268 342.975 192.262 342.968C192.256 342.961 192.25 342.954 192.245 342.947C192.239 342.94 192.233 342.932 192.227 342.925C192.221 342.917 192.216 342.91 192.21 342.903C192.204 342.896 192.199 342.889 192.193 342.881C192.187 342.873 192.182 342.867 192.176 342.859C192.17 342.852 192.165 342.844 192.159 342.837C192.153 342.829 192.148 342.822 192.142 342.815C192.137 342.807 192.131 342.799 192.126 342.792C192.12 342.785 192.114 342.777 192.109 342.77C192.104 342.762 192.098 342.754 192.093 342.747C192.087 342.739 192.082 342.732 192.076 342.724C192.071 342.717 192.065 342.709 192.06 342.702C192.055 342.694 192.049 342.686 192.044 342.678C192.038 342.671 192.033 342.663 192.028 342.655C192.023 342.647 192.017 342.64 192.012 342.632C192.006 342.625 192.001 342.617 191.996 342.609C191.991 342.601 191.985 342.593 191.98 342.586C191.975 342.578 191.97 342.57 191.965 342.562C191.959 342.554 191.954 342.547 191.949 342.538C191.944 342.531 191.939 342.522 191.934 342.515C191.928 342.507 191.923 342.499 191.918 342.491C191.913 342.483 191.908 342.475 191.903 342.467C191.898 342.459 191.893 342.451 191.888 342.443C191.883 342.435 191.878 342.427 191.873 342.419C191.868 342.411 191.863 342.403 191.858 342.395C191.853 342.386 191.848 342.378 191.844 342.37C191.839 342.362 191.834 342.354 191.829 342.346C191.824 342.338 191.819 342.329 191.815 342.322C191.81 342.313 191.805 342.305 191.8 342.297C191.795 342.289 191.791 342.281 191.786 342.272C191.781 342.264 191.776 342.256 191.772 342.247C191.767 342.239 191.762 342.231 191.758 342.222C191.753 342.214 191.748 342.206 191.744 342.198C191.739 342.189 191.735 342.181 191.73 342.172C191.725 342.164 191.721 342.156 191.716 342.147C191.712 342.139 191.707 342.13 191.703 342.122C191.698 342.114 191.694 342.105 191.689 342.097C191.685 342.088 191.681 342.08 191.676 342.071C191.672 342.063 191.667 342.054 191.663 342.046C191.659 342.037 191.654 342.029 191.65 342.02C191.645 342.012 191.641 342.003 191.637 341.995C191.632 341.986 191.628 341.977 191.624 341.969C191.619 341.96 191.615 341.951 191.611 341.943C191.607 341.934 191.603 341.925 191.598 341.917C191.594 341.908 191.59 341.9 191.586 341.891C191.582 341.882 191.578 341.873 191.574 341.865C191.569 341.856 191.565 341.847 191.561 341.838C191.557 341.83 191.553 341.821 191.549 341.812C191.546 341.804 191.541 341.795 191.537 341.786C191.533 341.777 191.529 341.768 191.526 341.759C191.522 341.751 191.518 341.741 191.514 341.733C191.51 341.724 191.506 341.715 191.502 341.707C191.498 341.698 191.494 341.689 191.491 341.68C191.487 341.671 191.483 341.662 191.479 341.653C191.475 341.644 191.471 341.635 191.468 341.626C191.464 341.617 191.46 341.608 191.457 341.599C191.453 341.59 191.449 341.581 191.446 341.572C191.442 341.563 191.438 341.554 191.435 341.545C191.431 341.536 191.428 341.527 191.424 341.518C191.421 341.509 191.417 341.5 191.414 341.491C191.41 341.482 191.406 341.473 191.403 341.463C191.4 341.454 191.396 341.445 191.393 341.436C191.389 341.427 191.386 341.418 191.383 341.409C191.379 341.399 191.376 341.39 191.372 341.382C191.369 341.372 191.366 341.363 191.362 341.354C191.359 341.345 191.356 341.336 191.353 341.326C191.35 341.317 191.346 341.308 191.343 341.299C191.34 341.289 191.336 341.28 191.333 341.271C191.33 341.261 191.327 341.253 191.324 341.243C191.321 341.234 191.318 341.224 191.315 341.215C191.311 341.206 191.309 341.196 191.305 341.187C191.303 341.178 191.299 341.169 191.296 341.159C191.293 341.149 191.29 341.141 191.287 341.131C191.284 341.122 191.282 341.112 191.278 341.103C191.276 341.094 191.273 341.084 191.27 341.075C191.267 341.066 191.264 341.056 191.261 341.046C191.258 341.037 191.256 341.028 191.253 341.018C191.25 341.009 191.247 340.999 191.245 340.99C191.242 340.981 191.239 340.971 191.237 340.962C191.234 340.952 191.231 340.942 191.228 340.933C191.226 340.924 191.223 340.914 191.221 340.905C191.218 340.895 191.216 340.886 191.213 340.876C191.21 340.866 191.208 340.857 191.205 340.847C191.203 340.838 191.2 340.828 191.198 340.819C191.196 340.814 191.195 340.808 191.193 340.802C191.191 340.793 191.189 340.783 191.186 340.774C191.184 340.764 191.181 340.755 191.179 340.745C191.177 340.735 191.174 340.726 191.172 340.716C191.17 340.706 191.168 340.697 191.165 340.687C191.163 340.678 191.161 340.668 191.159 340.658C191.156 340.648 191.154 340.639 191.152 340.629C191.15 340.619 191.148 340.61 191.146 340.6C191.144 340.591 191.142 340.581 191.139 340.571C191.137 340.561 191.135 340.552 191.133 340.542C191.131 340.532 191.129 340.523 191.127 340.513C191.125 340.503 191.123 340.494 191.121 340.484C191.119 340.474 191.117 340.464 191.115 340.454C191.113 340.445 191.112 340.435 191.11 340.425C191.108 340.415 191.106 340.406 191.104 340.396C191.103 340.386 191.101 340.377 191.099 340.367C191.097 340.357 191.096 340.347 191.093 340.338C191.092 340.327 191.09 340.318 191.088 340.308C191.087 340.298 191.085 340.289 191.084 340.278C191.082 340.268 191.08 340.259 191.079 340.249C191.077 340.239 191.076 340.229 191.074 340.219C191.072 340.21 191.071 340.2 191.069 340.19C191.068 340.18 191.067 340.171 191.065 340.16C191.064 340.151 191.062 340.141 191.061 340.131C191.06 340.121 191.058 340.111 191.057 340.101C191.055 340.091 191.054 340.082 191.053 340.072C191.052 340.062 191.05 340.052 191.049 340.042C191.048 340.032 191.046 340.022 191.045 340.013C191.044 340.003 191.043 339.993 191.042 339.983C191.04 339.973 191.039 339.963 191.038 339.953C191.037 339.943 191.036 339.933 191.035 339.923C191.034 339.913 191.033 339.903 191.032 339.893C191.031 339.884 191.03 339.873 191.029 339.864C191.028 339.853 191.027 339.843 191.026 339.834C191.025 339.824 191.024 339.814 191.024 339.804C191.023 339.794 191.022 339.784 191.021 339.774C191.02 339.764 191.019 339.754 191.018 339.744C191.017 339.734 191.017 339.724 191.016 339.714C191.015 339.704 191.015 339.694 191.014 339.684C191.013 339.675 191.012 339.665 191.012 339.654C191.011 339.644 191.01 339.635 191.01 339.624C191.009 339.615 191.009 339.605 191.008 339.595C191.008 339.585 191.007 339.575 191.007 339.565C191.006 339.554 191.006 339.545 191.005 339.535C191.005 339.525 191.004 339.514 191.004 339.505C191.003 339.495 191.003 339.485 191.003 339.475C191.002 339.465 191.002 339.455 191.001 339.445C191.001 339.435 191.001 339.425 191.001 339.415C191 339.405 191 339.395 191 339.385C191 339.375 191 339.365 190.999 339.355C190.999 339.345 190.999 339.335 190.999 339.325C190.999 339.314 190.999 339.305 190.998 339.295C190.998 339.284 190.998 339.275 190.998 339.265C190.998 339.255 190.998 339.245 190.998 339.234C190.998 339.225 190.998 339.215 190.998 339.205C190.998 339.194 190.998 339.185 190.999 339.174C190.999 339.164 190.998 339.155 190.999 339.145C190.999 339.135 190.999 339.125 190.999 339.115C190.999 339.105 191 339.095 191 339.085C191 339.074 191 339.065 191.001 339.055C191.001 339.045 191.001 339.035 191.002 339.024C191.002 339.015 191.002 339.005 191.003 338.995C191.003 338.985 191.003 338.975 191.004 338.964C191.004 338.954 191.005 338.944 191.005 338.935C191.006 338.925 191.006 338.915 191.007 338.904C191.007 338.895 191.008 338.885 191.008 338.875C191.009 338.865 191.01 338.854 191.01 338.845C191.011 338.835 191.012 338.825 191.012 338.815C191.013 338.805 191.014 338.795 191.014 338.785C191.015 338.775 191.015 338.765 191.016 338.755C191.017 338.745 191.018 338.735 191.018 338.725C191.019 338.715 191.02 338.705 191.021 338.695C191.022 338.685 191.023 338.675 191.023 338.665C191.025 338.655 191.025 338.646 191.026 338.635C191.027 338.626 191.028 338.616 191.029 338.606C191.03 338.596 191.031 338.586 191.032 338.576C191.033 338.566 191.034 338.556 191.036 338.546C191.036 338.536 191.038 338.526 191.039 338.516C191.04 338.506 191.041 338.497 191.042 338.487C191.043 338.477 191.044 338.467 191.046 338.457C191.047 338.447 191.048 338.437 191.05 338.427C191.051 338.417 191.052 338.408 191.053 338.398C191.054 338.388 191.056 338.378 191.057 338.368C191.059 338.358 191.06 338.348 191.062 338.338C191.063 338.328 191.064 338.319 191.066 338.308C191.067 338.299 191.069 338.289 191.07 338.279C191.071 338.269 191.073 338.26 191.075 338.25C191.076 338.24 191.078 338.23 191.08 338.22C191.081 338.21 191.083 338.201 191.084 338.191C191.086 338.181 191.087 338.171 191.089 338.161C191.091 338.152 191.093 338.142 191.094 338.132C191.096 338.122 191.098 338.113 191.1 338.102C191.101 338.093 191.103 338.083 191.105 338.073C191.107 338.064 191.109 338.054 191.11 338.044C191.112 338.035 191.114 338.024 191.116 338.015C191.118 338.005 191.12 337.995 191.122 337.985C191.124 337.976 191.126 337.966 191.128 337.956C191.13 337.946 191.132 337.937 191.134 337.927C191.136 337.918 191.138 337.908 191.14 337.898C191.142 337.888 191.144 337.879 191.146 337.869C191.148 337.859 191.151 337.85 191.153 337.84C191.155 337.831 191.157 337.82 191.159 337.811C191.161 337.802 191.164 337.792 191.166 337.782C191.169 337.773 191.171 337.763 191.173 337.753C191.175 337.744 191.178 337.734 191.18 337.725C191.182 337.715 191.185 337.705 191.187 337.696C191.19 337.686 191.192 337.676 191.195 337.667C191.197 337.657 191.2 337.648 191.202 337.638C191.204 337.629 191.207 337.62 191.209 337.61C191.212 337.6 191.214 337.591 191.217 337.581C191.219 337.571 191.222 337.562 191.225 337.553C191.228 337.543 191.23 337.534 191.233 337.524C191.236 337.514 191.238 337.505 191.241 337.496C191.244 337.486 191.247 337.477 191.249 337.467C191.252 337.458 191.255 337.449 191.257 337.439C191.26 337.43 191.263 337.42 191.266 337.411C191.269 337.401 191.272 337.392 191.275 337.382C191.277 337.373 191.28 337.364 191.283 337.354C191.286 337.345 191.289 337.335 191.292 337.326C191.295 337.317 191.298 337.307 191.301 337.298C191.304 337.289 191.307 337.28 191.31 337.27C191.313 337.261 191.317 337.252 191.32 337.243C191.323 337.233 191.326 337.224 191.329 337.215C191.332 337.205 191.335 337.196 191.339 337.187C191.342 337.178 191.345 337.168 191.348 337.159C191.352 337.15 191.355 337.141 191.358 337.132C191.361 337.122 191.365 337.113 191.368 337.104C191.371 337.095 191.375 337.086 191.378 337.077C191.381 337.067 191.385 337.058 191.388 337.049C191.392 337.04 191.395 337.031 191.398 337.022C191.402 337.013 191.405 337.003 191.409 336.994C191.412 336.985 191.416 336.976 191.42 336.967C191.423 336.958 191.427 336.949 191.43 336.94C191.433 336.931 191.437 336.922 191.441 336.913C191.444 336.904 191.448 336.895 191.452 336.886C191.455 336.877 191.459 336.868 191.463 336.859C191.467 336.85 191.471 336.841 191.474 336.832C191.478 336.823 191.481 336.814 191.485 336.805C191.489 336.796 191.493 336.788 191.497 336.779C191.501 336.77 191.505 336.76 191.508 336.752C191.512 336.743 191.516 336.734 191.52 336.725C191.524 336.716 191.528 336.707 191.532 336.699C191.536 336.69 191.54 336.681 191.544 336.672C191.548 336.664 191.552 336.655 191.556 336.646C191.56 336.637 191.564 336.628 191.568 336.62C191.572 336.611 191.577 336.603 191.58 336.594C191.584 336.585 191.588 336.576 191.593 336.567C191.597 336.559 191.601 336.55 191.605 336.541C191.61 336.533 191.614 336.525 191.618 336.516C191.622 336.507 191.627 336.499 191.631 336.49C191.635 336.481 191.639 336.473 191.644 336.464C191.648 336.456 191.652 336.447 191.657 336.438C191.661 336.43 191.666 336.421 191.67 336.413C191.674 336.404 191.679 336.396 191.683 336.388C191.688 336.379 191.692 336.371 191.696 336.362C191.701 336.354 191.705 336.345 191.71 336.337C191.715 336.328 191.719 336.32 191.724 336.311C191.728 336.303 191.733 336.295 191.738 336.287C191.742 336.278 191.747 336.27 191.751 336.261C191.756 336.253 191.761 336.245 191.765 336.236C191.77 336.228 191.775 336.22 191.779 336.212C191.784 336.203 191.789 336.195 191.793 336.187C191.798 336.178 191.803 336.171 191.808 336.162C191.813 336.154 191.818 336.146 191.822 336.138C191.827 336.13 191.832 336.121 191.837 336.113C191.842 336.105 191.847 336.097 191.852 336.089C191.856 336.081 191.861 336.073 191.866 336.065C191.871 336.056 191.876 336.048 191.881 336.04C191.886 336.032 191.891 336.024 191.896 336.016C191.901 336.008 191.906 336.001 191.911 335.992C191.916 335.985 191.922 335.977 191.927 335.969C191.932 335.961 191.937 335.953 191.942 335.945C191.947 335.937 191.952 335.929 191.957 335.922C191.963 335.913 191.968 335.905 191.973 335.898C191.978 335.89 191.983 335.882 191.989 335.874C191.994 335.867 191.999 335.859 192.004 335.851C192.01 335.843 192.015 335.836 192.02 335.828C192.026 335.82 192.031 335.812 192.036 335.805C192.042 335.797 192.047 335.789 192.052 335.781C192.058 335.774 192.064 335.766 192.069 335.759C192.074 335.751 192.08 335.744 192.085 335.736C192.091 335.728 192.096 335.721 192.102 335.713C192.107 335.706 192.112 335.699 192.118 335.691C192.124 335.683 192.129 335.675 192.135 335.668C192.14 335.661 192.146 335.653 192.152 335.646C192.157 335.639 192.163 335.631 192.168 335.624C192.174 335.616 192.18 335.609 192.185 335.602C192.191 335.594 192.196 335.587 192.203 335.579C192.208 335.572 192.214 335.565 192.22 335.557C192.225 335.55 192.231 335.543 192.237 335.536C192.243 335.529 192.249 335.521 192.254 335.514C192.26 335.507 192.266 335.5 192.272 335.493C192.277 335.485 192.283 335.478 192.289 335.471C192.295 335.464 192.301 335.457 192.307 335.45C192.313 335.443 192.319 335.435 192.325 335.428C192.331 335.422 192.336 335.415 192.342 335.407C192.348 335.4 192.355 335.394 192.36 335.387C192.366 335.379 192.372 335.373 192.379 335.366C192.385 335.359 192.391 335.352 192.397 335.345C192.403 335.338 192.409 335.332 192.415 335.325C192.421 335.318 192.427 335.311 192.433 335.304C192.44 335.297 192.446 335.29 192.452 335.283C192.458 335.277 192.464 335.27 192.47 335.264C192.477 335.257 192.483 335.25 192.489 335.243C192.495 335.237 192.501 335.23 192.508 335.223C192.514 335.217 192.52 335.21 192.526 335.204C192.533 335.197 192.539 335.19 192.546 335.184C192.552 335.177 192.558 335.171 192.565 335.164C192.571 335.158 192.577 335.151 192.584 335.145C192.59 335.138 192.596 335.132 192.603 335.126C192.609 335.119 192.616 335.112 192.622 335.106C192.629 335.1 192.635 335.093 192.642 335.087C192.648 335.081 192.654 335.075 192.661 335.068C192.667 335.062 192.674 335.056 192.68 335.05C192.687 335.043 192.694 335.037 192.7 335.031C192.707 335.024 192.713 335.018 192.72 335.012C192.726 335.006 192.733 335 192.74 334.993C192.746 334.987 192.753 334.982 192.76 334.976C192.766 334.969 192.773 334.963 192.779 334.958C192.786 334.952 192.793 334.945 192.8 334.939C192.806 334.933 192.813 334.927 192.82 334.921C192.827 334.916 192.833 334.91 192.84 334.904C192.847 334.898 192.854 334.892 192.86 334.886C192.867 334.88 192.874 334.874 192.881 334.868C192.888 334.863 192.895 334.857 192.901 334.851C192.908 334.845 192.915 334.839 192.922 334.834C192.929 334.828 192.935 334.822 192.942 334.817C192.949 334.811 192.956 334.805 192.963 334.8C192.97 334.794 192.977 334.789 192.984 334.783C192.991 334.778 192.998 334.772 193.005 334.767C193.012 334.761 193.019 334.755 193.026 334.75C193.033 334.745 193.04 334.739 193.047 334.734C193.054 334.728 193.061 334.723 193.068 334.717C193.075 334.712 193.082 334.706 193.089 334.701C193.096 334.696 193.103 334.691 193.11 334.685C193.117 334.68 193.124 334.674 193.132 334.669C193.139 334.664 193.146 334.659 193.153 334.654C193.16 334.648 193.167 334.643 193.175 334.638C193.182 334.633 193.189 334.628 193.196 334.623C193.203 334.617 193.21 334.612 193.218 334.607C193.225 334.602 193.232 334.597 193.239 334.592C193.247 334.587 193.254 334.582 193.261 334.577C193.268 334.572 193.275 334.567 193.283 334.563C193.29 334.558 193.297 334.553 193.305 334.548C193.312 334.543 193.319 334.538 193.327 334.533C193.334 334.528 193.341 334.524 193.349 334.519C193.356 334.514 193.363 334.509 193.371 334.505C193.378 334.5 193.386 334.495 193.393 334.491C193.4 334.486 193.408 334.481 193.415 334.477C193.423 334.472 193.43 334.468 193.438 334.463C193.445 334.458 193.453 334.454 193.46 334.449C193.468 334.445 193.475 334.44 193.483 334.436C193.49 334.431 193.498 334.427 193.505 334.423C193.513 334.418 193.52 334.414 193.528 334.41C193.535 334.406 193.543 334.401 193.55 334.397C193.558 334.392 193.565 334.388 193.573 334.384C193.58 334.379 193.588 334.375 193.596 334.371C193.603 334.367 193.611 334.363 193.618 334.358C193.626 334.354 193.634 334.35 193.641 334.346C193.649 334.342 193.657 334.338 193.664 334.334C193.672 334.329 193.68 334.326 193.687 334.322C193.694 334.318 193.703 334.314 193.71 334.31C193.718 334.306 193.726 334.302 193.733 334.298C193.741 334.294 193.749 334.29 193.756 334.286C193.764 334.282 193.772 334.278 193.78 334.275C193.787 334.271 193.795 334.267 193.803 334.264C193.81 334.259 193.818 334.256 193.826 334.252C193.834 334.248 193.842 334.245 193.849 334.241C193.857 334.237 193.865 334.234 193.873 334.23C193.88 334.226 193.889 334.223 193.896 334.22C193.904 334.215 193.912 334.212 193.92 334.209C193.928 334.206 193.935 334.202 193.943 334.199C193.951 334.196 193.959 334.192 193.967 334.189C193.975 334.186 193.983 334.182 193.991 334.179C193.999 334.176 194.006 334.172 194.014 334.169C194.022 334.166 194.03 334.161 194.038 334.159C194.046 334.155 194.054 334.152 194.062 334.149C194.07 334.146 194.077 334.142 194.085 334.139C194.093 334.135 194.101 334.132 194.109 334.13C194.117 334.126 194.125 334.124 194.133 334.121C194.141 334.118 194.149 334.115 194.157 334.112C194.162 334.111 194.167 334.109 194.171 334.107C194.179 334.104 194.187 334.101 194.195 334.099C194.203 334.095 194.211 334.092 194.219 334.09C194.227 334.086 194.235 334.083 194.243 334.081C194.251 334.078 194.259 334.075 194.267 334.072C194.275 334.069 194.283 334.068 194.291 334.065C194.299 334.062 194.308 334.06 194.316 334.057C194.323 334.054 194.332 334.052 194.34 334.05C194.348 334.047 194.356 334.045 194.364 334.042C194.372 334.039 194.381 334.038 194.389 334.035C194.396 334.032 194.405 334.03 194.413 334.027C194.421 334.024 194.429 334.023 194.437 334.02C194.445 334.017 194.454 334.016 194.462 334.013C194.47 334.012 194.478 334.009 194.486 334.007C194.494 334.005 194.502 334.003 194.511 334.001C194.519 333.999 194.527 333.996 194.535 333.994C194.544 333.992 194.551 333.99 194.56 333.988C194.568 333.986 194.576 333.983 194.584 333.981C194.593 333.98 194.601 333.978 194.609 333.976C194.617 333.974 194.625 333.972 194.634 333.97C194.642 333.968 194.65 333.966 194.658 333.964C194.667 333.963 194.675 333.961 194.683 333.959C194.691 333.957 194.699 333.955 194.708 333.954C194.716 333.952 194.724 333.95 194.732 333.949C194.74 333.947 194.749 333.945 194.757 333.944C194.765 333.942 194.773 333.941 194.782 333.939C194.79 333.937 194.798 333.936 194.807 333.934C194.815 333.932 194.823 333.931 194.832 333.93C194.839 333.928 194.848 333.927 194.856 333.926C194.865 333.924 194.873 333.923 194.881 333.922C194.89 333.92 194.898 333.919 194.906 333.917C194.914 333.916 194.923 333.915 194.931 333.914C194.939 333.913 194.947 333.911 194.956 333.91C194.964 333.909 194.972 333.907 194.981 333.906C194.989 333.905 194.997 333.904 195.006 333.903C195.014 333.902 195.022 333.901 195.031 333.9C195.039 333.899 195.047 333.898 195.056 333.897C195.064 333.896 195.072 333.895 195.081 333.895C195.089 333.894 195.097 333.893 195.106 333.892C195.114 333.891 195.122 333.89 195.131 333.89C195.139 333.889 195.147 333.888 195.156 333.888C195.164 333.886 195.172 333.886 195.181 333.885C195.189 333.884 195.197 333.884 195.206 333.883C195.214 333.883 195.222 333.882 195.231 333.881C195.239 333.881 195.247 333.88 195.256 333.88C195.264 333.88 195.272 333.879 195.281 333.878C195.289 333.878 195.298 333.877 195.306 333.877C195.314 333.877 195.323 333.877 195.331 333.876C195.339 333.876 195.348 333.876 195.356 333.875C195.364 333.875 195.373 333.875 195.381 333.874C195.39 333.874 195.398 333.874 195.406 333.874C195.415 333.874 195.423 333.874 195.432 333.873C195.44 333.873 195.448 333.873 195.456 333.873C195.465 333.873 195.473 333.873 195.482 333.873C195.49 333.873 195.498 333.873 195.506 333.873C195.515 333.873 195.523 333.873 195.532 333.873C195.54 333.873 195.548 333.874 195.557 333.874C195.565 333.874 195.574 333.874 195.582 333.874C195.59 333.875 195.599 333.875 195.607 333.875C195.615 333.876 195.624 333.876 195.632 333.876C195.641 333.877 195.649 333.877 195.657 333.878C195.665 333.878 195.674 333.878 195.682 333.879C195.691 333.879 195.699 333.88 195.707 333.88C195.716 333.88 195.724 333.881 195.733 333.882C195.741 333.882 195.749 333.883 195.757 333.884C195.766 333.884 195.774 333.884 195.782 333.885C195.791 333.886 195.799 333.887 195.807 333.887C195.816 333.888 195.824 333.889 195.832 333.89C195.841 333.89 195.849 333.891 195.857 333.892C195.866 333.893 195.874 333.894 195.882 333.895C195.891 333.896 195.899 333.897 195.908 333.898C195.916 333.899 195.924 333.899 195.932 333.9C195.94 333.901 195.949 333.903 195.958 333.904C195.966 333.905 195.974 333.905 195.982 333.907C195.99 333.908 195.999 333.909 196.007 333.911C196.015 333.912 196.024 333.912 196.032 333.914C196.04 333.915 196.049 333.917 196.057 333.918C196.065 333.919 196.074 333.921 196.082 333.922C196.09 333.923 196.099 333.924 196.107 333.926C196.115 333.927 196.123 333.929 196.132 333.93C196.14 333.932 196.148 333.933 196.156 333.934C196.164 333.936 196.173 333.937 196.181 333.939C196.189 333.941 196.198 333.942 196.206 333.944C196.214 333.945 196.222 333.947 196.231 333.949C196.239 333.951 196.247 333.952 196.256 333.954C196.263 333.956 196.272 333.958 196.28 333.959C196.288 333.961 196.297 333.963 196.305 333.965C196.313 333.966 196.321 333.968 196.329 333.97C196.338 333.972 196.346 333.974 196.354 333.976C196.362 333.978 196.37 333.98 196.379 333.982C196.387 333.984 196.395 333.986 196.403 333.988C196.411 333.99 196.42 333.992 196.428 333.994C196.436 333.996 196.444 333.999 196.452 334.001C196.461 334.003 196.469 334.005 196.477 334.007C196.485 334.009 196.493 334.012 196.501 334.014C196.51 334.016 196.518 334.019 196.526 334.021C196.534 334.023 196.542 334.026 196.55 334.028C196.558 334.03 196.566 334.033 196.574 334.035C196.582 334.038 196.591 334.04 196.599 334.043C196.607 334.045 196.615 334.048 196.623 334.05C196.631 334.053 196.639 334.056 196.647 334.058C196.655 334.06 196.663 334.063 196.672 334.066C196.679 334.069 196.687 334.071 196.696 334.074C196.704 334.076 196.712 334.08 196.72 334.082C196.728 334.085 196.736 334.088 196.744 334.091C196.752 334.094 196.76 334.096 196.768 334.099C196.776 334.102 196.784 334.105 196.792 334.108C196.8 334.111 196.808 334.114 196.816 334.117C196.824 334.12 196.832 334.123 196.84 334.125C196.848 334.129 196.856 334.132 196.864 334.135C196.872 334.138 196.88 334.141 196.888 334.145C196.896 334.147 196.904 334.151 196.911 334.154C196.919 334.157 196.927 334.16 196.935 334.163C196.943 334.167 196.951 334.17 196.959 334.173C196.967 334.176 196.975 334.18 196.982 334.183C196.991 334.187 196.998 334.19 197.006 334.193C197.014 334.197 197.022 334.2 197.03 334.203C197.038 334.207 197.046 334.211 197.053 334.214C197.061 334.218 197.069 334.221 197.076 334.225C197.085 334.229 197.092 334.232 197.1 334.236C197.108 334.239 197.116 334.242 197.123 334.246C197.131 334.25 197.139 334.254 197.147 334.257C197.155 334.261 197.162 334.265 197.17 334.269C197.178 334.273 197.186 334.276 197.193 334.28C197.201 334.284 197.209 334.288 197.217 334.292C197.224 334.295 197.232 334.299 197.239 334.303C197.247 334.307 197.255 334.311 197.262 334.315C197.27 334.319 197.278 334.323 197.286 334.327C197.293 334.331 197.301 334.336 197.309 334.339C197.316 334.344 197.324 334.348 197.332 334.352C197.339 334.356 197.347 334.36 197.354 334.364C197.362 334.368 197.369 334.373 197.377 334.377C197.385 334.381 197.392 334.385 197.4 334.39C197.407 334.394 197.415 334.398 197.422 334.403C197.43 334.407 197.437 334.411 197.445 334.416C197.453 334.42 197.46 334.424 197.467 334.429C197.475 334.433 197.482 334.438 197.49 334.442C197.497 334.447 197.505 334.451 197.512 334.456C197.52 334.46 197.527 334.465 197.535 334.469C197.542 334.474 197.549 334.479 197.557 334.483C197.564 334.488 197.572 334.493 197.579 334.497C197.586 334.502 197.594 334.506 197.601 334.511C197.608 334.516 197.616 334.521 197.623 334.525C197.631 334.531 197.638 334.535 197.645 334.54C197.653 334.545 197.66 334.55 197.667 334.554C197.675 334.56 197.682 334.564 197.689 334.57C197.696 334.574 197.704 334.579 197.711 334.584C197.718 334.589 197.725 334.594 197.733 334.599C197.74 334.604 197.747 334.609 197.754 334.614C197.761 334.619 197.768 334.624 197.776 334.629C197.783 334.635 197.79 334.64 197.797 334.645C197.804 334.65 197.812 334.656 197.819 334.661C197.826 334.666 197.833 334.671 197.84 334.676C197.847 334.682 197.854 334.687 197.862 334.692C197.869 334.698 197.875 334.703 197.883 334.708C197.89 334.714 197.897 334.719 197.904 334.724C197.911 334.73 197.918 334.735 197.925 334.741C197.932 334.746 197.939 334.752 197.946 334.757C197.953 334.763 197.96 334.768 197.967 334.774C197.974 334.779 197.981 334.785 197.988 334.79C197.994 334.796 198.001 334.802 198.009 334.807C198.015 334.813 198.022 334.819 198.029 334.824C198.036 334.83 198.043 334.836 198.049 334.842C198.057 334.847 198.064 334.853 198.07 334.859C198.077 334.865 198.084 334.871 198.091 334.876C198.097 334.882 198.104 334.888 198.111 334.894C198.118 334.9 198.125 334.906 198.131 334.912C198.138 334.917 198.145 334.923 198.151 334.929C198.158 334.935 198.165 334.941 198.172 334.947C198.178 334.953 198.185 334.959 198.192 334.965C198.198 334.971 198.205 334.977 198.212 334.983C198.218 334.99 198.225 334.996 198.232 335.002C198.238 335.008 198.245 335.014 198.251 335.02C198.258 335.026 198.264 335.033 198.271 335.039C198.277 335.045 198.284 335.051 198.291 335.058C198.297 335.064 198.303 335.07 198.31 335.077C198.316 335.083 198.323 335.089 198.329 335.096C198.336 335.102 198.342 335.108 198.349 335.115C198.355 335.121 198.361 335.128 198.368 335.134C198.374 335.14 198.381 335.147 198.387 335.153C198.393 335.16 198.4 335.167 198.406 335.173C198.412 335.18 198.419 335.186 198.425 335.192C198.431 335.199 198.438 335.206 198.444 335.212C198.45 335.219 198.456 335.226 198.463 335.232C198.469 335.239 198.475 335.246 198.481 335.253C198.488 335.259 198.494 335.266 198.5 335.273C198.506 335.279 198.512 335.286 198.519 335.293C198.525 335.3 198.531 335.306 198.537 335.313C198.543 335.32 198.549 335.327 198.555 335.334C198.561 335.34 198.567 335.348 198.573 335.354C198.58 335.361 198.585 335.368 198.591 335.375C198.598 335.382 198.603 335.389 198.609 335.396C198.616 335.403 198.621 335.41 198.627 335.417C198.633 335.424 198.639 335.431 198.645 335.438C198.651 335.445 198.657 335.452 198.663 335.46C198.669 335.467 198.675 335.474 198.681 335.481C198.687 335.488 198.692 335.495 198.698 335.502C198.704 335.51 198.71 335.517 198.716 335.524C198.721 335.531 198.727 335.539 198.733 335.546C198.739 335.553 198.744 335.56 198.75 335.567C198.756 335.575 198.761 335.582 198.767 335.589C198.773 335.597 198.779 335.604 198.784 335.611C198.79 335.619 198.795 335.626 198.801 335.634C198.807 335.641 198.812 335.649 198.818 335.656C198.823 335.664 198.829 335.671 198.834 335.678C198.84 335.686 198.846 335.693 198.851 335.701C198.857 335.709 198.862 335.716 198.867 335.724C198.873 335.731 198.878 335.739 198.884 335.746C198.889 335.754 198.895 335.762 198.9 335.769C198.905 335.777 198.911 335.784 198.916 335.792C198.922 335.8 198.927 335.808 198.932 335.815C198.938 335.823 198.943 335.831 198.949 335.839C198.954 335.846 198.959 335.854 198.964 335.862C198.97 335.869 198.975 335.877 198.98 335.885C198.985 335.893 198.99 335.901 198.995 335.909C199.001 335.917 199.006 335.924 199.011 335.932C199.016 335.94 199.022 335.948 199.026 335.956C199.031 335.964 199.037 335.972 199.042 335.98C199.047 335.988 199.052 335.995 199.057 336.004C199.062 336.012 199.067 336.02 199.072 336.027C199.077 336.035 199.082 336.044 199.087 336.052C199.092 336.06 199.097 336.068 199.102 336.076C199.106 336.084 199.112 336.092 199.117 336.1C199.121 336.108 199.126 336.116 199.131 336.125C199.136 336.133 199.141 336.141 199.145 336.149C199.15 336.158 199.155 336.166 199.16 336.174C199.165 336.182 199.17 336.19 199.174 336.198C199.179 336.206 199.184 336.215 199.188 336.223C199.193 336.232 199.198 336.24 199.203 336.248C199.207 336.256 199.212 336.265 199.216 336.273C199.221 336.281 199.226 336.29 199.23 336.298C199.235 336.306 199.239 336.315 199.244 336.323C199.248 336.332 199.253 336.34 199.258 336.349C199.262 336.357 199.266 336.365 199.271 336.374C199.275 336.382 199.28 336.391 199.284 336.399C199.288 336.408 199.293 336.416 199.297 336.425C199.302 336.433 199.306 336.442 199.31 336.45C199.315 336.459 199.319 336.467 199.324 336.476C199.328 336.484 199.332 336.493 199.336 336.502C199.341 336.51 199.345 336.519 199.349 336.528C199.353 336.537 199.357 336.545 199.362 336.554C199.366 336.563 199.37 336.571 199.374 336.58C199.378 336.588 199.382 336.597 199.387 336.606C199.39 336.615 199.395 336.623 199.399 336.632C199.403 336.641 199.407 336.65 199.411 336.659C199.415 336.667 199.419 336.676 199.423 336.685C199.427 336.693 199.431 336.702 199.435 336.711C199.438 336.72 199.443 336.729 199.446 336.738C199.45 336.747 199.454 336.756 199.458 336.764C199.462 336.773 199.466 336.782 199.47 336.791C199.473 336.8 199.477 336.809 199.481 336.818C199.485 336.827 199.488 336.836 199.492 336.845C199.496 336.854 199.5 336.862 199.503 336.871C199.507 336.881 199.511 336.889 199.514 336.899C199.518 336.908 199.522 336.916 199.525 336.925C199.529 336.934 199.532 336.943 199.536 336.953C199.54 336.962 199.543 336.971 199.547 336.98C199.55 336.989 199.553 336.998 199.557 337.007C199.561 337.016 199.564 337.025 199.567 337.035C199.571 337.044 199.574 337.052 199.577 337.062C199.581 337.071 199.584 337.08 199.588 337.089C199.591 337.098 199.594 337.108 199.598 337.117C199.601 337.126 199.604 337.135 199.607 337.144C199.611 337.153 199.614 337.163 199.617 337.172C199.621 337.182 199.624 337.191 199.627 337.2C199.63 337.209 199.633 337.218 199.636 337.228C199.64 337.237 199.642 337.246 199.646 337.256C199.649 337.265 199.652 337.274 199.655 337.283C199.658 337.293 199.661 337.302 199.664 337.311C199.667 337.321 199.67 337.33 199.673 337.339C199.676 337.349 199.679 337.359 199.682 337.368C199.684 337.377 199.687 337.387 199.69 337.396C199.693 337.405 199.696 337.414 199.699 337.424C199.702 337.433 199.704 337.443 199.707 337.452C199.71 337.462 199.713 337.471 199.715 337.481C199.718 337.49 199.721 337.499 199.724 337.509C199.726 337.518 199.729 337.528 199.732 337.538C199.734 337.547 199.737 337.557 199.74 337.566C199.742 337.575 199.745 337.585 199.747 337.594C199.75 337.604 199.753 337.613 199.755 337.623C199.758 337.633 199.76 337.642 199.762 337.652ZM168.179 356.8L164.649 342.971C163.341 343.429 162.545 344.498 162.065 345.736L164.736 356.2C165.712 356.906 166.874 357.269 168.179 356.8ZM161.684 345.875C161.684 345.875 155.262 342.438 149.671 347.423C149.671 347.423 153.736 346.589 155.624 347.6C158.938 349.374 149.671 347.423 144.224 357.999C153.68 363.129 160.455 355.316 158.535 359.003C157.441 361.103 153.68 363.129 153.68 363.129C160.645 363.526 164.366 356.382 164.366 356.382L161.684 345.875Z" fill="black"/>
</svg>
