<svg width="578" height="748" viewBox="0 0 578 748" fill="none" xmlns="http://www.w3.org/2000/svg">
<path d="M575.655 9.49997V102.912C575.655 152.634 568.172 606.2 526.444 631.448C473.525 663.467 412.845 682.039 350.207 677.227C319.289 674.851 287.085 662.692 261.91 644.24C237.083 626.043 206.878 601.583 189.585 575.367C175.217 553.586 171.975 523.972 177.115 498.921C181.791 476.126 194.453 462.275 210.093 446.32C219.357 436.869 229.274 427.681 239.211 418.474L239.238 418.449C241.415 416.434 243.592 414.416 245.763 412.395C257.878 401.121 269.837 389.709 280.599 377.566C302.115 353.288 318.765 326.183 322.219 291.663C330.435 209.56 340.219 131.399 407.601 75.5382C444.8 44.6991 486.606 29.122 531.978 15.0379C576.7 1.15619 575.655 -2.31947 575.655 9.49997Z" fill="white"/>
<path d="M239.238 418.449C241.415 416.434 243.592 414.416 245.763 412.395C257.878 401.121 269.837 389.709 280.599 377.566C302.115 353.288 318.765 326.183 322.219 291.663C330.435 209.56 340.219 131.399 407.601 75.5382C444.8 44.6991 486.606 29.122 531.978 15.0379C576.7 1.15619 575.655 -2.31947 575.655 9.49997C575.655 21.3194 575.655 63.8839 575.655 102.912C575.655 152.634 568.172 606.2 526.444 631.448C473.525 663.467 412.845 682.039 350.207 677.227C319.289 674.851 287.085 662.692 261.91 644.24C237.083 626.043 206.878 601.583 189.585 575.367C175.217 553.586 171.975 523.972 177.115 498.921C181.791 476.126 194.453 462.275 210.093 446.32C219.357 436.869 229.274 427.681 239.211 418.474M239.238 418.449L239.211 418.474M239.238 418.449C239.229 418.457 239.22 418.466 239.211 418.474" stroke="white" stroke-width="3" stroke-linecap="round"/>
<path d="M333.242 558.898C332.748 558.235 332.879 557.294 333.535 556.795C334.191 556.297 335.123 556.43 335.616 557.091C336.111 557.754 335.979 558.696 335.323 559.194C334.667 559.692 333.736 559.56 333.242 558.898Z" fill="black"/>
<path d="M526.058 514.964C525.238 515.001 524.544 514.359 524.507 513.53C524.472 512.703 525.107 512.001 525.927 511.965C526.748 511.929 527.441 512.571 527.477 513.399C527.514 514.227 526.878 514.928 526.058 514.964Z" fill="black"/>
<path d="M260.038 431.247C259.257 430.992 258.829 430.146 259.083 429.357C259.335 428.568 260.174 428.136 260.954 428.391C261.735 428.647 262.163 429.494 261.911 430.283C261.657 431.071 260.819 431.504 260.038 431.247Z" fill="black"/>
<path d="M417.088 225.226C416.04 224.782 415.384 223.571 415.622 222.521C415.86 221.469 416.902 220.977 417.95 221.42C418.997 221.863 419.653 223.075 419.415 224.126C419.177 225.177 418.135 225.67 417.088 225.226Z" fill="black"/>
<path d="M402.027 115.175C400.98 114.731 400.324 113.519 400.561 112.469C400.799 111.418 401.842 110.925 402.889 111.368C403.936 111.811 404.592 113.023 404.355 114.074C404.117 115.126 403.074 115.618 402.027 115.175Z" fill="black"/>
<path d="M388.958 346.985C388.014 346.586 387.421 345.492 387.636 344.544C387.85 343.595 388.791 343.151 389.736 343.551C390.68 343.951 391.273 345.045 391.058 345.992C390.844 346.941 389.903 347.385 388.958 346.985Z" fill="black"/>
<path d="M324.351 723.005C325.044 723.766 325.131 725.009 324.544 725.781C323.957 726.552 322.92 726.56 322.226 725.798C321.532 725.036 321.446 723.793 322.032 723.022C322.619 722.25 323.656 722.242 324.351 723.005Z" fill="black"/>
<path d="M218.436 671.638C219.318 672.164 219.757 673.329 219.415 674.239C219.074 675.148 218.082 675.458 217.201 674.932C216.319 674.405 215.881 673.24 216.222 672.33C216.563 671.421 217.554 671.11 218.436 671.638Z" fill="black"/>
<path d="M195.289 564.783C196.171 565.31 196.609 566.475 196.268 567.385C195.927 568.295 194.935 568.605 194.053 568.077C193.171 567.551 192.732 566.386 193.074 565.477C193.415 564.567 194.407 564.257 195.289 564.783Z" fill="black"/>
<path d="M337.331 535.703C338.212 536.23 338.651 537.395 338.31 538.304C337.969 539.214 336.978 539.524 336.095 538.998C335.213 538.47 334.775 537.305 335.116 536.396C335.458 535.486 336.449 535.176 337.331 535.703Z" fill="black"/>
<path d="M448.821 598.744C449.703 599.272 450.141 600.437 449.8 601.346C449.458 602.256 448.467 602.566 447.585 602.039C446.703 601.512 446.264 600.347 446.606 599.438C446.947 598.528 447.938 598.218 448.821 598.744Z" fill="black"/>
<path d="M371.179 606.463C370.686 605.801 370.817 604.859 371.473 604.36C372.129 603.862 373.06 603.994 373.555 604.657C374.048 605.319 373.916 606.26 373.26 606.759C372.605 607.258 371.673 607.124 371.179 606.463Z" fill="black"/>
<path d="M318.148 448.167C317.367 447.912 316.939 447.066 317.193 446.277C317.445 445.489 318.284 445.056 319.064 445.311C319.845 445.568 320.273 446.414 320.021 447.203C319.767 447.991 318.929 448.424 318.148 448.167Z" fill="black"/>
<path d="M482.308 417.333C481.649 417.117 481.287 416.403 481.502 415.736C481.716 415.071 482.423 414.705 483.083 414.922C483.742 415.137 484.104 415.852 483.89 416.518C483.676 417.184 482.968 417.549 482.308 417.333Z" fill="black"/>
<path d="M494.786 255.336C493.739 254.893 493.083 253.681 493.321 252.63C493.559 251.578 494.6 251.086 495.648 251.529C496.695 251.973 497.352 253.185 497.113 254.235C496.875 255.286 495.834 255.78 494.786 255.336Z" fill="black"/>
<path d="M479.726 145.284C478.678 144.841 478.022 143.629 478.26 142.578C478.498 141.528 479.54 141.034 480.587 141.479C481.634 141.922 482.29 143.133 482.052 144.183C481.815 145.235 480.773 145.728 479.726 145.284Z" fill="black"/>
<path d="M459.066 374.153C458.12 373.753 457.529 372.66 457.743 371.712C457.958 370.763 458.898 370.319 459.843 370.719C460.788 371.119 461.38 372.212 461.165 373.161C460.95 374.108 460.011 374.554 459.066 374.153Z" fill="black"/>
<path d="M271.849 668.785C272.543 669.546 272.63 670.789 272.044 671.561C271.457 672.332 270.418 672.34 269.725 671.579C269.031 670.817 268.944 669.574 269.531 668.803C270.117 668.031 271.156 668.023 271.849 668.785Z" fill="black"/>
<path d="M152.672 635.032C153.554 635.56 153.992 636.725 153.651 637.634C153.31 638.544 152.318 638.854 151.436 638.327C150.554 637.8 150.116 636.636 150.457 635.726C150.798 634.816 151.79 634.506 152.672 635.032Z" fill="black"/>
<path d="M129.524 528.179C130.406 528.706 130.844 529.87 130.503 530.781C130.162 531.69 129.171 532.001 128.289 531.473C127.407 530.947 126.968 529.782 127.31 528.872C127.651 527.963 128.642 527.652 129.524 528.179Z" fill="black"/>
<path d="M271.566 499.099C272.448 499.625 272.887 500.79 272.545 501.7C272.204 502.61 271.212 502.92 270.33 502.393C269.448 501.866 269.01 500.701 269.351 499.791C269.693 498.882 270.684 498.572 271.566 499.099Z" fill="black"/>
<path d="M383.055 562.14C383.938 562.668 384.376 563.831 384.035 564.741C383.693 565.652 382.703 565.962 381.821 565.434C380.939 564.907 380.5 563.743 380.842 562.834C381.182 561.923 382.173 561.613 383.055 562.14Z" fill="black"/>
<path d="M494.546 625.181C495.428 625.709 495.866 626.874 495.525 627.783C495.184 628.693 494.192 629.003 493.31 628.476C492.428 627.949 491.989 626.784 492.331 625.875C492.672 624.965 493.664 624.655 494.546 625.181Z" fill="black"/>
<path d="M381.826 575.821C381.332 575.159 381.464 574.218 382.12 573.719C382.775 573.22 383.707 573.353 384.201 574.016C384.694 574.678 384.563 575.619 383.907 576.117C383.251 576.617 382.32 576.483 381.826 575.821Z" fill="black"/>
<path d="M309.431 416.91C308.65 416.655 308.223 415.808 308.476 415.02C308.729 414.231 309.567 413.799 310.349 414.055C311.129 414.31 311.556 415.157 311.304 415.945C311.05 416.734 310.213 417.166 309.431 416.91Z" fill="black"/>
<path d="M474.947 390.935C474.288 390.719 473.926 390.005 474.14 389.338C474.354 388.673 475.062 388.308 475.722 388.524C476.381 388.74 476.742 389.454 476.528 390.121C476.314 390.786 475.607 391.152 474.947 390.935Z" fill="black"/>
<path d="M479.781 211.448C478.734 211.004 478.078 209.793 478.316 208.742C478.554 207.691 479.595 207.198 480.642 207.641C481.69 208.084 482.347 209.296 482.109 210.347C481.871 211.398 480.829 211.891 479.781 211.448Z" fill="black"/>
<path d="M464.721 101.396C463.673 100.952 463.017 99.7406 463.255 98.6899C463.493 97.6391 464.534 97.1468 465.582 97.5901C466.629 98.0334 467.286 99.2443 467.048 100.296C466.81 101.347 465.768 101.839 464.721 101.396Z" fill="black"/>
<path d="M445.526 334.553C444.582 334.153 443.989 333.06 444.204 332.111C444.418 331.163 445.359 330.718 446.304 331.119C447.249 331.519 447.841 332.612 447.627 333.56C447.412 334.508 446.471 334.953 445.526 334.553Z" fill="black"/>
<path d="M267.803 710.48C268.496 711.241 268.582 712.484 267.996 713.256C267.409 714.027 266.372 714.035 265.678 713.273C264.983 712.511 264.897 711.268 265.484 710.497C266.07 709.725 267.109 709.717 267.803 710.48Z" fill="black"/>
<path d="M160.716 676.132C161.598 676.659 162.036 677.824 161.695 678.734C161.354 679.643 160.362 679.954 159.48 679.426C158.598 678.9 158.16 677.735 158.501 676.825C158.842 675.916 159.834 675.606 160.716 676.132Z" fill="black"/>
<path d="M137.567 569.278C138.449 569.806 138.888 570.969 138.546 571.879C138.206 572.79 137.215 573.1 136.333 572.573C135.45 572.045 135.012 570.881 135.353 569.972C135.695 569.062 136.686 568.751 137.567 569.278Z" fill="black"/>
<path d="M279.61 540.197C280.492 540.725 280.93 541.89 280.589 542.799C280.248 543.709 279.256 544.019 278.374 543.493C277.492 542.965 277.054 541.801 277.395 540.891C277.736 539.981 278.728 539.671 279.61 540.197Z" fill="black"/>
<path d="M391.099 603.24C391.981 603.766 392.42 604.931 392.078 605.841C391.737 606.75 390.746 607.061 389.864 606.534C388.982 606.007 388.544 604.843 388.885 603.932C389.226 603.023 390.217 602.712 391.099 603.24Z" fill="black"/>
<path d="M376.426 548.611C375.933 547.949 376.065 547.008 376.72 546.509C377.375 546.011 378.308 546.144 378.801 546.806C379.295 547.468 379.164 548.409 378.508 548.908C377.852 549.406 376.92 549.274 376.426 548.611Z" fill="black"/>
<path d="M542.095 473.184C541.274 473.22 540.581 472.579 540.544 471.75C540.508 470.923 541.144 470.221 541.964 470.185C542.784 470.149 543.478 470.791 543.515 471.619C543.55 472.447 542.914 473.148 542.095 473.184Z" fill="black"/>
<path d="M289.533 397.772C288.752 397.516 288.324 396.67 288.578 395.881C288.83 395.092 289.669 394.661 290.449 394.916C291.23 395.172 291.658 396.018 291.406 396.808C291.152 397.596 290.314 398.027 289.533 397.772Z" fill="black"/>
<path d="M458.142 374.773C457.483 374.557 457.122 373.842 457.336 373.176C457.55 372.51 458.257 372.145 458.916 372.361C459.576 372.576 459.938 373.292 459.724 373.957C459.51 374.624 458.802 374.989 458.142 374.773Z" fill="black"/>
<path d="M451.619 182.843C450.572 182.4 449.915 181.188 450.153 180.137C450.39 179.087 451.433 178.593 452.48 179.037C453.528 179.481 454.184 180.692 453.946 181.742C453.708 182.794 452.667 183.287 451.619 182.843Z" fill="black"/>
<path d="M436.558 72.7913C435.51 72.348 434.854 71.1371 435.092 70.0854C435.33 69.0346 436.372 68.5423 437.42 68.9856C438.467 69.4289 439.123 70.6398 438.885 71.6915C438.647 72.7423 437.605 73.2346 436.558 72.7913Z" fill="black"/>
<path d="M420.116 308.743C419.17 308.343 418.578 307.25 418.793 306.302C419.008 305.353 419.947 304.909 420.893 305.309C421.838 305.709 422.43 306.802 422.215 307.751C422 308.698 421.061 309.143 420.116 308.743Z" fill="black"/>
<path d="M280.24 744.64C280.934 745.402 281.021 746.644 280.434 747.416C279.848 748.188 278.809 748.196 278.116 747.434C277.422 746.671 277.335 745.429 277.922 744.657C278.508 743.886 279.547 743.877 280.24 744.64Z" fill="black"/>
<path d="M182.389 705.212C183.271 705.739 183.709 706.904 183.369 707.814C183.027 708.723 182.036 709.033 181.154 708.506C180.272 707.98 179.833 706.815 180.175 705.905C180.516 704.996 181.508 704.685 182.389 705.212Z" fill="black"/>
<path d="M159.241 598.358C160.123 598.885 160.561 600.049 160.22 600.959C159.879 601.869 158.888 602.18 158.006 601.653C157.124 601.125 156.686 599.961 157.027 599.052C157.367 598.141 158.359 597.831 159.241 598.358Z" fill="black"/>
<path d="M301.284 569.277C302.166 569.805 302.604 570.969 302.263 571.879C301.921 572.789 300.93 573.099 300.048 572.572C299.166 572.045 298.727 570.88 299.069 569.971C299.41 569.061 300.402 568.751 301.284 569.277Z" fill="black"/>
<path d="M412.773 632.32C413.655 632.846 414.093 634.011 413.752 634.92C413.411 635.83 412.419 636.14 411.538 635.614C410.656 635.086 410.218 633.922 410.559 633.012C410.899 632.102 411.891 631.792 412.773 632.32Z" fill="black"/>
<path d="M328.359 598.936C327.866 598.273 327.997 597.331 328.652 596.833C329.308 596.335 330.241 596.468 330.734 597.129C331.228 597.792 331.097 598.733 330.441 599.232C329.785 599.73 328.852 599.598 328.359 598.936Z" fill="black"/>
<path d="M555.983 541.685C555.163 541.721 554.469 541.079 554.433 540.251C554.397 539.423 555.033 538.721 555.852 538.685C556.673 538.649 557.366 539.291 557.403 540.119C557.439 540.947 556.803 541.649 555.983 541.685Z" fill="black"/>
<path d="M278.818 466.851C278.037 466.596 277.609 465.749 277.862 464.961C278.116 464.172 278.954 463.74 279.735 463.996C280.516 464.251 280.944 465.098 280.69 465.886C280.437 466.675 279.599 467.107 278.818 466.851Z" fill="black"/>
<path d="M449.093 433.112C448.433 432.896 448.073 432.181 448.286 431.515C448.5 430.849 449.207 430.484 449.867 430.7C450.527 430.916 450.888 431.631 450.674 432.297C450.461 432.963 449.752 433.328 449.093 433.112Z" fill="black"/>
<path d="M445.713 276.27C444.666 275.827 444.01 274.615 444.248 273.564C444.486 272.513 445.527 272.021 446.575 272.464C447.622 272.908 448.279 274.119 448.04 275.17C447.802 276.221 446.761 276.714 445.713 276.27Z" fill="black"/>
<path d="M430.653 166.218C429.605 165.775 428.949 164.564 429.187 163.513C429.425 162.462 430.467 161.969 431.514 162.413C432.561 162.856 433.217 164.068 432.979 165.118C432.742 166.169 431.7 166.662 430.653 166.218Z" fill="black"/>
<path d="M414.787 393.042C413.842 392.643 413.25 391.549 413.465 390.601C413.679 389.653 414.619 389.208 415.565 389.608C416.51 390.008 417.101 391.102 416.886 392.049C416.672 392.998 415.732 393.442 414.787 393.042Z" fill="black"/>
<path d="M319.894 670.265C320.587 671.026 320.675 672.269 320.088 673.041C319.501 673.812 318.463 673.82 317.769 673.059C317.076 672.297 316.989 671.054 317.575 670.283C318.162 669.511 319.2 669.503 319.894 670.265Z" fill="black"/>
<path d="M199.094 622.442C199.976 622.97 200.414 624.135 200.073 625.044C199.732 625.954 198.74 626.264 197.858 625.738C196.976 625.21 196.538 624.046 196.879 623.136C197.22 622.226 198.212 621.916 199.094 622.442Z" fill="black"/>
<path d="M175.946 515.589C176.828 516.116 177.267 517.281 176.925 518.191C176.584 519.1 175.593 519.411 174.711 518.883C173.829 518.357 173.39 517.192 173.731 516.282C174.073 515.373 175.064 515.062 175.946 515.589Z" fill="black"/>
<path d="M317.988 486.509C318.87 487.035 319.308 488.2 318.967 489.11C318.626 490.019 317.635 490.33 316.753 489.803C315.871 489.276 315.433 488.111 315.774 487.201C316.115 486.292 317.106 485.982 317.988 486.509Z" fill="black"/>
<path d="M475.363 484.524C476.246 485.051 476.684 486.216 476.343 487.125C476.001 488.035 475.01 488.345 474.128 487.819C473.246 487.292 472.807 486.127 473.148 485.217C473.49 484.307 474.481 483.997 475.363 484.524Z" fill="black"/>
<path d="M475.363 484.524C476.246 485.051 476.684 486.216 476.343 487.125C476.001 488.035 475.01 488.345 474.128 487.819C473.246 487.292 472.807 486.127 473.148 485.217C473.49 484.307 474.481 483.997 475.363 484.524Z" fill="black"/>
<path d="M240.141 392.724C241.023 393.251 241.462 394.416 241.121 395.326C240.779 396.235 239.788 396.545 238.906 396.018C238.023 395.492 237.585 394.327 237.926 393.417C238.268 392.508 239.259 392.197 240.141 392.724Z" fill="black"/>
<path d="M540.967 612.591C541.849 613.119 542.288 614.284 541.947 615.193C541.605 616.103 540.614 616.413 539.732 615.887C538.85 615.359 538.412 614.195 538.752 613.285C539.094 612.375 540.085 612.065 540.967 612.591Z" fill="black"/>
<path d="M305.745 520.792C306.627 521.319 307.066 522.484 306.724 523.393C306.383 524.303 305.392 524.613 304.509 524.086C303.627 523.56 303.189 522.395 303.53 521.485C303.872 520.575 304.863 520.265 305.745 520.792Z" fill="black"/>
<path d="M290.075 579.191C289.581 578.529 289.713 577.587 290.369 577.089C291.024 576.591 291.957 576.723 292.45 577.385C292.943 578.048 292.813 578.989 292.157 579.488C291.501 579.986 290.569 579.854 290.075 579.191Z" fill="black"/>
<path d="M438.233 544.131C437.739 543.469 437.871 542.528 438.526 542.03C439.182 541.53 440.114 541.664 440.607 542.326C441.102 542.988 440.97 543.929 440.314 544.427C439.658 544.927 438.727 544.794 438.233 544.131Z" fill="black"/>
<path d="M54.8526 487.392C54.3592 486.729 54.491 485.787 55.1459 485.289C55.8019 484.791 56.7343 484.923 57.2278 485.585C57.7213 486.248 57.5905 487.189 56.9345 487.688C56.2785 488.186 55.3461 488.053 54.8526 487.392Z" fill="black"/>
<path d="M518.201 562.392C517.381 562.428 516.687 561.787 516.651 560.958C516.615 560.13 517.251 559.429 518.07 559.393C518.891 559.356 519.585 559.999 519.621 560.826C519.657 561.655 519.022 562.355 518.201 562.392Z" fill="black"/>
<path d="M282.979 470.593C282.159 470.629 281.465 469.986 281.428 469.159C281.393 468.33 282.028 467.629 282.848 467.592C283.669 467.556 284.362 468.199 284.398 469.026C284.435 469.855 283.799 470.555 282.979 470.593Z" fill="black"/>
<path d="M236.251 472.903C235.47 472.647 235.042 471.801 235.295 471.013C235.548 470.223 236.386 469.792 237.167 470.047C237.948 470.303 238.376 471.15 238.123 471.938C237.87 472.727 237.031 473.158 236.251 472.903Z" fill="black"/>
<path d="M384.408 437.843C383.627 437.588 383.2 436.741 383.453 435.953C383.705 435.164 384.544 434.732 385.324 434.988C386.106 435.243 386.533 436.09 386.281 436.878C386.027 437.667 385.189 438.099 384.408 437.843Z" fill="black"/>
<path d="M1.02828 381.103C0.247454 380.847 -0.180601 380.001 0.0730678 379.212C0.325746 378.423 1.16403 377.992 1.94486 378.247C2.72568 378.502 3.15375 379.349 2.90107 380.139C2.6474 380.927 1.8091 381.359 1.02828 381.103Z" fill="black"/>
<path d="M561.301 403.163C560.642 402.947 560.28 402.233 560.495 401.566C560.709 400.901 561.416 400.535 562.076 400.751C562.735 400.968 563.097 401.682 562.883 402.349C562.669 403.014 561.961 403.379 561.301 403.163Z" fill="black"/>
<path d="M177.922 346.423C177.263 346.207 176.901 345.492 177.115 344.826C177.328 344.16 178.037 343.796 178.695 344.011C179.355 344.227 179.717 344.942 179.503 345.608C179.289 346.274 178.581 346.639 177.922 346.423Z" fill="black"/>
<path d="M390.949 279.502C389.901 279.059 389.245 277.848 389.483 276.797C389.721 275.746 390.762 275.253 391.81 275.697C392.857 276.14 393.514 277.352 393.276 278.403C393.039 279.453 391.996 279.946 390.949 279.502Z" fill="black"/>
<path d="M539.106 244.443C538.059 244 537.403 242.788 537.641 241.737C537.878 240.687 538.921 240.193 539.968 240.638C541.016 241.081 541.672 242.292 541.434 243.343C541.196 244.394 540.154 244.887 539.106 244.443Z" fill="black"/>
<path d="M155.727 187.703C154.679 187.259 154.023 186.048 154.261 184.997C154.499 183.946 155.54 183.454 156.588 183.897C157.635 184.34 158.292 185.551 158.054 186.603C157.815 187.654 156.774 188.146 155.727 187.703Z" fill="black"/>
<path d="M375.888 169.452C374.841 169.008 374.185 167.796 374.423 166.746C374.66 165.694 375.702 165.202 376.749 165.645C377.797 166.088 378.454 167.3 378.216 168.351C377.978 169.402 376.936 169.895 375.888 169.452Z" fill="black"/>
<path d="M524.046 134.391C522.998 133.948 522.342 132.737 522.58 131.686C522.818 130.635 523.859 130.142 524.907 130.586C525.955 131.029 526.611 132.24 526.373 133.292C526.135 134.342 525.093 134.835 524.046 134.391Z" fill="black"/>
<path d="M140.666 77.6518C139.619 77.2085 138.963 75.9966 139.2 74.9458C139.438 73.8941 140.48 73.4017 141.527 73.8451C142.574 74.2884 143.23 75.5002 142.993 76.551C142.755 77.6017 141.713 78.0951 140.666 77.6518Z" fill="black"/>
<path d="M365.373 395.959C364.428 395.559 363.836 394.466 364.051 393.517C364.265 392.57 365.205 392.125 366.151 392.525C367.095 392.925 367.688 394.018 367.473 394.966C367.258 395.915 366.318 396.359 365.373 395.959Z" fill="black"/>
<path d="M366.01 688.426C366.704 689.187 366.791 690.43 366.204 691.202C365.618 691.973 364.579 691.981 363.885 691.22C363.192 690.458 363.105 689.215 363.691 688.444C364.279 687.672 365.316 687.664 366.01 688.426Z" fill="black"/>
<path d="M248.437 626.385C249.32 626.912 249.758 628.077 249.417 628.986C249.076 629.896 248.085 630.206 247.203 629.68C246.321 629.152 245.882 627.987 246.223 627.078C246.565 626.168 247.556 625.858 248.437 626.385Z" fill="black"/>
<path d="M225.29 519.532C226.172 520.058 226.61 521.223 226.269 522.133C225.928 523.042 224.936 523.352 224.055 522.826C223.173 522.299 222.735 521.134 223.076 520.224C223.416 519.315 224.408 519.004 225.29 519.532Z" fill="black"/>
<path d="M367.332 490.451C368.215 490.978 368.653 492.142 368.312 493.052C367.97 493.962 366.979 494.273 366.097 493.745C365.215 493.219 364.776 492.054 365.117 491.144C365.459 490.235 366.45 489.923 367.332 490.451Z" fill="black"/>
<path d="M478.822 553.492C479.704 554.019 480.142 555.184 479.801 556.094C479.46 557.004 478.468 557.314 477.587 556.787C476.705 556.26 476.266 555.095 476.608 554.185C476.948 553.276 477.94 552.966 478.822 553.492Z" fill="black"/>
<path d="M244.311 587.681C243.817 587.018 243.949 586.077 244.605 585.579C245.261 585.081 246.192 585.213 246.686 585.875C247.18 586.538 247.048 587.478 246.392 587.978C245.736 588.476 244.805 588.343 244.311 587.681Z" fill="black"/>
<path d="M499.238 605.303C498.418 605.34 497.723 604.698 497.688 603.87C497.652 603.041 498.287 602.341 499.108 602.304C499.928 602.268 500.622 602.909 500.657 603.738C500.694 604.567 500.058 605.267 499.238 605.303Z" fill="black"/>
<path d="M203.622 506.404C202.842 506.149 202.413 505.302 202.667 504.514C202.92 503.725 203.758 503.293 204.539 503.549C205.32 503.804 205.748 504.651 205.494 505.44C205.241 506.228 204.403 506.66 203.622 506.404Z" fill="black"/>
<path d="M385.589 466.516C384.929 466.299 384.567 465.585 384.781 464.918C384.995 464.253 385.703 463.888 386.363 464.104C387.022 464.32 387.384 465.035 387.169 465.701C386.955 466.366 386.248 466.732 385.589 466.516Z" fill="black"/>
<path d="M352.338 321.549C351.29 321.105 350.634 319.894 350.872 318.843C351.11 317.792 352.151 317.3 353.199 317.743C354.247 318.186 354.903 319.397 354.665 320.449C354.427 321.5 353.385 321.992 352.338 321.549Z" fill="black"/>
<path d="M337.277 211.498C336.23 211.053 335.574 209.843 335.811 208.792C336.049 207.74 337.091 207.248 338.138 207.691C339.185 208.134 339.842 209.346 339.605 210.397C339.367 211.448 338.324 211.941 337.277 211.498Z" fill="black"/>
<path d="M330.534 433.897C329.59 433.497 328.997 432.404 329.212 431.455C329.426 430.508 330.367 430.062 331.312 430.463C332.257 430.863 332.849 431.956 332.635 432.905C332.42 433.853 331.479 434.297 330.534 433.897Z" fill="black"/>
<path d="M413.341 668.617C414.035 669.379 414.122 670.621 413.535 671.393C412.949 672.164 411.91 672.172 411.216 671.411C410.523 670.649 410.436 669.406 411.022 668.635C411.609 667.863 412.647 667.855 413.341 668.617Z" fill="black"/>
<path d="M288.091 593.621C288.973 594.147 289.412 595.312 289.07 596.222C288.729 597.131 287.737 597.441 286.855 596.915C285.974 596.388 285.536 595.223 285.876 594.313C286.217 593.404 287.209 593.093 288.091 593.621Z" fill="black"/>
<path d="M264.944 486.766C265.826 487.294 266.264 488.458 265.923 489.368C265.581 490.278 264.59 490.588 263.708 490.062C262.826 489.534 262.387 488.369 262.729 487.46C263.07 486.55 264.062 486.24 264.944 486.766Z" fill="black"/>
<path d="M406.985 457.686C407.867 458.213 408.306 459.377 407.964 460.287C407.624 461.197 406.632 461.508 405.75 460.981C404.868 460.453 404.43 459.289 404.771 458.379C405.113 457.469 406.103 457.159 406.985 457.686Z" fill="black"/>
<path d="M518.475 520.727C519.357 521.255 519.796 522.42 519.455 523.329C519.113 524.239 518.122 524.549 517.24 524.022C516.358 523.495 515.919 522.331 516.26 521.421C516.602 520.511 517.593 520.201 518.475 520.727Z" fill="black"/>
<path d="M238.234 521.74L243.634 516.164L236.03 517.527C228.303 518.913 220.523 519.747 212.713 520.131L212.711 520.132C203.799 520.577 194.823 520.415 185.916 519.724C168.056 518.347 150.345 515.036 133.206 509.807C124.643 507.195 116.218 504.07 108.043 500.436C100.86 497.22 93.8849 493.626 87.1616 489.504L80.5405 485.445L83.6004 492.631C95.6566 520.941 121.009 542.888 153.254 548.928C185.477 554.999 216.923 543.75 238.234 521.74ZM48.1938 446.417L48.1968 446.423C55.6453 463.413 71.7959 476.727 86.6801 485.846C105.159 497.183 126.063 505.002 146.907 510.091C180.387 518.3 218.157 520.743 251.873 510.988C264.634 507.303 278.021 501.345 287.776 491.426C291.243 487.93 294.315 483.754 296.517 478.994C300.871 469.619 301.109 458.958 297.573 449.343C293.356 437.88 285.021 428.827 275.936 421.653C272.099 418.616 268.225 416.01 264.435 413.694L257.912 409.706L260.868 416.804C263.143 422.266 264.915 427.934 266.202 433.777L266.203 433.783C266.45 434.983 266.691 436.15 266.904 437.319L267.032 438.018L267.505 438.546C268.385 439.526 269.25 440.543 270.094 441.573C275.261 448.055 279.608 455.787 278.37 463.353L278.369 463.359C277.55 468.446 274.056 473.02 269.554 476.316C259.818 483.442 246.895 486.632 234.704 488.49C200.216 493.741 163.367 488.23 130.334 476.988L130.331 476.986C126.644 475.738 122.992 474.332 119.36 472.876C101.65 465.682 82.8186 455.959 71.8424 440.533C66.3707 432.843 64.7714 424.123 70.0697 416.757L70.0737 416.752C73.7618 411.595 80.0015 407.365 85.9627 404.374L86.6038 404.053L86.9764 403.434C90.6159 397.392 94.9302 391.747 99.854 386.571L105.201 380.95L97.6136 382.378L97.6007 382.381C96.3591 382.614 95.0878 382.855 93.7907 383.129C81.6602 385.678 68.9748 390.114 59.1035 398.64C51.8195 404.918 46.1535 413.652 44.6801 423.479L44.6791 423.486C43.5197 431.352 45.1131 439.336 48.1938 446.417ZM92.2083 401.835L92.2023 401.844L92.1964 401.852C88.4875 407.364 85.3344 413.275 82.8225 419.45C82.6115 419.967 82.3855 420.511 82.1507 421.074C80.8239 424.262 79.2147 428.128 78.3655 431.971C77.3587 436.523 77.2775 441.621 80.3839 445.936C83.537 450.327 88.0881 453.352 92.1528 455.844C121.251 473.66 154.962 482.573 188.594 485.894L188.595 485.895C209.323 487.931 230.726 487.951 251.071 482.282L251.075 482.281C254.746 481.251 259.705 479.578 262.246 475.269C263.545 473.069 263.952 470.613 264.233 468.628L264.234 468.626C268.857 435.856 255.242 401.116 229.672 380.444C204.102 359.771 167.553 353.962 136.932 365.72C120.72 371.931 106.52 382.934 95.9588 396.677C94.6211 398.381 93.3904 400.109 92.2083 401.835ZM275.03 591.861C290.18 588.314 299.612 573.032 296.099 557.728C292.587 542.424 277.459 532.892 262.308 536.439C247.158 539.985 237.726 555.268 241.239 570.571C244.751 585.875 259.88 595.408 275.03 591.861ZM319.117 532.113C328.206 529.985 333.863 520.817 331.757 511.637C329.649 502.457 320.575 496.738 311.486 498.866C302.398 500.994 296.74 510.162 298.846 519.341C300.954 528.522 310.028 534.24 319.117 532.113Z" fill="black" stroke="white" stroke-width="5"/>
</svg>
