<svg width="75" height="106" viewBox="0 0 75 106" fill="none" xmlns="http://www.w3.org/2000/svg">
<path d="M6.97806 0H11.7495V4.7142H16.1143V0H20.886V14.2757H16.1145V9.49539H11.7497V14.2757H6.97826L6.97806 0Z" fill="white"/>
<path d="M27.1606 4.73405H22.96V0H36.135V4.73405H31.9325V14.2757H27.1608L27.1606 4.73405Z" fill="white"/>
<path d="M38.2259 0H43.2013L46.2618 5.01607L49.3192 0H54.2964V14.2757H49.5446V7.1999L46.2618 12.2757H46.1797L42.8947 7.1999V14.2757H38.2259V0Z" fill="white"/>
<path d="M56.6711 0H61.444V9.557H68.1541V14.2757H56.6711V0Z" fill="white"/>
<path fill-rule="evenodd" clip-rule="evenodd" d="M0 20.8045L6.82545 97.36L37.4541 105.863L68.1673 97.348L75 20.8045H0ZM25.0756 55.4574H59.2926L59.0635 57.9787L56.7159 84.2837L37.5 89.6094V89.6109L37.4568 89.6229L18.2237 84.2837L16.9083 69.5413H26.3336L27.002 77.0296L37.4589 79.8531L37.4675 79.8508L47.9395 77.0236L49.0293 64.8465H16.4887L13.9563 36.4534H60.9877L60.147 45.8427H24.2175L25.0756 55.4574Z" fill="white"/>
</svg>
