<svg width="134" height="25" viewBox="0 0 134 25" fill="none" xmlns="http://www.w3.org/2000/svg">
<path d="M11.188 4.984V8.092L1.08 12.572L0.52 11.536V9.856L11.188 4.984ZM11.188 14.336V17.696L0.52 12.824V11.032L1.108 9.856L11.188 14.336ZM16.216 17.808V14.672L26.576 10.08L27.136 11.116V12.824L16.216 17.808ZM16.216 8.232V4.816L27.136 9.828V11.62L26.548 12.796L16.216 8.232ZM35.3559 13.888C35.3559 14.7093 35.4306 15.4467 35.5799 16.1C35.7293 16.7347 35.9533 17.276 36.2519 17.724C36.5693 18.1533 36.9706 18.48 37.4559 18.704C37.9413 18.9093 38.5013 19.012 39.1359 19.012C39.8079 19.012 40.3866 18.8907 40.8719 18.648C41.3573 18.3867 41.7679 18.06 42.1039 17.668C42.4586 17.2573 42.7479 16.8373 42.9719 16.408L44.7359 17.668C44.3813 18.3773 43.9146 19.0027 43.3359 19.544C42.7573 20.0853 42.0573 20.5147 41.2359 20.832C40.4333 21.1307 39.4719 21.28 38.3519 21.28C36.7279 21.28 35.2999 20.9813 34.0679 20.384C32.8546 19.7867 31.9119 18.9373 31.2399 17.836C30.5679 16.716 30.2319 15.3907 30.2319 13.86C30.2319 12.3667 30.5586 11.06 31.2119 9.94C31.8839 8.82 32.7893 7.952 33.9279 7.336C35.0853 6.70133 36.3919 6.384 37.8479 6.384C39.0239 6.384 40.0506 6.56133 40.9279 6.916C41.8239 7.252 42.5706 7.76533 43.1679 8.456C43.7653 9.128 44.2226 9.98667 44.5399 11.032C44.8573 12.0587 45.0159 13.2627 45.0159 14.644H34.7399V12.656H40.8719L40.2559 13.468C40.2373 12.516 40.1813 11.7227 40.0879 11.088C39.9946 10.4533 39.8546 9.95867 39.6679 9.604C39.4813 9.23067 39.2479 8.96 38.9679 8.792C38.6879 8.624 38.3519 8.54 37.9599 8.54C37.5679 8.54 37.2133 8.64267 36.8959 8.848C36.5973 9.05333 36.3266 9.38 36.0839 9.828C35.8599 10.2573 35.6826 10.808 35.5519 11.48C35.4213 12.152 35.3559 12.9547 35.3559 13.888ZM62.5682 18.34C62.5682 18.6387 62.6802 18.844 62.9042 18.956C63.1469 19.0493 63.4922 19.124 63.9402 19.18L64.0522 19.208V21H57.7802V17.696L57.4442 17.92V3.192C57.4442 2.98667 57.3882 2.828 57.2762 2.716C57.1829 2.604 57.0336 2.52 56.8282 2.464C56.6416 2.38933 56.3896 2.31467 56.0722 2.24L55.8482 2.184V0.391998H62.5682V18.34ZM53.3282 6.384C54.1869 6.384 54.9336 6.51467 55.5682 6.776C56.2029 7.03733 56.7629 7.42933 57.2482 7.952C57.7336 8.47467 58.1629 9.128 58.5362 9.912L58.4522 12.712C58.0602 11.8533 57.6776 11.144 57.3042 10.584C56.9309 10.0053 56.5389 9.58533 56.1282 9.324C55.7362 9.044 55.2696 8.904 54.7282 8.904C54.2616 8.904 53.8509 9.02533 53.4962 9.268C53.1602 9.492 52.8709 9.828 52.6282 10.276C52.4042 10.7053 52.2362 11.2373 52.1242 11.872C52.0309 12.5067 51.9842 13.216 51.9842 14C51.9842 14.7467 52.0309 15.4187 52.1242 16.016C52.2362 16.6133 52.3949 17.1173 52.6002 17.528C52.8242 17.9387 53.0949 18.2467 53.4122 18.452C53.7482 18.6573 54.1309 18.76 54.5602 18.76C55.0829 18.76 55.5496 18.6107 55.9602 18.312C56.3709 17.9947 56.7722 17.528 57.1642 16.912C57.5562 16.296 57.9856 15.5027 58.4522 14.532L58.5082 17.304C58.0602 18.1813 57.5842 18.9187 57.0802 19.516C56.5762 20.0947 56.0069 20.5333 55.3722 20.832C54.7562 21.1307 54.0096 21.28 53.1322 21.28C51.8442 21.28 50.7149 20.9813 49.7442 20.384C48.7922 19.768 48.0456 18.9187 47.5042 17.836C46.9816 16.7347 46.7202 15.456 46.7202 14C46.7202 12.5067 47.0002 11.1907 47.5602 10.052C48.1202 8.89467 48.8949 7.99867 49.8842 7.364C50.8922 6.71067 52.0402 6.384 53.3282 6.384ZM71.556 6.664V16.408C71.556 16.8933 71.6027 17.2947 71.696 17.612C71.808 17.9293 71.976 18.1627 72.2 18.312C72.424 18.4427 72.7227 18.508 73.096 18.508C73.5253 18.508 73.9173 18.396 74.272 18.172C74.6453 17.948 75.0093 17.6027 75.364 17.136C75.7187 16.6507 76.064 16.016 76.4 15.232L76.456 17.864C76.064 18.6293 75.6067 19.264 75.084 19.768C74.5613 20.272 73.9733 20.6547 73.32 20.916C72.6667 21.1587 71.948 21.28 71.164 21.28C70.2307 21.28 69.4093 21.1027 68.7 20.748C67.9907 20.3747 67.44 19.8333 67.048 19.124C66.656 18.396 66.46 17.5 66.46 16.436V9.464C66.46 9.16533 66.3573 8.96 66.152 8.848C65.9467 8.71733 65.62 8.60533 65.172 8.512L64.92 8.456V6.664H71.556ZM80.936 6.664V18.34C80.936 18.5267 80.992 18.676 81.104 18.788C81.216 18.9 81.3747 18.984 81.58 19.04C81.7853 19.096 82.0373 19.1427 82.336 19.18L82.476 19.208V21H76.176V17.78L75.84 17.892V9.464C75.84 9.16533 75.7 8.95067 75.42 8.82C75.14 8.68933 74.776 8.596 74.328 8.54L73.908 8.456V6.664H80.936ZM87.2423 21.336C86.3463 21.336 85.637 21.0933 85.1143 20.608C84.6103 20.1227 84.3583 19.488 84.3583 18.704C84.3583 17.92 84.6103 17.2853 85.1143 16.8C85.637 16.3147 86.3463 16.072 87.2423 16.072C88.1383 16.072 88.8383 16.3147 89.3423 16.8C89.865 17.2853 90.1263 17.92 90.1263 18.704C90.1263 19.488 89.865 20.1227 89.3423 20.608C88.8383 21.0933 88.1383 21.336 87.2423 21.336ZM104.758 4.984V8.092L94.6503 12.572L94.0903 11.536V9.856L104.758 4.984ZM104.758 14.336V17.696L94.0903 12.824V11.032L94.6783 9.856L104.758 14.336ZM120.51 0.335999H117.066L106.818 24.948H110.262L120.51 0.335999ZM122.693 17.808V14.672L133.053 10.08L133.613 11.116V12.824L122.693 17.808ZM122.693 8.232V4.816L133.613 9.828V11.62L133.025 12.796L122.693 8.232Z" fill="white"/>
</svg>
