<svg width="559" height="798" viewBox="0 0 559 798" fill="none" xmlns="http://www.w3.org/2000/svg">
<path d="M-17.2417 19.2057C23.3282 22.9973 49.3856 26.8147 88.0077 39.6887C118.837 49.9653 158.577 54.4402 193.515 60.4294C211.329 63.4833 230.355 64.4229 248.394 65.0671C270.5 65.8566 294.484 62 316.284 66.2265C367.271 76.1118 418.894 96.6889 460.052 128.32C513.483 169.382 552.715 224.874 557.057 293.473C560.403 346.339 527.717 407.937 488.78 442.007C429.303 494.049 353.861 497.43 278.023 498.947C232.512 499.857 189.044 506.487 145.463 519.688C106.313 531.547 77.3548 551.304 44.9804 575.211C16.8923 595.953 -13.9374 613.733 -46.6136 626.097C-75.9062 637.18 -110.168 636.749 -141.042 635.114C-185.869 632.741 -241.369 626.766 -280.687 602.651C-313.811 582.335 -339.103 548.688 -361.074 517.627C-377.8 493.979 -393.568 466.131 -376.919 439.688C-367.01 423.95 -353.902 410.682 -344.455 394.342C-331.861 372.557 -321.485 351.571 -311.863 328.255C-285.321 263.942 -283.687 192.376 -253.377 129.35C-241.941 105.571 -224.037 85.8032 -204.037 68.803C-181.186 49.3801 -150.163 27.9972 -120.688 20.3651C-88.6187 12.0616 -49.7007 16.1721 -17.2417 19.2057Z" fill="white" stroke="white" stroke-width="3" stroke-linecap="round"/>
<path d="M311.284 293.264C311.284 294.093 310.613 294.764 309.784 294.764C308.956 294.764 308.284 294.093 308.284 293.264C308.284 292.436 308.956 291.764 309.784 291.764C310.613 291.764 311.284 292.436 311.284 293.264Z" fill="black"/>
<path d="M129.421 211.304C130.104 211.772 130.278 212.706 129.809 213.389C129.34 214.072 128.407 214.246 127.724 213.777C127.041 213.308 126.867 212.375 127.336 211.692C127.804 211.009 128.738 210.835 129.421 211.304Z" fill="black"/>
<path d="M293.585 439.605C294.061 440.283 293.897 441.219 293.219 441.695C292.541 442.171 291.606 442.007 291.13 441.329C290.654 440.651 290.818 439.715 291.496 439.239C292.174 438.763 293.109 438.927 293.585 439.605Z" fill="black"/>
<path d="M43.141 508.755C43.719 509.745 43.52 511.11 42.6965 511.805C41.873 512.5 40.7369 512.261 40.1589 511.271C39.5809 510.281 39.7799 508.916 40.6034 508.221C41.4268 507.526 42.563 507.765 43.141 508.755Z" fill="black"/>
<path d="M-10.859 605.755C-10.281 606.745 -10.48 608.11 -11.3035 608.805C-12.127 609.5 -13.2631 609.261 -13.8411 608.271C-14.4191 607.281 -14.2201 605.916 -13.3966 605.221C-12.5732 604.526 -11.437 604.765 -10.859 605.755Z" fill="black"/>
<path d="M139 428.624C139.521 429.517 139.342 430.749 138.599 431.376C137.856 432.003 136.831 431.787 136.309 430.894C135.788 430.001 135.967 428.769 136.71 428.142C137.453 427.515 138.478 427.731 139 428.624Z" fill="black"/>
<path d="M417.084 167.649C416.982 166.619 417.659 165.575 418.596 165.315C419.532 165.055 420.374 165.678 420.476 166.708C420.577 167.737 419.9 168.782 418.964 169.042C418.027 169.301 417.185 168.678 417.084 167.649Z" fill="black"/>
<path d="M471.605 272.944C471.211 271.988 471.557 270.792 472.379 270.273C473.201 269.754 474.187 270.108 474.581 271.064C474.975 272.02 474.629 273.216 473.807 273.735C472.985 274.254 471.999 273.9 471.605 272.944Z" fill="black"/>
<path d="M426.047 372.3C425.653 371.344 425.999 370.148 426.821 369.629C427.643 369.109 428.629 369.464 429.023 370.42C429.417 371.376 429.071 372.571 428.249 373.091C427.427 373.61 426.441 373.256 426.047 372.3Z" fill="black"/>
<path d="M294.047 309.3C293.653 308.344 293.999 307.148 294.821 306.629C295.643 306.109 296.629 306.464 297.023 307.42C297.418 308.376 297.071 309.571 296.249 310.091C295.427 310.61 294.441 310.256 294.047 309.3Z" fill="black"/>
<path d="M242.047 191.3C241.653 190.344 241.999 189.148 242.821 188.629C243.643 188.109 244.629 188.464 245.023 189.42C245.418 190.376 245.071 191.571 244.249 192.091C243.427 192.61 242.441 192.256 242.047 191.3Z" fill="black"/>
<path d="M190.047 73.2997C189.653 72.3437 189.999 71.1478 190.821 70.6286C191.643 70.1094 192.629 70.4635 193.023 71.4195C193.418 72.3755 193.071 73.5714 192.249 74.0906C191.427 74.6098 190.441 74.2557 190.047 73.2997Z" fill="black"/>
<path d="M309.284 232.264C309.284 233.093 308.613 233.764 307.784 233.764C306.956 233.764 306.284 233.093 306.284 232.264C306.284 231.436 306.956 230.764 307.784 230.764C308.613 230.764 309.284 231.436 309.284 232.264Z" fill="black"/>
<path d="M77.9933 178.437C78.6764 178.906 78.8501 179.84 78.3814 180.523C77.9126 181.206 76.9789 181.38 76.2959 180.911C75.6128 180.442 75.4391 179.509 75.9078 178.825C76.3766 178.142 77.3103 177.969 77.9933 178.437Z" fill="black"/>
<path d="M256.903 390.826C257.379 391.504 257.215 392.44 256.537 392.916C255.859 393.392 254.924 393.228 254.448 392.55C253.972 391.872 254.136 390.936 254.814 390.46C255.492 389.984 256.427 390.148 256.903 390.826Z" fill="black"/>
<path d="M106.016 315.801C106.418 316.374 106.28 317.164 105.707 317.566C105.134 317.968 104.344 317.829 103.942 317.257C103.54 316.684 103.679 315.894 104.251 315.492C104.824 315.09 105.614 315.229 106.016 315.801Z" fill="black"/>
<path d="M-1.4073 437.556C-0.8293 438.546 -1.0283 439.912 -1.85177 440.606C-2.67524 441.301 -3.81136 441.062 -4.38937 440.072C-4.96737 439.082 -4.76837 437.717 -3.9449 437.022C-3.12143 436.328 -1.98531 436.567 -1.4073 437.556Z" fill="black"/>
<path d="M-55.4074 534.556C-54.8294 535.546 -55.0284 536.912 -55.8518 537.606C-56.6753 538.301 -57.8114 538.062 -58.3894 537.072C-58.9674 536.082 -58.7684 534.717 -57.945 534.022C-57.1215 533.328 -55.9854 533.567 -55.4074 534.556Z" fill="black"/>
<path d="M98.8039 364.381C99.3254 365.274 99.1459 366.506 98.4028 367.133C97.6598 367.76 96.6347 367.544 96.1132 366.651C95.5917 365.758 95.7712 364.526 96.5142 363.899C97.2572 363.273 98.2824 363.488 98.8039 364.381Z" fill="black"/>
<path d="M426.826 242.801C426.724 241.772 427.401 240.727 428.338 240.467C429.275 240.207 430.116 240.831 430.218 241.86C430.32 242.889 429.643 243.934 428.706 244.194C427.769 244.454 426.928 243.83 426.826 242.801Z" fill="black"/>
<path d="M502.628 342.084C502.234 341.128 502.58 339.932 503.402 339.413C504.224 338.894 505.21 339.248 505.604 340.204C505.999 341.16 505.652 342.356 504.83 342.875C504.008 343.394 503.023 343.04 502.628 342.084Z" fill="black"/>
<path d="M457.07 441.44C456.676 440.484 457.022 439.288 457.844 438.769C458.666 438.25 459.652 438.604 460.046 439.56C460.441 440.516 460.094 441.712 459.272 442.231C458.451 442.75 457.465 442.396 457.07 441.44Z" fill="black"/>
<path d="M325.07 378.44C324.676 377.484 325.022 376.288 325.844 375.769C326.666 375.25 327.652 375.604 328.046 376.56C328.441 377.516 328.094 378.712 327.272 379.231C326.451 379.75 325.465 379.396 325.07 378.44Z" fill="black"/>
<path d="M273.07 260.44C272.676 259.484 273.022 258.288 273.844 257.769C274.666 257.25 275.652 257.604 276.046 258.56C276.441 259.516 276.094 260.712 275.272 261.231C274.451 261.75 273.465 261.396 273.07 260.44Z" fill="black"/>
<path d="M221.07 142.44C220.676 141.484 221.022 140.288 221.844 139.769C222.666 139.25 223.652 139.604 224.046 140.56C224.441 141.516 224.094 142.712 223.272 143.231C222.451 143.75 221.465 143.396 221.07 142.44Z" fill="black"/>
<path d="M282.284 250.264C282.284 251.093 281.613 251.764 280.784 251.764C279.956 251.764 279.284 251.093 279.284 250.264C279.284 249.436 279.956 248.764 280.784 248.764C281.613 248.764 282.284 249.436 282.284 250.264Z" fill="black"/>
<path d="M77.5576 210.884C78.2406 211.353 78.4144 212.287 77.9456 212.97C77.4769 213.653 76.5432 213.827 75.8601 213.358C75.177 212.889 75.0033 211.956 75.4721 211.273C75.9408 210.589 76.8745 210.416 77.5576 210.884Z" fill="black"/>
<path d="M245.145 421.071C245.621 421.749 245.457 422.684 244.779 423.16C244.101 423.636 243.165 423.472 242.689 422.794C242.213 422.116 242.377 421.181 243.055 420.705C243.733 420.229 244.669 420.393 245.145 421.071Z" fill="black"/>
<path d="M96.0857 341.344C96.4877 341.916 96.3493 342.706 95.7767 343.108C95.204 343.51 94.414 343.372 94.012 342.799C93.6101 342.227 93.7484 341.437 94.3211 341.035C94.8937 340.633 95.6838 340.771 96.0857 341.344Z" fill="black"/>
<path d="M-15.6871 481.702C-15.1091 482.692 -15.3081 484.057 -16.1316 484.752C-16.9551 485.446 -18.0912 485.207 -18.6692 484.218C-19.2472 483.228 -19.0482 481.862 -18.2247 481.168C-17.4013 480.473 -16.2652 480.712 -15.6871 481.702Z" fill="black"/>
<path d="M-69.6872 578.702C-69.1092 579.692 -69.3081 581.057 -70.1316 581.752C-70.9551 582.446 -72.0912 582.207 -72.6692 581.218C-73.2472 580.228 -73.0482 578.862 -72.2247 578.168C-71.4013 577.473 -70.2652 577.712 -69.6872 578.702Z" fill="black"/>
<path d="M85.9193 404.214C86.4408 405.107 86.2612 406.339 85.5182 406.966C84.7752 407.592 83.7501 407.377 83.2285 406.484C82.707 405.591 82.8866 404.359 83.6296 403.732C84.3726 403.105 85.3977 403.321 85.9193 404.214Z" fill="black"/>
<path d="M455.148 211.971C455.047 210.942 455.724 209.897 456.66 209.637C457.597 209.377 458.439 210.001 458.54 211.03C458.642 212.059 457.965 213.104 457.028 213.364C456.091 213.624 455.25 213 455.148 211.971Z" fill="black"/>
<path d="M520.844 304.391C520.45 303.435 520.796 302.239 521.618 301.719C522.44 301.2 523.426 301.554 523.82 302.51C524.215 303.466 523.868 304.662 523.046 305.181C522.225 305.701 521.239 305.347 520.844 304.391Z" fill="black"/>
<path d="M475.286 403.746C474.892 402.79 475.239 401.594 476.06 401.075C476.882 400.556 477.868 400.91 478.262 401.866C478.657 402.822 478.31 404.018 477.489 404.537C476.667 405.056 475.681 404.702 475.286 403.746Z" fill="black"/>
<path d="M343.286 340.746C342.892 339.79 343.238 338.594 344.06 338.075C344.882 337.556 345.868 337.91 346.262 338.866C346.657 339.822 346.31 341.018 345.488 341.537C344.667 342.056 343.681 341.702 343.286 340.746Z" fill="black"/>
<path d="M291.286 222.746C290.892 221.79 291.238 220.594 292.06 220.075C292.882 219.556 293.868 219.91 294.262 220.866C294.657 221.822 294.31 223.018 293.488 223.537C292.667 224.056 291.681 223.702 291.286 222.746Z" fill="black"/>
<path d="M239.286 104.746C238.892 103.79 239.238 102.594 240.06 102.075C240.882 101.556 241.868 101.91 242.262 102.866C242.657 103.822 242.31 105.018 241.488 105.537C240.667 106.056 239.681 105.702 239.286 104.746Z" fill="black"/>
<path d="M270.284 275.264C270.284 276.093 269.613 276.764 268.784 276.764C267.956 276.764 267.284 276.093 267.284 275.264C267.284 274.436 267.956 273.764 268.784 273.764C269.613 273.764 270.284 274.436 270.284 275.264Z" fill="black"/>
<path d="M91.3809 234.924C92.0639 235.393 92.2377 236.327 91.7689 237.01C91.3002 237.693 90.3665 237.867 89.6834 237.398C89.0003 236.929 88.8266 235.995 89.2953 235.312C89.7641 234.629 90.6978 234.456 91.3809 234.924Z" fill="black"/>
<path d="M249.686 448.427C250.162 449.105 249.998 450.041 249.32 450.517C248.642 450.993 247.706 450.829 247.23 450.151C246.754 449.473 246.918 448.537 247.596 448.061C248.274 447.585 249.21 447.749 249.686 448.427Z" fill="black"/>
<path d="M99.9205 364.447C100.322 365.02 100.184 365.81 99.6114 366.212C99.0388 366.614 98.2487 366.475 97.8468 365.903C97.4448 365.33 97.5832 364.54 98.1559 364.138C98.7285 363.736 99.5186 363.875 99.9205 364.447Z" fill="black"/>
<path d="M-10.1726 521.632C-9.59456 522.622 -9.79356 523.987 -10.617 524.682C-11.4405 525.376 -12.5766 525.137 -13.1546 524.148C-13.7326 523.158 -13.5336 521.792 -12.7102 521.098C-11.8867 520.403 -10.7506 520.642 -10.1726 521.632Z" fill="black"/>
<path d="M-64.1725 618.632C-63.5945 619.622 -63.7935 620.987 -64.617 621.682C-65.4404 622.376 -66.5766 622.137 -67.1546 621.148C-67.7326 620.158 -67.5336 618.792 -66.7101 618.098C-65.8866 617.403 -64.7505 617.642 -64.1725 618.632Z" fill="black"/>
<path d="M90.8951 440.243C91.4166 441.136 91.237 442.368 90.494 442.994C89.751 443.621 88.7259 443.405 88.2044 442.512C87.6828 441.619 87.8624 440.387 88.6054 439.761C89.3484 439.134 90.3736 439.35 90.8951 440.243Z" fill="black"/>
<path d="M465.651 177.15C465.549 176.121 466.226 175.076 467.163 174.816C468.1 174.556 468.941 175.18 469.043 176.209C469.145 177.238 468.468 178.283 467.531 178.543C466.594 178.803 465.753 178.179 465.651 177.15Z" fill="black"/>
<path d="M520.847 268.02C520.453 267.064 520.799 265.868 521.621 265.349C522.443 264.829 523.429 265.184 523.823 266.14C524.218 267.096 523.871 268.291 523.049 268.811C522.228 269.33 521.242 268.976 520.847 268.02Z" fill="black"/>
<path d="M475.289 367.376C474.895 366.42 475.242 365.224 476.063 364.704C476.885 364.185 477.871 364.539 478.266 365.495C478.66 366.451 478.313 367.647 477.492 368.166C476.67 368.686 475.684 368.332 475.289 367.376Z" fill="black"/>
<path d="M343.289 304.376C342.895 303.42 343.242 302.224 344.063 301.704C344.885 301.185 345.871 301.539 346.266 302.495C346.66 303.451 346.313 304.647 345.492 305.166C344.67 305.686 343.684 305.332 343.289 304.376Z" fill="black"/>
<path d="M291.289 186.376C290.895 185.42 291.242 184.224 292.063 183.704C292.885 183.185 293.871 183.539 294.266 184.495C294.66 185.451 294.313 186.647 293.492 187.166C292.67 187.686 291.684 187.332 291.289 186.376Z" fill="black"/>
<path d="M239.289 68.3756C238.895 67.4196 239.242 66.2237 240.063 65.7045C240.885 65.1853 241.871 65.5394 242.266 66.4954C242.66 67.4514 242.313 68.6473 241.492 69.1665C240.67 69.6857 239.684 69.3316 239.289 68.3756Z" fill="black"/>
<path d="M339.284 264.264C339.284 265.093 338.613 265.764 337.784 265.764C336.956 265.764 336.284 265.093 336.284 264.264C336.284 263.436 336.956 262.764 337.784 262.764C338.613 262.764 339.284 263.436 339.284 264.264Z" fill="black"/>
<path d="M121.353 171.808C122.036 172.277 122.21 173.21 121.741 173.894C121.272 174.577 120.338 174.75 119.655 174.282C118.972 173.813 118.799 172.879 119.267 172.196C119.736 171.513 120.67 171.339 121.353 171.808Z" fill="black"/>
<path d="M299.842 399.783C300.318 400.461 300.155 401.396 299.476 401.872C298.798 402.348 297.863 402.184 297.387 401.506C296.911 400.828 297.075 399.893 297.753 399.417C298.431 398.941 299.366 399.105 299.842 399.783Z" fill="black"/>
<path d="M142.279 323.365C142.681 323.938 142.543 324.728 141.97 325.13C141.398 325.532 140.607 325.394 140.206 324.821C139.804 324.248 139.942 323.458 140.515 323.056C141.087 322.654 141.877 322.793 142.279 323.365Z" fill="black"/>
<path d="M50.74 450.63C51.318 451.619 51.119 452.985 50.2955 453.68C49.472 454.374 48.3359 454.135 47.7579 453.145C47.1799 452.156 47.3789 450.79 48.2024 450.095C49.0258 449.401 50.162 449.64 50.74 450.63Z" fill="black"/>
<path d="M-3.26003 547.63C-2.68202 548.619 -2.88102 549.985 -3.70449 550.68C-4.52796 551.374 -5.66409 551.135 -6.24209 550.145C-6.82009 549.156 -6.62109 547.79 -5.79762 547.095C-4.97415 546.401 -3.83803 546.64 -3.26003 547.63Z" fill="black"/>
<path d="M145.856 376.177C146.378 377.07 146.198 378.302 145.455 378.929C144.712 379.556 143.687 379.34 143.166 378.447C142.644 377.554 142.824 376.322 143.567 375.695C144.31 375.069 145.335 375.284 145.856 376.177Z" fill="black"/>
<path d="M388.98 212.457C388.878 211.428 389.555 210.383 390.492 210.123C391.429 209.864 392.27 210.487 392.372 211.516C392.473 212.546 391.796 213.59 390.86 213.85C389.923 214.11 389.081 213.486 388.98 212.457Z" fill="black"/>
<path d="M457.633 323.958C457.239 323.002 457.586 321.806 458.407 321.287C459.229 320.768 460.215 321.122 460.61 322.078C461.004 323.034 460.657 324.23 459.836 324.749C459.014 325.268 458.028 324.914 457.633 323.958Z" fill="black"/>
<path d="M412.076 423.314C411.681 422.358 412.028 421.162 412.85 420.643C413.671 420.124 414.657 420.478 415.052 421.434C415.446 422.39 415.1 423.586 414.278 424.105C413.456 424.624 412.47 424.27 412.076 423.314Z" fill="black"/>
<path d="M280.076 360.314C279.681 359.358 280.028 358.162 280.85 357.643C281.671 357.124 282.657 357.478 283.052 358.434C283.446 359.39 283.1 360.586 282.278 361.105C281.456 361.624 280.47 361.27 280.076 360.314Z" fill="black"/>
<path d="M151.998 266.376C151.604 265.42 151.95 264.224 152.772 263.704C153.594 263.185 154.58 263.539 154.974 264.495C155.369 265.451 155.022 266.647 154.2 267.166C153.379 267.686 152.393 267.332 151.998 266.376Z" fill="black"/>
<path d="M151.998 266.376C151.604 265.42 151.95 264.224 152.772 263.704C153.594 263.185 154.58 263.539 154.974 264.495C155.369 265.451 155.022 266.647 154.2 267.166C153.379 267.686 152.393 267.332 151.998 266.376Z" fill="black"/>
<path d="M11.4742 204.437C11.0798 203.481 11.4263 202.285 12.2481 201.766C13.07 201.247 14.0559 201.601 14.4503 202.557C14.8447 203.513 14.4981 204.709 13.6763 205.228C12.8545 205.747 11.8685 205.393 11.4742 204.437Z" fill="black"/>
<path d="M286.474 482.437C286.08 481.481 286.426 480.285 287.248 479.766C288.07 479.247 289.056 479.601 289.45 480.557C289.845 481.513 289.498 482.709 288.676 483.228C287.854 483.747 286.869 483.393 286.474 482.437Z" fill="black"/>
<path d="M176.076 124.314C175.681 123.358 176.028 122.162 176.849 121.643C177.671 121.124 178.657 121.478 179.052 122.434C179.446 123.39 179.099 124.586 178.278 125.105C177.456 125.624 176.47 125.27 176.076 124.314Z" fill="black"/>
<path d="M35.5514 62.3756C35.157 61.4196 35.5035 60.2237 36.3253 59.7045C37.1472 59.1853 38.1331 59.5394 38.5275 60.4954C38.9219 61.4514 38.5753 62.6473 37.7535 63.1665C36.9317 63.6857 35.9458 63.3316 35.5514 62.3756Z" fill="black"/>
<path d="M310.551 340.376C310.157 339.42 310.504 338.224 311.325 337.704C312.147 337.185 313.133 337.539 313.528 338.495C313.922 339.451 313.575 340.647 312.754 341.166C311.932 341.686 310.946 341.332 310.551 340.376Z" fill="black"/>
<path d="M358.284 303.264C358.284 304.093 357.613 304.764 356.784 304.764C355.956 304.764 355.284 304.093 355.284 303.264C355.284 302.436 355.956 301.764 356.784 301.764C357.613 301.764 358.284 302.436 358.284 303.264Z" fill="black"/>
<path d="M217.76 241.326C217.76 242.154 217.089 242.826 216.26 242.826C215.432 242.826 214.76 242.154 214.76 241.326C214.76 240.498 215.432 239.826 216.26 239.826C217.089 239.826 217.76 240.498 217.76 241.326Z" fill="black"/>
<path d="M492.76 519.326C492.76 520.154 492.089 520.826 491.26 520.826C490.432 520.826 489.76 520.154 489.76 519.326C489.76 518.498 490.432 517.826 491.26 517.826C492.089 517.826 492.76 518.498 492.76 519.326Z" fill="black"/>
<path d="M164.26 178.209C164.943 178.678 165.117 179.612 164.648 180.295C164.179 180.978 163.246 181.151 162.563 180.683C161.88 180.214 161.706 179.28 162.175 178.597C162.643 177.914 163.577 177.74 164.26 178.209Z" fill="black"/>
<path d="M23.7359 116.271C24.419 116.739 24.5927 117.673 24.124 118.356C23.6553 119.039 22.7215 119.213 22.0385 118.744C21.3554 118.275 21.1817 117.342 21.6504 116.659C22.1192 115.976 23.0529 115.802 23.7359 116.271Z" fill="black"/>
<path d="M298.736 394.271C299.419 394.739 299.593 395.673 299.124 396.356C298.655 397.039 297.722 397.213 297.039 396.744C296.356 396.275 296.182 395.342 296.651 394.659C297.119 393.976 298.053 393.802 298.736 394.271Z" fill="black"/>
<path d="M337.8 420.788C338.276 421.466 338.112 422.402 337.434 422.878C336.756 423.354 335.82 423.19 335.344 422.512C334.868 421.834 335.032 420.898 335.71 420.422C336.388 419.946 337.324 420.11 337.8 420.788Z" fill="black"/>
<path d="M197.276 358.85C197.752 359.528 197.588 360.464 196.91 360.939C196.232 361.415 195.296 361.252 194.82 360.574C194.344 359.895 194.508 358.96 195.186 358.484C195.864 358.008 196.8 358.172 197.276 358.85Z" fill="black"/>
<path d="M472.276 636.85C472.752 637.528 472.588 638.464 471.91 638.939C471.232 639.415 470.296 639.252 469.82 638.574C469.344 637.895 469.508 636.96 470.186 636.484C470.864 636.008 471.8 636.172 472.276 636.85Z" fill="black"/>
<path d="M33.8111 279.167C34.2131 279.739 34.0747 280.53 33.5021 280.931C32.9294 281.333 32.1394 281.195 31.7374 280.622C31.3355 280.05 31.4738 279.26 32.0465 278.858C32.6191 278.456 33.4092 278.594 33.8111 279.167Z" fill="black"/>
<path d="M308.811 557.167C309.213 557.739 309.075 558.53 308.502 558.931C307.93 559.333 307.139 559.195 306.737 558.622C306.336 558.05 306.474 557.26 307.047 556.858C307.619 556.456 308.409 556.594 308.811 557.167Z" fill="black"/>
<path d="M96.837 481.29C97.415 482.279 97.216 483.645 96.3925 484.34C95.569 485.034 94.4329 484.795 93.8549 483.805C93.2769 482.816 93.4759 481.45 94.2994 480.755C95.1228 480.061 96.259 480.3 96.837 481.29Z" fill="black"/>
<path d="M-43.6872 419.351C-43.1091 420.341 -43.3081 421.706 -44.1316 422.401C-44.9551 423.096 -46.0912 422.857 -46.6692 421.867C-47.2472 420.877 -47.0482 419.512 -46.2247 418.817C-45.4013 418.122 -44.2652 418.362 -43.6872 419.351Z" fill="black"/>
<path d="M231.313 697.351C231.891 698.341 231.692 699.706 230.868 700.401C230.045 701.096 228.909 700.857 228.331 699.867C227.753 698.877 227.952 697.512 228.775 696.817C229.599 696.122 230.735 696.362 231.313 697.351Z" fill="black"/>
<path d="M42.837 578.29C43.415 579.279 43.216 580.645 42.3925 581.34C41.569 582.034 40.4329 581.795 39.8549 580.805C39.2769 579.816 39.4759 578.45 40.2994 577.755C41.1228 577.061 42.259 577.3 42.837 578.29Z" fill="black"/>
<path d="M-97.6872 516.351C-97.1092 517.341 -97.3081 518.706 -98.1316 519.401C-98.9551 520.096 -100.091 519.857 -100.669 518.867C-101.247 517.877 -101.048 516.512 -100.225 515.817C-99.4013 515.122 -98.2652 515.362 -97.6872 516.351Z" fill="black"/>
<path d="M177.313 794.351C177.891 795.341 177.692 796.706 176.868 797.401C176.045 798.096 174.909 797.857 174.331 796.867C173.753 795.877 173.952 794.512 174.775 793.817C175.599 793.122 176.735 793.362 177.313 794.351Z" fill="black"/>
<path d="M187.45 403.842C187.971 404.735 187.792 405.967 187.049 406.594C186.306 407.22 185.28 407.005 184.759 406.112C184.237 405.219 184.417 403.987 185.16 403.36C185.903 402.733 186.928 402.949 187.45 403.842Z" fill="black"/>
<path d="M362.713 169.968C362.611 168.938 363.288 167.894 364.225 167.634C365.162 167.374 366.004 167.997 366.105 169.027C366.207 170.056 365.53 171.101 364.593 171.361C363.656 171.62 362.815 170.997 362.713 169.968Z" fill="black"/>
<path d="M420.219 290.86C419.824 289.904 420.171 288.708 420.993 288.189C421.815 287.67 422.801 288.024 423.195 288.98C423.589 289.936 423.243 291.132 422.421 291.651C421.599 292.17 420.613 291.816 420.219 290.86Z" fill="black"/>
<path d="M374.661 390.216C374.267 389.26 374.613 388.064 375.435 387.545C376.257 387.026 377.243 387.38 377.637 388.336C378.031 389.292 377.685 390.488 376.863 391.007C376.041 391.526 375.055 391.172 374.661 390.216Z" fill="black"/>
<path d="M242.661 327.216C242.267 326.26 242.613 325.064 243.435 324.545C244.257 324.026 245.243 324.38 245.637 325.336C246.031 326.292 245.685 327.488 244.863 328.007C244.041 328.526 243.055 328.172 242.661 327.216Z" fill="black"/>
<path d="M190.661 209.216C190.267 208.26 190.613 207.064 191.435 206.545C192.257 206.026 193.243 206.38 193.637 207.336C194.031 208.292 193.685 209.488 192.863 210.007C192.041 210.526 191.055 210.172 190.661 209.216Z" fill="black"/>
<path d="M138.661 91.2162C138.267 90.2602 138.613 89.0643 139.435 88.5451C140.257 88.0259 141.243 88.38 141.637 89.336C142.031 90.292 141.685 91.4879 140.863 92.0071C140.041 92.5263 139.055 92.1722 138.661 91.2162Z" fill="black"/>
<path d="M400.284 324.264C400.284 325.093 399.613 325.764 398.784 325.764C397.956 325.764 397.284 325.093 397.284 324.264C397.284 323.436 397.956 322.764 398.784 322.764C399.613 322.764 400.284 323.436 400.284 324.264Z" fill="black"/>
<path d="M205.34 155.461C206.023 155.93 206.197 156.864 205.728 157.547C205.259 158.23 204.325 158.404 203.642 157.935C202.959 157.466 202.785 156.532 203.254 155.849C203.723 155.166 204.657 154.993 205.34 155.461Z" fill="black"/>
<path d="M384.241 413.847C384.717 414.526 384.553 415.461 383.875 415.937C383.197 416.413 382.262 416.249 381.786 415.571C381.31 414.893 381.474 413.957 382.152 413.482C382.83 413.006 383.765 413.169 384.241 413.847Z" fill="black"/>
<path d="M213.556 335.243C213.958 335.816 213.82 336.606 213.247 337.008C212.675 337.41 211.885 337.272 211.483 336.699C211.081 336.126 211.219 335.336 211.792 334.934C212.364 334.532 213.155 334.671 213.556 335.243Z" fill="black"/>
<path d="M153.238 471.159C153.816 472.148 153.617 473.514 152.793 474.208C151.97 474.903 150.834 474.664 150.256 473.674C149.678 472.685 149.877 471.319 150.7 470.624C151.524 469.93 152.66 470.169 153.238 471.159Z" fill="black"/>
<path d="M99.2377 568.159C99.8157 569.148 99.6167 570.514 98.7932 571.208C97.9697 571.903 96.8336 571.664 96.2556 570.674C95.6776 569.685 95.8766 568.319 96.7001 567.624C97.5235 566.93 98.6597 567.169 99.2377 568.159Z" fill="black"/>
<path d="M238.34 394.701C238.861 395.594 238.682 396.826 237.939 397.452C237.196 398.079 236.171 397.863 235.649 396.97C235.128 396.077 235.307 394.845 236.05 394.219C236.793 393.592 237.818 393.808 238.34 394.701Z" fill="black"/>
<path d="M312.647 157.053C312.545 156.024 313.222 154.979 314.159 154.719C315.096 154.459 315.938 155.083 316.039 156.112C316.141 157.141 315.464 158.186 314.527 158.446C313.59 158.706 312.749 158.082 312.647 157.053Z" fill="black"/>
<path d="M368.556 292.949C368.162 291.993 368.508 290.797 369.33 290.278C370.152 289.759 371.138 290.113 371.532 291.069C371.927 292.025 371.58 293.221 370.758 293.74C369.936 294.259 368.951 293.905 368.556 292.949Z" fill="black"/>
<path d="M322.998 392.305C322.604 391.349 322.95 390.153 323.772 389.634C324.594 389.115 325.58 389.469 325.974 390.425C326.369 391.381 326.022 392.577 325.2 393.096C324.379 393.615 323.393 393.261 322.998 392.305Z" fill="black"/>
<path d="M190.998 329.305C190.604 328.349 190.95 327.153 191.772 326.634C192.594 326.115 193.58 326.469 193.974 327.425C194.369 328.381 194.022 329.577 193.2 330.096C192.379 330.615 191.393 330.261 190.998 329.305Z" fill="black"/>
<path d="M138.998 211.305C138.604 210.349 138.95 209.153 139.772 208.634C140.594 208.115 141.58 208.469 141.974 209.425C142.369 210.381 142.022 211.577 141.2 212.096C140.379 212.615 139.393 212.261 138.998 211.305Z" fill="black"/>
<path d="M89.2004 84.6364C88.806 83.6804 89.1525 82.4845 89.9743 81.9653C90.7962 81.4461 91.7821 81.8002 92.1765 82.7562C92.5709 83.7122 92.2243 84.9081 91.4025 85.4273C90.5807 85.9465 89.5948 85.5924 89.2004 84.6364Z" fill="black"/>
<path d="M162.827 387.48C162.827 387.48 158.445 384.225 147.505 383.158L152.535 399.626C161.012 392.628 162.827 387.48 162.827 387.48ZM146.124 382.909C133.617 381.688 113.131 383.129 81.8476 394.272C80.8437 394.606 79.9146 394.93 79.0569 395.242C78.199 395.555 77.413 395.855 76.6957 396.14C75.9784 396.425 75.3295 396.695 74.7468 396.947C74.1634 397.199 73.6463 397.434 73.1921 397.647C72.7372 397.861 72.3451 398.053 72.0137 398.222C71.6815 398.39 71.4092 398.536 71.1941 398.654C70.7624 398.891 70.5595 399.021 70.5595 399.021C70.5595 399.021 70.5874 398.979 70.6878 398.881C70.7884 398.784 70.9613 398.631 71.2508 398.411C71.3958 398.3 71.5697 398.173 71.7786 398.027C71.9874 397.881 72.2308 397.717 72.515 397.532C72.799 397.347 73.1233 397.142 73.4932 396.915C73.8631 396.688 74.2795 396.439 74.7466 396.167C75.2144 395.895 75.6972 395.629 76.1847 395.37C76.6717 395.113 77.1636 394.864 77.6482 394.627C78.1338 394.39 78.6111 394.164 79.0713 393.952C79.2517 393.869 79.413 393.799 79.5872 393.722L49.1442 386.301L41.2972 388.588L62.3202 404.834L69.7528 429.168L61.3949 454.388L69.2385 452.09L90.2502 428.829C90.0578 428.862 89.8805 428.895 89.6794 428.928C89.1796 429.01 88.6568 429.089 88.1222 429.163C87.5886 429.238 87.0416 429.306 86.4939 429.365C85.9455 429.424 85.3969 429.472 84.8568 429.507C84.3174 429.543 83.8344 429.568 83.4008 429.587C82.9667 429.606 82.5831 429.617 82.2448 429.622C81.9066 429.627 81.6122 429.627 81.358 429.622C81.103 429.618 80.8878 429.609 80.7058 429.599C80.3427 429.578 80.114 429.548 79.9762 429.524C79.8383 429.499 79.7917 429.48 79.7917 429.48C79.7917 429.48 80.0334 429.474 80.5222 429.429C80.7673 429.407 81.0738 429.375 81.4435 429.33C81.8127 429.285 82.2453 429.225 82.7412 429.148C83.2371 429.071 83.7969 428.977 84.4209 428.86C85.0452 428.744 85.7341 428.605 86.4884 428.441C87.2419 428.277 88.0607 428.087 88.9466 427.866C89.832 427.646 90.7834 427.396 91.8017 427.112C124.017 418.871 141.832 408.611 151.529 400.604L146.124 382.909ZM127.021 398.345C127.024 398.354 127.026 398.362 127.028 398.371C127.034 398.386 127.038 398.401 127.042 398.416C127.047 398.431 127.052 398.445 127.056 398.46C127.06 398.476 127.064 398.49 127.068 398.505C127.073 398.52 127.077 398.535 127.081 398.55C127.085 398.565 127.09 398.58 127.094 398.595C127.098 398.61 127.102 398.626 127.106 398.641C127.11 398.656 127.114 398.671 127.117 398.686C127.122 398.7 127.126 398.715 127.13 398.73C127.134 398.746 127.137 398.76 127.141 398.775C127.145 398.791 127.149 398.806 127.152 398.821C127.156 398.836 127.16 398.851 127.163 398.867C127.167 398.882 127.17 398.897 127.174 398.912C127.177 398.927 127.181 398.942 127.184 398.958C127.188 398.973 127.191 398.988 127.194 399.003C127.198 399.018 127.201 399.034 127.205 399.049C127.208 399.064 127.211 399.079 127.215 399.094C127.218 399.11 127.221 399.125 127.224 399.14C127.227 399.155 127.23 399.17 127.233 399.186C127.236 399.201 127.239 399.216 127.242 399.232C127.245 399.247 127.247 399.262 127.251 399.277C127.254 399.293 127.256 399.308 127.259 399.323C127.262 399.339 127.264 399.354 127.267 399.369C127.269 399.385 127.273 399.4 127.275 399.416C127.277 399.431 127.28 399.446 127.283 399.462C127.285 399.477 127.288 399.493 127.29 399.508C127.293 399.523 127.295 399.539 127.297 399.554C127.3 399.569 127.302 399.585 127.304 399.6C127.307 399.615 127.309 399.631 127.311 399.647C127.313 399.661 127.315 399.678 127.317 399.692C127.32 399.708 127.321 399.723 127.324 399.739C127.325 399.755 127.328 399.77 127.329 399.785C127.331 399.801 127.333 399.816 127.335 399.832C127.337 399.847 127.338 399.862 127.34 399.878C127.342 399.894 127.343 399.909 127.345 399.924C127.347 399.94 127.349 399.955 127.35 399.971C127.351 399.986 127.353 400.002 127.355 400.018C127.356 400.033 127.357 400.048 127.359 400.064C127.36 400.079 127.361 400.095 127.363 400.11C127.364 400.126 127.366 400.141 127.366 400.157C127.368 400.172 127.369 400.188 127.37 400.203C127.372 400.219 127.372 400.235 127.373 400.25C127.374 400.266 127.375 400.281 127.376 400.297C127.377 400.313 127.378 400.328 127.379 400.343C127.38 400.359 127.38 400.374 127.381 400.39C127.382 400.405 127.383 400.421 127.384 400.436C127.384 400.452 127.385 400.467 127.386 400.483C127.386 400.499 127.387 400.514 127.387 400.53C127.388 400.545 127.388 400.561 127.388 400.577C127.389 400.592 127.389 400.608 127.39 400.623C127.391 400.639 127.391 400.654 127.391 400.67C127.391 400.686 127.391 400.701 127.391 400.717C127.392 400.733 127.392 400.747 127.392 400.764C127.392 400.779 127.392 400.794 127.392 400.81C127.392 400.826 127.392 400.841 127.392 400.857C127.392 400.872 127.392 400.888 127.392 400.903C127.391 400.919 127.391 400.935 127.391 400.95C127.39 400.966 127.39 400.981 127.39 400.997C127.39 401.012 127.389 401.028 127.388 401.043C127.388 401.059 127.388 401.074 127.387 401.09C127.387 401.106 127.386 401.121 127.385 401.137C127.385 401.152 127.384 401.168 127.383 401.184C127.383 401.199 127.382 401.214 127.381 401.23C127.381 401.245 127.379 401.261 127.379 401.277C127.378 401.292 127.377 401.308 127.376 401.323C127.375 401.339 127.374 401.354 127.373 401.369C127.372 401.385 127.37 401.401 127.37 401.417C127.368 401.432 127.367 401.447 127.366 401.463C127.365 401.478 127.363 401.494 127.363 401.51C127.361 401.525 127.36 401.541 127.359 401.556C127.357 401.571 127.356 401.587 127.354 401.602C127.353 401.618 127.351 401.634 127.35 401.648C127.348 401.664 127.346 401.68 127.345 401.695C127.343 401.711 127.341 401.727 127.34 401.742C127.337 401.757 127.336 401.773 127.334 401.788C127.333 401.804 127.33 401.819 127.329 401.834C127.327 401.85 127.324 401.866 127.323 401.881C127.321 401.896 127.318 401.911 127.316 401.928C127.314 401.943 127.313 401.958 127.31 401.973C127.307 401.989 127.306 402.005 127.304 402.02C127.301 402.035 127.298 402.051 127.296 402.066C127.294 402.081 127.292 402.097 127.289 402.112C127.287 402.127 127.284 402.143 127.282 402.158C127.279 402.174 127.277 402.188 127.274 402.204C127.271 402.219 127.268 402.235 127.266 402.25C127.263 402.265 127.261 402.281 127.258 402.297C127.255 402.312 127.253 402.327 127.25 402.342C127.246 402.357 127.243 402.373 127.241 402.388C127.238 402.404 127.235 402.418 127.231 402.434C127.228 402.449 127.226 402.464 127.222 402.48C127.219 402.495 127.216 402.51 127.213 402.525C127.21 402.541 127.207 402.556 127.203 402.571C127.2 402.586 127.196 402.601 127.193 402.617C127.19 402.632 127.187 402.647 127.183 402.662C127.18 402.677 127.175 402.692 127.172 402.708C127.169 402.723 127.165 402.738 127.162 402.754C127.158 402.769 127.155 402.783 127.151 402.799C127.147 402.814 127.143 402.829 127.139 402.844C127.135 402.859 127.131 402.874 127.128 402.889C127.124 402.904 127.12 402.92 127.116 402.935C127.112 402.95 127.108 402.964 127.104 402.979C127.1 402.994 127.096 403.009 127.092 403.025C127.088 403.04 127.083 403.055 127.079 403.069C127.075 403.084 127.071 403.099 127.066 403.115C127.062 403.129 127.058 403.144 127.053 403.16C127.049 403.174 127.044 403.189 127.04 403.204C127.036 403.219 127.031 403.234 127.026 403.249C127.022 403.263 127.018 403.278 127.013 403.293C127.008 403.308 127.003 403.323 126.999 403.338C126.994 403.353 126.989 403.367 126.985 403.382C126.98 403.397 126.974 403.412 126.97 403.427C126.965 403.442 126.96 403.456 126.955 403.471C126.95 403.485 126.945 403.501 126.94 403.515C126.935 403.53 126.93 403.545 126.925 403.559C126.92 403.574 126.914 403.589 126.91 403.603C126.904 403.618 126.899 403.633 126.894 403.647C126.888 403.662 126.883 403.676 126.877 403.691C126.872 403.706 126.867 403.72 126.861 403.735C126.856 403.749 126.85 403.764 126.845 403.779C126.839 403.793 126.833 403.808 126.828 403.822C126.822 403.836 126.817 403.851 126.811 403.866C126.805 403.88 126.8 403.894 126.793 403.909C126.788 403.923 126.782 403.938 126.776 403.952C126.77 403.966 126.765 403.981 126.758 403.995C126.753 404.01 126.746 404.025 126.74 404.039C126.734 404.054 126.729 404.068 126.722 404.082C126.716 404.096 126.71 404.11 126.704 404.125C126.697 404.139 126.691 404.153 126.685 404.167C126.679 404.182 126.672 404.196 126.666 404.21C126.66 404.224 126.654 404.238 126.647 404.253C126.641 404.267 126.634 404.281 126.628 404.295C126.621 404.309 126.614 404.324 126.607 404.337C126.601 404.352 126.595 404.366 126.588 404.38C126.581 404.394 126.574 404.408 126.568 404.422C126.561 404.436 126.554 404.45 126.547 404.463C126.541 404.478 126.534 404.492 126.527 404.506C126.52 404.52 126.513 404.534 126.506 404.548C126.499 404.562 126.492 404.576 126.485 404.59C126.478 404.603 126.471 404.617 126.464 404.631C126.456 404.645 126.449 404.658 126.442 404.672C126.435 404.686 126.428 404.7 126.42 404.713C126.413 404.727 126.406 404.741 126.398 404.755C126.391 404.769 126.384 404.782 126.376 404.796C126.369 404.809 126.361 404.823 126.354 404.837C126.347 404.851 126.338 404.864 126.331 404.878C126.324 404.892 126.316 404.905 126.308 404.919C126.301 404.932 126.293 404.946 126.285 404.959C126.278 404.973 126.269 404.986 126.262 405C126.254 405.013 126.246 405.026 126.238 405.04C126.23 405.053 126.222 405.067 126.214 405.08C126.206 405.093 126.198 405.107 126.19 405.12C126.183 405.133 126.174 405.147 126.166 405.16C126.158 405.173 126.149 405.186 126.141 405.2C126.134 405.213 126.125 405.226 126.117 405.239C126.108 405.253 126.1 405.266 126.092 405.278C126.083 405.292 126.075 405.305 126.066 405.318C126.058 405.332 126.05 405.344 126.041 405.357C126.033 405.37 126.025 405.384 126.015 405.396C126.007 405.41 125.999 405.422 125.99 405.435C125.981 405.448 125.973 405.461 125.964 405.474C125.955 405.487 125.946 405.5 125.937 405.513C125.929 405.526 125.92 405.539 125.911 405.551C125.903 405.564 125.893 405.577 125.884 405.59C125.876 405.602 125.867 405.615 125.857 405.628C125.849 405.641 125.84 405.653 125.831 405.666C125.821 405.678 125.813 405.691 125.803 405.704C125.794 405.716 125.785 405.729 125.776 405.742C125.767 405.754 125.757 405.766 125.748 405.779C125.739 405.791 125.729 405.804 125.72 405.816C125.711 405.829 125.701 405.841 125.692 405.853C125.682 405.866 125.673 405.879 125.663 405.891C125.654 405.903 125.645 405.916 125.635 405.928C125.625 405.94 125.616 405.952 125.606 405.964C125.597 405.977 125.587 405.989 125.578 406.001C125.567 406.013 125.557 406.026 125.548 406.038C125.539 406.05 125.528 406.062 125.519 406.074C125.509 406.086 125.499 406.098 125.489 406.11C125.479 406.122 125.469 406.134 125.459 406.146C125.449 406.158 125.44 406.17 125.429 406.182C125.419 406.194 125.409 406.206 125.399 406.217C125.388 406.23 125.379 406.241 125.369 406.253C125.358 406.265 125.348 406.277 125.338 406.288C125.327 406.3 125.317 406.311 125.308 406.323C125.297 406.335 125.286 406.347 125.276 406.358C125.266 406.37 125.255 406.381 125.245 406.393C125.235 406.404 125.224 406.416 125.214 406.428C125.204 406.439 125.192 406.45 125.182 406.462C125.172 406.473 125.161 406.485 125.15 406.497C125.14 406.507 125.129 406.519 125.118 406.531C125.108 406.542 125.097 406.553 125.086 406.565C125.076 406.576 125.064 406.587 125.054 406.598C125.043 406.609 125.032 406.62 125.021 406.631C125.011 406.642 125 406.654 124.989 406.664C124.978 406.676 124.966 406.687 124.956 406.698C124.945 406.709 124.933 406.72 124.922 406.731C124.912 406.742 124.9 406.753 124.89 406.764C124.878 406.774 124.867 406.786 124.856 406.797C124.845 406.807 124.833 406.818 124.822 406.829C124.811 406.84 124.8 406.85 124.788 406.861C124.777 406.872 124.766 406.883 124.755 406.893C124.743 406.904 124.732 406.914 124.721 406.924C124.709 406.936 124.698 406.946 124.686 406.957C124.674 406.967 124.663 406.977 124.651 406.988C124.64 406.998 124.629 407.009 124.617 407.019C124.605 407.03 124.593 407.04 124.582 407.051C124.57 407.06 124.559 407.071 124.547 407.081C124.535 407.091 124.524 407.102 124.512 407.111C124.5 407.122 124.488 407.132 124.476 407.142C124.464 407.152 124.453 407.163 124.44 407.172C124.429 407.182 124.417 407.193 124.405 407.203C124.393 407.213 124.381 407.223 124.369 407.233C124.357 407.243 124.345 407.252 124.333 407.262C124.321 407.272 124.309 407.282 124.297 407.292C124.285 407.302 124.273 407.312 124.261 407.321C124.248 407.331 124.236 407.34 124.224 407.35C124.212 407.359 124.199 407.369 124.188 407.379C124.175 407.388 124.163 407.398 124.15 407.408C124.138 407.417 124.126 407.426 124.113 407.436C124.101 407.446 124.088 407.455 124.076 407.464C124.064 407.473 124.051 407.483 124.039 407.492C124.026 407.502 124.014 407.511 124.001 407.52C123.988 407.529 123.976 407.539 123.963 407.548C123.951 407.557 123.938 407.566 123.925 407.575C123.913 407.584 123.9 407.593 123.887 407.602C123.875 407.611 123.862 407.621 123.85 407.63C123.837 407.639 123.824 407.647 123.811 407.656C123.799 407.665 123.786 407.674 123.773 407.683C123.761 407.691 123.747 407.701 123.734 407.709C123.722 407.718 123.709 407.726 123.695 407.735C123.682 407.744 123.67 407.753 123.657 407.761C123.644 407.77 123.631 407.778 123.618 407.787C123.605 407.795 123.591 407.804 123.579 407.812C123.566 407.821 123.552 407.829 123.539 407.838C123.526 407.846 123.513 407.855 123.5 407.863C123.487 407.871 123.473 407.879 123.461 407.888C123.447 407.896 123.434 407.904 123.42 407.912C123.408 407.921 123.394 407.928 123.381 407.937C123.367 407.945 123.354 407.953 123.341 407.96C123.328 407.969 123.315 407.977 123.301 407.985C123.287 407.993 123.274 408 123.26 408.008C123.247 408.017 123.233 408.024 123.22 408.032C123.207 408.04 123.193 408.047 123.18 408.055C123.166 408.063 123.153 408.07 123.139 408.078C123.125 408.086 123.112 408.093 123.098 408.101C123.084 408.108 123.071 408.116 123.057 408.123C123.043 408.131 123.03 408.138 123.016 408.146C123.002 408.153 122.988 408.161 122.975 408.168C122.961 408.175 122.947 408.182 122.934 408.19C122.92 408.197 122.906 408.204 122.892 408.212C122.878 408.219 122.865 408.226 122.851 408.233C122.837 408.24 122.823 408.247 122.809 408.254C122.796 408.261 122.781 408.268 122.768 408.275C122.753 408.282 122.739 408.288 122.725 408.296C122.712 408.302 122.698 408.309 122.684 408.316C122.67 408.323 122.655 408.329 122.641 408.336C122.627 408.343 122.614 408.349 122.599 408.356C122.585 408.363 122.571 408.369 122.557 408.376C122.543 408.382 122.529 408.389 122.515 408.395C122.5 408.402 122.486 408.409 122.472 408.415C122.458 408.421 122.443 408.427 122.429 408.434C122.415 408.441 122.401 408.446 122.386 408.453C122.372 408.459 122.358 408.465 122.344 408.472C122.329 408.478 122.315 408.483 122.301 408.49C122.286 408.496 122.272 408.502 122.258 408.508C122.243 408.515 122.229 408.52 122.214 408.526C122.2 408.532 122.186 408.538 122.171 408.543C122.157 408.55 122.142 408.555 122.128 408.561C122.114 408.567 122.099 408.572 122.085 408.578C122.071 408.584 122.056 408.589 122.041 408.595C122.027 408.602 122.012 408.606 121.997 408.611C121.983 408.618 121.968 408.622 121.954 408.628C121.939 408.632 121.925 408.639 121.91 408.644C121.895 408.649 121.88 408.655 121.866 408.66C121.851 408.664 121.836 408.67 121.822 408.675C121.807 408.679 121.793 408.686 121.778 408.691C121.763 408.695 121.748 408.702 121.733 408.707C121.719 408.711 121.704 408.718 121.69 408.722C121.675 408.727 121.661 408.733 121.646 408.738C121.631 408.742 121.616 408.747 121.601 408.752C121.586 408.756 121.571 408.761 121.556 408.765C121.542 408.77 121.527 408.774 121.512 408.779C121.503 408.782 121.494 408.784 121.486 408.787C121.471 408.791 121.456 408.796 121.441 408.8C121.427 408.805 121.411 408.81 121.396 408.814C121.382 408.819 121.367 408.823 121.352 408.828C121.337 408.832 121.322 408.837 121.308 408.841C121.293 408.846 121.277 408.848 121.262 408.853C121.247 408.857 121.232 408.86 121.217 408.864C121.202 408.869 121.186 408.871 121.172 408.876C121.157 408.88 121.141 408.883 121.126 408.887C121.111 408.892 121.096 408.895 121.081 408.9C121.066 408.904 121.051 408.907 121.036 408.91C121.021 408.915 121.005 408.917 120.99 408.921C120.975 408.926 120.96 408.928 120.945 408.932C120.929 408.935 120.915 408.94 120.899 408.943C120.884 408.945 120.869 408.95 120.854 408.953C120.839 408.956 120.823 408.96 120.808 408.963C120.793 408.965 120.778 408.969 120.762 408.972C120.747 408.975 120.732 408.979 120.716 408.982C120.701 408.984 120.686 408.988 120.671 408.991C120.655 408.993 120.64 408.997 120.625 409C120.609 409.003 120.594 409.006 120.579 409.009C120.563 409.011 120.548 409.015 120.533 409.018C120.518 409.02 120.502 409.022 120.487 409.026C120.471 409.028 120.457 409.03 120.441 409.034C120.425 409.036 120.411 409.038 120.395 409.041C120.379 409.044 120.364 409.046 120.349 409.048C120.334 409.051 120.318 409.053 120.302 409.055C120.287 409.057 120.272 409.06 120.256 409.062C120.241 409.065 120.226 409.067 120.21 409.068C120.195 409.071 120.179 409.073 120.164 409.075C120.148 409.077 120.133 409.08 120.118 409.081C120.102 409.084 120.087 409.085 120.071 409.087C120.055 409.089 120.04 409.091 120.025 409.093C120.01 409.095 119.994 409.097 119.979 409.098C119.963 409.1 119.948 409.102 119.932 409.103C119.916 409.105 119.901 409.107 119.886 409.108C119.87 409.11 119.855 409.111 119.839 409.112C119.824 409.115 119.809 409.116 119.793 409.117C119.777 409.118 119.761 409.12 119.746 409.121C119.731 409.123 119.715 409.123 119.7 409.125C119.684 409.126 119.669 409.127 119.653 409.129C119.638 409.129 119.622 409.13 119.606 409.132C119.591 409.133 119.575 409.134 119.56 409.135C119.544 409.136 119.528 409.137 119.513 409.137C119.497 409.138 119.482 409.139 119.466 409.14C119.451 409.141 119.435 409.141 119.42 409.142C119.405 409.143 119.389 409.144 119.373 409.144C119.357 409.145 119.342 409.146 119.327 409.146C119.311 409.146 119.296 409.147 119.28 409.147C119.264 409.148 119.249 409.148 119.233 409.148C119.218 409.148 119.202 409.149 119.186 409.149C119.171 409.149 119.155 409.15 119.139 409.15C119.124 409.15 119.109 409.15 119.093 409.15C119.077 409.15 119.062 409.15 119.046 409.15C119.031 409.151 119.015 409.151 119 409.151C118.984 409.15 118.968 409.15 118.953 409.15C118.937 409.15 118.922 409.149 118.906 409.149C118.891 409.149 118.876 409.149 118.859 409.148C118.844 409.148 118.829 409.148 118.813 409.147C118.797 409.147 118.782 409.147 118.766 409.146C118.751 409.145 118.736 409.145 118.719 409.144C118.704 409.143 118.688 409.143 118.673 409.142C118.657 409.141 118.642 409.141 118.626 409.139C118.61 409.139 118.595 409.138 118.579 409.138C118.563 409.136 118.549 409.135 118.533 409.135C118.518 409.134 118.502 409.133 118.487 409.132C118.471 409.131 118.455 409.13 118.44 409.128C118.424 409.127 118.409 409.126 118.394 409.125C118.378 409.124 118.362 409.122 118.347 409.121C118.331 409.12 118.315 409.119 118.3 409.117C118.284 409.116 118.269 409.114 118.254 409.113C118.238 409.111 118.222 409.109 118.207 409.108C118.191 409.107 118.176 409.105 118.16 409.103C118.145 409.101 118.13 409.1 118.114 409.098C118.099 409.096 118.083 409.094 118.068 409.093C118.053 409.091 118.037 409.089 118.022 409.088C118.006 409.085 117.99 409.083 117.975 409.081C117.959 409.079 117.944 409.077 117.929 409.075C117.914 409.073 117.898 409.071 117.883 409.069C117.867 409.067 117.852 409.065 117.837 409.062C117.821 409.06 117.806 409.057 117.79 409.055C117.775 409.053 117.76 409.05 117.744 409.048C117.728 409.046 117.714 409.044 117.698 409.041C117.683 409.038 117.667 409.036 117.652 409.033C117.636 409.03 117.621 409.028 117.606 409.025C117.59 409.023 117.575 409.02 117.56 409.017C117.545 409.014 117.529 409.012 117.514 409.008C117.499 409.006 117.483 409.003 117.468 409C117.453 408.997 117.437 408.994 117.423 408.991C117.407 408.988 117.392 408.985 117.377 408.982C117.361 408.979 117.346 408.975 117.33 408.972C117.316 408.969 117.301 408.966 117.285 408.962C117.27 408.959 117.255 408.956 117.24 408.952C117.224 408.949 117.209 408.945 117.194 408.942C117.179 408.939 117.164 408.935 117.149 408.932C117.133 408.928 117.118 408.924 117.103 408.921C117.088 408.917 117.073 408.914 117.058 408.91C117.042 408.906 117.027 408.902 117.012 408.898C116.997 408.895 116.982 408.891 116.967 408.887C116.952 408.883 116.937 408.88 116.922 408.875C116.907 408.871 116.892 408.867 116.877 408.863C116.861 408.859 116.846 408.855 116.831 408.851C116.817 408.847 116.802 408.842 116.786 408.838C116.771 408.834 116.757 408.83 116.742 408.826C116.727 408.821 116.712 408.817 116.697 408.813C116.682 408.808 116.667 408.804 116.652 408.799C116.637 408.795 116.622 408.79 116.607 408.786C116.593 408.781 116.577 408.777 116.563 408.772C116.547 408.767 116.533 408.763 116.518 408.758C116.503 408.753 116.488 408.748 116.473 408.744C116.459 408.739 116.444 408.734 116.429 408.729C116.415 408.724 116.399 408.719 116.385 408.715C116.37 408.709 116.356 408.704 116.341 408.7C116.326 408.694 116.311 408.689 116.297 408.684C116.282 408.679 116.267 408.674 116.252 408.669C116.238 408.663 116.223 408.659 116.209 408.653C116.194 408.647 116.179 408.642 116.164 408.636C116.15 408.632 116.135 408.626 116.12 408.621C116.106 408.615 116.092 408.609 116.077 408.605C116.063 408.598 116.048 408.593 116.034 408.587C116.019 408.581 116.005 408.576 115.99 408.57C115.975 408.565 115.961 408.559 115.947 408.553C115.932 408.547 115.917 408.542 115.903 408.536C115.889 408.529 115.874 408.524 115.86 408.517C115.846 408.512 115.831 408.506 115.817 408.5C115.803 408.494 115.788 408.488 115.774 408.482C115.76 408.475 115.745 408.469 115.732 408.463C115.717 408.457 115.702 408.451 115.688 408.444C115.674 408.439 115.66 408.432 115.646 408.426C115.631 408.419 115.617 408.413 115.603 408.407C115.589 408.4 115.575 408.394 115.561 408.387C115.546 408.381 115.533 408.374 115.518 408.368C115.504 408.36 115.49 408.354 115.476 408.347C115.462 408.341 115.448 408.334 115.434 408.327C115.42 408.321 115.405 408.313 115.392 408.307C115.378 408.3 115.364 408.293 115.35 408.286C115.336 408.279 115.322 408.273 115.308 408.266C115.294 408.258 115.28 408.252 115.266 408.244C115.253 408.238 115.238 408.23 115.225 408.224C115.211 408.217 115.197 408.209 115.183 408.202C115.17 408.194 115.156 408.187 115.142 408.18C115.128 408.173 115.114 408.165 115.101 408.158C115.087 408.15 115.074 408.143 115.06 408.136C115.046 408.128 115.032 408.121 115.018 408.114C115.005 408.106 114.991 408.098 114.978 408.091C114.964 408.083 114.951 408.076 114.937 408.067C114.924 408.06 114.91 408.053 114.896 408.044C114.883 408.037 114.87 408.03 114.856 408.021C114.843 408.013 114.829 408.006 114.816 407.997C114.803 407.99 114.789 407.982 114.775 407.974C114.762 407.966 114.749 407.958 114.736 407.95C114.723 407.942 114.709 407.934 114.696 407.925C114.683 407.917 114.67 407.91 114.656 407.901C114.643 407.893 114.63 407.885 114.616 407.877C114.603 407.868 114.59 407.86 114.577 407.852C114.564 407.843 114.55 407.835 114.538 407.827C114.525 407.818 114.511 407.809 114.498 407.801C114.485 407.793 114.472 407.784 114.459 407.775C114.446 407.767 114.433 407.758 114.42 407.75C114.407 407.741 114.394 407.733 114.381 407.723C114.369 407.715 114.355 407.706 114.343 407.697C114.33 407.689 114.317 407.68 114.304 407.671C114.292 407.662 114.278 407.653 114.266 407.644C114.254 407.635 114.24 407.626 114.227 407.617C114.215 407.608 114.203 407.599 114.19 407.59C114.177 407.582 114.164 407.572 114.152 407.563C114.139 407.554 114.127 407.545 114.114 407.535C114.102 407.526 114.089 407.517 114.077 407.508C114.064 407.498 114.052 407.489 114.039 407.48C114.027 407.47 114.015 407.461 114.002 407.452C113.99 407.442 113.978 407.433 113.965 407.423C113.952 407.414 113.94 407.404 113.928 407.395C113.915 407.385 113.903 407.376 113.891 407.366C113.879 407.356 113.866 407.347 113.854 407.337C113.842 407.327 113.83 407.318 113.818 407.308C113.805 407.298 113.794 407.288 113.782 407.279C113.769 407.269 113.757 407.259 113.746 407.249C113.733 407.239 113.721 407.229 113.71 407.219C113.697 407.21 113.686 407.199 113.674 407.189C113.662 407.18 113.65 407.169 113.638 407.159C113.626 407.149 113.614 407.139 113.603 407.128C113.591 407.118 113.58 407.109 113.567 407.098C113.555 407.087 113.544 407.078 113.532 407.067C113.521 407.057 113.509 407.047 113.497 407.037C113.486 407.026 113.474 407.015 113.462 407.005C113.451 406.995 113.44 406.984 113.428 406.974C113.417 406.963 113.405 406.952 113.393 406.942C113.382 406.932 113.371 406.921 113.359 406.91C113.348 406.9 113.336 406.889 113.325 406.878C113.314 406.868 113.302 406.857 113.291 406.846C113.28 406.836 113.269 406.825 113.258 406.814C113.247 406.803 113.236 406.792 113.224 406.782C113.213 406.771 113.202 406.759 113.191 406.749C113.18 406.738 113.169 406.727 113.158 406.716C113.147 406.705 113.135 406.694 113.124 406.683C113.113 406.672 113.103 406.661 113.092 406.65C113.081 406.638 113.07 406.627 113.059 406.616C113.048 406.605 113.037 406.594 113.027 406.583C113.016 406.572 113.005 406.56 112.995 406.548C112.983 406.537 112.973 406.526 112.962 406.515C112.952 406.504 112.941 406.492 112.931 406.481C112.92 406.469 112.909 406.458 112.899 406.447C112.888 406.435 112.878 406.424 112.867 406.412C112.857 406.4 112.846 406.389 112.836 406.377C112.826 406.366 112.816 406.353 112.805 406.342C112.795 406.331 112.784 406.319 112.775 406.307C112.764 406.295 112.754 406.284 112.744 406.272C112.733 406.26 112.723 406.248 112.713 406.237C112.703 406.225 112.693 406.213 112.683 406.201C112.673 406.189 112.663 406.178 112.653 406.165C112.643 406.154 112.633 406.141 112.622 406.13C112.613 406.117 112.603 406.105 112.593 406.093C112.583 406.082 112.573 406.069 112.563 406.058C112.554 406.045 112.544 406.033 112.535 406.021C112.525 406.009 112.515 405.997 112.506 405.984C112.496 405.972 112.486 405.96 112.477 405.948C112.467 405.935 112.458 405.923 112.448 405.911C112.438 405.899 112.429 405.886 112.419 405.874C112.41 405.861 112.4 405.849 112.391 405.837C112.382 405.824 112.373 405.812 112.363 405.799C112.354 405.787 112.344 405.774 112.335 405.761C112.326 405.749 112.317 405.737 112.308 405.724C112.298 405.711 112.289 405.699 112.28 405.686C112.271 405.674 112.262 405.661 112.253 405.648C112.244 405.635 112.235 405.623 112.227 405.61C112.217 405.597 112.208 405.585 112.199 405.572C112.19 405.559 112.182 405.546 112.172 405.534C112.164 405.521 112.155 405.508 112.146 405.495C112.137 405.482 112.129 405.469 112.12 405.456C112.111 405.443 112.103 405.43 112.094 405.417C112.086 405.405 112.077 405.392 112.069 405.378C112.06 405.366 112.051 405.353 112.043 405.339C112.035 405.326 112.026 405.313 112.018 405.3C112.01 405.287 112.001 405.273 111.993 405.261C111.985 405.248 111.977 405.234 111.968 405.221C111.96 405.208 111.952 405.194 111.944 405.181C111.936 405.168 111.928 405.155 111.919 405.141C111.911 405.128 111.902 405.115 111.895 405.102C111.887 405.088 111.879 405.075 111.871 405.062C111.863 405.048 111.855 405.035 111.847 405.021C111.84 405.008 111.832 404.994 111.824 404.981C111.816 404.967 111.809 404.954 111.801 404.94C111.793 404.927 111.785 404.913 111.777 404.899C111.77 404.886 111.762 404.873 111.755 404.859C111.747 404.845 111.74 404.832 111.732 404.818C111.725 404.804 111.717 404.791 111.71 404.777C111.703 404.764 111.695 404.75 111.688 404.736C111.681 404.722 111.673 404.708 111.666 404.695C111.659 404.681 111.652 404.667 111.644 404.653C111.637 404.64 111.63 404.626 111.623 404.611C111.616 404.598 111.609 404.584 111.602 404.57C111.595 404.556 111.587 404.542 111.581 404.528C111.573 404.514 111.567 404.501 111.56 404.487C111.554 404.472 111.546 404.458 111.54 404.444C111.533 404.43 111.526 404.416 111.519 404.403C111.513 404.389 111.506 404.374 111.499 404.36C111.493 404.346 111.486 404.332 111.48 404.318C111.474 404.304 111.466 404.29 111.46 404.275C111.454 404.261 111.447 404.247 111.44 404.233C111.435 404.218 111.428 404.205 111.422 404.191C111.415 404.176 111.409 404.161 111.403 404.148C111.397 404.134 111.39 404.119 111.384 404.104C111.379 404.091 111.373 404.076 111.366 404.061C111.361 404.048 111.354 404.033 111.348 404.019C111.342 404.004 111.336 403.99 111.33 403.975C111.324 403.961 111.319 403.947 111.312 403.932C111.306 403.918 111.301 403.903 111.295 403.889C111.289 403.874 111.284 403.86 111.278 403.846C111.273 403.831 111.267 403.817 111.261 403.802C111.256 403.787 111.25 403.773 111.245 403.759C111.239 403.744 111.234 403.729 111.228 403.714C111.223 403.7 111.218 403.685 111.213 403.671C111.207 403.656 111.201 403.642 111.196 403.626C111.191 403.612 111.185 403.597 111.18 403.583C111.175 403.568 111.171 403.553 111.165 403.539C111.16 403.524 111.156 403.509 111.15 403.495C111.145 403.48 111.14 403.465 111.135 403.45C111.13 403.436 111.125 403.421 111.121 403.406C111.116 403.391 111.111 403.377 111.106 403.362C111.101 403.346 111.097 403.332 111.092 403.317C111.088 403.302 111.082 403.287 111.078 403.273C111.075 403.264 111.073 403.256 111.07 403.247C111.065 403.232 111.061 403.217 111.056 403.202C111.052 403.187 111.047 403.173 111.043 403.158C111.039 403.142 111.034 403.127 111.03 403.112C111.026 403.098 111.022 403.082 111.018 403.068C111.014 403.053 111.009 403.038 111.005 403.023C111.001 403.007 110.997 402.992 110.993 402.977C110.989 402.962 110.985 402.948 110.981 402.933C110.977 402.917 110.973 402.902 110.969 402.887C110.965 402.872 110.962 402.857 110.958 402.842C110.954 402.827 110.95 402.812 110.946 402.797C110.943 402.782 110.939 402.767 110.935 402.752C110.932 402.736 110.928 402.721 110.925 402.705C110.921 402.69 110.918 402.675 110.914 402.66C110.911 402.645 110.907 402.63 110.904 402.615C110.901 402.6 110.897 402.585 110.894 402.569C110.891 402.553 110.888 402.539 110.884 402.524C110.88 402.508 110.877 402.493 110.874 402.478C110.871 402.462 110.869 402.447 110.866 402.432C110.863 402.416 110.86 402.402 110.857 402.387C110.853 402.371 110.851 402.355 110.848 402.34C110.845 402.325 110.842 402.309 110.839 402.294C110.837 402.279 110.834 402.264 110.831 402.248C110.829 402.233 110.826 402.218 110.823 402.203C110.821 402.187 110.818 402.172 110.816 402.156C110.813 402.141 110.811 402.126 110.808 402.11C110.806 402.095 110.803 402.079 110.801 402.064C110.799 402.048 110.796 402.033 110.794 402.018C110.792 402.003 110.79 401.987 110.788 401.972C110.785 401.956 110.783 401.941 110.781 401.925C110.779 401.909 110.777 401.895 110.775 401.879C110.773 401.864 110.771 401.848 110.769 401.832C110.767 401.817 110.766 401.802 110.763 401.786C110.762 401.771 110.76 401.755 110.758 401.74C110.757 401.724 110.755 401.709 110.754 401.694C110.752 401.678 110.75 401.663 110.748 401.647C110.747 401.631 110.745 401.616 110.744 401.601C110.742 401.585 110.741 401.57 110.739 401.554C110.738 401.538 110.737 401.523 110.735 401.508C110.734 401.492 110.733 401.477 110.732 401.461C110.73 401.445 110.729 401.43 110.728 401.414C110.727 401.399 110.726 401.383 110.725 401.368C110.724 401.352 110.723 401.337 110.722 401.321C110.721 401.305 110.72 401.29 110.719 401.275C110.719 401.259 110.718 401.243 110.717 401.228C110.716 401.212 110.715 401.197 110.715 401.182C110.714 401.166 110.713 401.151 110.712 401.135C110.712 401.119 110.711 401.104 110.711 401.088C110.71 401.073 110.71 401.057 110.71 401.042C110.709 401.026 110.709 401.01 110.708 400.995C110.708 400.979 110.708 400.964 110.708 400.948C110.707 400.932 110.707 400.917 110.707 400.902C110.706 400.886 110.706 400.87 110.706 400.855C110.707 400.839 110.707 400.824 110.706 400.808C110.706 400.792 110.706 400.777 110.707 400.761C110.707 400.745 110.707 400.731 110.707 400.714C110.707 400.699 110.707 400.683 110.708 400.668C110.708 400.652 110.708 400.637 110.709 400.621C110.709 400.606 110.709 400.59 110.71 400.575C110.71 400.559 110.711 400.544 110.711 400.528C110.712 400.512 110.712 400.497 110.713 400.481C110.714 400.466 110.714 400.45 110.715 400.434C110.716 400.419 110.716 400.403 110.717 400.388C110.717 400.372 110.719 400.356 110.72 400.341C110.721 400.326 110.722 400.31 110.722 400.294C110.723 400.279 110.724 400.264 110.725 400.248C110.726 400.232 110.728 400.216 110.729 400.202C110.73 400.186 110.731 400.171 110.732 400.155C110.733 400.139 110.735 400.124 110.736 400.108C110.738 400.092 110.738 400.078 110.74 400.062C110.741 400.047 110.743 400.031 110.744 400.016C110.746 400 110.747 399.985 110.749 399.969C110.751 399.954 110.752 399.938 110.753 399.922C110.756 399.907 110.757 399.892 110.759 399.876C110.761 399.86 110.762 399.845 110.764 399.829C110.766 399.814 110.768 399.799 110.769 399.783C110.772 399.768 110.774 399.752 110.776 399.736C110.778 399.721 110.78 399.706 110.782 399.691C110.783 399.675 110.786 399.66 110.788 399.645C110.79 399.629 110.792 399.613 110.795 399.598C110.797 399.583 110.8 399.567 110.802 399.552C110.804 399.537 110.807 399.521 110.809 399.506C110.811 399.491 110.814 399.475 110.816 399.46C110.819 399.444 110.822 399.429 110.825 399.413C110.827 399.398 110.829 399.383 110.832 399.367C110.835 399.352 110.837 399.337 110.84 399.321C110.843 399.306 110.847 399.291 110.849 399.276C110.852 399.26 110.855 399.245 110.858 399.23C110.86 399.215 110.864 399.199 110.866 399.184C110.87 399.168 110.872 399.154 110.875 399.138C110.879 399.123 110.882 399.108 110.885 399.092C110.888 399.077 110.892 399.062 110.895 399.047C110.898 399.032 110.901 399.016 110.905 399.001C110.908 398.986 110.912 398.971 110.915 398.956C110.918 398.941 110.922 398.925 110.926 398.91C110.929 398.895 110.933 398.88 110.937 398.865C110.94 398.85 110.944 398.835 110.948 398.82C110.951 398.804 110.955 398.789 110.959 398.774C110.963 398.759 110.967 398.744 110.971 398.729C110.974 398.714 110.978 398.698 110.982 398.683C110.986 398.668 110.99 398.653 110.994 398.638C110.999 398.624 111.002 398.608 111.006 398.594C111.01 398.579 111.015 398.563 111.019 398.548C111.024 398.534 111.027 398.519 111.032 398.503C111.036 398.489 111.041 398.474 111.045 398.459C111.049 398.444 111.054 398.429 111.058 398.414C111.063 398.399 111.067 398.384 111.072 398.369C111.076 398.354 111.081 398.34 111.085 398.325C111.09 398.31 111.095 398.295 111.1 398.28C111.104 398.265 111.109 398.25 111.114 398.236C111.118 398.22 111.123 398.206 111.129 398.191C111.133 398.177 111.138 398.162 111.143 398.147C111.148 398.132 111.153 398.117 111.159 398.103C111.163 398.088 111.169 398.073 111.174 398.059C111.178 398.044 111.184 398.029 111.189 398.015C111.194 398 111.2 397.985 111.205 397.971C111.21 397.956 111.216 397.941 111.221 397.926C111.226 397.912 111.232 397.898 111.237 397.883C111.243 397.868 111.248 397.853 111.254 397.839C111.259 397.825 111.265 397.81 111.271 397.796C111.276 397.781 111.282 397.767 111.287 397.752C111.293 397.738 111.299 397.723 111.305 397.709C111.31 397.694 111.316 397.68 111.323 397.666C111.328 397.651 111.334 397.637 111.34 397.622C111.346 397.608 111.352 397.594 111.358 397.58C111.364 397.565 111.37 397.55 111.376 397.536C111.382 397.522 111.388 397.508 111.395 397.494C111.401 397.479 111.407 397.465 111.413 397.451C111.42 397.437 111.426 397.423 111.433 397.408C111.439 397.394 111.445 397.38 111.451 397.365C111.458 397.351 111.464 397.337 111.47 397.322C111.477 397.309 111.484 397.294 111.491 397.28C111.497 397.266 111.504 397.252 111.51 397.238C111.517 397.224 111.524 397.21 111.531 397.196C111.537 397.182 111.543 397.168 111.551 397.154C111.557 397.14 111.565 397.126 111.572 397.112C111.579 397.098 111.586 397.084 111.592 397.07C111.599 397.056 111.606 397.042 111.613 397.028C111.621 397.015 111.627 397.001 111.635 396.987C111.642 396.973 111.649 396.959 111.656 396.945C111.663 396.932 111.671 396.918 111.678 396.904C111.685 396.89 111.693 396.876 111.7 396.863C111.707 396.849 111.715 396.836 111.722 396.822C111.73 396.808 111.737 396.795 111.745 396.781C111.752 396.767 111.76 396.753 111.767 396.74C111.775 396.727 111.783 396.713 111.79 396.699C111.798 396.686 111.805 396.672 111.813 396.658C111.821 396.645 111.829 396.632 111.836 396.618C111.845 396.605 111.852 396.592 111.86 396.578C111.868 396.565 111.876 396.551 111.884 396.538C111.892 396.524 111.9 396.511 111.908 396.498C111.916 396.485 111.924 396.471 111.932 396.458C111.941 396.445 111.949 396.431 111.957 396.418C111.965 396.405 111.973 396.392 111.981 396.379C111.99 396.366 111.998 396.352 112.006 396.339C112.015 396.326 112.023 396.313 112.031 396.3C112.04 396.286 112.049 396.274 112.057 396.26C112.065 396.247 112.074 396.235 112.083 396.222C112.091 396.208 112.1 396.196 112.108 396.183C112.117 396.17 112.126 396.157 112.135 396.144C112.143 396.131 112.152 396.117 112.161 396.106C112.17 396.092 112.178 396.079 112.187 396.067C112.196 396.053 112.205 396.041 112.213 396.029C112.223 396.016 112.232 396.003 112.24 395.99C112.249 395.978 112.259 395.965 112.268 395.952C112.277 395.939 112.286 395.927 112.295 395.914C112.304 395.902 112.313 395.889 112.323 395.877C112.332 395.864 112.341 395.851 112.35 395.839C112.36 395.826 112.369 395.814 112.378 395.801C112.388 395.789 112.397 395.777 112.406 395.764C112.416 395.752 112.426 395.74 112.435 395.727C112.444 395.715 112.454 395.703 112.464 395.69C112.473 395.678 112.483 395.666 112.492 395.654C112.502 395.641 112.511 395.629 112.521 395.617C112.531 395.604 112.54 395.592 112.551 395.58C112.56 395.568 112.57 395.556 112.579 395.544C112.59 395.532 112.599 395.52 112.609 395.508C112.62 395.496 112.629 395.484 112.639 395.472C112.649 395.459 112.659 395.448 112.669 395.436C112.679 395.424 112.69 395.412 112.699 395.4C112.709 395.389 112.72 395.377 112.73 395.365C112.74 395.353 112.75 395.342 112.76 395.329C112.771 395.318 112.781 395.307 112.791 395.295C112.802 395.283 112.812 395.271 112.822 395.259C112.833 395.248 112.843 395.236 112.853 395.225C112.864 395.214 112.874 395.202 112.884 395.19C112.895 395.179 112.906 395.167 112.916 395.156C112.927 395.144 112.937 395.133 112.948 395.122C112.959 395.111 112.969 395.099 112.98 395.087C112.991 395.076 113.001 395.065 113.012 395.054C113.023 395.043 113.034 395.031 113.044 395.02C113.056 395.009 113.066 394.998 113.077 394.987C113.088 394.975 113.099 394.964 113.109 394.953C113.121 394.942 113.131 394.931 113.142 394.92C113.154 394.909 113.165 394.897 113.175 394.887C113.187 394.876 113.197 394.865 113.209 394.854C113.22 394.843 113.231 394.833 113.242 394.822C113.253 394.81 113.265 394.8 113.276 394.789C113.287 394.778 113.298 394.767 113.31 394.757C113.32 394.746 113.333 394.736 113.343 394.725C113.355 394.715 113.367 394.704 113.378 394.693C113.39 394.682 113.401 394.672 113.412 394.661C113.424 394.65 113.435 394.64 113.447 394.63C113.458 394.62 113.47 394.609 113.481 394.599C113.493 394.589 113.504 394.578 113.516 394.567C113.528 394.557 113.54 394.547 113.551 394.537C113.563 394.527 113.575 394.517 113.587 394.506C113.599 394.496 113.61 394.486 113.622 394.476C113.634 394.465 113.646 394.456 113.658 394.446C113.669 394.435 113.681 394.425 113.693 394.416C113.705 394.405 113.717 394.395 113.73 394.385C113.741 394.376 113.754 394.366 113.765 394.356C113.778 394.346 113.789 394.336 113.802 394.326C113.813 394.316 113.826 394.307 113.838 394.298C113.85 394.288 113.862 394.278 113.874 394.268C113.887 394.258 113.899 394.249 113.911 394.239C113.923 394.23 113.936 394.22 113.948 394.21C113.961 394.201 113.973 394.192 113.985 394.182C113.998 394.172 114.01 394.163 114.022 394.154C114.035 394.145 114.047 394.135 114.06 394.126C114.072 394.117 114.085 394.107 114.097 394.098C114.11 394.089 114.123 394.08 114.135 394.07C114.148 394.061 114.16 394.052 114.173 394.043C114.186 394.034 114.198 394.025 114.211 394.016C114.224 394.006 114.236 393.998 114.249 393.989C114.261 393.979 114.274 393.97 114.287 393.962C114.3 393.953 114.312 393.944 114.325 393.935C114.339 393.927 114.351 393.917 114.364 393.909C114.377 393.9 114.39 393.891 114.403 393.882C114.416 393.874 114.428 393.865 114.442 393.857C114.455 393.848 114.468 393.839 114.481 393.832C114.493 393.823 114.507 393.814 114.52 393.806C114.533 393.797 114.546 393.789 114.559 393.781C114.572 393.772 114.585 393.764 114.598 393.755C114.612 393.747 114.625 393.739 114.638 393.73C114.651 393.722 114.664 393.714 114.678 393.706C114.691 393.697 114.705 393.689 114.718 393.681C114.73 393.673 114.744 393.665 114.758 393.657C114.771 393.649 114.785 393.641 114.798 393.633C114.811 393.625 114.824 393.617 114.838 393.609C114.851 393.601 114.865 393.594 114.878 393.586C114.892 393.578 114.906 393.57 114.919 393.563C114.932 393.555 114.945 393.547 114.959 393.54C114.973 393.533 114.986 393.525 115 393.517C115.014 393.509 115.027 393.502 115.041 393.494C115.055 393.487 115.068 393.48 115.082 393.472C115.096 393.465 115.109 393.457 115.123 393.45C115.137 393.442 115.151 393.435 115.164 393.428C115.178 393.421 115.192 393.413 115.206 393.406C115.22 393.399 115.233 393.392 115.247 393.385C115.261 393.377 115.275 393.371 115.289 393.363C115.303 393.356 115.317 393.35 115.331 393.343C115.345 393.336 115.359 393.329 115.372 393.322C115.387 393.315 115.401 393.309 115.415 393.302C115.429 393.295 115.443 393.289 115.457 393.281C115.471 393.275 115.485 393.268 115.499 393.262C115.513 393.254 115.527 393.248 115.541 393.242C115.555 393.235 115.569 393.229 115.584 393.222C115.598 393.215 115.612 393.209 115.626 393.203C115.64 393.196 115.655 393.19 115.669 393.184C115.683 393.177 115.698 393.171 115.712 393.165C115.725 393.159 115.74 393.152 115.755 393.147C115.769 393.14 115.783 393.134 115.797 393.128C115.812 393.121 115.826 393.116 115.841 393.11C115.855 393.104 115.869 393.098 115.884 393.092C115.898 393.086 115.913 393.081 115.927 393.075C115.941 393.068 115.956 393.063 115.97 393.057C115.984 393.05 115.999 393.046 116.013 393.04C116.028 393.034 116.042 393.029 116.057 393.023C116.071 393.017 116.087 393.012 116.101 393.006C116.115 392.999 116.13 392.995 116.145 392.99C116.159 392.985 116.174 392.979 116.188 392.974C116.203 392.97 116.218 392.963 116.233 392.958C116.248 392.954 116.262 392.947 116.277 392.942C116.291 392.938 116.306 392.931 116.32 392.927C116.335 392.922 116.349 392.916 116.364 392.911C116.38 392.906 116.394 392.9 116.409 392.896C116.424 392.891 116.438 392.885 116.453 392.88C116.467 392.875 116.483 392.87 116.498 392.866C116.512 392.861 116.527 392.857 116.542 392.853C116.557 392.848 116.571 392.843 116.586 392.839C116.596 392.837 116.604 392.834 116.613 392.831C116.627 392.826 116.642 392.822 116.657 392.818C116.672 392.813 116.686 392.808 116.701 392.804C116.717 392.799 116.731 392.794 116.746 392.79C116.761 392.785 116.776 392.781 116.791 392.777C116.806 392.772 116.822 392.77 116.837 392.765C116.851 392.761 116.867 392.758 116.881 392.753C116.896 392.749 116.912 392.746 116.927 392.742C116.941 392.737 116.957 392.735 116.972 392.73C116.987 392.725 117.002 392.723 117.017 392.719C117.032 392.714 117.048 392.712 117.063 392.707C117.078 392.702 117.093 392.701 117.108 392.696C117.123 392.692 117.139 392.689 117.154 392.685C117.169 392.683 117.184 392.678 117.199 392.675C117.215 392.673 117.229 392.668 117.245 392.665C117.26 392.662 117.275 392.658 117.29 392.655C117.306 392.653 117.32 392.649 117.336 392.646C117.352 392.643 117.367 392.639 117.382 392.636C117.398 392.634 117.413 392.63 117.428 392.627C117.443 392.624 117.458 392.621 117.474 392.618C117.489 392.615 117.504 392.612 117.519 392.609C117.535 392.607 117.55 392.604 117.565 392.6C117.581 392.598 117.596 392.595 117.611 392.593C117.627 392.589 117.642 392.587 117.658 392.585C117.672 392.582 117.688 392.579 117.703 392.577C117.718 392.574 117.734 392.572 117.749 392.57C117.765 392.567 117.78 392.565 117.796 392.562C117.811 392.559 117.827 392.558 117.842 392.555C117.857 392.553 117.872 392.551 117.888 392.549C117.903 392.547 117.919 392.545 117.934 392.542C117.95 392.541 117.965 392.539 117.98 392.536C117.996 392.534 118.011 392.532 118.027 392.53C118.043 392.529 118.057 392.526 118.073 392.525C118.089 392.523 118.104 392.521 118.12 392.519C118.135 392.517 118.151 392.516 118.166 392.514C118.181 392.513 118.197 392.511 118.212 392.509C118.227 392.508 118.243 392.506 118.259 392.505C118.275 392.503 118.29 392.502 118.305 392.501C118.321 392.499 118.336 392.498 118.352 392.497C118.368 392.496 118.383 392.494 118.399 392.493C118.414 392.491 118.43 392.491 118.445 392.49C118.461 392.488 118.476 392.487 118.492 392.486C118.507 392.485 118.523 392.484 118.538 392.483C118.554 392.482 118.569 392.481 118.585 392.48C118.6 392.479 118.616 392.478 118.632 392.478C118.647 392.477 118.663 392.476 118.678 392.475C118.694 392.474 118.709 392.474 118.725 392.474C118.741 392.473 118.756 392.472 118.771 392.472C118.787 392.471 118.803 392.471 118.818 392.471C118.834 392.47 118.849 392.469 118.865 392.469C118.881 392.469 118.896 392.469 118.912 392.469C118.928 392.469 118.943 392.469 118.959 392.468C118.974 392.468 118.99 392.467 119.005 392.467C119.02 392.467 119.036 392.467 119.052 392.467C119.067 392.468 119.083 392.467 119.098 392.467C119.114 392.467 119.13 392.468 119.145 392.468C119.161 392.468 119.176 392.468 119.192 392.468C119.207 392.469 119.224 392.469 119.238 392.469C119.254 392.47 119.27 392.47 119.286 392.47C119.301 392.471 119.317 392.471 119.332 392.472C119.348 392.473 119.364 392.473 119.379 392.474C119.394 392.474 119.409 392.475 119.425 392.476C119.441 392.477 119.457 392.477 119.472 392.478C119.488 392.479 119.503 392.479 119.519 392.481C119.534 392.481 119.55 392.482 119.565 392.483C119.581 392.484 119.596 392.485 119.612 392.486C119.628 392.487 119.643 392.488 119.658 392.489C119.674 392.49 119.69 392.492 119.705 392.493C119.72 392.494 119.736 392.495 119.751 392.497C119.767 392.498 119.783 392.499 119.798 392.501C119.814 392.502 119.829 392.504 119.845 392.505C119.86 392.507 119.876 392.508 119.891 392.51C119.906 392.511 119.922 392.513 119.938 392.514C119.953 392.516 119.969 392.517 119.984 392.52C119.999 392.521 120.015 392.523 120.031 392.525C120.046 392.527 120.062 392.528 120.077 392.531C120.092 392.533 120.108 392.535 120.123 392.536C120.139 392.539 120.154 392.541 120.169 392.542C120.184 392.545 120.201 392.547 120.216 392.549C120.231 392.551 120.246 392.553 120.262 392.556C120.277 392.558 120.292 392.56 120.308 392.562C120.323 392.565 120.339 392.567 120.354 392.57C120.369 392.572 120.385 392.574 120.4 392.577C120.416 392.58 120.431 392.582 120.446 392.585C120.462 392.588 120.477 392.59 120.493 392.593C120.507 392.595 120.523 392.598 120.539 392.601C120.554 392.604 120.569 392.607 120.585 392.61C120.6 392.612 120.615 392.615 120.63 392.618C120.646 392.621 120.661 392.624 120.676 392.627C120.691 392.63 120.706 392.633 120.722 392.636C120.737 392.639 120.752 392.642 120.768 392.645C120.783 392.649 120.798 392.652 120.813 392.655C120.828 392.659 120.844 392.662 120.859 392.666C120.874 392.669 120.889 392.672 120.905 392.676C120.919 392.679 120.935 392.683 120.95 392.686C120.965 392.69 120.981 392.694 120.995 392.697C121.01 392.701 121.025 392.705 121.041 392.708C121.056 392.711 121.071 392.715 121.086 392.719C121.101 392.723 121.116 392.727 121.131 392.731C121.146 392.735 121.161 392.739 121.177 392.742C121.192 392.746 121.207 392.751 121.222 392.755C121.237 392.759 121.252 392.763 121.267 392.767C121.282 392.771 121.297 392.775 121.312 392.78C121.327 392.783 121.342 392.788 121.357 392.792C121.372 392.797 121.386 392.801 121.402 392.805C121.417 392.81 121.432 392.814 121.446 392.819C121.462 392.823 121.476 392.827 121.491 392.832C121.506 392.837 121.521 392.841 121.536 392.846C121.55 392.851 121.566 392.855 121.581 392.859C121.595 392.865 121.61 392.87 121.624 392.874C121.64 392.879 121.654 392.884 121.669 392.889C121.684 392.894 121.699 392.899 121.713 392.903C121.728 392.909 121.743 392.914 121.757 392.919C121.772 392.924 121.787 392.929 121.801 392.934C121.817 392.939 121.832 392.944 121.845 392.949C121.861 392.955 121.875 392.96 121.89 392.965C121.904 392.971 121.919 392.976 121.934 392.981C121.948 392.987 121.963 392.992 121.977 392.998C121.992 393.003 122.007 393.009 122.021 393.014C122.036 393.02 122.05 393.025 122.065 393.031C122.079 393.036 122.094 393.042 122.108 393.048C122.123 393.053 122.137 393.059 122.152 393.065C122.166 393.071 122.18 393.077 122.195 393.082C122.209 393.089 122.224 393.094 122.238 393.101C122.252 393.106 122.267 393.112 122.282 393.118C122.296 393.124 122.31 393.13 122.324 393.136C122.338 393.143 122.352 393.148 122.367 393.155C122.382 393.161 122.396 393.167 122.41 393.173C122.424 393.179 122.439 393.187 122.453 393.192C122.466 393.199 122.481 393.205 122.496 393.212C122.509 393.218 122.524 393.225 122.538 393.231C122.552 393.237 122.566 393.244 122.58 393.251C122.594 393.257 122.608 393.264 122.622 393.271C122.637 393.277 122.65 393.284 122.665 393.291C122.678 393.298 122.693 393.304 122.707 393.311C122.721 393.318 122.734 393.324 122.748 393.332C122.762 393.338 122.776 393.345 122.791 393.353C122.804 393.359 122.818 393.367 122.832 393.373C122.846 393.381 122.86 393.388 122.874 393.394C122.887 393.402 122.901 393.409 122.915 393.416C122.929 393.423 122.943 393.431 122.956 393.438C122.97 393.445 122.984 393.452 122.998 393.46C123.011 393.467 123.025 393.475 123.038 393.482C123.052 393.49 123.066 393.497 123.079 393.505C123.093 393.512 123.107 393.519 123.12 393.527C123.134 393.535 123.148 393.542 123.161 393.551C123.175 393.558 123.188 393.566 123.202 393.574C123.215 393.581 123.229 393.589 123.242 393.597C123.255 393.604 123.269 393.612 123.282 393.62C123.296 393.628 123.309 393.636 123.323 393.644C123.336 393.652 123.349 393.66 123.363 393.668C123.376 393.676 123.389 393.684 123.402 393.693C123.416 393.701 123.429 393.708 123.442 393.717C123.455 393.725 123.469 393.733 123.482 393.742C123.495 393.75 123.508 393.758 123.521 393.767C123.535 393.775 123.548 393.783 123.561 393.792C123.574 393.8 123.587 393.808 123.6 393.817C123.613 393.825 123.626 393.834 123.639 393.842C123.652 393.851 123.665 393.86 123.678 393.868C123.691 393.877 123.704 393.886 123.717 393.894C123.73 393.903 123.742 393.912 123.756 393.921C123.768 393.929 123.781 393.938 123.794 393.947C123.807 393.956 123.819 393.964 123.832 393.974C123.845 393.983 123.858 393.992 123.87 394.001C123.883 394.01 123.896 394.019 123.909 394.028C123.921 394.036 123.933 394.046 123.946 394.055C123.959 394.064 123.972 394.073 123.984 394.083C123.997 394.091 124.01 394.101 124.022 394.11C124.035 394.12 124.046 394.128 124.06 394.138C124.072 394.148 124.084 394.157 124.097 394.166C124.109 394.176 124.121 394.185 124.134 394.194C124.146 394.204 124.158 394.214 124.171 394.223C124.183 394.233 124.195 394.242 124.207 394.252C124.22 394.261 124.232 394.271 124.244 394.281C124.256 394.291 124.268 394.3 124.281 394.31C124.292 394.32 124.304 394.329 124.317 394.339C124.329 394.349 124.34 394.359 124.353 394.369C124.365 394.379 124.377 394.389 124.389 394.399C124.401 394.408 124.413 394.419 124.425 394.429C124.436 394.438 124.449 394.449 124.46 394.459C124.472 394.469 124.484 394.479 124.496 394.49C124.507 394.5 124.519 394.51 124.531 394.52C124.543 394.53 124.554 394.54 124.566 394.551C124.578 394.561 124.589 394.571 124.601 394.582C124.613 394.592 124.624 394.602 124.636 394.613C124.648 394.624 124.659 394.634 124.67 394.644C124.682 394.655 124.694 394.665 124.705 394.676C124.716 394.687 124.728 394.697 124.739 394.707C124.751 394.718 124.762 394.729 124.773 394.739C124.784 394.75 124.796 394.761 124.807 394.771C124.819 394.782 124.83 394.793 124.841 394.804C124.852 394.814 124.863 394.826 124.874 394.836C124.886 394.847 124.897 394.858 124.908 394.869C124.919 394.88 124.93 394.891 124.941 394.902C124.952 394.913 124.963 394.924 124.974 394.935C124.984 394.946 124.995 394.957 125.007 394.968C125.018 394.98 125.029 394.991 125.039 395.002C125.05 395.013 125.061 395.024 125.072 395.036C125.083 395.046 125.093 395.058 125.104 395.069C125.115 395.08 125.125 395.092 125.136 395.103C125.147 395.114 125.157 395.126 125.168 395.137C125.178 395.149 125.189 395.16 125.2 395.171C125.21 395.183 125.22 395.194 125.231 395.206C125.242 395.218 125.252 395.229 125.262 395.241C125.272 395.252 125.283 395.264 125.293 395.275C125.304 395.288 125.314 395.299 125.325 395.31C125.334 395.323 125.344 395.334 125.355 395.346C125.365 395.357 125.375 395.37 125.385 395.381C125.395 395.393 125.406 395.405 125.416 395.417C125.425 395.428 125.436 395.441 125.446 395.453C125.456 395.465 125.466 395.477 125.475 395.489C125.486 395.501 125.496 395.512 125.506 395.525C125.515 395.536 125.525 395.548 125.534 395.561C125.545 395.573 125.554 395.585 125.564 395.597C125.574 395.609 125.584 395.621 125.593 395.634C125.603 395.646 125.612 395.658 125.622 395.67C125.632 395.683 125.642 395.695 125.651 395.707C125.66 395.72 125.67 395.732 125.679 395.745C125.689 395.757 125.698 395.769 125.707 395.781C125.716 395.794 125.726 395.806 125.735 395.818C125.745 395.831 125.754 395.844 125.763 395.857C125.772 395.869 125.782 395.881 125.791 395.894C125.799 395.907 125.809 395.919 125.819 395.931C125.827 395.944 125.836 395.957 125.845 395.97C125.854 395.983 125.863 395.995 125.872 396.008C125.881 396.021 125.891 396.034 125.899 396.046C125.908 396.059 125.917 396.072 125.925 396.084C125.935 396.097 125.943 396.11 125.952 396.123C125.96 396.136 125.97 396.149 125.978 396.162C125.987 396.174 125.996 396.188 126.004 396.201C126.013 396.213 126.021 396.226 126.03 396.24C126.038 396.253 126.047 396.265 126.055 396.279C126.064 396.292 126.072 396.305 126.081 396.318C126.089 396.331 126.097 396.344 126.105 396.357C126.114 396.371 126.122 396.384 126.13 396.397C126.138 396.41 126.147 396.424 126.155 396.437C126.163 396.45 126.171 396.463 126.179 396.476C126.187 396.49 126.195 396.503 126.204 396.516C126.212 396.529 126.22 396.543 126.227 396.556C126.235 396.57 126.243 396.583 126.251 396.597C126.259 396.611 126.267 396.624 126.275 396.637C126.283 396.651 126.29 396.664 126.298 396.678C126.306 396.691 126.313 396.705 126.321 396.719C126.328 396.732 126.336 396.746 126.343 396.759C126.351 396.773 126.359 396.786 126.366 396.8C126.374 396.813 126.381 396.827 126.389 396.841C126.396 396.855 126.403 396.868 126.41 396.882C126.417 396.896 126.425 396.909 126.432 396.924C126.439 396.937 126.447 396.951 126.454 396.965C126.461 396.979 126.469 396.992 126.475 397.007C126.483 397.021 126.49 397.034 126.496 397.048C126.504 397.062 126.51 397.076 126.518 397.09C126.524 397.104 126.531 397.117 126.538 397.132C126.545 397.146 126.552 397.16 126.559 397.174C126.565 397.188 126.572 397.201 126.579 397.215C126.586 397.229 126.592 397.244 126.599 397.258C126.606 397.272 126.612 397.286 126.619 397.3C126.625 397.314 126.631 397.329 126.638 397.343C126.645 397.357 126.651 397.37 126.657 397.386C126.664 397.4 126.67 397.413 126.676 397.428C126.683 397.442 126.689 397.456 126.695 397.47C126.701 397.485 126.707 397.499 126.714 397.513C126.72 397.527 126.726 397.542 126.732 397.556C126.738 397.57 126.744 397.585 126.75 397.599C126.756 397.614 126.762 397.629 126.768 397.642C126.774 397.657 126.78 397.671 126.786 397.686C126.792 397.7 126.797 397.715 126.803 397.729C126.809 397.744 126.814 397.758 126.82 397.773C126.826 397.787 126.831 397.802 126.837 397.816C126.843 397.831 126.848 397.845 126.854 397.859C126.859 397.875 126.864 397.889 126.87 397.904C126.875 397.918 126.881 397.933 126.886 397.947C126.891 397.962 126.897 397.976 126.902 397.991C126.907 398.006 126.912 398.02 126.918 398.035C126.923 398.05 126.928 398.065 126.933 398.079C126.938 398.094 126.944 398.109 126.948 398.123C126.953 398.138 126.959 398.153 126.963 398.168C126.968 398.183 126.973 398.197 126.978 398.212C126.983 398.227 126.987 398.242 126.993 398.256C126.997 398.272 127.002 398.286 127.007 398.301C127.011 398.316 127.016 398.331 127.021 398.345ZM68.2302 428.134L61.6585 406.62C59.2238 407.333 57.7421 408.996 56.8486 410.922L61.8207 427.201C63.6382 428.3 65.8002 428.864 68.2302 428.134ZM56.1409 411.138C56.1409 411.138 44.1862 405.792 33.7787 413.547C33.7787 413.547 41.3457 412.249 44.8595 413.821C51.0282 416.582 33.7787 413.547 23.64 430C41.2419 437.981 53.8515 425.825 50.278 431.562C48.2424 434.829 41.2419 437.981 41.2419 437.981C54.2062 438.597 61.1333 427.483 61.1333 427.483L56.1409 411.138Z" fill="black"/>
<path d="M436.326 189.528L441.775 183.956L434.102 185.319C426.303 186.703 418.452 187.536 410.57 187.921L410.568 187.921C401.574 188.366 392.516 188.204 383.527 187.513L383.526 187.513C365.502 186.137 347.629 182.829 330.333 177.604C321.691 174.993 313.188 171.87 304.938 168.239C297.689 165.025 290.65 161.434 283.865 157.316L277.183 153.259L280.271 160.44C292.438 188.729 318.023 210.661 350.565 216.696C383.084 222.764 414.819 211.522 436.326 189.528ZM244.539 114.259L244.542 114.265C252.059 131.243 268.358 144.547 283.379 153.66C302.028 164.988 323.124 172.802 344.159 177.887C377.947 186.09 416.064 188.532 450.09 178.783C462.968 175.101 476.478 169.147 486.323 159.236C489.822 155.742 492.921 151.569 495.144 146.812C499.538 137.444 499.779 126.791 496.21 117.183C491.954 105.728 483.543 96.6811 474.374 89.5136C470.502 86.4786 466.592 83.8746 462.768 81.5594L456.185 77.5746L459.168 84.6672C461.464 90.1247 463.252 95.7887 464.551 101.629L464.552 101.634C464.801 102.833 465.044 103.999 465.259 105.167L465.388 105.867L465.866 106.393C466.754 107.373 467.627 108.39 468.479 109.419C473.693 115.896 478.08 123.622 476.831 131.183L476.83 131.189C476.003 136.272 472.477 140.843 467.934 144.136C458.108 151.257 445.066 154.445 432.763 156.302C397.958 161.549 360.771 156.042 327.434 144.808L327.431 144.807C323.71 143.559 320.025 142.155 316.359 140.699C298.486 133.511 279.482 123.794 268.405 108.379C262.883 100.695 261.269 91.9814 266.616 84.6203L266.62 84.6148C270.342 79.4617 276.639 75.2349 282.655 72.2466L283.302 71.9248L283.678 71.307C287.351 65.2695 291.705 59.6286 296.674 54.4562L302.07 48.8389L294.413 50.2666L294.4 50.269C293.147 50.5025 291.864 50.7418 290.555 51.0159C278.313 53.5635 265.511 57.9966 255.549 66.516C248.198 72.7905 242.48 81.5173 240.993 91.3375L240.993 91.3375L240.992 91.3441C239.822 99.2052 241.43 107.183 244.539 114.259ZM288.958 69.7095L288.952 69.7178L288.946 69.7262C285.203 75.2346 282.021 81.1416 279.486 87.3113C279.273 87.8286 279.045 88.3709 278.808 88.9344C277.469 92.1206 275.845 95.9827 274.988 99.8235C273.972 104.372 273.89 109.466 277.025 113.778C280.207 118.166 284.8 121.189 288.902 123.679L288.903 123.68C318.269 141.482 352.288 150.39 386.23 153.708L386.231 153.708C407.149 155.743 428.749 155.763 449.281 150.098L449.285 150.097C452.99 149.068 457.994 147.396 460.558 143.091C461.869 140.892 462.28 138.437 462.564 136.454L462.565 136.452C467.23 103.705 453.49 68.9903 427.685 48.3327C401.88 27.6755 364.995 21.8698 334.093 33.6199C317.732 39.8264 303.401 50.821 292.743 64.5537C291.393 66.2567 290.151 67.9846 288.958 69.7095ZM473.46 259.599C488.749 256.054 498.268 240.783 494.723 225.49C491.178 210.198 475.911 200.672 460.621 204.216C445.332 207.76 435.813 223.032 439.358 238.325C442.903 253.617 458.171 263.143 473.46 259.599ZM517.952 199.893C527.125 197.767 532.834 188.605 530.708 179.432C528.581 170.259 519.423 164.544 510.251 166.67C501.079 168.797 495.369 177.958 497.495 187.131C499.622 196.305 508.78 202.019 517.952 199.893Z" fill="black" stroke="white" stroke-width="5"/>
</svg>
