<svg width="349" height="132" viewBox="0 0 349 132" fill="none" xmlns="http://www.w3.org/2000/svg">
<g filter="url(#filter0_d_21_7287)">
<path d="M41.5781 47.9639H42.5781V46.9639H41.5781V47.9639ZM41.5781 89V90H42.5781V89H41.5781ZM41.5781 77.5869H42.5781V76.5869H41.5781V77.5869ZM19.1768 74.9248L19.8839 74.2177L19.8801 74.214L19.1768 74.9248ZM19.1201 62.0107L18.413 61.3036L18.4092 61.3074L19.1201 62.0107ZM41.5781 59.3486V60.3486H42.5781V59.3486H41.5781ZM41.5781 46.9639H25.6338V48.9639H41.5781V46.9639ZM25.6338 46.9639C19.6868 46.9639 14.5893 49.0697 10.3984 53.2607L11.8126 54.6749C15.6268 50.8606 20.2149 48.9639 25.6338 48.9639V46.9639ZM10.3984 53.2607C6.20809 57.4509 4.10156 62.5387 4.10156 68.4678H6.10156C6.10156 63.0687 7.99764 58.4898 11.8126 54.6749L10.3984 53.2607ZM4.10156 68.4678C4.10156 74.4147 6.20739 79.5122 10.3984 83.7032L11.8126 82.289C7.99834 78.4748 6.10156 73.8867 6.10156 68.4678H4.10156ZM10.3984 83.7032C14.5893 87.8942 19.6868 90 25.6338 90V88C20.2149 88 15.6268 86.1032 11.8126 82.289L10.3984 83.7032ZM25.6338 90H41.5781V88H25.6338V90ZM42.5781 89V77.5869H40.5781V89H42.5781ZM41.5781 76.5869H25.6338V78.5869H41.5781V76.5869ZM25.6338 76.5869C23.3667 76.5869 21.4694 75.8032 19.8839 74.2177L18.4697 75.6319C20.4336 77.5959 22.841 78.5869 25.6338 78.5869V76.5869ZM19.8801 74.214C18.2769 72.6276 17.4863 70.7315 17.4863 68.4678H15.4863C15.4863 71.264 16.4894 73.6725 18.4734 75.6356L19.8801 74.214ZM17.4863 68.4678C17.4863 66.1972 18.2631 64.2988 19.831 62.7141L18.4092 61.3074C16.4654 63.2722 15.4863 65.6784 15.4863 68.4678H17.4863ZM19.8272 62.7178C21.4096 61.1354 23.3244 60.3486 25.6338 60.3486V58.3486C22.8077 58.3486 20.3801 59.3366 18.413 61.3036L19.8272 62.7178ZM25.6338 60.3486H41.5781V58.3486H25.6338V60.3486ZM42.5781 59.3486V47.9639H40.5781V59.3486H42.5781ZM57.0693 74.9248L57.7765 74.2177L57.7727 74.214L57.0693 74.9248ZM57.0127 62.0107L56.3056 61.3036L56.3018 61.3074L57.0127 62.0107ZM73.1553 62.0107L73.8662 61.3074L73.8624 61.3036L73.1553 62.0107ZM73.0986 74.9248L72.3953 74.214L72.3915 74.2177L73.0986 74.9248ZM63.5264 76.5869C61.2592 76.5869 59.362 75.8032 57.7764 74.2177L56.3622 75.6319C58.3262 77.5959 60.7336 78.5869 63.5264 78.5869V76.5869ZM57.7727 74.214C56.1695 72.6276 55.3789 70.7315 55.3789 68.4678H53.3789C53.3789 71.264 54.382 73.6725 56.366 75.6356L57.7727 74.214ZM55.3789 68.4678C55.3789 66.1972 56.1557 64.2988 57.7236 62.7141L56.3018 61.3074C54.358 63.2722 53.3789 65.6784 53.3789 68.4678H55.3789ZM57.7198 62.7178C59.3022 61.1354 61.217 60.3486 63.5264 60.3486V58.3486C60.7003 58.3486 58.2727 59.3366 56.3056 61.3036L57.7198 62.7178ZM63.5264 60.3486H66.6416V58.3486H63.5264V60.3486ZM66.6416 60.3486C68.9509 60.3486 70.8658 61.1354 72.4482 62.7178L73.8624 61.3036C71.8953 59.3366 69.4677 58.3486 66.6416 58.3486V60.3486ZM72.4444 62.7141C74.0123 64.2988 74.7891 66.1972 74.7891 68.4678H76.7891C76.7891 65.6784 75.81 63.2722 73.8661 61.3074L72.4444 62.7141ZM74.7891 68.4678C74.7891 70.7315 73.9985 72.6276 72.3953 74.214L73.802 75.6356C75.786 73.6725 76.7891 71.264 76.7891 68.4678H74.7891ZM72.3915 74.2177C70.806 75.8032 68.9087 76.5869 66.6416 76.5869V78.5869C69.4344 78.5869 71.8418 77.5959 73.8057 75.6319L72.3915 74.2177ZM66.6416 76.5869H63.5264V78.5869H66.6416V76.5869ZM63.5264 46.9639C57.5794 46.9639 52.4819 49.0697 48.2909 53.2607L49.7052 54.6749C53.5194 50.8606 58.1075 48.9639 63.5264 48.9639V46.9639ZM48.2909 53.2607C44.1007 57.4509 41.9941 62.5387 41.9941 68.4678H43.9941C43.9941 63.0687 45.8902 58.4898 49.7052 54.6749L48.2909 53.2607ZM41.9941 68.4678C41.9941 74.4147 44.1 79.5122 48.2909 83.7032L49.7052 82.289C45.8909 78.4748 43.9941 73.8867 43.9941 68.4678H41.9941ZM48.2909 83.7032C52.4819 87.8942 57.5794 90 63.5264 90V88C58.1075 88 53.5194 86.1032 49.7052 82.289L48.2909 83.7032ZM63.5264 90H66.6416V88H63.5264V90ZM66.6416 90C72.5886 90 77.6861 87.8942 81.877 83.7032L80.4628 82.289C76.6486 86.1032 72.0605 88 66.6416 88V90ZM81.877 83.7032C86.068 79.5122 88.1738 74.4147 88.1738 68.4678H86.1738C86.1738 73.8867 84.277 78.4748 80.4628 82.289L81.877 83.7032ZM88.1738 68.4678C88.1738 62.5387 86.0673 57.4509 81.877 53.2607L80.4628 54.6749C84.2777 58.4898 86.1738 63.0687 86.1738 68.4678H88.1738ZM81.877 53.2607C77.6861 49.0697 72.5886 46.9639 66.6416 46.9639V48.9639C72.0605 48.9639 76.6486 50.8606 80.4628 54.6749L81.877 53.2607ZM66.6416 46.9639H63.5264V48.9639H66.6416V46.9639ZM115.154 69.2891L114.34 69.8697L116.154 72.4136V69.2891H115.154ZM99.9463 47.9639L100.76 47.3832L100.461 46.9639H99.9463V47.9639ZM88.5898 47.9639V46.9639H87.5898V47.9639H88.5898ZM88.5898 89H87.5898V90H88.5898V89ZM100.003 89V90H101.003V89H100.003ZM100.003 67.6465L100.818 67.0678L99.0029 64.5091V67.6465H100.003ZM115.154 89L114.339 89.5787L114.638 90H115.154V89ZM126.567 89V90H127.567V89H126.567ZM126.567 47.9639H127.567V46.9639H126.567V47.9639ZM115.154 47.9639V46.9639H114.154V47.9639H115.154ZM115.968 68.7084L100.76 47.3832L99.1321 48.5445L114.34 69.8697L115.968 68.7084ZM99.9463 46.9639H88.5898V48.9639H99.9463V46.9639ZM87.5898 47.9639V89H89.5898V47.9639H87.5898ZM88.5898 90H100.003V88H88.5898V90ZM101.003 89V67.6465H99.0029V89H101.003ZM99.1874 68.2252L114.339 89.5787L115.97 88.4213L100.818 67.0678L99.1874 68.2252ZM115.154 90H126.567V88H115.154V90ZM127.567 89V47.9639H125.567V89H127.567ZM126.567 46.9639H115.154V48.9639H126.567V46.9639ZM114.154 47.9639V69.2891H116.154V47.9639H114.154ZM128.012 47.9639V46.9639H127.012V47.9639H128.012ZM128.012 59.3486H127.012V60.3486H128.012V59.3486ZM138.547 59.3486H139.547V58.3486H138.547V59.3486ZM138.547 89H137.547V90H138.547V89ZM149.96 89V90H150.96V89H149.96ZM149.96 59.3486V58.3486H148.96V59.3486H149.96ZM160.495 59.3486V60.3486H161.495V59.3486H160.495ZM160.495 47.9639H161.495V46.9639H160.495V47.9639ZM127.012 47.9639V59.3486H129.012V47.9639H127.012ZM128.012 60.3486H138.547V58.3486H128.012V60.3486ZM137.547 59.3486V89H139.547V59.3486H137.547ZM138.547 90H149.96V88H138.547V90ZM150.96 89V59.3486H148.96V89H150.96ZM149.96 60.3486H160.495V58.3486H149.96V60.3486ZM161.495 59.3486V47.9639H159.495V59.3486H161.495ZM160.495 46.9639H128.012V48.9639H160.495V46.9639ZM171.285 74.2451L170.35 73.8912L169.837 75.2451H171.285V74.2451ZM175.165 63.9932L176.1 63.6392L175.165 61.1679L174.23 63.6392L175.165 63.9932ZM179.045 74.2451V75.2451H180.493L179.98 73.8912L179.045 74.2451ZM168.283 47.9639V46.9639H167.604L167.353 47.5956L168.283 47.9639ZM152.027 89L151.098 88.6317L150.556 90H152.027V89ZM165.706 89V90H166.397L166.642 89.3533L165.706 89ZM167.235 84.9502V83.9502H166.544L166.3 84.5969L167.235 84.9502ZM183.066 84.9502L184 84.5912L183.753 83.9502H183.066V84.9502ZM184.624 89L183.691 89.359L183.937 90H184.624V89ZM197.736 89V90H199.189L198.67 88.6429L197.736 89ZM182.047 47.9639L182.981 47.6067L182.735 46.9639H182.047V47.9639ZM172.22 74.5991L176.1 64.3471L174.23 63.6392L170.35 73.8912L172.22 74.5991ZM174.23 64.3471L178.11 74.5991L179.98 73.8912L176.1 63.6392L174.23 64.3471ZM179.045 73.2451H171.285V75.2451H179.045V73.2451ZM167.353 47.5956L151.098 88.6317L152.957 89.3683L169.213 48.3322L167.353 47.5956ZM152.027 90H165.706V88H152.027V90ZM166.642 89.3533L168.171 85.3035L166.3 84.5969L164.771 88.6467L166.642 89.3533ZM167.235 85.9502H183.066V83.9502H167.235V85.9502ZM182.133 85.3092L183.691 89.359L185.557 88.641L184 84.5912L182.133 85.3092ZM184.624 90H197.736V88H184.624V90ZM198.67 88.6429L182.981 47.6067L181.113 48.321L196.802 89.3571L198.67 88.6429ZM182.047 46.9639H168.283V48.9639H182.047V46.9639ZM233.703 59.3486H234.703V58.3486H233.703V59.3486ZM233.703 89H232.703V90H233.703V89ZM245.116 89V90H246.116V89H245.116ZM245.116 59.3486V58.3486H244.116V59.3486H245.116ZM255.651 59.3486V60.3486H256.651V59.3486H255.651ZM255.651 47.9639H256.651V46.9639H255.651V47.9639ZM230.531 89V90H231.531V89H230.531ZM230.531 77.5869H231.531V76.5869H230.531V77.5869ZM208.13 74.9248L208.837 74.2177L208.833 74.214L208.13 74.9248ZM208.073 62.0107L207.366 61.3036L207.362 61.3074L208.073 62.0107ZM232.703 59.3486V89H234.703V59.3486H232.703ZM233.703 90H245.116V88H233.703V90ZM246.116 89V59.3486H244.116V89H246.116ZM245.116 60.3486H255.651V58.3486H245.116V60.3486ZM256.651 59.3486V47.9639H254.651V59.3486H256.651ZM255.651 46.9639H214.587V48.9639H255.651V46.9639ZM214.587 46.9639C208.64 46.9639 203.542 49.0697 199.351 53.2607L200.766 54.6749C204.58 50.8606 209.168 48.9639 214.587 48.9639V46.9639ZM199.351 53.2607C195.161 57.4509 193.055 62.5387 193.055 68.4678H195.055C195.055 63.0687 196.951 58.4898 200.766 54.6749L199.351 53.2607ZM193.055 68.4678C193.055 74.4147 195.161 79.5122 199.351 83.7032L200.766 82.289C196.951 78.4748 195.055 73.8867 195.055 68.4678H193.055ZM199.351 83.7032C203.542 87.8942 208.64 90 214.587 90V88C209.168 88 204.58 86.1032 200.766 82.289L199.351 83.7032ZM214.587 90H230.531V88H214.587V90ZM231.531 89V77.5869H229.531V89H231.531ZM230.531 76.5869H214.587V78.5869H230.531V76.5869ZM214.587 76.5869C212.32 76.5869 210.423 75.8032 208.837 74.2177L207.423 75.6319C209.387 77.5959 211.794 78.5869 214.587 78.5869V76.5869ZM208.833 74.214C207.23 72.6276 206.439 70.7315 206.439 68.4678H204.439C204.439 71.264 205.443 73.6725 207.427 75.6356L208.833 74.214ZM206.439 68.4678C206.439 66.1972 207.216 64.2988 208.784 62.7141L207.362 61.3074C205.419 63.2722 204.439 65.6784 204.439 68.4678H206.439ZM208.78 62.7178C210.363 61.1354 212.278 60.3486 214.587 60.3486V58.3486C211.761 58.3486 209.333 59.3366 207.366 61.3036L208.78 62.7178ZM214.587 60.3486H233.703V58.3486H214.587V60.3486ZM289.891 66.5137L289.003 66.9733L289.961 68.825L290.805 66.9185L289.891 66.5137ZM280.29 47.9639L281.178 47.5042L280.898 46.9639H280.29V47.9639ZM267.461 47.9639V46.9639H266.461V47.9639H267.461ZM267.461 89H266.461V90H267.461V89ZM278.874 89V90H279.874V89H278.874ZM278.874 70.9883L279.725 70.4629L277.874 67.4654V70.9883H278.874ZM289.891 88.8301L289.04 89.3555L289.89 90.7317L290.741 89.3564L289.891 88.8301ZM300.936 70.9883H301.936V67.473L300.085 70.4619L300.936 70.9883ZM300.936 89H299.936V90H300.936V89ZM312.349 89V90H313.349V89H312.349ZM312.349 47.9639H313.349V46.9639H312.349V47.9639ZM298.104 47.9639V46.9639H297.453L297.189 47.559L298.104 47.9639ZM290.779 66.054L281.178 47.5042L279.402 48.4235L289.003 66.9733L290.779 66.054ZM280.29 46.9639H267.461V48.9639H280.29V46.9639ZM266.461 47.9639V89H268.461V47.9639H266.461ZM267.461 90H278.874V88H267.461V90ZM279.874 89V70.9883H277.874V89H279.874ZM278.023 71.5137L289.04 89.3555L290.741 88.3047L279.725 70.4629L278.023 71.5137ZM290.741 89.3564L301.786 71.5146L300.085 70.4619L289.04 88.3037L290.741 89.3564ZM299.936 70.9883V89H301.936V70.9883H299.936ZM300.936 90H312.349V88H300.936V90ZM313.349 89V47.9639H311.349V89H313.349ZM312.349 46.9639H298.104V48.9639H312.349V46.9639ZM297.189 47.559L288.976 66.1088L290.805 66.9185L299.018 48.3687L297.189 47.559ZM313.793 47.9639V46.9639H312.793V47.9639H313.793ZM313.793 89H312.793V90H313.793V89ZM343.529 89V90H344.529V89H343.529ZM343.529 77.5869H344.529V76.5869H343.529V77.5869ZM325.206 77.5869H324.206V78.5869H325.206V77.5869ZM325.206 74.1885V73.1885H324.206V74.1885H325.206ZM343.529 74.1885V75.1885H344.529V74.1885H343.529ZM343.529 62.7754H344.529V61.7754H343.529V62.7754ZM325.206 62.7754H324.206V63.7754H325.206V62.7754ZM325.206 59.3486V58.3486H324.206V59.3486H325.206ZM343.529 59.3486V60.3486H344.529V59.3486H343.529ZM343.529 47.9639H344.529V46.9639H343.529V47.9639ZM312.793 47.9639V89H314.793V47.9639H312.793ZM313.793 90H343.529V88H313.793V90ZM344.529 89V77.5869H342.529V89H344.529ZM343.529 76.5869H325.206V78.5869H343.529V76.5869ZM326.206 77.5869V74.1885H324.206V77.5869H326.206ZM325.206 75.1885H343.529V73.1885H325.206V75.1885ZM344.529 74.1885V62.7754H342.529V74.1885H344.529ZM343.529 61.7754H325.206V63.7754H343.529V61.7754ZM326.206 62.7754V59.3486H324.206V62.7754H326.206ZM325.206 60.3486H343.529V58.3486H325.206V60.3486ZM344.529 59.3486V47.9639H342.529V59.3486H344.529ZM343.529 46.9639H313.793V48.9639H343.529V46.9639Z" fill="#CEB7FF"/>
</g>
<g filter="url(#filter1_d_21_7287)">
<path d="M4.5 4.5H343.5V19.5H4.5V4.5Z" stroke="#CEB7FF" shape-rendering="crispEdges"/>
</g>
<g filter="url(#filter2_d_21_7287)">
<path d="M4.5 112.5H343.5V127.5H4.5V112.5Z" stroke="#CEB7FF" shape-rendering="crispEdges"/>
</g>
<defs>
<filter id="filter0_d_21_7287" x="0.101562" y="42.9639" width="348.428" height="51.0361" filterUnits="userSpaceOnUse" color-interpolation-filters="sRGB">
<feFlood flood-opacity="0" result="BackgroundImageFix"/>
<feColorMatrix in="SourceAlpha" type="matrix" values="0 0 0 0 0 0 0 0 0 0 0 0 0 0 0 0 0 0 127 0" result="hardAlpha"/>
<feOffset/>
<feGaussianBlur stdDeviation="2.5"/>
<feComposite in2="hardAlpha" operator="out"/>
<feColorMatrix type="matrix" values="0 0 0 0 0.701961 0 0 0 0 0.466667 0 0 0 0 1 0 0 0 1 0"/>
<feBlend mode="normal" in2="BackgroundImageFix" result="effect1_dropShadow_21_7287"/>
<feBlend mode="normal" in="SourceGraphic" in2="effect1_dropShadow_21_7287" result="shape"/>
</filter>
<filter id="filter1_d_21_7287" x="0" y="0" width="348" height="24" filterUnits="userSpaceOnUse" color-interpolation-filters="sRGB">
<feFlood flood-opacity="0" result="BackgroundImageFix"/>
<feColorMatrix in="SourceAlpha" type="matrix" values="0 0 0 0 0 0 0 0 0 0 0 0 0 0 0 0 0 0 127 0" result="hardAlpha"/>
<feOffset/>
<feGaussianBlur stdDeviation="2"/>
<feComposite in2="hardAlpha" operator="out"/>
<feColorMatrix type="matrix" values="0 0 0 0 0.807843 0 0 0 0 0.717647 0 0 0 0 1 0 0 0 1 0"/>
<feBlend mode="normal" in2="BackgroundImageFix" result="effect1_dropShadow_21_7287"/>
<feBlend mode="normal" in="SourceGraphic" in2="effect1_dropShadow_21_7287" result="shape"/>
</filter>
<filter id="filter2_d_21_7287" x="0" y="108" width="348" height="24" filterUnits="userSpaceOnUse" color-interpolation-filters="sRGB">
<feFlood flood-opacity="0" result="BackgroundImageFix"/>
<feColorMatrix in="SourceAlpha" type="matrix" values="0 0 0 0 0 0 0 0 0 0 0 0 0 0 0 0 0 0 127 0" result="hardAlpha"/>
<feOffset/>
<feGaussianBlur stdDeviation="2"/>
<feComposite in2="hardAlpha" operator="out"/>
<feColorMatrix type="matrix" values="0 0 0 0 0.807843 0 0 0 0 0.717647 0 0 0 0 1 0 0 0 1 0"/>
<feBlend mode="normal" in2="BackgroundImageFix" result="effect1_dropShadow_21_7287"/>
<feBlend mode="normal" in="SourceGraphic" in2="effect1_dropShadow_21_7287" result="shape"/>
</filter>
</defs>
</svg>
