<svg width="900" height="52" viewBox="0 0 900 52" fill="none" xmlns="http://www.w3.org/2000/svg">
<g filter="url(#filter0_d_9_273)">
<path d="M28.6191 20.7754V21.7754H29.6191V20.7754H28.6191ZM16.4131 20.7754H15.4131V21.7754H16.4131V20.7754ZM16.4131 5.96387H17.4131V4.96387H16.4131V5.96387ZM5 5.96387V4.96387H4V5.96387H5ZM5 47H4V48H5V47ZM16.4131 47V48H17.4131V47H16.4131ZM16.4131 32.1885V31.1885H15.4131V32.1885H16.4131ZM28.6191 32.1885H29.6191V31.1885H28.6191V32.1885ZM28.6191 47H27.6191V48H28.6191V47ZM40.0039 47V48H41.0039V47H40.0039ZM40.0039 5.96387H41.0039V4.96387H40.0039V5.96387ZM28.6191 5.96387V4.96387H27.6191V5.96387H28.6191ZM28.6191 19.7754H16.4131V21.7754H28.6191V19.7754ZM17.4131 20.7754V5.96387H15.4131V20.7754H17.4131ZM16.4131 4.96387H5V6.96387H16.4131V4.96387ZM4 5.96387V47H6V5.96387H4ZM5 48H16.4131V46H5V48ZM17.4131 47V32.1885H15.4131V47H17.4131ZM16.4131 33.1885H28.6191V31.1885H16.4131V33.1885ZM27.6191 32.1885V47H29.6191V32.1885H27.6191ZM28.6191 48H40.0039V46H28.6191V48ZM41.0039 47V5.96387H39.0039V47H41.0039ZM40.0039 4.96387H28.6191V6.96387H40.0039V4.96387ZM27.6191 5.96387V20.7754H29.6191V5.96387H27.6191ZM41.4199 5.96387V4.96387H40.4199V5.96387H41.4199ZM41.4199 47H40.4199V48H41.4199V47ZM71.1562 47V48H72.1562V47H71.1562ZM71.1562 35.5869H72.1562V34.5869H71.1562V35.5869ZM52.833 35.5869H51.833V36.5869H52.833V35.5869ZM52.833 32.1885V31.1885H51.833V32.1885H52.833ZM71.1562 32.1885V33.1885H72.1562V32.1885H71.1562ZM71.1562 20.7754H72.1562V19.7754H71.1562V20.7754ZM52.833 20.7754H51.833V21.7754H52.833V20.7754ZM52.833 17.3486V16.3486H51.833V17.3486H52.833ZM71.1562 17.3486V18.3486H72.1562V17.3486H71.1562ZM71.1562 5.96387H72.1562V4.96387H71.1562V5.96387ZM40.4199 5.96387V47H42.4199V5.96387H40.4199ZM41.4199 48H71.1562V46H41.4199V48ZM72.1562 47V35.5869H70.1562V47H72.1562ZM71.1562 34.5869H52.833V36.5869H71.1562V34.5869ZM53.833 35.5869V32.1885H51.833V35.5869H53.833ZM52.833 33.1885H71.1562V31.1885H52.833V33.1885ZM72.1562 32.1885V20.7754H70.1562V32.1885H72.1562ZM71.1562 19.7754H52.833V21.7754H71.1562V19.7754ZM53.833 20.7754V17.3486H51.833V20.7754H53.833ZM52.833 18.3486H71.1562V16.3486H52.833V18.3486ZM72.1562 17.3486V5.96387H70.1562V17.3486H72.1562ZM71.1562 4.96387H41.4199V6.96387H71.1562V4.96387ZM83.9854 5.96387H84.9854V4.96387H83.9854V5.96387ZM72.5723 5.96387V4.96387H71.5723V5.96387H72.5723ZM72.5723 47H71.5723V48H72.5723V47ZM103.725 47V48H104.725V47H103.725ZM103.725 35.5869H104.725V34.5869H103.725V35.5869ZM83.9854 35.5869H82.9854V36.5869H83.9854V35.5869ZM83.9854 4.96387H72.5723V6.96387H83.9854V4.96387ZM71.5723 5.96387V47H73.5723V5.96387H71.5723ZM72.5723 48H103.725V46H72.5723V48ZM104.725 47V35.5869H102.725V47H104.725ZM103.725 34.5869H83.9854V36.5869H103.725V34.5869ZM84.9854 35.5869V5.96387H82.9854V35.5869H84.9854ZM116.554 5.96387H117.554V4.96387H116.554V5.96387ZM105.141 5.96387V4.96387H104.141V5.96387H105.141ZM105.141 47H104.141V48H105.141V47ZM136.293 47V48H137.293V47H136.293ZM136.293 35.5869H137.293V34.5869H136.293V35.5869ZM116.554 35.5869H115.554V36.5869H116.554V35.5869ZM116.554 4.96387H105.141V6.96387H116.554V4.96387ZM104.141 5.96387V47H106.141V5.96387H104.141ZM105.141 48H136.293V46H105.141V48ZM137.293 47V35.5869H135.293V47H137.293ZM136.293 34.5869H116.554V36.5869H136.293V34.5869ZM117.554 35.5869V5.96387H115.554V35.5869H117.554ZM150.085 32.9248L150.792 32.2177L150.788 32.214L150.085 32.9248ZM150.028 20.0107L149.321 19.3036L149.317 19.3074L150.028 20.0107ZM166.171 20.0107L166.882 19.3074L166.878 19.3036L166.171 20.0107ZM166.114 32.9248L165.411 32.214L165.407 32.2177L166.114 32.9248ZM156.542 34.5869C154.275 34.5869 152.378 33.8032 150.792 32.2177L149.378 33.6319C151.342 35.5959 153.749 36.5869 156.542 36.5869V34.5869ZM150.788 32.214C149.185 30.6276 148.395 28.7315 148.395 26.4678H146.395C146.395 29.264 147.398 31.6725 149.382 33.6356L150.788 32.214ZM148.395 26.4678C148.395 24.1972 149.171 22.2988 150.739 20.7141L149.317 19.3074C147.374 21.2722 146.395 23.6784 146.395 26.4678H148.395ZM150.735 20.7178C152.318 19.1354 154.233 18.3486 156.542 18.3486V16.3486C153.716 16.3486 151.288 17.3366 149.321 19.3036L150.735 20.7178ZM156.542 18.3486H159.657V16.3486H156.542V18.3486ZM159.657 18.3486C161.967 18.3486 163.881 19.1354 165.464 20.7178L166.878 19.3036C164.911 17.3366 162.483 16.3486 159.657 16.3486V18.3486ZM165.46 20.7141C167.028 22.2988 167.805 24.1972 167.805 26.4678H169.805C169.805 23.6784 168.826 21.2722 166.882 19.3074L165.46 20.7141ZM167.805 26.4678C167.805 28.7315 167.014 30.6276 165.411 32.214L166.818 33.6356C168.802 31.6725 169.805 29.264 169.805 26.4678H167.805ZM165.407 32.2177C163.822 33.8032 161.924 34.5869 159.657 34.5869V36.5869C162.45 36.5869 164.857 35.5959 166.821 33.6319L165.407 32.2177ZM159.657 34.5869H156.542V36.5869H159.657V34.5869ZM156.542 4.96387C150.595 4.96387 145.498 7.06969 141.307 11.2607L142.721 12.6749C146.535 8.86065 151.123 6.96387 156.542 6.96387V4.96387ZM141.307 11.2607C137.116 15.4509 135.01 20.5387 135.01 26.4678H137.01C137.01 21.0687 138.906 16.4898 142.721 12.6749L141.307 11.2607ZM135.01 26.4678C135.01 32.4147 137.116 37.5122 141.307 41.7032L142.721 40.289C138.907 36.4748 137.01 31.8867 137.01 26.4678H135.01ZM141.307 41.7032C145.498 45.8942 150.595 48 156.542 48V46C151.123 46 146.535 44.1032 142.721 40.289L141.307 41.7032ZM156.542 48H159.657V46H156.542V48ZM159.657 48C165.604 48 170.702 45.8942 174.893 41.7032L173.478 40.289C169.664 44.1032 165.076 46 159.657 46V48ZM174.893 41.7032C179.084 37.5122 181.189 32.4147 181.189 26.4678H179.189C179.189 31.8867 177.293 36.4748 173.478 40.289L174.893 41.7032ZM181.189 26.4678C181.189 20.5387 179.083 15.4509 174.893 11.2607L173.478 12.6749C177.293 16.4898 179.189 21.0687 179.189 26.4678H181.189ZM174.893 11.2607C170.702 7.06969 165.604 4.96387 159.657 4.96387V6.96387C165.076 6.96387 169.664 8.86065 173.478 12.6749L174.893 11.2607ZM159.657 4.96387H156.542V6.96387H159.657V4.96387ZM191.971 5.96387V4.96387H190.971V5.96387H191.971ZM191.971 47H190.971V48H191.971V47ZM203.384 47V48H204.384V47H203.384ZM203.384 32.1885V31.1885H202.384V32.1885H203.384ZM218.847 32.1885V33.1885H219.847V32.1885H218.847ZM218.847 20.7754H219.847V19.7754H218.847V20.7754ZM203.384 20.7754H202.384V21.7754H203.384V20.7754ZM203.384 17.3486V16.3486H202.384V17.3486H203.384ZM221.707 17.3486V18.3486H222.707V17.3486H221.707ZM221.707 5.96387H222.707V4.96387H221.707V5.96387ZM190.971 5.96387V47H192.971V5.96387H190.971ZM191.971 48H203.384V46H191.971V48ZM204.384 47V32.1885H202.384V47H204.384ZM203.384 33.1885H218.847V31.1885H203.384V33.1885ZM219.847 32.1885V20.7754H217.847V32.1885H219.847ZM218.847 19.7754H203.384V21.7754H218.847V19.7754ZM204.384 20.7754V17.3486H202.384V20.7754H204.384ZM203.384 18.3486H221.707V16.3486H203.384V18.3486ZM222.707 17.3486V5.96387H220.707V17.3486H222.707ZM221.707 4.96387H191.971V6.96387H221.707V4.96387ZM223.123 5.96387V4.96387H222.123V5.96387H223.123ZM223.123 47H222.123V48H223.123V47ZM252.859 47V48H253.859V47H252.859ZM252.859 35.5869H253.859V34.5869H252.859V35.5869ZM234.536 35.5869H233.536V36.5869H234.536V35.5869ZM234.536 32.1885V31.1885H233.536V32.1885H234.536ZM252.859 32.1885V33.1885H253.859V32.1885H252.859ZM252.859 20.7754H253.859V19.7754H252.859V20.7754ZM234.536 20.7754H233.536V21.7754H234.536V20.7754ZM234.536 17.3486V16.3486H233.536V17.3486H234.536ZM252.859 17.3486V18.3486H253.859V17.3486H252.859ZM252.859 5.96387H253.859V4.96387H252.859V5.96387ZM222.123 5.96387V47H224.123V5.96387H222.123ZM223.123 48H252.859V46H223.123V48ZM253.859 47V35.5869H251.859V47H253.859ZM252.859 34.5869H234.536V36.5869H252.859V34.5869ZM235.536 35.5869V32.1885H233.536V35.5869H235.536ZM234.536 33.1885H252.859V31.1885H234.536V33.1885ZM253.859 32.1885V20.7754H251.859V32.1885H253.859ZM252.859 19.7754H234.536V21.7754H252.859V19.7754ZM235.536 20.7754V17.3486H233.536V20.7754H235.536ZM234.536 18.3486H252.859V16.3486H234.536V18.3486ZM253.859 17.3486V5.96387H251.859V17.3486H253.859ZM252.859 4.96387H223.123V6.96387H252.859V4.96387ZM265.688 5.96387H266.688V4.96387H265.688V5.96387ZM254.275 5.96387V4.96387H253.275V5.96387H254.275ZM254.275 47H253.275V48H254.275V47ZM285.428 47V48H286.428V47H285.428ZM285.428 35.5869H286.428V34.5869H285.428V35.5869ZM265.688 35.5869H264.688V36.5869H265.688V35.5869ZM265.688 4.96387H254.275V6.96387H265.688V4.96387ZM253.275 5.96387V47H255.275V5.96387H253.275ZM254.275 48H285.428V46H254.275V48ZM286.428 47V35.5869H284.428V47H286.428ZM285.428 34.5869H265.688V36.5869H285.428V34.5869ZM266.688 35.5869V5.96387H264.688V35.5869H266.688ZM298.257 5.96387H299.257V4.96387H298.257V5.96387ZM286.844 5.96387V4.96387H285.844V5.96387H286.844ZM286.844 47H285.844V48H286.844V47ZM317.996 47V48H318.996V47H317.996ZM317.996 35.5869H318.996V34.5869H317.996V35.5869ZM298.257 35.5869H297.257V36.5869H298.257V35.5869ZM298.257 4.96387H286.844V6.96387H298.257V4.96387ZM285.844 5.96387V47H287.844V5.96387H285.844ZM286.844 48H317.996V46H286.844V48ZM318.996 47V35.5869H316.996V47H318.996ZM317.996 34.5869H298.257V36.5869H317.996V34.5869ZM299.257 35.5869V5.96387H297.257V35.5869H299.257ZM331.788 32.9248L332.495 32.2177L332.491 32.214L331.788 32.9248ZM331.731 20.0107L331.024 19.3036L331.021 19.3074L331.731 20.0107ZM347.874 20.0107L348.585 19.3074L348.581 19.3036L347.874 20.0107ZM347.817 32.9248L347.114 32.214L347.11 32.2177L347.817 32.9248ZM338.245 34.5869C335.978 34.5869 334.081 33.8032 332.495 32.2177L331.081 33.6319C333.045 35.5959 335.452 36.5869 338.245 36.5869V34.5869ZM332.491 32.214C330.888 30.6276 330.098 28.7315 330.098 26.4678H328.098C328.098 29.264 329.101 31.6725 331.085 33.6356L332.491 32.214ZM330.098 26.4678C330.098 24.1972 330.874 22.2988 332.442 20.7141L331.021 19.3074C329.077 21.2722 328.098 23.6784 328.098 26.4678H330.098ZM332.439 20.7178C334.021 19.1354 335.936 18.3486 338.245 18.3486V16.3486C335.419 16.3486 332.991 17.3366 331.024 19.3036L332.439 20.7178ZM338.245 18.3486H341.36V16.3486H338.245V18.3486ZM341.36 18.3486C343.67 18.3486 345.585 19.1354 347.167 20.7178L348.581 19.3036C346.614 17.3366 344.186 16.3486 341.36 16.3486V18.3486ZM347.163 20.7141C348.731 22.2988 349.508 24.1972 349.508 26.4678H351.508C351.508 23.6784 350.529 21.2722 348.585 19.3074L347.163 20.7141ZM349.508 26.4678C349.508 28.7315 348.717 30.6276 347.114 32.214L348.521 33.6356C350.505 31.6725 351.508 29.264 351.508 26.4678H349.508ZM347.11 32.2177C345.525 33.8032 343.627 34.5869 341.36 34.5869V36.5869C344.153 36.5869 346.561 35.5959 348.524 33.6319L347.11 32.2177ZM341.36 34.5869H338.245V36.5869H341.36V34.5869ZM338.245 4.96387C332.298 4.96387 327.201 7.06969 323.01 11.2607L324.424 12.6749C328.238 8.86065 332.826 6.96387 338.245 6.96387V4.96387ZM323.01 11.2607C318.819 15.4509 316.713 20.5387 316.713 26.4678H318.713C318.713 21.0687 320.609 16.4898 324.424 12.6749L323.01 11.2607ZM316.713 26.4678C316.713 32.4147 318.819 37.5122 323.01 41.7032L324.424 40.289C320.61 36.4748 318.713 31.8867 318.713 26.4678H316.713ZM323.01 41.7032C327.201 45.8942 332.298 48 338.245 48V46C332.826 46 328.238 44.1032 324.424 40.289L323.01 41.7032ZM338.245 48H341.36V46H338.245V48ZM341.36 48C347.307 48 352.405 45.8942 356.596 41.7032L355.182 40.289C351.367 44.1032 346.779 46 341.36 46V48ZM356.596 41.7032C360.787 37.5122 362.893 32.4147 362.893 26.4678H360.893C360.893 31.8867 358.996 36.4748 355.182 40.289L356.596 41.7032ZM362.893 26.4678C362.893 20.5387 360.786 15.4509 356.596 11.2607L355.182 12.6749C358.996 16.4898 360.893 21.0687 360.893 26.4678H362.893ZM356.596 11.2607C352.405 7.06969 347.307 4.96387 341.36 4.96387V6.96387C346.779 6.96387 351.367 8.86065 355.182 12.6749L356.596 11.2607ZM341.36 4.96387H338.245V6.96387H341.36V4.96387ZM392.365 21.0869L391.39 21.3096L393.34 21.3114L392.365 21.0869ZM388.91 5.96387L389.885 5.74114L389.707 4.96387H388.91V5.96387ZM378.828 5.96387V4.96387H378.032L377.854 5.73941L378.828 5.96387ZM375.345 21.0869L374.37 21.3096L376.319 21.3114L375.345 21.0869ZM371.89 5.96387L372.865 5.74114L372.687 4.96387H371.89V5.96387ZM359.627 5.96387V4.96387H358.372L358.652 6.1872L359.627 5.96387ZM369.029 47L368.055 47.2233L368.233 48H369.029V47ZM380.244 47V48H381.029L381.216 47.2375L380.244 47ZM383.982 31.707L384.973 31.5731L383.011 31.4696L383.982 31.707ZM386.05 47L385.059 47.134L385.176 48H386.05V47ZM398.681 47V48H399.466L399.652 47.2367L398.681 47ZM408.678 5.96387L409.649 6.20056L409.951 4.96387H408.678V5.96387ZM395.849 5.96387V4.96387H395.053L394.874 5.73941L395.849 5.96387ZM393.34 20.8642L389.885 5.74114L387.935 6.18659L391.39 21.3096L393.34 20.8642ZM388.91 4.96387H378.828V6.96387H388.91V4.96387ZM377.854 5.73941L374.37 20.8625L376.319 21.3114L379.803 6.18833L377.854 5.73941ZM376.32 20.8642L372.865 5.74114L370.915 6.18659L374.37 21.3096L376.32 20.8642ZM371.89 4.96387H359.627V6.96387H371.89V4.96387ZM358.652 6.1872L368.055 47.2233L370.004 46.7767L360.602 5.74053L358.652 6.1872ZM369.029 48H380.244V46H369.029V48ZM381.216 47.2375L384.954 31.9445L383.011 31.4696L379.273 46.7625L381.216 47.2375ZM382.991 31.841L385.059 47.134L387.041 46.866L384.973 31.5731L382.991 31.841ZM386.05 48H398.681V46H386.05V48ZM399.652 47.2367L409.649 6.20056L407.706 5.72717L397.709 46.7633L399.652 47.2367ZM408.678 4.96387H395.849V6.96387H408.678V4.96387ZM394.874 5.73941L391.391 20.8625L393.34 21.3114L396.823 6.18833L394.874 5.73941ZM445.721 35.5869V36.5869H446.721V35.5869H445.721ZM434.534 32.9248L435.241 32.2177L435.238 32.214L434.534 32.9248ZM434.478 20.0107L433.77 19.3036L433.767 19.3074L434.478 20.0107ZM456.936 17.3486V18.3486H457.936V17.3486H456.936ZM456.936 5.96387H457.936V4.96387H456.936V5.96387ZM457.134 47V48H458.134V47H457.134ZM457.134 26.8643H458.134V25.8643H457.134V26.8643ZM445.721 26.8643V25.8643H444.721V26.8643H445.721ZM445.721 34.5869H440.991V36.5869H445.721V34.5869ZM440.991 34.5869C438.724 34.5869 436.827 33.8032 435.241 32.2177L433.827 33.6319C435.791 35.5959 438.198 36.5869 440.991 36.5869V34.5869ZM435.238 32.214C433.634 30.6276 432.844 28.7315 432.844 26.4678H430.844C430.844 29.264 431.847 31.6725 433.831 33.6356L435.238 32.214ZM432.844 26.4678C432.844 24.1972 433.621 22.2988 435.188 20.7141L433.767 19.3074C431.823 21.2722 430.844 23.6784 430.844 26.4678H432.844ZM435.185 20.7178C436.767 19.1354 438.682 18.3486 440.991 18.3486V16.3486C438.165 16.3486 435.737 17.3366 433.77 19.3036L435.185 20.7178ZM440.991 18.3486H456.936V16.3486H440.991V18.3486ZM457.936 17.3486V5.96387H455.936V17.3486H457.936ZM456.936 4.96387H440.991V6.96387H456.936V4.96387ZM440.991 4.96387C435.044 4.96387 429.947 7.06969 425.756 11.2607L427.17 12.6749C430.984 8.86065 435.572 6.96387 440.991 6.96387V4.96387ZM425.756 11.2607C421.566 15.4509 419.459 20.5387 419.459 26.4678H421.459C421.459 21.0687 423.355 16.4898 427.17 12.6749L425.756 11.2607ZM419.459 26.4678C419.459 32.4147 421.565 37.5122 425.756 41.7032L427.17 40.289C423.356 36.4748 421.459 31.8867 421.459 26.4678H419.459ZM425.756 41.7032C429.947 45.8942 435.044 48 440.991 48V46C435.572 46 430.984 44.1032 427.17 40.289L425.756 41.7032ZM440.991 48H457.134V46H440.991V48ZM458.134 47V26.8643H456.134V47H458.134ZM457.134 25.8643H445.721V27.8643H457.134V25.8643ZM444.721 26.8643V35.5869H446.721V26.8643H444.721ZM477.836 32.2451L476.901 31.8912L476.388 33.2451H477.836V32.2451ZM481.716 21.9932L482.651 21.6392L481.716 19.1679L480.781 21.6392L481.716 21.9932ZM485.596 32.2451V33.2451H487.043L486.531 31.8912L485.596 32.2451ZM474.834 5.96387V4.96387H474.155L473.904 5.59558L474.834 5.96387ZM458.578 47L457.648 46.6317L457.106 48H458.578V47ZM472.257 47V48H472.948L473.192 47.3533L472.257 47ZM473.786 42.9502V41.9502H473.095L472.851 42.5969L473.786 42.9502ZM489.617 42.9502L490.551 42.5912L490.304 41.9502H489.617V42.9502ZM491.175 47L490.241 47.359L490.488 48H491.175V47ZM504.287 47V48H505.74L505.221 46.6429L504.287 47ZM488.598 5.96387L489.532 5.60675L489.286 4.96387H488.598V5.96387ZM478.771 32.5991L482.651 22.3471L480.781 21.6392L476.901 31.8912L478.771 32.5991ZM480.781 22.3471L484.66 32.5991L486.531 31.8912L482.651 21.6392L480.781 22.3471ZM485.596 31.2451H477.836V33.2451H485.596V31.2451ZM473.904 5.59558L457.648 46.6317L459.508 47.3683L475.764 6.33216L473.904 5.59558ZM458.578 48H472.257V46H458.578V48ZM473.192 47.3533L474.722 43.3035L472.851 42.5969L471.321 46.6467L473.192 47.3533ZM473.786 43.9502H489.617V41.9502H473.786V43.9502ZM488.684 43.3092L490.241 47.359L492.108 46.641L490.551 42.5912L488.684 43.3092ZM491.175 48H504.287V46H491.175V48ZM505.221 46.6429L489.532 5.60675L487.664 6.32099L503.353 47.3571L505.221 46.6429ZM488.598 4.96387H474.834V6.96387H488.598V4.96387ZM542.718 32.2451L541.783 31.8912L541.27 33.2451H542.718V32.2451ZM546.598 21.9932L547.533 21.6392L546.598 19.1679L545.662 21.6392L546.598 21.9932ZM550.478 32.2451V33.2451H551.925L551.413 31.8912L550.478 32.2451ZM517.116 35.5869H516.116V36.5869H517.116V35.5869ZM517.116 5.96387H518.116V4.96387H517.116V5.96387ZM505.703 5.96387V4.96387H504.703V5.96387H505.703ZM505.703 47H504.703V48H505.703V47ZM537.139 47V48H537.83L538.074 47.3533L537.139 47ZM538.668 42.9502V41.9502H537.977L537.732 42.5969L538.668 42.9502ZM554.499 42.9502L555.432 42.5912L555.186 41.9502H554.499V42.9502ZM556.057 47L555.123 47.359L555.37 48H556.057V47ZM569.169 47V48H570.622L570.103 46.6429L569.169 47ZM553.479 5.96387L554.414 5.60675L554.168 4.96387H553.479V5.96387ZM539.716 5.96387V4.96387H539.036L538.786 5.59585L539.716 5.96387ZM527.991 35.5869V36.5869H528.671L528.921 35.9549L527.991 35.5869ZM543.653 32.5991L547.533 22.3471L545.662 21.6392L541.783 31.8912L543.653 32.5991ZM545.662 22.3471L549.542 32.5991L551.413 31.8912L547.533 21.6392L545.662 22.3471ZM550.478 31.2451H542.718V33.2451H550.478V31.2451ZM518.116 35.5869V5.96387H516.116V35.5869H518.116ZM517.116 4.96387H505.703V6.96387H517.116V4.96387ZM504.703 5.96387V47H506.703V5.96387H504.703ZM505.703 48H537.139V46H505.703V48ZM538.074 47.3533L539.604 43.3035L537.732 42.5969L536.203 46.6467L538.074 47.3533ZM538.668 43.9502H554.499V41.9502H538.668V43.9502ZM553.566 43.3092L555.123 47.359L556.99 46.641L555.432 42.5912L553.566 43.3092ZM556.057 48H569.169V46H556.057V48ZM570.103 46.6429L554.414 5.60675L552.545 6.32099L568.235 47.3571L570.103 46.6429ZM553.479 4.96387H539.716V6.96387H553.479V4.96387ZM538.786 5.59585L527.061 35.2189L528.921 35.9549L540.646 6.33188L538.786 5.59585ZM527.991 34.5869H517.116V36.5869H527.991V34.5869ZM610.573 5.96387L611.421 6.49387L612.378 4.96387H610.573V5.96387ZM596.13 5.96387V4.96387H595.573L595.28 5.43751L596.13 5.96387ZM590.607 14.8848L589.758 15.4131L590.61 16.7811L591.458 15.4111L590.607 14.8848ZM585.057 5.96387L585.906 5.43556L585.612 4.96387H585.057V5.96387ZM570.613 5.96387V4.96387H568.809L569.765 6.49387L570.613 5.96387ZM570.755 6.19043L571.604 5.66171L571.603 5.66043L570.755 6.19043ZM583.386 26.4678L584.235 26.996L584.564 26.4674L584.235 25.9391L583.386 26.4678ZM570.755 46.7734L571.603 47.3034L571.604 47.3016L570.755 46.7734ZM570.613 47L569.765 46.47L568.809 48H570.613V47ZM585.057 47V48H585.612L585.906 47.5283L585.057 47ZM590.607 38.0791L591.458 37.5527L590.61 36.1828L589.758 37.5508L590.607 38.0791ZM596.13 47L595.28 47.5264L595.573 48H596.13V47ZM610.573 47V48H612.378L611.421 46.47L610.573 47ZM610.432 46.7734L609.583 47.3016L609.584 47.3034L610.432 46.7734ZM597.801 26.4678L596.952 25.9391L596.623 26.4674L596.952 26.996L597.801 26.4678ZM610.432 6.19043L609.584 5.66043L609.583 5.66171L610.432 6.19043ZM610.573 4.96387H596.13V6.96387H610.573V4.96387ZM595.28 5.43751L589.757 14.3584L591.458 15.4111L596.98 6.49022L595.28 5.43751ZM591.456 14.3565L585.906 5.43556L584.208 6.49217L589.758 15.4131L591.456 14.3565ZM585.057 4.96387H570.613V6.96387H585.057V4.96387ZM569.765 6.49387L569.907 6.72043L571.603 5.66043L571.461 5.43387L569.765 6.49387ZM569.906 6.71915L582.537 26.9965L584.235 25.9391L571.604 5.66171L569.906 6.71915ZM582.537 25.9396L569.906 46.2453L571.604 47.3016L584.235 26.996L582.537 25.9396ZM569.907 46.2434L569.765 46.47L571.461 47.53L571.603 47.3034L569.907 46.2434ZM570.613 48H585.057V46H570.613V48ZM585.906 47.5283L591.456 38.6074L589.758 37.5508L584.208 46.4717L585.906 47.5283ZM589.757 38.6055L595.28 47.5264L596.98 46.4736L591.458 37.5527L589.757 38.6055ZM596.13 48H610.573V46H596.13V48ZM611.421 46.47L611.28 46.2434L609.584 47.3034L609.725 47.53L611.421 46.47ZM611.281 46.2453L598.65 25.9396L596.952 26.996L609.583 47.3016L611.281 46.2453ZM598.65 26.9965L611.28 6.71915L609.583 5.66171L596.952 25.9391L598.65 26.9965ZM611.28 6.72043L611.421 6.49387L609.725 5.43387L609.584 5.66043L611.28 6.72043ZM633.711 20.0107L632.853 20.5245L633.709 21.9549L634.568 20.5257L633.711 20.0107ZM625.3 5.96387L626.158 5.45014L625.867 4.96387H625.3V5.96387ZM612.018 5.96387V4.96387H610.252L611.16 6.47822L612.018 5.96387ZM627.084 31.084L627.946 30.5763L627.942 30.5696L627.084 31.084ZM628.019 32.6699H629.019V32.3972L628.88 32.1622L628.019 32.6699ZM628.019 47H627.019V48H628.019V47ZM639.432 47V48H640.432V47H639.432ZM639.432 32.6699L638.57 32.1622L638.432 32.3972V32.6699H639.432ZM640.366 31.084L639.509 30.5696L639.505 30.5763L640.366 31.084ZM655.433 5.96387L656.29 6.47822L657.198 4.96387H655.433V5.96387ZM642.15 5.96387V4.96387H641.585L641.293 5.44886L642.15 5.96387ZM634.569 19.497L626.158 5.45014L624.442 6.4776L632.853 20.5245L634.569 19.497ZM625.3 4.96387H612.018V6.96387H625.3V4.96387ZM611.16 6.47822L626.226 31.5983L627.942 30.5696L612.875 5.44951L611.16 6.47822ZM626.222 31.5917L627.157 33.1776L628.88 32.1622L627.945 30.5763L626.222 31.5917ZM627.019 32.6699V47H629.019V32.6699H627.019ZM628.019 48H639.432V46H628.019V48ZM640.432 47V32.6699H638.432V47H640.432ZM640.293 33.1776L641.228 31.5917L639.505 30.5763L638.57 32.1622L640.293 33.1776ZM641.224 31.5983L656.29 6.47822L654.575 5.44951L639.509 30.5696L641.224 31.5983ZM655.433 4.96387H642.15V6.96387H655.433V4.96387ZM641.293 5.44886L632.854 19.4957L634.568 20.5257L643.008 6.47887L641.293 5.44886ZM689.672 24.5137L688.784 24.9733L689.742 26.825L690.586 24.9185L689.672 24.5137ZM680.071 5.96387L680.959 5.50422L680.68 4.96387H680.071V5.96387ZM667.242 5.96387V4.96387H666.242V5.96387H667.242ZM667.242 47H666.242V48H667.242V47ZM678.655 47V48H679.655V47H678.655ZM678.655 28.9883L679.506 28.4629L677.655 25.4654V28.9883H678.655ZM689.672 46.8301L688.821 47.3555L689.671 48.7317L690.522 47.3564L689.672 46.8301ZM700.717 28.9883H701.717V25.473L699.867 28.4619L700.717 28.9883ZM700.717 47H699.717V48H700.717V47ZM712.13 47V48H713.13V47H712.13ZM712.13 5.96387H713.13V4.96387H712.13V5.96387ZM697.885 5.96387V4.96387H697.234L696.97 5.55902L697.885 5.96387ZM690.56 24.054L680.959 5.50422L679.183 6.42351L688.784 24.9733L690.56 24.054ZM680.071 4.96387H667.242V6.96387H680.071V4.96387ZM666.242 5.96387V47H668.242V5.96387H666.242ZM667.242 48H678.655V46H667.242V48ZM679.655 47V28.9883H677.655V47H679.655ZM677.804 29.5137L688.821 47.3555L690.523 46.3047L679.506 28.4629L677.804 29.5137ZM690.522 47.3564L701.567 29.5146L699.867 28.4619L688.822 46.3037L690.522 47.3564ZM699.717 28.9883V47H701.717V28.9883H699.717ZM700.717 48H712.13V46H700.717V48ZM713.13 47V5.96387H711.13V47H713.13ZM712.13 4.96387H697.885V6.96387H712.13V4.96387ZM696.97 5.55902L688.758 24.1088L690.586 24.9185L698.799 6.36871L696.97 5.55902ZM713.574 5.96387V4.96387H712.574V5.96387H713.574ZM713.574 47H712.574V48H713.574V47ZM743.311 47V48H744.311V47H743.311ZM743.311 35.5869H744.311V34.5869H743.311V35.5869ZM724.987 35.5869H723.987V36.5869H724.987V35.5869ZM724.987 32.1885V31.1885H723.987V32.1885H724.987ZM743.311 32.1885V33.1885H744.311V32.1885H743.311ZM743.311 20.7754H744.311V19.7754H743.311V20.7754ZM724.987 20.7754H723.987V21.7754H724.987V20.7754ZM724.987 17.3486V16.3486H723.987V17.3486H724.987ZM743.311 17.3486V18.3486H744.311V17.3486H743.311ZM743.311 5.96387H744.311V4.96387H743.311V5.96387ZM712.574 5.96387V47H714.574V5.96387H712.574ZM713.574 48H743.311V46H713.574V48ZM744.311 47V35.5869H742.311V47H744.311ZM743.311 34.5869H724.987V36.5869H743.311V34.5869ZM725.987 35.5869V32.1885H723.987V35.5869H725.987ZM724.987 33.1885H743.311V31.1885H724.987V33.1885ZM744.311 32.1885V20.7754H742.311V32.1885H744.311ZM743.311 19.7754H724.987V21.7754H743.311V19.7754ZM725.987 20.7754V17.3486H723.987V20.7754H725.987ZM724.987 18.3486H743.311V16.3486H724.987V18.3486ZM744.311 17.3486V5.96387H742.311V17.3486H744.311ZM743.311 4.96387H713.574V6.96387H743.311V4.96387ZM767.156 24.5137L766.268 24.9733L767.227 26.825L768.071 24.9185L767.156 24.5137ZM757.556 5.96387L758.444 5.50422L758.164 4.96387H757.556V5.96387ZM744.727 5.96387V4.96387H743.727V5.96387H744.727ZM744.727 47H743.727V48H744.727V47ZM756.14 47V48H757.14V47H756.14ZM756.14 28.9883L756.991 28.4629L755.14 25.4654V28.9883H756.14ZM767.156 46.8301L766.305 47.3555L767.155 48.7317L768.007 47.3564L767.156 46.8301ZM778.201 28.9883H779.201V25.473L777.351 28.4619L778.201 28.9883ZM778.201 47H777.201V48H778.201V47ZM789.614 47V48H790.614V47H789.614ZM789.614 5.96387H790.614V4.96387H789.614V5.96387ZM775.369 5.96387V4.96387H774.718L774.455 5.55902L775.369 5.96387ZM768.044 24.054L758.444 5.50422L756.668 6.42351L766.268 24.9733L768.044 24.054ZM757.556 4.96387H744.727V6.96387H757.556V4.96387ZM743.727 5.96387V47H745.727V5.96387H743.727ZM744.727 48H756.14V46H744.727V48ZM757.14 47V28.9883H755.14V47H757.14ZM755.289 29.5137L766.305 47.3555L768.007 46.3047L756.991 28.4629L755.289 29.5137ZM768.007 47.3564L779.051 29.5146L777.351 28.4619L766.306 46.3037L768.007 47.3564ZM777.201 28.9883V47H779.201V28.9883H777.201ZM778.201 48H789.614V46H778.201V48ZM790.614 47V5.96387H788.614V47H790.614ZM789.614 4.96387H775.369V6.96387H789.614V4.96387ZM774.455 5.55902L766.242 24.1088L768.071 24.9185L776.284 6.36871L774.455 5.55902ZM814.848 20.4922L814.063 19.8725L814.06 19.8759L814.848 20.4922ZM802.5 21.1436H801.5V22.1436H802.5V21.1436ZM802.5 17.292V16.292H801.5V17.292H802.5ZM814.763 17.8584L814.001 18.506L814.01 18.5168L814.019 18.5274L814.763 17.8584ZM802.5 35.5869H801.5V36.5869H802.5V35.5869ZM802.5 31.7354V30.7354H801.5V31.7354H802.5ZM814.904 32.5L814.072 33.0547L814.083 33.0703L814.094 33.0855L814.904 32.5ZM814.763 35.0205L814.019 34.3515L814.01 34.3621L814.001 34.3729L814.763 35.0205ZM791.059 5.96387V4.96387H790.059V5.96387H791.059ZM791.059 47H790.059V48H791.059V47ZM816.094 47V48.0001L816.105 47.9999L816.094 47ZM824.42 43.0352L823.671 42.3728L823.668 42.3759L824.42 43.0352ZM826.119 26.1846L825.242 25.7035L824.966 26.2077L825.262 26.7003L826.119 26.1846ZM822.579 8.28613L823.086 7.4242L823.085 7.42325L822.579 8.28613ZM814.06 19.8759C813.892 20.0907 813.748 20.1436 813.573 20.1436V22.1436C814.418 22.1436 815.124 21.7622 815.635 21.1085L814.06 19.8759ZM813.573 20.1436H802.5V22.1436H813.573V20.1436ZM803.5 21.1436V17.292H801.5V21.1436H803.5ZM802.5 18.292H813.573V16.292H802.5V18.292ZM813.573 18.292C813.736 18.292 813.859 18.3392 814.001 18.506L815.525 17.2108C815.025 16.6224 814.355 16.292 813.573 16.292V18.292ZM814.019 18.5274C814.187 18.7133 814.272 18.9252 814.272 19.2178H816.272C816.272 18.4531 816.018 17.7587 815.506 17.1894L814.019 18.5274ZM814.272 19.2178C814.272 19.5016 814.196 19.7038 814.063 19.8725L815.633 21.1118C816.066 20.5631 816.272 19.9157 816.272 19.2178H814.272ZM803.5 35.5869V31.7354H801.5V35.5869H803.5ZM802.5 32.7354H813.573V30.7354H802.5V32.7354ZM813.573 32.7354C813.742 32.7354 813.892 32.7843 814.072 33.0547L815.736 31.9453C815.237 31.1962 814.499 30.7354 813.573 30.7354V32.7354ZM814.094 33.0855C814.211 33.2485 814.272 33.429 814.272 33.6611H816.272C816.272 33.0247 816.088 32.4312 815.715 31.9145L814.094 33.0855ZM814.272 33.6611C814.272 33.9538 814.187 34.1656 814.019 34.3515L815.506 35.6895C816.018 35.1202 816.272 34.4258 816.272 33.6611H814.272ZM814.001 34.3729C813.859 34.5397 813.736 34.5869 813.573 34.5869V36.5869C814.355 36.5869 815.025 36.2565 815.525 35.6682L814.001 34.3729ZM813.573 34.5869H802.5V36.5869H813.573V34.5869ZM790.059 5.96387V47H792.059V5.96387H790.059ZM791.059 48H816.094V46H791.059V48ZM816.105 47.9999C819.674 47.9587 822.713 46.4988 825.172 43.6944L823.668 42.3759C821.558 44.7825 819.046 45.9658 816.082 46.0001L816.105 47.9999ZM825.169 43.6975C827.642 40.8999 828.875 37.5362 828.875 33.6611H826.875C826.875 37.0738 825.804 39.9595 823.671 42.3728L825.169 43.6975ZM828.875 33.6611C828.875 30.4994 828.267 27.8135 826.976 25.6689L825.262 26.7003C826.313 28.445 826.875 30.7434 826.875 33.6611H828.875ZM826.996 26.6656C828.25 24.3799 828.875 21.8914 828.875 19.2178H826.875C826.875 21.5663 826.329 23.7223 825.242 25.7035L826.996 26.6656ZM828.875 19.2178C828.875 13.7637 827.007 9.73074 823.086 7.4242L822.072 9.14807C825.212 10.9952 826.875 14.2499 826.875 19.2178H828.875ZM823.085 7.42325C820.21 5.73967 815.944 4.96387 810.43 4.96387V6.96387C815.828 6.96387 819.662 7.73624 822.074 9.14902L823.085 7.42325ZM810.43 4.96387H791.059V6.96387H810.43V4.96387ZM829.291 5.96387V4.96387H828.291V5.96387H829.291ZM829.291 47H828.291V48H829.291V47ZM859.027 47V48H860.027V47H859.027ZM859.027 35.5869H860.027V34.5869H859.027V35.5869ZM840.704 35.5869H839.704V36.5869H840.704V35.5869ZM840.704 32.1885V31.1885H839.704V32.1885H840.704ZM859.027 32.1885V33.1885H860.027V32.1885H859.027ZM859.027 20.7754H860.027V19.7754H859.027V20.7754ZM840.704 20.7754H839.704V21.7754H840.704V20.7754ZM840.704 17.3486V16.3486H839.704V17.3486H840.704ZM859.027 17.3486V18.3486H860.027V17.3486H859.027ZM859.027 5.96387H860.027V4.96387H859.027V5.96387ZM828.291 5.96387V47H830.291V5.96387H828.291ZM829.291 48H859.027V46H829.291V48ZM860.027 47V35.5869H858.027V47H860.027ZM859.027 34.5869H840.704V36.5869H859.027V34.5869ZM841.704 35.5869V32.1885H839.704V35.5869H841.704ZM840.704 33.1885H859.027V31.1885H840.704V33.1885ZM860.027 32.1885V20.7754H858.027V32.1885H860.027ZM859.027 19.7754H840.704V21.7754H859.027V19.7754ZM841.704 20.7754V17.3486H839.704V20.7754H841.704ZM840.704 18.3486H859.027V16.3486H840.704V18.3486ZM860.027 17.3486V5.96387H858.027V17.3486H860.027ZM859.027 4.96387H829.291V6.96387H859.027V4.96387ZM890.52 10.4951L889.808 11.1977L889.81 11.2L890.52 10.4951ZM879.814 5.96387L879.823 4.96387H879.814V5.96387ZM860.443 5.96387V4.96387H859.443V5.96387H860.443ZM860.443 47H859.443V48H860.443V47ZM871.856 47V48H872.856V47H871.856ZM871.856 39.665L872.633 39.0344L870.856 36.8485V39.665H871.856ZM872.621 40.543L873.353 39.862L873.352 39.8606L872.621 40.543ZM894.088 47V48H895.088V47H894.088ZM894.088 35.5869H895.088V34.5869H894.088V35.5869ZM885.903 35.1621L885.495 34.2494L882.649 35.5229L885.705 36.1422L885.903 35.1621ZM892.417 29.6396L893.25 30.1929L893.252 30.1901L892.417 29.6396ZM871.856 24.627H870.856V25.627H871.856V24.627ZM871.856 19.0195V18.0195H870.856V19.0195H871.856ZM895.938 21.2285C895.938 16.7739 894.361 12.9425 891.229 9.79027L889.81 11.2C892.569 13.9762 893.938 17.3003 893.938 21.2285H895.938ZM891.231 9.79253C888.1 6.6214 884.279 5.00405 879.823 4.96391L879.805 6.96383C883.733 6.99921 887.048 8.40268 889.808 11.1977L891.231 9.79253ZM879.814 4.96387H860.443V6.96387H879.814V4.96387ZM859.443 5.96387V47H861.443V5.96387H859.443ZM860.443 48H871.856V46H860.443V48ZM872.856 47V39.665H870.856V47H872.856ZM871.08 40.2956C871.34 40.6154 871.61 40.9253 871.89 41.2253L873.352 39.8606C873.104 39.5942 872.864 39.3189 872.633 39.0344L871.08 40.2956ZM871.889 41.2239C876.142 45.798 882.464 48 890.661 48V46C882.81 46 877.106 43.8973 873.353 39.862L871.889 41.2239ZM890.661 48H894.088V46H890.661V48ZM895.088 47V35.5869H893.088V47H895.088ZM894.088 34.5869H890.661V36.5869H894.088V34.5869ZM890.661 34.5869C888.938 34.5869 887.42 34.4492 886.102 34.182L885.705 36.1422C887.181 36.4414 888.835 36.5869 890.661 36.5869V34.5869ZM886.312 36.0749C889.185 34.7889 891.503 32.8231 893.25 30.1929L891.584 29.0864C890.046 31.4028 888.021 33.1186 885.495 34.2494L886.312 36.0749ZM893.252 30.1901C895.04 27.4775 895.938 24.4824 895.938 21.2285H893.938C893.938 24.0918 893.155 26.7041 891.582 29.0892L893.252 30.1901ZM872.856 24.627V19.0195H870.856V24.627H872.856ZM871.856 20.0195H878.795V18.0195H871.856V20.0195ZM878.795 20.0195C879.304 20.0195 879.71 20.1879 880.07 20.5479L881.484 19.1337C880.749 18.3987 879.834 18.0195 878.795 18.0195V20.0195ZM880.07 20.5479C880.43 20.908 880.599 21.3145 880.599 21.8232H882.599C882.599 20.7838 882.219 19.8687 881.484 19.1337L880.07 20.5479ZM880.599 21.8232C880.599 22.332 880.43 22.7385 880.07 23.0986L881.484 24.5128C882.219 23.7778 882.599 22.8626 882.599 21.8232H880.599ZM880.07 23.0986C879.71 23.4586 879.304 23.627 878.795 23.627V25.627C879.834 25.627 880.749 25.2478 881.484 24.5128L880.07 23.0986ZM878.795 23.627H871.856V25.627H878.795V23.627Z" fill="#CEB7FF"/>
</g>
<defs>
<filter id="filter0_d_9_273" x="0" y="0.963867" width="899.938" height="51.0361" filterUnits="userSpaceOnUse" color-interpolation-filters="sRGB">
<feFlood flood-opacity="0" result="BackgroundImageFix"/>
<feColorMatrix in="SourceAlpha" type="matrix" values="0 0 0 0 0 0 0 0 0 0 0 0 0 0 0 0 0 0 127 0" result="hardAlpha"/>
<feOffset/>
<feGaussianBlur stdDeviation="2.5"/>
<feComposite in2="hardAlpha" operator="out"/>
<feColorMatrix type="matrix" values="0 0 0 0 0.701961 0 0 0 0 0.466667 0 0 0 0 1 0 0 0 1 0"/>
<feBlend mode="normal" in2="BackgroundImageFix" result="effect1_dropShadow_9_273"/>
<feBlend mode="normal" in="SourceGraphic" in2="effect1_dropShadow_9_273" result="shape"/>
</filter>
</defs>
</svg>
