<svg width="645" height="134" viewBox="0 0 645 134" fill="none" xmlns="http://www.w3.org/2000/svg">
<g filter="url(#filter0_d_9_294)">
<path d="M197.399 52H196.399V53H197.399V52ZM197.399 10.9639V9.96387H196.399V10.9639H197.399ZM208.812 10.9639H209.812V9.96387H208.812V10.9639ZM208.812 52V53H209.812V52H208.812ZM198.399 52V10.9639H196.399V52H198.399ZM197.399 11.9639H208.812V9.96387H197.399V11.9639ZM207.812 10.9639V52H209.812V10.9639H207.812ZM208.812 51H197.399V53H208.812V51ZM239.88 37.2451L238.945 36.8912L238.432 38.2451H239.88V37.2451ZM247.64 37.2451V38.2451H249.087L248.575 36.8912L247.64 37.2451ZM243.76 26.9932L244.695 26.6392L243.76 24.1679L242.825 26.6392L243.76 26.9932ZM236.878 10.9639V9.96387H236.198L235.948 10.5956L236.878 10.9639ZM250.642 10.9639L251.576 10.6067L251.33 9.96387H250.642V10.9639ZM266.331 52V53H267.784L267.265 51.6429L266.331 52ZM253.219 52L252.285 52.359L252.532 53H253.219V52ZM251.661 47.9502L252.594 47.5912L252.348 46.9502H251.661V47.9502ZM235.83 47.9502V46.9502H235.139L234.895 47.5969L235.83 47.9502ZM234.301 52V53H234.992L235.236 52.3533L234.301 52ZM220.622 52L219.692 51.6317L219.15 53H220.622V52ZM239.88 38.2451H247.64V36.2451H239.88V38.2451ZM248.575 36.8912L244.695 26.6392L242.825 27.3471L246.704 37.5991L248.575 36.8912ZM242.825 26.6392L238.945 36.8912L240.815 37.5991L244.695 27.3471L242.825 26.6392ZM236.878 11.9639H250.642V9.96387H236.878V11.9639ZM249.708 11.321L265.397 52.3571L267.265 51.6429L251.576 10.6067L249.708 11.321ZM266.331 51H253.219V53H266.331V51ZM254.152 51.641L252.594 47.5912L250.728 48.3092L252.285 52.359L254.152 51.641ZM251.661 46.9502H235.83V48.9502H251.661V46.9502ZM234.895 47.5969L233.365 51.6467L235.236 52.3533L236.766 48.3035L234.895 47.5969ZM234.301 51H220.622V53H234.301V51ZM221.552 52.3683L237.808 11.3322L235.948 10.5956L219.692 51.6317L221.552 52.3683ZM290.177 29.5137L289.289 29.9733L290.247 31.825L291.091 29.9185L290.177 29.5137ZM298.39 10.9639V9.96387H297.739L297.475 10.559L298.39 10.9639ZM312.635 10.9639H313.635V9.96387H312.635V10.9639ZM312.635 52V53H313.635V52H312.635ZM301.222 52H300.222V53H301.222V52ZM301.222 33.9883H302.222V30.473L300.371 33.4619L301.222 33.9883ZM290.177 51.8301L289.326 52.3555L290.176 53.7317L291.027 52.3564L290.177 51.8301ZM279.16 33.9883L280.011 33.4629L278.16 30.4654V33.9883H279.16ZM279.16 52V53H280.16V52H279.16ZM267.747 52H266.747V53H267.747V52ZM267.747 10.9639V9.96387H266.747V10.9639H267.747ZM280.576 10.9639L281.464 10.5042L281.185 9.96387H280.576V10.9639ZM291.091 29.9185L299.304 11.3687L297.475 10.559L289.262 29.1088L291.091 29.9185ZM298.39 11.9639H312.635V9.96387H298.39V11.9639ZM311.635 10.9639V52H313.635V10.9639H311.635ZM312.635 51H301.222V53H312.635V51ZM302.222 52V33.9883H300.222V52H302.222ZM300.371 33.4619L289.326 51.3037L291.027 52.3564L302.072 34.5146L300.371 33.4619ZM291.028 51.3047L280.011 33.4629L278.309 34.5137L289.326 52.3555L291.028 51.3047ZM278.16 33.9883V52H280.16V33.9883H278.16ZM279.16 51H267.747V53H279.16V51ZM268.747 52V10.9639H266.747V52H268.747ZM267.747 11.9639H280.576V9.96387H267.747V11.9639ZM279.688 11.4235L289.289 29.9733L291.065 29.054L281.464 10.5042L279.688 11.4235ZM324.444 10.9639V9.96387H323.444V10.9639H324.444ZM356.928 10.9639H357.928V9.96387H356.928V10.9639ZM356.928 22.3486V23.3486H357.928V22.3486H356.928ZM346.393 22.3486V21.3486H345.393V22.3486H346.393ZM346.393 52V53H347.393V52H346.393ZM334.979 52H333.979V53H334.979V52ZM334.979 22.3486H335.979V21.3486H334.979V22.3486ZM324.444 22.3486H323.444V23.3486H324.444V22.3486ZM324.444 11.9639H356.928V9.96387H324.444V11.9639ZM355.928 10.9639V22.3486H357.928V10.9639H355.928ZM356.928 21.3486H346.393V23.3486H356.928V21.3486ZM345.393 22.3486V52H347.393V22.3486H345.393ZM346.393 51H334.979V53H346.393V51ZM335.979 52V22.3486H333.979V52H335.979ZM334.979 21.3486H324.444V23.3486H334.979V21.3486ZM325.444 22.3486V10.9639H323.444V22.3486H325.444ZM386.834 25.0107L387.547 24.3093L387.541 24.3036L386.834 25.0107ZM370.691 25.0107L369.984 24.3036L369.979 24.3093L370.691 25.0107ZM377.205 41.5869H380.32V39.5869H377.205V41.5869ZM380.32 41.5869C383.102 41.5869 385.51 40.6063 387.484 38.6319L386.07 37.2177C384.476 38.8117 382.579 39.5869 380.32 39.5869V41.5869ZM387.484 38.6319C389.453 36.6633 390.468 34.2578 390.468 31.4678H388.468C388.468 33.7187 387.67 35.618 386.07 37.2177L387.484 38.6319ZM390.468 31.4678C390.468 28.6868 389.488 26.282 387.547 24.3093L386.121 25.7122C387.692 27.3079 388.468 29.2077 388.468 31.4678H390.468ZM387.541 24.3036C385.564 22.327 383.156 21.3486 380.32 21.3486V23.3486C382.639 23.3486 384.535 24.1262 386.127 25.7178L387.541 24.3036ZM380.32 21.3486H377.205V23.3486H380.32V21.3486ZM377.205 21.3486C374.37 21.3486 371.961 22.327 369.984 24.3036L371.399 25.7178C372.99 24.1262 374.886 23.3486 377.205 23.3486V21.3486ZM369.979 24.3093C368.037 26.282 367.058 28.6868 367.058 31.4678H369.058C369.058 29.2077 369.834 27.3079 371.404 25.7122L369.979 24.3093ZM367.058 31.4678C367.058 34.2578 368.072 36.6633 370.041 38.6319L371.455 37.2177C369.855 35.618 369.058 33.7187 369.058 31.4678H367.058ZM370.041 38.6319C372.015 40.6063 374.423 41.5869 377.205 41.5869V39.5869C374.946 39.5869 373.049 38.8117 371.455 37.2177L370.041 38.6319ZM377.205 11.9639H380.32V9.96387H377.205V11.9639ZM380.32 11.9639C385.748 11.9639 390.336 13.8697 394.142 17.6749L395.556 16.2607C391.375 12.0796 386.277 9.96387 380.32 9.96387V11.9639ZM394.142 17.6749C397.947 21.4806 399.853 26.0691 399.853 31.4678H401.853C401.853 25.5383 399.736 20.4412 395.556 16.2607L394.142 17.6749ZM399.853 31.4678C399.853 36.8955 397.947 41.4838 394.142 45.289L395.556 46.7032C399.737 42.5221 401.853 37.4248 401.853 31.4678H399.853ZM394.142 45.289C390.336 49.0942 385.748 51 380.32 51V53C386.277 53 391.375 50.8843 395.556 46.7032L394.142 45.289ZM380.32 51H377.205V53H380.32V51ZM377.205 51C371.777 51 367.189 49.0942 363.384 45.289L361.97 46.7032C366.151 50.8843 371.248 53 377.205 53V51ZM363.384 45.289C359.579 41.4838 357.673 36.8955 357.673 31.4678H355.673C355.673 37.4248 357.789 42.5221 361.97 46.7032L363.384 45.289ZM357.673 31.4678C357.673 26.0691 359.578 21.4806 363.384 17.6749L361.97 16.2607C357.789 20.4412 355.673 25.5383 355.673 31.4678H357.673ZM363.384 17.6749C367.189 13.8697 371.777 11.9639 377.205 11.9639V9.96387C371.248 9.96387 366.151 12.0796 361.97 16.2607L363.384 17.6749ZM424.698 29.5137L423.81 29.9733L424.769 31.825L425.613 29.9185L424.698 29.5137ZM432.911 10.9639V9.96387H432.26L431.997 10.559L432.911 10.9639ZM447.156 10.9639H448.156V9.96387H447.156V10.9639ZM447.156 52V53H448.156V52H447.156ZM435.743 52H434.743V53H435.743V52ZM435.743 33.9883H436.743V30.473L434.893 33.4619L435.743 33.9883ZM424.698 51.8301L423.847 52.3555L424.697 53.7317L425.549 52.3564L424.698 51.8301ZM413.682 33.9883L414.533 33.4629L412.682 30.4654V33.9883H413.682ZM413.682 52V53H414.682V52H413.682ZM402.269 52H401.269V53H402.269V52ZM402.269 10.9639V9.96387H401.269V10.9639H402.269ZM415.098 10.9639L415.986 10.5042L415.706 9.96387H415.098V10.9639ZM425.613 29.9185L433.826 11.3687L431.997 10.559L423.784 29.1088L425.613 29.9185ZM432.911 11.9639H447.156V9.96387H432.911V11.9639ZM446.156 10.9639V52H448.156V10.9639H446.156ZM447.156 51H435.743V53H447.156V51ZM436.743 52V33.9883H434.743V52H436.743ZM434.893 33.4619L423.848 51.3037L425.549 52.3564L436.593 34.5146L434.893 33.4619ZM425.549 51.3047L414.533 33.4629L412.831 34.5137L423.847 52.3555L425.549 51.3047ZM412.682 33.9883V52H414.682V33.9883H412.682ZM413.682 51H402.269V53H413.682V51ZM403.269 52V10.9639H401.269V52H403.269ZM402.269 11.9639H415.098V9.96387H402.269V11.9639ZM414.21 11.4235L423.81 29.9733L425.586 29.054L415.986 10.5042L414.21 11.4235ZM5.16113 77.9639V76.9639H4.16113V77.9639H5.16113ZM34.8975 77.9639H35.8975V76.9639H34.8975V77.9639ZM34.8975 89.3486V90.3486H35.8975V89.3486H34.8975ZM16.5742 89.3486V88.3486H15.5742V89.3486H16.5742ZM16.5742 92.7754H15.5742V93.7754H16.5742V92.7754ZM32.0371 92.7754H33.0371V91.7754H32.0371V92.7754ZM32.0371 104.188V105.188H33.0371V104.188H32.0371ZM16.5742 104.188V103.188H15.5742V104.188H16.5742ZM16.5742 119V120H17.5742V119H16.5742ZM5.16113 119H4.16113V120H5.16113V119ZM5.16113 78.9639H34.8975V76.9639H5.16113V78.9639ZM33.8975 77.9639V89.3486H35.8975V77.9639H33.8975ZM34.8975 88.3486H16.5742V90.3486H34.8975V88.3486ZM15.5742 89.3486V92.7754H17.5742V89.3486H15.5742ZM16.5742 93.7754H32.0371V91.7754H16.5742V93.7754ZM31.0371 92.7754V104.188H33.0371V92.7754H31.0371ZM32.0371 103.188H16.5742V105.188H32.0371V103.188ZM15.5742 104.188V119H17.5742V104.188H15.5742ZM16.5742 118H5.16113V120H16.5742V118ZM6.16113 119V77.9639H4.16113V119H6.16113ZM68.2871 101.64L69.1192 102.194L69.1234 102.188L68.2871 101.64ZM61.7734 107.162L61.3611 106.251L58.5479 107.524L61.5735 108.142L61.7734 107.162ZM69.958 107.587H70.958V106.587H69.958V107.587ZM69.958 119V120H70.958V119H69.958ZM48.4912 112.543L47.7479 113.212L47.753 113.218L47.7581 113.223L48.4912 112.543ZM47.7266 111.665L48.5005 111.032L46.7266 108.864V111.665H47.7266ZM47.7266 119V120H48.7266V119H47.7266ZM36.3135 119H35.3135V120H36.3135V119ZM36.3135 77.9639V76.9639H35.3135V77.9639H36.3135ZM55.6846 77.9639L55.6913 76.9639H55.6846V77.9639ZM47.7266 96.627H46.7266V97.627H47.7266V96.627ZM47.7266 91.0195V90.0195H46.7266V91.0195H47.7266ZM65.6792 83.1988C68.4394 85.9856 69.8076 89.3012 69.8076 93.2285H71.8076C71.8076 88.773 70.2305 84.9519 67.1001 81.7914L65.6792 83.1988ZM69.8076 93.2285C69.8076 96.0898 69.0163 98.7034 67.4508 101.091L69.1234 102.188C70.8998 99.4782 71.8076 96.4844 71.8076 93.2285H69.8076ZM67.4551 101.085C65.9172 103.392 63.8826 105.11 61.3611 106.251L62.1858 108.073C65.0452 106.779 67.3718 104.815 69.1192 102.194L67.4551 101.085ZM61.5735 108.142C63.0413 108.441 64.6964 108.587 66.5312 108.587V106.587C64.7978 106.587 63.2809 106.449 61.9734 106.182L61.5735 108.142ZM66.5312 108.587H69.958V106.587H66.5312V108.587ZM68.958 107.587V119H70.958V107.587H68.958ZM69.958 118H66.5312V120H69.958V118ZM66.5312 118C58.6883 118 52.9663 115.897 49.2243 111.863L47.7581 113.223C52.0024 117.799 58.3449 120 66.5312 120V118ZM49.2345 111.874C48.9776 111.589 48.7382 111.322 48.5005 111.032L46.9526 112.298C47.2247 112.631 47.495 112.931 47.7479 113.212L49.2345 111.874ZM46.7266 111.665V119H48.7266V111.665H46.7266ZM47.7266 118H36.3135V120H47.7266V118ZM37.3135 119V77.9639H35.3135V119H37.3135ZM36.3135 78.9639H55.6846V76.9639H36.3135V78.9639ZM55.6778 78.9638C59.6003 78.9903 62.9169 80.41 65.6792 83.1988L67.1001 81.7914C63.9718 78.633 60.1517 76.994 55.6913 76.9639L55.6778 78.9638ZM47.7266 97.627H54.665V95.627H47.7266V97.627ZM54.665 97.627C55.6957 97.627 56.6295 97.2378 57.3546 96.5128L55.9404 95.0986C55.5892 95.4497 55.1636 95.627 54.665 95.627V97.627ZM57.3546 96.5128C58.0796 95.7877 58.4688 94.8539 58.4688 93.8232H56.4688C56.4688 94.3218 56.2915 94.7474 55.9404 95.0986L57.3546 96.5128ZM58.4688 93.8232C58.4688 92.7925 58.0796 91.8587 57.3546 91.1337L55.9404 92.5479C56.2915 92.8991 56.4688 93.3246 56.4688 93.8232H58.4688ZM57.3546 91.1337C56.6295 90.4087 55.6957 90.0195 54.665 90.0195V92.0195C55.1636 92.0195 55.5892 92.1968 55.9404 92.5479L57.3546 91.1337ZM54.665 90.0195H47.7266V92.0195H54.665V90.0195ZM46.7266 91.0195V96.627H48.7266V91.0195H46.7266ZM102.385 92.0107L103.098 91.3093L103.092 91.3036L102.385 92.0107ZM86.2422 92.0107L85.5351 91.3036L85.5294 91.3093L86.2422 92.0107ZM92.7559 108.587H95.8711V106.587H92.7559V108.587ZM95.8711 108.587C98.6531 108.587 101.061 107.606 103.035 105.632L101.621 104.218C100.027 105.812 98.1301 106.587 95.8711 106.587V108.587ZM103.035 105.632C105.004 103.663 106.019 101.258 106.019 98.4678H104.019C104.019 100.719 103.221 102.618 101.621 104.218L103.035 105.632ZM106.019 98.4678C106.019 95.6868 105.039 93.282 103.098 91.3093L101.672 92.7122C103.242 94.3079 104.019 96.2077 104.019 98.4678H106.019ZM103.092 91.3036C101.115 89.327 98.7064 88.3486 95.8711 88.3486V90.3486C98.1901 90.3486 100.086 91.1262 101.678 92.7178L103.092 91.3036ZM95.8711 88.3486H92.7559V90.3486H95.8711V88.3486ZM92.7559 88.3486C89.9206 88.3486 87.5118 89.327 85.5351 91.3036L86.9493 92.7178C88.541 91.1262 90.4368 90.3486 92.7559 90.3486V88.3486ZM85.5294 91.3093C83.5881 93.282 82.6084 95.6868 82.6084 98.4678H84.6084C84.6084 96.2077 85.3846 94.3079 86.9549 92.7122L85.5294 91.3093ZM82.6084 98.4678C82.6084 101.258 83.6231 103.663 85.5917 105.632L87.0059 104.218C85.4062 102.618 84.6084 100.719 84.6084 98.4678H82.6084ZM85.5917 105.632C87.5661 107.606 89.9739 108.587 92.7559 108.587V106.587C90.4968 106.587 88.5999 105.812 87.0059 104.218L85.5917 105.632ZM92.7559 78.9639H95.8711V76.9639H92.7559V78.9639ZM95.8711 78.9639C101.299 78.9639 105.887 80.8697 109.692 84.6749L111.107 83.2607C106.925 79.0796 101.828 76.9639 95.8711 76.9639V78.9639ZM109.692 84.6749C113.498 88.4806 115.403 93.0691 115.403 98.4678H117.403C117.403 92.5383 115.287 87.4412 111.107 83.2607L109.692 84.6749ZM115.403 98.4678C115.403 103.896 113.498 108.484 109.692 112.289L111.107 113.703C115.288 109.522 117.403 104.425 117.403 98.4678H115.403ZM109.692 112.289C105.887 116.094 101.299 118 95.8711 118V120C101.828 120 106.925 117.884 111.107 113.703L109.692 112.289ZM95.8711 118H92.7559V120H95.8711V118ZM92.7559 118C87.3281 118 82.7399 116.094 78.9346 112.289L77.5204 113.703C81.7015 117.884 86.7988 120 92.7559 120V118ZM78.9346 112.289C75.1294 108.484 73.2236 103.896 73.2236 98.4678H71.2236C71.2236 104.425 73.3393 109.522 77.5204 113.703L78.9346 112.289ZM73.2236 98.4678C73.2236 93.0691 75.1289 88.4806 78.9346 84.6749L77.5204 83.2607C73.3398 87.4412 71.2236 92.5383 71.2236 98.4678H73.2236ZM78.9346 84.6749C82.7399 80.8697 87.3281 78.9639 92.7559 78.9639V76.9639C86.7988 76.9639 81.7015 79.0796 77.5204 83.2607L78.9346 84.6749ZM144.384 99.2891L143.57 99.8697L145.384 102.414V99.2891H144.384ZM144.384 77.9639V76.9639H143.384V77.9639H144.384ZM155.797 77.9639H156.797V76.9639H155.797V77.9639ZM155.797 119V120H156.797V119H155.797ZM144.384 119L143.568 119.579L143.867 120H144.384V119ZM129.232 97.6465L130.048 97.0678L128.232 94.5091V97.6465H129.232ZM129.232 119V120H130.232V119H129.232ZM117.819 119H116.819V120H117.819V119ZM117.819 77.9639V76.9639H116.819V77.9639H117.819ZM129.176 77.9639L129.99 77.3832L129.691 76.9639H129.176V77.9639ZM145.384 99.2891V77.9639H143.384V99.2891H145.384ZM144.384 78.9639H155.797V76.9639H144.384V78.9639ZM154.797 77.9639V119H156.797V77.9639H154.797ZM155.797 118H144.384V120H155.797V118ZM145.199 118.421L130.048 97.0678L128.417 98.2252L143.568 119.579L145.199 118.421ZM128.232 97.6465V119H130.232V97.6465H128.232ZM129.232 118H117.819V120H129.232V118ZM118.819 119V77.9639H116.819V119H118.819ZM117.819 78.9639H129.176V76.9639H117.819V78.9639ZM128.362 78.5445L143.57 99.8697L145.198 98.7084L129.99 77.3832L128.362 78.5445ZM157.241 77.9639V76.9639H156.241V77.9639H157.241ZM189.725 77.9639H190.725V76.9639H189.725V77.9639ZM189.725 89.3486V90.3486H190.725V89.3486H189.725ZM179.189 89.3486V88.3486H178.189V89.3486H179.189ZM179.189 119V120H180.189V119H179.189ZM167.776 119H166.776V120H167.776V119ZM167.776 89.3486H168.776V88.3486H167.776V89.3486ZM157.241 89.3486H156.241V90.3486H157.241V89.3486ZM157.241 78.9639H189.725V76.9639H157.241V78.9639ZM188.725 77.9639V89.3486H190.725V77.9639H188.725ZM189.725 88.3486H179.189V90.3486H189.725V88.3486ZM178.189 89.3486V119H180.189V89.3486H178.189ZM179.189 118H167.776V120H179.189V118ZM168.776 119V89.3486H166.776V119H168.776ZM167.776 88.3486H157.241V90.3486H167.776V88.3486ZM158.241 89.3486V77.9639H156.241V89.3486H158.241ZM191.169 77.9639V76.9639H190.169V77.9639H191.169ZM220.905 77.9639H221.905V76.9639H220.905V77.9639ZM220.905 89.3486V90.3486H221.905V89.3486H220.905ZM202.582 89.3486V88.3486H201.582V89.3486H202.582ZM202.582 92.7754H201.582V93.7754H202.582V92.7754ZM220.905 92.7754H221.905V91.7754H220.905V92.7754ZM220.905 104.188V105.188H221.905V104.188H220.905ZM202.582 104.188V103.188H201.582V104.188H202.582ZM202.582 107.587H201.582V108.587H202.582V107.587ZM220.905 107.587H221.905V106.587H220.905V107.587ZM220.905 119V120H221.905V119H220.905ZM191.169 119H190.169V120H191.169V119ZM191.169 78.9639H220.905V76.9639H191.169V78.9639ZM219.905 77.9639V89.3486H221.905V77.9639H219.905ZM220.905 88.3486H202.582V90.3486H220.905V88.3486ZM201.582 89.3486V92.7754H203.582V89.3486H201.582ZM202.582 93.7754H220.905V91.7754H202.582V93.7754ZM219.905 92.7754V104.188H221.905V92.7754H219.905ZM220.905 103.188H202.582V105.188H220.905V103.188ZM201.582 104.188V107.587H203.582V104.188H201.582ZM202.582 108.587H220.905V106.587H202.582V108.587ZM219.905 107.587V119H221.905V107.587H219.905ZM220.905 118H191.169V120H220.905V118ZM192.169 119V77.9639H190.169V119H192.169ZM248.886 99.2891L248.072 99.8697L249.886 102.414V99.2891H248.886ZM248.886 77.9639V76.9639H247.886V77.9639H248.886ZM260.299 77.9639H261.299V76.9639H260.299V77.9639ZM260.299 119V120H261.299V119H260.299ZM248.886 119L248.07 119.579L248.369 120H248.886V119ZM233.734 97.6465L234.55 97.0678L232.734 94.5091V97.6465H233.734ZM233.734 119V120H234.734V119H233.734ZM222.321 119H221.321V120H222.321V119ZM222.321 77.9639V76.9639H221.321V77.9639H222.321ZM233.678 77.9639L234.492 77.3832L234.193 76.9639H233.678V77.9639ZM249.886 99.2891V77.9639H247.886V99.2891H249.886ZM248.886 78.9639H260.299V76.9639H248.886V78.9639ZM259.299 77.9639V119H261.299V77.9639H259.299ZM260.299 118H248.886V120H260.299V118ZM249.701 118.421L234.55 97.0678L232.919 98.2252L248.07 119.579L249.701 118.421ZM232.734 97.6465V119H234.734V97.6465H232.734ZM233.734 118H222.321V120H233.734V118ZM223.321 119V77.9639H221.321V119H223.321ZM222.321 78.9639H233.678V76.9639H222.321V78.9639ZM232.864 78.5445L248.072 99.8697L249.7 98.7084L234.492 77.3832L232.864 78.5445ZM273.156 107.587H272.156V108.587H273.156V107.587ZM286.212 92.0107L286.925 91.3093L286.919 91.3036L286.212 92.0107ZM273.156 89.3486V88.3486H272.156V89.3486H273.156ZM261.743 77.9639V76.9639H260.743V77.9639H261.743ZM294.198 83.9678L293.491 84.6749L293.494 84.6774L294.198 83.9678ZM294.198 112.996L293.494 112.286L293.491 112.289L294.198 112.996ZM261.743 119H260.743V120H261.743V119ZM273.156 108.587H279.698V106.587H273.156V108.587ZM279.698 108.587C282.48 108.587 284.888 107.606 286.862 105.632L285.448 104.218C283.854 105.812 281.957 106.587 279.698 106.587V108.587ZM286.862 105.632C288.831 103.663 289.846 101.258 289.846 98.4678H287.846C287.846 100.719 287.048 102.618 285.448 104.218L286.862 105.632ZM289.846 98.4678C289.846 95.6868 288.866 93.282 286.925 91.3093L285.499 92.7122C287.07 94.3079 287.846 96.2077 287.846 98.4678H289.846ZM286.919 91.3036C284.942 89.327 282.534 88.3486 279.698 88.3486V90.3486C282.017 90.3486 283.913 91.1262 285.505 92.7178L286.919 91.3036ZM279.698 88.3486H273.156V90.3486H279.698V88.3486ZM272.156 89.3486V107.587H274.156V89.3486H272.156ZM261.743 78.9639H279.698V76.9639H261.743V78.9639ZM279.698 78.9639C285.097 78.9639 289.685 80.8691 293.491 84.6749L294.905 83.2607C290.725 79.0801 285.628 76.9639 279.698 76.9639V78.9639ZM293.494 84.6774C297.326 88.4824 299.23 93.0696 299.23 98.4678H301.23C301.23 92.5379 299.114 87.4395 294.903 83.2582L293.494 84.6774ZM299.23 98.4678C299.23 103.895 297.325 108.482 293.494 112.286L294.903 113.706C299.114 109.524 301.23 104.425 301.23 98.4678H299.23ZM293.491 112.289C289.685 116.095 285.097 118 279.698 118V120C285.628 120 290.725 117.884 294.905 113.703L293.491 112.289ZM279.698 118H261.743V120H279.698V118ZM262.743 119V77.9639H260.743V119H262.743ZM323.453 107.587H322.453V108.587H323.453V107.587ZM336.509 92.0107L337.222 91.3093L337.216 91.3036L336.509 92.0107ZM323.453 89.3486V88.3486H322.453V89.3486H323.453ZM312.04 77.9639V76.9639H311.04V77.9639H312.04ZM344.495 83.9678L343.788 84.6749L343.791 84.6774L344.495 83.9678ZM344.495 112.996L343.791 112.286L343.788 112.289L344.495 112.996ZM312.04 119H311.04V120H312.04V119ZM323.453 108.587H329.995V106.587H323.453V108.587ZM329.995 108.587C332.777 108.587 335.185 107.606 337.159 105.632L335.745 104.218C334.151 105.812 332.254 106.587 329.995 106.587V108.587ZM337.159 105.632C339.128 103.663 340.143 101.258 340.143 98.4678H338.143C338.143 100.719 337.345 102.618 335.745 104.218L337.159 105.632ZM340.143 98.4678C340.143 95.6868 339.163 93.282 337.222 91.3093L335.796 92.7122C337.366 94.3079 338.143 96.2077 338.143 98.4678H340.143ZM337.216 91.3036C335.239 89.327 332.83 88.3486 329.995 88.3486V90.3486C332.314 90.3486 334.21 91.1262 335.802 92.7178L337.216 91.3036ZM329.995 88.3486H323.453V90.3486H329.995V88.3486ZM322.453 89.3486V107.587H324.453V89.3486H322.453ZM312.04 78.9639H329.995V76.9639H312.04V78.9639ZM329.995 78.9639C335.394 78.9639 339.982 80.8691 343.788 84.6749L345.202 83.2607C341.022 79.0801 335.925 76.9639 329.995 76.9639V78.9639ZM343.791 84.6774C347.623 88.4824 349.527 93.0696 349.527 98.4678H351.527C351.527 92.5379 349.411 87.4395 345.2 83.2582L343.791 84.6774ZM349.527 98.4678C349.527 103.895 347.622 108.482 343.791 112.286L345.2 113.706C349.411 109.524 351.527 104.425 351.527 98.4678H349.527ZM343.788 112.289C339.982 116.095 335.394 118 329.995 118V120C335.925 120 341.022 117.884 345.202 113.703L343.788 112.289ZM329.995 118H312.04V120H329.995V118ZM313.04 119V77.9639H311.04V119H313.04ZM351.972 77.9639V76.9639H350.972V77.9639H351.972ZM381.708 77.9639H382.708V76.9639H381.708V77.9639ZM381.708 89.3486V90.3486H382.708V89.3486H381.708ZM363.385 89.3486V88.3486H362.385V89.3486H363.385ZM363.385 92.7754H362.385V93.7754H363.385V92.7754ZM381.708 92.7754H382.708V91.7754H381.708V92.7754ZM381.708 104.188V105.188H382.708V104.188H381.708ZM363.385 104.188V103.188H362.385V104.188H363.385ZM363.385 107.587H362.385V108.587H363.385V107.587ZM381.708 107.587H382.708V106.587H381.708V107.587ZM381.708 119V120H382.708V119H381.708ZM351.972 119H350.972V120H351.972V119ZM351.972 78.9639H381.708V76.9639H351.972V78.9639ZM380.708 77.9639V89.3486H382.708V77.9639H380.708ZM381.708 88.3486H363.385V90.3486H381.708V88.3486ZM362.385 89.3486V92.7754H364.385V89.3486H362.385ZM363.385 93.7754H381.708V91.7754H363.385V93.7754ZM380.708 92.7754V104.188H382.708V92.7754H380.708ZM381.708 103.188H363.385V105.188H381.708V103.188ZM362.385 104.188V107.587H364.385V104.188H362.385ZM363.385 108.587H381.708V106.587H363.385V108.587ZM380.708 107.587V119H382.708V107.587H380.708ZM381.708 118H351.972V120H381.708V118ZM352.972 119V77.9639H350.972V119H352.972ZM405.695 102.942L404.76 103.297L405.695 105.766L406.631 103.297L405.695 102.942ZM415.154 77.9639V76.9639H414.464L414.219 77.6097L415.154 77.9639ZM428.833 77.9639L429.763 78.3322L430.305 76.9639H428.833V77.9639ZM412.577 119V120H413.257L413.507 119.368L412.577 119ZM398.813 119L397.879 119.357L398.125 120H398.813V119ZM383.124 77.9639V76.9639H381.671L382.19 78.321L383.124 77.9639ZM396.236 77.9639L397.172 77.6097L396.927 76.9639H396.236V77.9639ZM406.631 103.297L416.089 78.318L414.219 77.6097L404.76 102.588L406.631 103.297ZM415.154 78.9639H428.833V76.9639H415.154V78.9639ZM427.903 77.5956L411.647 118.632L413.507 119.368L429.763 78.3322L427.903 77.5956ZM412.577 118H398.813V120H412.577V118ZM399.748 118.643L384.058 77.6067L382.19 78.321L397.879 119.357L399.748 118.643ZM383.124 78.9639H396.236V76.9639H383.124V78.9639ZM395.301 78.318L404.76 103.297L406.631 102.588L397.172 77.6097L395.301 78.318ZM430.249 77.9639V76.9639H429.249V77.9639H430.249ZM459.985 77.9639H460.985V76.9639H459.985V77.9639ZM459.985 89.3486V90.3486H460.985V89.3486H459.985ZM441.662 89.3486V88.3486H440.662V89.3486H441.662ZM441.662 92.7754H440.662V93.7754H441.662V92.7754ZM459.985 92.7754H460.985V91.7754H459.985V92.7754ZM459.985 104.188V105.188H460.985V104.188H459.985ZM441.662 104.188V103.188H440.662V104.188H441.662ZM441.662 107.587H440.662V108.587H441.662V107.587ZM459.985 107.587H460.985V106.587H459.985V107.587ZM459.985 119V120H460.985V119H459.985ZM430.249 119H429.249V120H430.249V119ZM430.249 78.9639H459.985V76.9639H430.249V78.9639ZM458.985 77.9639V89.3486H460.985V77.9639H458.985ZM459.985 88.3486H441.662V90.3486H459.985V88.3486ZM440.662 89.3486V92.7754H442.662V89.3486H440.662ZM441.662 93.7754H459.985V91.7754H441.662V93.7754ZM458.985 92.7754V104.188H460.985V92.7754H458.985ZM459.985 103.188H441.662V105.188H459.985V103.188ZM440.662 104.188V107.587H442.662V104.188H440.662ZM441.662 108.587H459.985V106.587H441.662V108.587ZM458.985 107.587V119H460.985V107.587H458.985ZM459.985 118H430.249V120H459.985V118ZM431.249 119V77.9639H429.249V119H431.249ZM472.814 77.9639H473.814V76.9639H472.814V77.9639ZM472.814 107.587H471.814V108.587H472.814V107.587ZM492.554 107.587H493.554V106.587H492.554V107.587ZM492.554 119V120H493.554V119H492.554ZM461.401 119H460.401V120H461.401V119ZM461.401 77.9639V76.9639H460.401V77.9639H461.401ZM471.814 77.9639V107.587H473.814V77.9639H471.814ZM472.814 108.587H492.554V106.587H472.814V108.587ZM491.554 107.587V119H493.554V107.587H491.554ZM492.554 118H461.401V120H492.554V118ZM462.401 119V77.9639H460.401V119H462.401ZM461.401 78.9639H472.814V76.9639H461.401V78.9639ZM522.432 92.0107L523.144 91.3093L523.139 91.3036L522.432 92.0107ZM506.289 92.0107L505.582 91.3036L505.576 91.3093L506.289 92.0107ZM512.803 108.587H515.918V106.587H512.803V108.587ZM515.918 108.587C518.7 108.587 521.108 107.606 523.082 105.632L521.668 104.218C520.074 105.812 518.177 106.587 515.918 106.587V108.587ZM523.082 105.632C525.051 103.663 526.065 101.258 526.065 98.4678H524.065C524.065 100.719 523.268 102.618 521.668 104.218L523.082 105.632ZM526.065 98.4678C526.065 95.6868 525.086 93.282 523.144 91.3093L521.719 92.7122C523.289 94.3079 524.065 96.2077 524.065 98.4678H526.065ZM523.139 91.3036C521.162 89.327 518.753 88.3486 515.918 88.3486V90.3486C518.237 90.3486 520.133 91.1262 521.725 92.7178L523.139 91.3036ZM515.918 88.3486H512.803V90.3486H515.918V88.3486ZM512.803 88.3486C509.967 88.3486 507.559 89.327 505.582 91.3036L506.996 92.7178C508.588 91.1262 510.484 90.3486 512.803 90.3486V88.3486ZM505.576 91.3093C503.635 93.282 502.655 95.6868 502.655 98.4678H504.655C504.655 96.2077 505.431 94.3079 507.002 92.7122L505.576 91.3093ZM502.655 98.4678C502.655 101.258 503.67 103.663 505.639 105.632L507.053 104.218C505.453 102.618 504.655 100.719 504.655 98.4678H502.655ZM505.639 105.632C507.613 107.606 510.021 108.587 512.803 108.587V106.587C510.544 106.587 508.647 105.812 507.053 104.218L505.639 105.632ZM512.803 78.9639H515.918V76.9639H512.803V78.9639ZM515.918 78.9639C521.346 78.9639 525.934 80.8697 529.739 84.6749L531.153 83.2607C526.972 79.0796 521.875 76.9639 515.918 76.9639V78.9639ZM529.739 84.6749C533.545 88.4806 535.45 93.0691 535.45 98.4678H537.45C537.45 92.5383 535.334 87.4412 531.153 83.2607L529.739 84.6749ZM535.45 98.4678C535.45 103.896 533.544 108.484 529.739 112.289L531.153 113.703C535.335 109.522 537.45 104.425 537.45 98.4678H535.45ZM529.739 112.289C525.934 116.094 521.346 118 515.918 118V120C521.875 120 526.972 117.884 531.153 113.703L529.739 112.289ZM515.918 118H512.803V120H515.918V118ZM512.803 118C507.375 118 502.787 116.094 498.982 112.289L497.567 113.703C501.748 117.884 506.846 120 512.803 120V118ZM498.982 112.289C495.176 108.484 493.271 103.896 493.271 98.4678H491.271C491.271 104.425 493.386 109.522 497.567 113.703L498.982 112.289ZM493.271 98.4678C493.271 93.0691 495.176 88.4806 498.982 84.6749L497.567 83.2607C493.387 87.4412 491.271 92.5383 491.271 98.4678H493.271ZM498.982 84.6749C502.787 80.8697 507.375 78.9639 512.803 78.9639V76.9639C506.846 76.9639 501.748 79.0796 497.567 83.2607L498.982 84.6749ZM537.866 77.9639V76.9639H536.866V77.9639H537.866ZM557.237 77.9639L557.244 76.9639H557.237V77.9639ZM557.237 108.493V109.493L557.244 109.493L557.237 108.493ZM549.279 108.493V107.493H548.279V108.493H549.279ZM549.279 119V120H550.279V119H549.279ZM537.866 119H536.866V120H537.866V119ZM549.279 96.627H548.279V97.627H549.279V96.627ZM549.279 91.0195V90.0195H548.279V91.0195H549.279ZM537.866 78.9639H557.237V76.9639H537.866V78.9639ZM557.231 78.9638C561.153 78.9903 564.47 80.41 567.232 83.1988L568.653 81.7914C565.525 78.633 561.704 76.994 557.244 76.9639L557.231 78.9638ZM567.232 83.1988C569.992 85.9856 571.36 89.3012 571.36 93.2285H573.36C573.36 88.773 571.783 84.9519 568.653 81.7914L567.232 83.1988ZM571.36 93.2285C571.36 97.1578 569.991 100.501 567.232 103.287L568.653 104.694C571.785 101.532 573.36 97.6821 573.36 93.2285H571.36ZM567.232 103.287C564.473 106.072 561.158 107.467 557.231 107.493L557.244 109.493C561.7 109.463 565.521 107.856 568.653 104.694L567.232 103.287ZM557.237 107.493H549.279V109.493H557.237V107.493ZM548.279 108.493V119H550.279V108.493H548.279ZM549.279 118H537.866V120H549.279V118ZM538.866 119V77.9639H536.866V119H538.866ZM549.279 97.627H556.218V95.627H549.279V97.627ZM556.218 97.627C557.248 97.627 558.182 97.2378 558.907 96.5128L557.493 95.0986C557.142 95.4497 556.716 95.627 556.218 95.627V97.627ZM558.907 96.5128C559.632 95.7877 560.021 94.8539 560.021 93.8232H558.021C558.021 94.3218 557.844 94.7474 557.493 95.0986L558.907 96.5128ZM560.021 93.8232C560.021 92.7925 559.632 91.8587 558.907 91.1337L557.493 92.5479C557.844 92.8991 558.021 93.3246 558.021 93.8232H560.021ZM558.907 91.1337C558.182 90.4087 557.248 90.0195 556.218 90.0195V92.0195C556.716 92.0195 557.142 92.1968 557.493 92.5479L558.907 91.1337ZM556.218 90.0195H549.279V92.0195H556.218V90.0195ZM548.279 91.0195V96.627H550.279V91.0195H548.279ZM573.776 77.9639V76.9639H572.776V77.9639H573.776ZM603.513 77.9639H604.513V76.9639H603.513V77.9639ZM603.513 89.3486V90.3486H604.513V89.3486H603.513ZM585.189 89.3486V88.3486H584.189V89.3486H585.189ZM585.189 92.7754H584.189V93.7754H585.189V92.7754ZM603.513 92.7754H604.513V91.7754H603.513V92.7754ZM603.513 104.188V105.188H604.513V104.188H603.513ZM585.189 104.188V103.188H584.189V104.188H585.189ZM585.189 107.587H584.189V108.587H585.189V107.587ZM603.513 107.587H604.513V106.587H603.513V107.587ZM603.513 119V120H604.513V119H603.513ZM573.776 119H572.776V120H573.776V119ZM573.776 78.9639H603.513V76.9639H573.776V78.9639ZM602.513 77.9639V89.3486H604.513V77.9639H602.513ZM603.513 88.3486H585.189V90.3486H603.513V88.3486ZM584.189 89.3486V92.7754H586.189V89.3486H584.189ZM585.189 93.7754H603.513V91.7754H585.189V93.7754ZM602.513 92.7754V104.188H604.513V92.7754H602.513ZM603.513 103.188H585.189V105.188H603.513V103.188ZM584.189 104.188V107.587H586.189V104.188H584.189ZM585.189 108.587H603.513V106.587H585.189V108.587ZM602.513 107.587V119H604.513V107.587H602.513ZM603.513 118H573.776V120H603.513V118ZM574.776 119V77.9639H572.776V119H574.776ZM636.902 101.64L637.734 102.194L637.739 102.188L636.902 101.64ZM630.389 107.162L629.976 106.251L627.163 107.524L630.189 108.142L630.389 107.162ZM638.573 107.587H639.573V106.587H638.573V107.587ZM638.573 119V120H639.573V119H638.573ZM617.106 112.543L616.363 113.212L616.368 113.218L616.373 113.223L617.106 112.543ZM616.342 111.665L617.116 111.032L615.342 108.864V111.665H616.342ZM616.342 119V120H617.342V119H616.342ZM604.929 119H603.929V120H604.929V119ZM604.929 77.9639V76.9639H603.929V77.9639H604.929ZM624.3 77.9639L624.307 76.9639H624.3V77.9639ZM616.342 96.627H615.342V97.627H616.342V96.627ZM616.342 91.0195V90.0195H615.342V91.0195H616.342ZM634.294 83.1988C637.055 85.9856 638.423 89.3012 638.423 93.2285H640.423C640.423 88.773 638.846 84.9519 635.715 81.7914L634.294 83.1988ZM638.423 93.2285C638.423 96.0898 637.631 98.7034 636.066 101.091L637.739 102.188C639.515 99.4782 640.423 96.4844 640.423 93.2285H638.423ZM636.07 101.085C634.532 103.392 632.498 105.11 629.976 106.251L630.801 108.073C633.66 106.779 635.987 104.815 637.734 102.194L636.07 101.085ZM630.189 108.142C631.657 108.441 633.312 108.587 635.146 108.587V106.587C633.413 106.587 631.896 106.449 630.589 106.182L630.189 108.142ZM635.146 108.587H638.573V106.587H635.146V108.587ZM637.573 107.587V119H639.573V107.587H637.573ZM638.573 118H635.146V120H638.573V118ZM635.146 118C627.304 118 621.582 115.897 617.84 111.863L616.373 113.223C620.618 117.799 626.96 120 635.146 120V118ZM617.85 111.874C617.593 111.589 617.353 111.322 617.116 111.032L615.568 112.298C615.84 112.631 616.11 112.931 616.363 113.212L617.85 111.874ZM615.342 111.665V119H617.342V111.665H615.342ZM616.342 118H604.929V120H616.342V118ZM605.929 119V77.9639H603.929V119H605.929ZM604.929 78.9639H624.3V76.9639H604.929V78.9639ZM624.293 78.9638C628.216 78.9903 631.532 80.41 634.294 83.1988L635.715 81.7914C632.587 78.633 628.767 76.994 624.307 76.9639L624.293 78.9638ZM616.342 97.627H623.28V95.627H616.342V97.627ZM623.28 97.627C624.311 97.627 625.245 97.2378 625.97 96.5128L624.556 95.0986C624.204 95.4497 623.779 95.627 623.28 95.627V97.627ZM625.97 96.5128C626.695 95.7877 627.084 94.8539 627.084 93.8232H625.084C625.084 94.3218 624.907 94.7474 624.556 95.0986L625.97 96.5128ZM627.084 93.8232C627.084 92.7925 626.695 91.8587 625.97 91.1337L624.556 92.5479C624.907 92.8991 625.084 93.3246 625.084 93.8232H627.084ZM625.97 91.1337C625.245 90.4087 624.311 90.0195 623.28 90.0195V92.0195C623.779 92.0195 624.204 92.1968 624.556 92.5479L625.97 91.1337ZM623.28 90.0195H616.342V92.0195H623.28V90.0195ZM615.342 91.0195V96.627H617.342V91.0195H615.342Z" fill="#CEB7FF"/>
</g>
<defs>
<filter id="filter0_d_9_294" x="0.161133" y="5.96387" width="644.262" height="118.036" filterUnits="userSpaceOnUse" color-interpolation-filters="sRGB">
<feFlood flood-opacity="0" result="BackgroundImageFix"/>
<feColorMatrix in="SourceAlpha" type="matrix" values="0 0 0 0 0 0 0 0 0 0 0 0 0 0 0 0 0 0 127 0" result="hardAlpha"/>
<feOffset/>
<feGaussianBlur stdDeviation="2.5"/>
<feComposite in2="hardAlpha" operator="out"/>
<feColorMatrix type="matrix" values="0 0 0 0 0.701961 0 0 0 0 0.466667 0 0 0 0 1 0 0 0 1 0"/>
<feBlend mode="normal" in2="BackgroundImageFix" result="effect1_dropShadow_9_294"/>
<feBlend mode="normal" in="SourceGraphic" in2="effect1_dropShadow_9_294" result="shape"/>
</filter>
</defs>
</svg>
