<svg width="368" height="136" viewBox="0 0 368 136" fill="none" xmlns="http://www.w3.org/2000/svg">
<g filter="url(#filter0_d_21_4056)">
<mask id="path-1-inside-1_21_4056" fill="white">
<path d="M25.7616 64.8782L16.447 46.8137H4V86.7762H15.0731V69.2357L25.7616 86.6107L36.4775 69.2357V86.7762H47.5506V46.8137H33.7298L25.7616 64.8782ZM69.9991 60.4931L61.8385 46.8137H48.9519L63.5695 71.2766L64.4763 72.821V86.7762H75.5494V72.821L76.4561 71.2766L91.0737 46.8137H78.1871L69.9991 60.4931ZM102.532 46.8137V86.7762H113.605V76.5443H121.326C125.392 76.5075 128.854 75.0458 131.712 72.1591C134.569 69.2541 135.998 65.7607 135.998 61.679C135.998 57.5972 134.569 54.113 131.712 51.2264C128.854 48.3214 125.392 46.8504 121.326 46.8137H102.532ZM113.605 64.9885V59.5278H120.336C121.087 59.5278 121.729 59.7944 122.26 60.3276C122.791 60.8608 123.057 61.5043 123.057 62.2581C123.057 63.012 122.791 63.6555 122.26 64.1887C121.729 64.7219 121.087 64.9885 120.336 64.9885H113.605ZM170.839 61.679C170.839 57.5972 169.41 54.113 166.552 51.2264C163.695 48.3214 160.233 46.8504 156.166 46.8137H137.372V86.7762H148.445V79.6331L155.012 86.7762H183.753V75.6617H162.074C164.693 74.2092 166.8 72.2786 168.393 69.87C170.024 67.3879 170.839 64.6575 170.839 61.679ZM148.445 64.9885V59.5278H155.177C155.928 59.5278 156.569 59.7944 157.1 60.3276C157.632 60.8608 157.897 61.5043 157.897 62.2581C157.897 63.012 157.632 63.6555 157.1 64.1887C156.569 64.7219 155.928 64.9885 155.177 64.9885H148.445ZM192.133 75.6617C189.679 75.6617 187.59 74.7976 185.868 73.0693C184.128 71.341 183.258 69.2449 183.258 66.7812C183.258 64.3174 184.11 62.2214 185.813 60.4931C187.535 58.7647 189.642 57.9006 192.133 57.9006H195.156C197.647 57.9006 199.753 58.7647 201.475 60.4931C203.179 62.2214 204.031 64.3174 204.031 66.7812C204.031 69.2449 203.16 71.341 201.42 73.0693C199.698 74.7976 197.61 75.6617 195.156 75.6617H192.133ZM192.133 46.8137C186.619 46.8137 181.921 48.7626 178.038 52.6605C174.154 56.5584 172.212 61.2653 172.212 66.7812C172.212 72.3154 174.154 77.0315 178.038 80.9294C181.921 84.8273 186.619 86.7762 192.133 86.7762H195.156C200.669 86.7762 205.368 84.8273 209.251 80.9294C213.134 77.0315 215.076 72.3154 215.076 66.7812C215.076 61.2653 213.134 56.5584 209.251 52.6605C205.368 48.7626 200.669 46.8137 195.156 46.8137H192.133ZM231.123 66.2296C231.123 70.1091 229.593 72.8486 226.534 74.4482C225.581 74.9447 224.537 75.294 223.402 75.4962C223.035 75.5698 222.687 75.6249 222.358 75.6617C222.248 75.6617 222.147 75.6617 222.055 75.6617H215.076V86.7762H221.643C221.753 86.7762 221.863 86.7762 221.973 86.7762C222.119 86.7762 222.275 86.7762 222.44 86.7762C222.861 86.7578 223.292 86.7302 223.731 86.6935C224.977 86.5832 226.204 86.3809 227.413 86.0867C231.004 85.1858 234.008 83.5678 236.426 81.2328C238.038 79.6883 239.32 77.8497 240.272 75.7169C241.536 72.9222 242.168 69.7597 242.168 66.2296V46.8137H231.123V66.2296ZM243.542 46.8137V86.7762H272.393V75.6617H254.615V72.3522H272.393V61.2377H254.615V57.9006H272.393V46.8137H243.542ZM312.234 57.9006V86.7762H323.307V57.9006H333.528V46.8137H293.687C288.173 46.8137 283.475 48.7626 279.592 52.6605C275.708 56.5584 273.766 61.2653 273.766 66.7812C273.766 72.3154 275.708 77.0315 279.592 80.9294C283.475 84.8273 288.173 86.7762 293.687 86.7762H309.156V75.6617H293.687C291.232 75.6617 289.144 74.7976 287.422 73.0693C285.682 71.341 284.812 69.2449 284.812 66.7812C284.812 64.3174 285.664 62.2214 287.367 60.4931C289.089 58.7647 291.196 57.9006 293.687 57.9006H312.234ZM364 57.9006V46.8137H344.574C341.973 46.8137 339.747 47.8065 337.897 49.7922C336.065 51.7596 335.149 54.0946 335.149 56.7974C335.149 58.9854 335.736 60.7964 336.908 62.2306L349.74 75.6617H332.457V86.7762H352.899C355.482 86.7762 357.708 85.7834 359.576 83.7976C361.426 81.8119 362.351 79.4769 362.351 76.7925C362.351 74.8987 361.774 73.0968 360.62 71.3869C352.121 62.5063 347.825 58.0109 347.734 57.9006H364Z"/>
<path d="M4 4H363.949V19.5814H4V4Z"/>
<path d="M4 115.991H363.949V131.573H4V115.991Z"/>
</mask>
<path d="M25.7616 64.8782L16.447 46.8137H4V86.7762H15.0731V69.2357L25.7616 86.6107L36.4775 69.2357V86.7762H47.5506V46.8137H33.7298L25.7616 64.8782ZM69.9991 60.4931L61.8385 46.8137H48.9519L63.5695 71.2766L64.4763 72.821V86.7762H75.5494V72.821L76.4561 71.2766L91.0737 46.8137H78.1871L69.9991 60.4931ZM102.532 46.8137V86.7762H113.605V76.5443H121.326C125.392 76.5075 128.854 75.0458 131.712 72.1591C134.569 69.2541 135.998 65.7607 135.998 61.679C135.998 57.5972 134.569 54.113 131.712 51.2264C128.854 48.3214 125.392 46.8504 121.326 46.8137H102.532ZM113.605 64.9885V59.5278H120.336C121.087 59.5278 121.729 59.7944 122.26 60.3276C122.791 60.8608 123.057 61.5043 123.057 62.2581C123.057 63.012 122.791 63.6555 122.26 64.1887C121.729 64.7219 121.087 64.9885 120.336 64.9885H113.605ZM170.839 61.679C170.839 57.5972 169.41 54.113 166.552 51.2264C163.695 48.3214 160.233 46.8504 156.166 46.8137H137.372V86.7762H148.445V79.6331L155.012 86.7762H183.753V75.6617H162.074C164.693 74.2092 166.8 72.2786 168.393 69.87C170.024 67.3879 170.839 64.6575 170.839 61.679ZM148.445 64.9885V59.5278H155.177C155.928 59.5278 156.569 59.7944 157.1 60.3276C157.632 60.8608 157.897 61.5043 157.897 62.2581C157.897 63.012 157.632 63.6555 157.1 64.1887C156.569 64.7219 155.928 64.9885 155.177 64.9885H148.445ZM192.133 75.6617C189.679 75.6617 187.59 74.7976 185.868 73.0693C184.128 71.341 183.258 69.2449 183.258 66.7812C183.258 64.3174 184.11 62.2214 185.813 60.4931C187.535 58.7647 189.642 57.9006 192.133 57.9006H195.156C197.647 57.9006 199.753 58.7647 201.475 60.4931C203.179 62.2214 204.031 64.3174 204.031 66.7812C204.031 69.2449 203.16 71.341 201.42 73.0693C199.698 74.7976 197.61 75.6617 195.156 75.6617H192.133ZM192.133 46.8137C186.619 46.8137 181.921 48.7626 178.038 52.6605C174.154 56.5584 172.212 61.2653 172.212 66.7812C172.212 72.3154 174.154 77.0315 178.038 80.9294C181.921 84.8273 186.619 86.7762 192.133 86.7762H195.156C200.669 86.7762 205.368 84.8273 209.251 80.9294C213.134 77.0315 215.076 72.3154 215.076 66.7812C215.076 61.2653 213.134 56.5584 209.251 52.6605C205.368 48.7626 200.669 46.8137 195.156 46.8137H192.133ZM231.123 66.2296C231.123 70.1091 229.593 72.8486 226.534 74.4482C225.581 74.9447 224.537 75.294 223.402 75.4962C223.035 75.5698 222.687 75.6249 222.358 75.6617C222.248 75.6617 222.147 75.6617 222.055 75.6617H215.076V86.7762H221.643C221.753 86.7762 221.863 86.7762 221.973 86.7762C222.119 86.7762 222.275 86.7762 222.44 86.7762C222.861 86.7578 223.292 86.7302 223.731 86.6935C224.977 86.5832 226.204 86.3809 227.413 86.0867C231.004 85.1858 234.008 83.5678 236.426 81.2328C238.038 79.6883 239.32 77.8497 240.272 75.7169C241.536 72.9222 242.168 69.7597 242.168 66.2296V46.8137H231.123V66.2296ZM243.542 46.8137V86.7762H272.393V75.6617H254.615V72.3522H272.393V61.2377H254.615V57.9006H272.393V46.8137H243.542ZM312.234 57.9006V86.7762H323.307V57.9006H333.528V46.8137H293.687C288.173 46.8137 283.475 48.7626 279.592 52.6605C275.708 56.5584 273.766 61.2653 273.766 66.7812C273.766 72.3154 275.708 77.0315 279.592 80.9294C283.475 84.8273 288.173 86.7762 293.687 86.7762H309.156V75.6617H293.687C291.232 75.6617 289.144 74.7976 287.422 73.0693C285.682 71.341 284.812 69.2449 284.812 66.7812C284.812 64.3174 285.664 62.2214 287.367 60.4931C289.089 58.7647 291.196 57.9006 293.687 57.9006H312.234ZM364 57.9006V46.8137H344.574C341.973 46.8137 339.747 47.8065 337.897 49.7922C336.065 51.7596 335.149 54.0946 335.149 56.7974C335.149 58.9854 335.736 60.7964 336.908 62.2306L349.74 75.6617H332.457V86.7762H352.899C355.482 86.7762 357.708 85.7834 359.576 83.7976C361.426 81.8119 362.351 79.4769 362.351 76.7925C362.351 74.8987 361.774 73.0968 360.62 71.3869C352.121 62.5063 347.825 58.0109 347.734 57.9006H364Z" stroke="#CEB7FF" stroke-width="4" shape-rendering="crispEdges" mask="url(#path-1-inside-1_21_4056)"/>
<path d="M4 4H363.949V19.5814H4V4Z" stroke="#CEB7FF" stroke-width="4" shape-rendering="crispEdges" mask="url(#path-1-inside-1_21_4056)"/>
<path d="M4 115.991H363.949V131.573H4V115.991Z" stroke="#CEB7FF" stroke-width="4" shape-rendering="crispEdges" mask="url(#path-1-inside-1_21_4056)"/>
</g>
<defs>
<filter id="filter0_d_21_4056" x="0" y="0" width="368" height="135.573" filterUnits="userSpaceOnUse" color-interpolation-filters="sRGB">
<feFlood flood-opacity="0" result="BackgroundImageFix"/>
<feColorMatrix in="SourceAlpha" type="matrix" values="0 0 0 0 0 0 0 0 0 0 0 0 0 0 0 0 0 0 127 0" result="hardAlpha"/>
<feOffset/>
<feGaussianBlur stdDeviation="2"/>
<feComposite in2="hardAlpha" operator="out"/>
<feColorMatrix type="matrix" values="0 0 0 0 0.807843 0 0 0 0 0.717647 0 0 0 0 1 0 0 0 1 0"/>
<feBlend mode="normal" in2="BackgroundImageFix" result="effect1_dropShadow_21_4056"/>
<feBlend mode="normal" in="SourceGraphic" in2="effect1_dropShadow_21_4056" result="shape"/>
</filter>
</defs>
</svg>
