<svg width="90" height="126" viewBox="0 0 90 126" fill="none" xmlns="http://www.w3.org/2000/svg">
<path d="M7.43813 33.4C5.30479 33.4 3.69146 32.8 2.59813 31.6C1.50479 30.3733 0.958125 28.6267 0.958125 26.36V24.76H5.11813V26.68C5.11813 28.4933 5.87813 29.4 7.39813 29.4C8.14479 29.4 8.70479 29.1867 9.07813 28.76C9.47813 28.3067 9.67813 27.5867 9.67813 26.6C9.67813 25.4267 9.41146 24.4 8.87813 23.52C8.34479 22.6133 7.35813 21.5333 5.91813 20.28C4.10479 18.68 2.83813 17.24 2.11813 15.96C1.39813 14.6533 1.03813 13.1867 1.03813 11.56C1.03813 9.34667 1.59813 7.64 2.71812 6.44C3.83813 5.21333 5.46479 4.6 7.59813 4.6C9.70479 4.6 11.2915 5.21333 12.3581 6.44C13.4515 7.64 13.9981 9.37333 13.9981 11.64V12.8H9.83813V11.36C9.83813 10.4 9.65146 9.70667 9.27813 9.28C8.90479 8.82667 8.35813 8.6 7.63813 8.6C6.17146 8.6 5.43813 9.49333 5.43813 11.28C5.43813 12.2933 5.70479 13.24 6.23813 14.12C6.79813 15 7.79813 16.0667 9.23813 17.32C11.0781 18.92 12.3448 20.3733 13.0381 21.68C13.7315 22.9867 14.0781 24.52 14.0781 26.28C14.0781 28.5733 13.5048 30.3333 12.3581 31.56C11.2381 32.7867 9.59813 33.4 7.43813 33.4ZM22.8009 33.4C20.6943 33.4 19.0809 32.8 17.9609 31.6C16.8676 30.4 16.3209 28.7067 16.3209 26.52V11.48C16.3209 9.29333 16.8676 7.6 17.9609 6.4C19.0809 5.2 20.6943 4.6 22.8009 4.6C24.9076 4.6 26.5076 5.2 27.6009 6.4C28.7209 7.6 29.2809 9.29333 29.2809 11.48V14.44H25.1209V11.2C25.1209 9.46667 24.3876 8.6 22.9209 8.6C21.4543 8.6 20.7209 9.46667 20.7209 11.2V26.84C20.7209 28.5467 21.4543 29.4 22.9209 29.4C24.3876 29.4 25.1209 28.5467 25.1209 26.84V22.56H29.2809V26.52C29.2809 28.7067 28.7209 30.4 27.6009 31.6C26.5076 32.8 24.9076 33.4 22.8009 33.4ZM31.9134 5H38.4334C40.7001 5 42.3534 5.53333 43.3934 6.6C44.4334 7.64 44.9534 9.25333 44.9534 11.44V13.16C44.9534 16.0667 43.9934 17.9067 42.0734 18.68V18.76C43.1401 19.08 43.8868 19.7333 44.3134 20.72C44.7668 21.7067 44.9934 23.0267 44.9934 24.68V29.6C44.9934 30.4 45.0201 31.0533 45.0734 31.56C45.1268 32.04 45.2601 32.52 45.4734 33H40.9934C40.8334 32.5467 40.7268 32.12 40.6734 31.72C40.6201 31.32 40.5934 30.6 40.5934 29.56V24.44C40.5934 23.16 40.3801 22.2667 39.9534 21.76C39.5534 21.2533 38.8468 21 37.8334 21H36.3134V33H31.9134V5ZM37.9134 17C38.7934 17 39.4468 16.7733 39.8734 16.32C40.3268 15.8667 40.5534 15.1067 40.5534 14.04V11.88C40.5534 10.8667 40.3668 10.1333 39.9934 9.68C39.6468 9.22667 39.0868 9 38.3134 9H36.3134V17H37.9134ZM54.4063 33.4C52.2463 33.4 50.5929 32.7867 49.4463 31.56C48.2996 30.3333 47.7262 28.6 47.7262 26.36V11.64C47.7262 9.4 48.2996 7.66667 49.4463 6.44C50.5929 5.21333 52.2463 4.6 54.4063 4.6C56.5663 4.6 58.2196 5.21333 59.3663 6.44C60.5129 7.66667 61.0863 9.4 61.0863 11.64V26.36C61.0863 28.6 60.5129 30.3333 59.3663 31.56C58.2196 32.7867 56.5663 33.4 54.4063 33.4ZM54.4063 29.4C55.9263 29.4 56.6862 28.48 56.6862 26.64V11.36C56.6862 9.52 55.9263 8.6 54.4063 8.6C52.8863 8.6 52.1263 9.52 52.1263 11.36V26.64C52.1263 28.48 52.8863 29.4 54.4063 29.4ZM64.0619 5H68.4619V29H75.7019V33H64.0619V5ZM77.8119 5H82.2119V29H89.4519V33H77.8119V5Z" fill="#CEB7FF"/>
<path d="M45 66.5581L46.7869 64.7833C46.3127 64.3129 45.6701 64.0487 45 64.0487C44.3299 64.0487 43.6873 64.3129 43.2131 64.7833L45 66.5581ZM45 93.3488L43.2131 95.1237C43.6873 95.5941 44.3299 95.8583 45 95.8583C45.6701 95.8583 46.3127 95.5941 46.7869 95.1237L45 93.3488ZM36.4703 71.4809C36.0236 71.9571 35.7805 72.5868 35.792 73.2375C35.8036 73.8882 36.069 74.509 36.5322 74.9692C36.9955 75.4293 37.6205 75.6929 38.2756 75.7044C38.9307 75.7159 39.5647 75.4744 40.044 75.0307L36.4703 71.4809ZM49.956 75.0307C50.1875 75.2775 50.4666 75.4754 50.7768 75.6127C51.087 75.7499 51.4218 75.8238 51.7613 75.8297C52.1008 75.8357 52.4381 75.7736 52.7529 75.6473C53.0678 75.521 53.3538 75.333 53.5939 75.0945C53.834 74.856 54.0233 74.5719 54.1505 74.2591C54.2776 73.9464 54.3401 73.6114 54.3341 73.2742C54.3281 72.9369 54.2538 72.6043 54.1156 72.2962C53.9774 71.9882 53.7781 71.7109 53.5297 71.4809L49.956 75.0307ZM40.044 84.8763C39.8125 84.6295 39.5334 84.4316 39.2232 84.2943C38.913 84.157 38.5782 84.0832 38.2387 84.0773C37.8992 84.0713 37.5619 84.1334 37.2471 84.2597C36.9322 84.386 36.6462 84.574 36.4061 84.8125C36.166 85.051 35.9767 85.3351 35.8495 85.6479C35.7224 85.9606 35.6599 86.2956 35.6659 86.6328C35.6719 86.9701 35.7462 87.3026 35.8844 87.6107C36.0226 87.9188 36.2219 88.1961 36.4703 88.426L40.044 84.8763ZM53.5297 88.426C53.7781 88.1961 53.9774 87.9188 54.1156 87.6107C54.2538 87.3026 54.3281 86.9701 54.3341 86.6328C54.3401 86.2956 54.2776 85.9606 54.1505 85.6479C54.0233 85.3351 53.834 85.051 53.5939 84.8125C53.3538 84.574 53.0678 84.386 52.7529 84.2597C52.4381 84.1334 52.1008 84.0713 51.7613 84.0773C51.4218 84.0832 51.087 84.157 50.7768 84.2943C50.4666 84.4316 50.1875 84.6295 49.956 84.8763L53.5297 88.426ZM15.5 83.3023V96.6977H20.5571V83.3023H15.5ZM74.5 96.6977V83.3023H69.4429V96.6977H74.5ZM42.4714 66.5581V93.3488H47.5286V66.5581H42.4714ZM43.2131 64.7833L36.4703 71.4809L40.044 75.0307L46.7869 68.333L43.2131 64.7833ZM43.2131 68.333L49.956 75.0307L53.5297 71.4809L46.7869 64.7833L43.2131 68.333ZM46.7869 91.574L40.044 84.8763L36.4703 88.426L43.2131 95.1237L46.7869 91.574ZM46.7869 95.1237L53.5297 88.426L49.956 84.8763L43.2131 91.574L46.7869 95.1237ZM74.5 83.3023C74.5 75.5309 71.392 68.0777 65.8597 62.5825C60.3273 57.0872 52.8239 54 45 54V59.0233C51.4826 59.0233 57.6998 61.5812 62.2837 66.1344C66.8676 70.6876 69.4429 76.8631 69.4429 83.3023H74.5ZM45 126C48.874 126 52.7101 125.242 56.2892 123.769C59.8683 122.297 63.1203 120.139 65.8597 117.418C68.599 114.697 70.7719 111.466 72.2544 107.911C73.737 104.356 74.5 100.546 74.5 96.6977H69.4429C69.4429 103.137 66.8676 109.312 62.2837 113.866C57.6998 118.419 51.4826 120.977 45 120.977V126ZM15.5 96.6977C15.5 104.469 18.608 111.922 24.1403 117.418C29.6727 122.913 37.1761 126 45 126V120.977C38.5174 120.977 32.3002 118.419 27.7163 113.866C23.1324 109.312 20.5571 103.137 20.5571 96.6977H15.5ZM20.5571 83.3023C20.5571 76.8631 23.1324 70.6876 27.7163 66.1344C32.3002 61.5812 38.5174 59.0233 45 59.0233V54C37.1761 54 29.6727 57.0872 24.1403 62.5825C18.608 68.0777 15.5 75.5309 15.5 83.3023H20.5571Z" fill="#CEB7FF"/>
</svg>
