<svg width="310" height="132" viewBox="0 0 310 132" fill="none" xmlns="http://www.w3.org/2000/svg">
<g filter="url(#filter0_d_21_3756)">
<path d="M27.5312 66.5137L26.6431 66.9733L27.6015 68.825L28.4456 66.9185L27.5312 66.5137ZM17.9307 47.9639L18.8188 47.5042L18.5391 46.9639H17.9307V47.9639ZM5.10156 47.9639V46.9639H4.10156V47.9639H5.10156ZM5.10156 89H4.10156V90H5.10156V89ZM16.5146 89V90H17.5146V89H16.5146ZM16.5146 70.9883L17.3655 70.4629L15.5146 67.4654V70.9883H16.5146ZM27.5312 88.8301L26.6804 89.3555L27.5302 90.7317L28.3815 89.3564L27.5312 88.8301ZM38.5762 70.9883H39.5762V67.473L37.7259 70.4619L38.5762 70.9883ZM38.5762 89H37.5762V90H38.5762V89ZM49.9893 89V90H50.9893V89H49.9893ZM49.9893 47.9639H50.9893V46.9639H49.9893V47.9639ZM35.7441 47.9639V46.9639H35.0933L34.8298 47.559L35.7441 47.9639ZM28.4194 66.054L18.8188 47.5042L17.0426 48.4235L26.6431 66.9733L28.4194 66.054ZM17.9307 46.9639H5.10156V48.9639H17.9307V46.9639ZM4.10156 47.9639V89H6.10156V47.9639H4.10156ZM5.10156 90H16.5146V88H5.10156V90ZM17.5146 89V70.9883H15.5146V89H17.5146ZM15.6638 71.5137L26.6804 89.3555L28.3821 88.3047L17.3655 70.4629L15.6638 71.5137ZM28.3815 89.3564L39.4264 71.5146L37.7259 70.4619L26.681 88.3037L28.3815 89.3564ZM37.5762 70.9883V89H39.5762V70.9883H37.5762ZM38.5762 90H49.9893V88H38.5762V90ZM50.9893 89V47.9639H48.9893V89H50.9893ZM49.9893 46.9639H35.7441V48.9639H49.9893V46.9639ZM34.8298 47.559L26.6169 66.1088L28.4456 66.9185L36.6585 48.3687L34.8298 47.559ZM73.127 62.0107L72.269 62.5245L73.1255 63.9549L73.9841 62.5257L73.127 62.0107ZM64.7158 47.9639L65.5738 47.4501L65.2826 46.9639H64.7158V47.9639ZM51.4336 47.9639V46.9639H49.6677L50.576 48.4782L51.4336 47.9639ZM66.5 73.084L67.3616 72.5763L67.3576 72.5696L66.5 73.084ZM67.4346 74.6699H68.4346V74.3972L68.2961 74.1622L67.4346 74.6699ZM67.4346 89H66.4346V90H67.4346V89ZM78.8477 89V90H79.8477V89H78.8477ZM78.8477 74.6699L77.9861 74.1622L77.8477 74.3972V74.6699H78.8477ZM79.7822 73.084L78.9246 72.5696L78.9207 72.5763L79.7822 73.084ZM94.8486 47.9639L95.7062 48.4782L96.6145 46.9639H94.8486V47.9639ZM81.5664 47.9639V46.9639H81.0006L80.7092 47.4489L81.5664 47.9639ZM73.9849 61.497L65.5738 47.4501L63.8579 48.4776L72.269 62.5245L73.9849 61.497ZM64.7158 46.9639H51.4336V48.9639H64.7158V46.9639ZM50.576 48.4782L65.6424 73.5983L67.3576 72.5696L52.2912 47.4495L50.576 48.4782ZM65.6385 73.5917L66.573 75.1776L68.2961 74.1622L67.3615 72.5763L65.6385 73.5917ZM66.4346 74.6699V89H68.4346V74.6699H66.4346ZM67.4346 90H78.8477V88H67.4346V90ZM79.8477 89V74.6699H77.8477V89H79.8477ZM79.7092 75.1776L80.6438 73.5917L78.9207 72.5763L77.9861 74.1622L79.7092 75.1776ZM80.6398 73.5983L95.7062 48.4782L93.9911 47.4495L78.9247 72.5696L80.6398 73.5983ZM94.8486 46.9639H81.5664V48.9639H94.8486V46.9639ZM80.7092 47.4489L72.2698 61.4957L73.9841 62.5257L82.4236 48.4789L80.7092 47.4489ZM136.621 59.3486V60.3486H137.621V59.3486H136.621ZM136.621 47.9639H137.621V46.9639H136.621V47.9639ZM109.717 51.0225L108.986 50.3394L108.986 50.3397L109.717 51.0225ZM108.697 63.7949L107.924 64.4292L107.949 64.4591L107.975 64.4871L108.697 63.7949ZM121.923 77.5869V78.5869H124.267L122.645 76.8948L121.923 77.5869ZM104.109 77.5869V76.5869H103.109V77.5869H104.109ZM104.109 89H103.109V90H104.109V89ZM132.062 85.9414L132.789 86.628L132.792 86.6244L132.062 85.9414ZM133.138 73.1973L133.966 72.6364L133.918 72.5659L133.859 72.5045L133.138 73.1973ZM119.855 59.3486V58.3486H117.72L119.087 59.9888L119.855 59.3486ZM137.621 59.3486V47.9639H135.621V59.3486H137.621ZM136.621 46.9639H116.599V48.9639H136.621V46.9639ZM116.599 46.9639C113.628 46.9639 111.074 48.1076 108.986 50.3394L110.447 51.7055C112.174 49.8592 114.207 48.9639 116.599 48.9639V46.9639ZM108.986 50.3397C106.924 52.5458 105.885 55.188 105.885 58.2158H107.885C107.885 55.6929 108.733 53.5395 110.447 51.7053L108.986 50.3397ZM105.885 58.2158C105.885 60.6505 106.544 62.7469 107.924 64.4292L109.47 63.1606C108.434 61.8977 107.885 60.2747 107.885 58.2158H105.885ZM107.975 64.4871L121.201 78.279L122.645 76.8948L109.419 63.1028L107.975 64.4871ZM121.923 76.5869H104.109V78.5869H121.923V76.5869ZM103.109 77.5869V89H105.109V77.5869H103.109ZM104.109 90H125.18V88H104.109V90ZM125.18 90C128.133 90 130.685 88.8551 132.789 86.628L131.335 85.2548C129.586 87.1058 127.551 88 125.18 88V90ZM132.792 86.6244C134.87 84.4028 135.922 81.7618 135.922 78.748H133.922C133.922 81.2473 133.067 83.4019 131.331 85.2584L132.792 86.6244ZM135.922 78.748C135.922 76.5853 135.257 74.5421 133.966 72.6364L132.31 73.7581C133.398 75.3641 133.922 77.0215 133.922 78.748H135.922ZM133.859 72.5045C129.479 67.945 126.182 64.5114 123.969 62.2036C122.862 61.0496 122.026 60.1774 121.462 59.5868C120.87 58.9683 120.618 58.7019 120.624 58.7084L119.087 59.9888C119.14 60.052 119.477 60.4051 120.016 60.969C120.582 61.5607 121.418 62.4338 122.525 63.5879C124.739 65.8964 128.036 69.3304 132.417 73.89L133.859 72.5045ZM119.855 60.3486H136.621V58.3486H119.855V60.3486ZM159.561 47.9639V46.9639H159.055L158.755 47.3707L159.561 47.9639ZM147.751 63.9932H146.751V67.0364L148.556 64.5863L147.751 63.9932ZM147.751 47.9639H148.751V46.9639H147.751V47.9639ZM136.338 47.9639V46.9639H135.338V47.9639H136.338ZM136.338 89H135.338V90H136.338V89ZM147.751 89V90H148.751V89H147.751ZM147.751 78.5498L148.504 77.8923L146.751 75.8829V78.5498H147.751ZM156.87 89L156.117 89.6575L156.416 90H156.87V89ZM186.691 89V90H187.691V89H186.691ZM186.691 77.5869H187.691V76.5869H186.691V77.5869ZM162.393 77.5869L161.636 78.2404L161.935 78.5869H162.393V77.5869ZM156.842 71.1582L156.043 70.5565L155.558 71.201L156.085 71.8117L156.842 71.1582ZM174.315 47.9639L175.114 48.5656L176.321 46.9639H174.315V47.9639ZM158.755 47.3707L146.946 63.4L148.556 64.5863L160.366 48.557L158.755 47.3707ZM148.751 63.9932V47.9639H146.751V63.9932H148.751ZM147.751 46.9639H136.338V48.9639H147.751V46.9639ZM135.338 47.9639V89H137.338V47.9639H135.338ZM136.338 90H147.751V88H136.338V90ZM148.751 89V78.5498H146.751V89H148.751ZM146.998 79.2073L156.117 89.6575L157.624 88.3425L148.504 77.8923L146.998 79.2073ZM156.87 90H186.691V88H156.87V90ZM187.691 89V77.5869H185.691V89H187.691ZM186.691 76.5869H162.393V78.5869H186.691V76.5869ZM163.149 76.9334L157.599 70.5047L156.085 71.8117L161.636 78.2404L163.149 76.9334ZM157.641 71.7599L175.114 48.5656L173.517 47.3622L156.043 70.5565L157.641 71.7599ZM174.315 46.9639H159.561V48.9639H174.315V46.9639ZM175.76 89H174.76V90H175.76V89ZM187.173 89V90H188.173V89H187.173ZM187.173 47.9639H188.173V46.9639H187.173V47.9639ZM175.76 47.9639V46.9639H174.76V47.9639H175.76ZM175.76 90H187.173V88H175.76V90ZM188.173 89V47.9639H186.173V89H188.173ZM187.173 46.9639H175.76V48.9639H187.173V46.9639ZM174.76 47.9639V89H176.76V47.9639H174.76ZM200.03 47.9639H201.03V46.9639H200.03V47.9639ZM188.617 47.9639V46.9639H187.617V47.9639H188.617ZM188.617 89H187.617V90H188.617V89ZM219.77 89V90H220.77V89H219.77ZM219.77 77.5869H220.77V76.5869H219.77V77.5869ZM200.03 77.5869H199.03V78.5869H200.03V77.5869ZM200.03 46.9639H188.617V48.9639H200.03V46.9639ZM187.617 47.9639V89H189.617V47.9639H187.617ZM188.617 90H219.77V88H188.617V90ZM220.77 89V77.5869H218.77V89H220.77ZM219.77 76.5869H200.03V78.5869H219.77V76.5869ZM201.03 77.5869V47.9639H199.03V77.5869H201.03ZM232.599 47.9639H233.599V46.9639H232.599V47.9639ZM221.186 47.9639V46.9639H220.186V47.9639H221.186ZM221.186 89H220.186V90H221.186V89ZM252.338 89V90H253.338V89H252.338ZM252.338 77.5869H253.338V76.5869H252.338V77.5869ZM232.599 77.5869H231.599V78.5869H232.599V77.5869ZM232.599 46.9639H221.186V48.9639H232.599V46.9639ZM220.186 47.9639V89H222.186V47.9639H220.186ZM221.186 90H252.338V88H221.186V90ZM253.338 89V77.5869H251.338V89H253.338ZM252.338 76.5869H232.599V78.5869H252.338V76.5869ZM233.599 77.5869V47.9639H231.599V77.5869H233.599ZM301.898 85.9414L302.625 86.628L302.629 86.6244L301.898 85.9414ZM302.975 73.1973L303.803 72.6364L303.755 72.5659L303.696 72.5045L302.975 73.1973ZM289.692 59.3486V58.3486H287.557L288.924 59.9888L289.692 59.3486ZM304.192 59.3486V60.3486H305.192V59.3486H304.192ZM304.192 47.9639H305.192V46.9639H304.192V47.9639ZM279.554 51.0225L278.823 50.3394L278.823 50.3397L279.554 51.0225ZM278.534 63.7949L277.761 64.4292L277.786 64.4591L277.812 64.4871L278.534 63.7949ZM291.76 77.5869V78.5869H294.104L292.482 76.8948L291.76 77.5869ZM265.167 77.5869H264.167V78.5869H265.167V77.5869ZM265.167 47.9639H266.167V46.9639H265.167V47.9639ZM253.754 47.9639V46.9639H252.754V47.9639H253.754ZM253.754 89H252.754V90H253.754V89ZM295.017 90C297.97 90 300.522 88.8551 302.625 86.628L301.171 85.2548C299.423 87.1058 297.387 88 295.017 88V90ZM302.629 86.6244C304.706 84.4028 305.759 81.7618 305.759 78.748H303.759C303.759 81.2473 302.904 83.4019 301.168 85.2584L302.629 86.6244ZM305.759 78.748C305.759 76.5853 305.094 74.5421 303.803 72.6364L302.147 73.7581C303.235 75.3641 303.759 77.0215 303.759 78.748H305.759ZM303.696 72.5045C299.316 67.945 296.019 64.5114 293.805 62.2036C292.699 61.0496 291.863 60.1774 291.298 59.5868C290.707 58.9683 290.455 58.7019 290.461 58.7084L288.924 59.9888C288.977 60.052 289.314 60.4051 289.853 60.969C290.419 61.5607 291.255 62.4338 292.362 63.5879C294.576 65.8964 297.873 69.3304 302.253 73.89L303.696 72.5045ZM289.692 60.3486H304.192V58.3486H289.692V60.3486ZM305.192 59.3486V47.9639H303.192V59.3486H305.192ZM304.192 46.9639H286.436V48.9639H304.192V46.9639ZM286.436 46.9639C283.465 46.9639 280.911 48.1076 278.823 50.3394L280.284 51.7055C282.011 49.8592 284.044 48.9639 286.436 48.9639V46.9639ZM278.823 50.3397C276.761 52.5458 275.722 55.188 275.722 58.2158H277.722C277.722 55.6929 278.57 53.5395 280.284 51.7053L278.823 50.3397ZM275.722 58.2158C275.722 60.6505 276.381 62.7469 277.761 64.4292L279.307 63.1606C278.271 61.8977 277.722 60.2747 277.722 58.2158H275.722ZM277.812 64.4871L291.038 78.279L292.482 76.8948L279.256 63.1028L277.812 64.4871ZM291.76 76.5869H265.167V78.5869H291.76V76.5869ZM266.167 77.5869V47.9639H264.167V77.5869H266.167ZM265.167 46.9639H253.754V48.9639H265.167V46.9639ZM252.754 47.9639V89H254.754V47.9639H252.754ZM253.754 90H295.017V88H253.754V90Z" fill="#CEB7FF"/>
</g>
<g filter="url(#filter1_d_21_3756)">
<path d="M4.5 4.5H305.5V19.5H4.5V4.5Z" stroke="#CEB7FF" shape-rendering="crispEdges"/>
</g>
<g filter="url(#filter2_d_21_3756)">
<path d="M4.5 112.5H305.5V127.5H4.5V112.5Z" stroke="#CEB7FF" shape-rendering="crispEdges"/>
</g>
<defs>
<filter id="filter0_d_21_3756" x="0.101562" y="42.9639" width="309.657" height="51.0361" filterUnits="userSpaceOnUse" color-interpolation-filters="sRGB">
<feFlood flood-opacity="0" result="BackgroundImageFix"/>
<feColorMatrix in="SourceAlpha" type="matrix" values="0 0 0 0 0 0 0 0 0 0 0 0 0 0 0 0 0 0 127 0" result="hardAlpha"/>
<feOffset/>
<feGaussianBlur stdDeviation="2.5"/>
<feComposite in2="hardAlpha" operator="out"/>
<feColorMatrix type="matrix" values="0 0 0 0 0.701961 0 0 0 0 0.466667 0 0 0 0 1 0 0 0 1 0"/>
<feBlend mode="normal" in2="BackgroundImageFix" result="effect1_dropShadow_21_3756"/>
<feBlend mode="normal" in="SourceGraphic" in2="effect1_dropShadow_21_3756" result="shape"/>
</filter>
<filter id="filter1_d_21_3756" x="0" y="0" width="310" height="24" filterUnits="userSpaceOnUse" color-interpolation-filters="sRGB">
<feFlood flood-opacity="0" result="BackgroundImageFix"/>
<feColorMatrix in="SourceAlpha" type="matrix" values="0 0 0 0 0 0 0 0 0 0 0 0 0 0 0 0 0 0 127 0" result="hardAlpha"/>
<feOffset/>
<feGaussianBlur stdDeviation="2"/>
<feComposite in2="hardAlpha" operator="out"/>
<feColorMatrix type="matrix" values="0 0 0 0 0.807843 0 0 0 0 0.717647 0 0 0 0 1 0 0 0 1 0"/>
<feBlend mode="normal" in2="BackgroundImageFix" result="effect1_dropShadow_21_3756"/>
<feBlend mode="normal" in="SourceGraphic" in2="effect1_dropShadow_21_3756" result="shape"/>
</filter>
<filter id="filter2_d_21_3756" x="0" y="108" width="310" height="24" filterUnits="userSpaceOnUse" color-interpolation-filters="sRGB">
<feFlood flood-opacity="0" result="BackgroundImageFix"/>
<feColorMatrix in="SourceAlpha" type="matrix" values="0 0 0 0 0 0 0 0 0 0 0 0 0 0 0 0 0 0 127 0" result="hardAlpha"/>
<feOffset/>
<feGaussianBlur stdDeviation="2"/>
<feComposite in2="hardAlpha" operator="out"/>
<feColorMatrix type="matrix" values="0 0 0 0 0.807843 0 0 0 0 0.717647 0 0 0 0 1 0 0 0 1 0"/>
<feBlend mode="normal" in2="BackgroundImageFix" result="effect1_dropShadow_21_3756"/>
<feBlend mode="normal" in="SourceGraphic" in2="effect1_dropShadow_21_3756" result="shape"/>
</filter>
</defs>
</svg>
