<svg width="618" height="132" viewBox="0 0 618 132" fill="none" xmlns="http://www.w3.org/2000/svg">
<g filter="url(#filter0_d_21_4024)">
<path d="M27.4297 66.5137L26.5416 66.9733L27.5 68.825L28.3441 66.9185L27.4297 66.5137ZM17.8291 47.9639L18.7172 47.5042L18.4375 46.9639H17.8291V47.9639ZM5 47.9639V46.9639H4V47.9639H5ZM5 89H4V90H5V89ZM16.4131 89V90H17.4131V89H16.4131ZM16.4131 70.9883L17.264 70.4629L15.4131 67.4654V70.9883H16.4131ZM27.4297 88.8301L26.5788 89.3555L27.4286 90.7317L28.28 89.3564L27.4297 88.8301ZM38.4746 70.9883H39.4746V67.473L37.6243 70.4619L38.4746 70.9883ZM38.4746 89H37.4746V90H38.4746V89ZM49.8877 89V90H50.8877V89H49.8877ZM49.8877 47.9639H50.8877V46.9639H49.8877V47.9639ZM35.6426 47.9639V46.9639H34.9917L34.7282 47.559L35.6426 47.9639ZM28.3178 66.054L18.7172 47.5042L16.941 48.4235L26.5416 66.9733L28.3178 66.054ZM17.8291 46.9639H5V48.9639H17.8291V46.9639ZM4 47.9639V89H6V47.9639H4ZM5 90H16.4131V88H5V90ZM17.4131 89V70.9883H15.4131V89H17.4131ZM15.5622 71.5137L26.5788 89.3555L28.2806 88.3047L17.264 70.4629L15.5622 71.5137ZM28.28 89.3564L39.3249 71.5146L37.6243 70.4619L26.5794 88.3037L28.28 89.3564ZM37.4746 70.9883V89H39.4746V70.9883H37.4746ZM38.4746 90H49.8877V88H38.4746V90ZM50.8877 89V47.9639H48.8877V89H50.8877ZM49.8877 46.9639H35.6426V48.9639H49.8877V46.9639ZM34.7282 47.559L26.5153 66.1088L28.3441 66.9185L36.557 48.3687L34.7282 47.559ZM73.0254 62.0107L72.1674 62.5245L73.0239 63.9549L73.8826 62.5257L73.0254 62.0107ZM64.6143 47.9639L65.4722 47.4501L65.181 46.9639H64.6143V47.9639ZM51.332 47.9639V46.9639H49.5662L50.4745 48.4782L51.332 47.9639ZM66.3984 73.084L67.26 72.5763L67.256 72.5696L66.3984 73.084ZM67.333 74.6699H68.333V74.3972L68.1945 74.1622L67.333 74.6699ZM67.333 89H66.333V90H67.333V89ZM78.7461 89V90H79.7461V89H78.7461ZM78.7461 74.6699L77.8846 74.1622L77.7461 74.3972V74.6699H78.7461ZM79.6807 73.084L78.8231 72.5696L78.8191 72.5763L79.6807 73.084ZM94.7471 47.9639L95.6046 48.4782L96.5129 46.9639H94.7471V47.9639ZM81.4648 47.9639V46.9639H80.899L80.6077 47.4489L81.4648 47.9639ZM73.8833 61.497L65.4722 47.4501L63.7563 48.4776L72.1674 62.5245L73.8833 61.497ZM64.6143 46.9639H51.332V48.9639H64.6143V46.9639ZM50.4745 48.4782L65.5409 73.5983L67.256 72.5696L52.1896 47.4495L50.4745 48.4782ZM65.5369 73.5917L66.4715 75.1776L68.1945 74.1622L67.26 72.5763L65.5369 73.5917ZM66.333 74.6699V89H68.333V74.6699H66.333ZM67.333 90H78.7461V88H67.333V90ZM79.7461 89V74.6699H77.7461V89H79.7461ZM79.6076 75.1776L80.5422 73.5917L78.8191 72.5763L77.8846 74.1622L79.6076 75.1776ZM80.5382 73.5983L95.6046 48.4782L93.8895 47.4495L78.8231 72.5696L80.5382 73.5983ZM94.7471 46.9639H81.4648V48.9639H94.7471V46.9639ZM80.6077 47.4489L72.1682 61.4957L73.8826 62.5257L82.322 48.4789L80.6077 47.4489ZM139.295 63.0869L138.32 63.3096L140.269 63.3114L139.295 63.0869ZM135.84 47.9639L136.815 47.7411L136.637 46.9639H135.84V47.9639ZM125.758 47.9639V46.9639H124.962L124.783 47.7394L125.758 47.9639ZM122.274 63.0869L121.3 63.3096L123.249 63.3114L122.274 63.0869ZM118.819 47.9639L119.794 47.7411L119.617 46.9639H118.819V47.9639ZM106.557 47.9639V46.9639H105.302L105.582 48.1872L106.557 47.9639ZM115.959 89L114.984 89.2233L115.162 90H115.959V89ZM127.174 89V90H127.959L128.145 89.2375L127.174 89ZM130.912 73.707L131.903 73.5731L129.941 73.4696L130.912 73.707ZM132.979 89L131.989 89.134L132.106 90H132.979V89ZM145.61 89V90H146.396L146.582 89.2367L145.61 89ZM155.607 47.9639L156.579 48.2006L156.88 46.9639H155.607V47.9639ZM142.778 47.9639V46.9639H141.982L141.804 47.7394L142.778 47.9639ZM140.27 62.8642L136.815 47.7411L134.865 48.1866L138.32 63.3096L140.27 62.8642ZM135.84 46.9639H125.758V48.9639H135.84V46.9639ZM124.783 47.7394L121.3 62.8625L123.249 63.3114L126.732 48.1883L124.783 47.7394ZM123.249 62.8642L119.794 47.7411L117.844 48.1866L121.3 63.3096L123.249 62.8642ZM118.819 46.9639H106.557V48.9639H118.819V46.9639ZM105.582 48.1872L114.984 89.2233L116.934 88.7767L107.531 47.7405L105.582 48.1872ZM115.959 90H127.174V88H115.959V90ZM128.145 89.2375L131.884 73.9445L129.941 73.4696L126.202 88.7625L128.145 89.2375ZM129.921 73.841L131.989 89.134L133.97 88.866L131.903 73.5731L129.921 73.841ZM132.979 90H145.61V88H132.979V90ZM146.582 89.2367L156.579 48.2006L154.636 47.7272L144.639 88.7633L146.582 89.2367ZM155.607 46.9639H142.778V48.9639H155.607V46.9639ZM141.804 47.7394L138.32 62.8625L140.269 63.3114L143.753 48.1883L141.804 47.7394ZM167.417 74.9248L168.124 74.2177L168.12 74.214L167.417 74.9248ZM167.36 62.0107L166.653 61.3036L166.649 61.3074L167.36 62.0107ZM183.503 62.0107L184.214 61.3074L184.21 61.3036L183.503 62.0107ZM183.446 74.9248L182.743 74.214L182.739 74.2177L183.446 74.9248ZM173.874 76.5869C171.607 76.5869 169.71 75.8032 168.124 74.2177L166.71 75.6319C168.674 77.5959 171.081 78.5869 173.874 78.5869V76.5869ZM168.12 74.214C166.517 72.6276 165.727 70.7315 165.727 68.4678H163.727C163.727 71.264 164.73 73.6725 166.714 75.6356L168.12 74.214ZM165.727 68.4678C165.727 66.1972 166.503 64.2988 168.071 62.7141L166.649 61.3074C164.706 63.2722 163.727 65.6784 163.727 68.4678H165.727ZM168.067 62.7178C169.65 61.1354 171.565 60.3486 173.874 60.3486V58.3486C171.048 58.3486 168.62 59.3366 166.653 61.3036L168.067 62.7178ZM173.874 60.3486H176.989V58.3486H173.874V60.3486ZM176.989 60.3486C179.299 60.3486 181.213 61.1354 182.796 62.7178L184.21 61.3036C182.243 59.3366 179.815 58.3486 176.989 58.3486V60.3486ZM182.792 62.7141C184.36 64.2988 185.137 66.1972 185.137 68.4678H187.137C187.137 65.6784 186.158 63.2722 184.214 61.3074L182.792 62.7141ZM185.137 68.4678C185.137 70.7315 184.346 72.6276 182.743 74.214L184.15 75.6356C186.134 73.6725 187.137 71.264 187.137 68.4678H185.137ZM182.739 74.2177C181.154 75.8032 179.256 76.5869 176.989 76.5869V78.5869C179.782 78.5869 182.189 77.5959 184.153 75.6319L182.739 74.2177ZM176.989 76.5869H173.874V78.5869H176.989V76.5869ZM173.874 46.9639C167.927 46.9639 162.83 49.0697 158.639 53.2607L160.053 54.6749C163.867 50.8606 168.455 48.9639 173.874 48.9639V46.9639ZM158.639 53.2607C154.448 57.4509 152.342 62.5387 152.342 68.4678H154.342C154.342 63.0687 156.238 58.4898 160.053 54.6749L158.639 53.2607ZM152.342 68.4678C152.342 74.4147 154.448 79.5122 158.639 83.7032L160.053 82.289C156.239 78.4748 154.342 73.8867 154.342 68.4678H152.342ZM158.639 83.7032C162.83 87.8942 167.927 90 173.874 90V88C168.455 88 163.867 86.1032 160.053 82.289L158.639 83.7032ZM173.874 90H176.989V88H173.874V90ZM176.989 90C182.936 90 188.034 87.8942 192.225 83.7032L190.81 82.289C186.996 86.1032 182.408 88 176.989 88V90ZM192.225 83.7032C196.416 79.5122 198.521 74.4147 198.521 68.4678H196.521C196.521 73.8867 194.625 78.4748 190.81 82.289L192.225 83.7032ZM198.521 68.4678C198.521 62.5387 196.415 57.4509 192.225 53.2607L190.81 54.6749C194.625 58.4898 196.521 63.0687 196.521 68.4678H198.521ZM192.225 53.2607C188.034 49.0697 182.936 46.9639 176.989 46.9639V48.9639C182.408 48.9639 186.996 50.8606 190.81 54.6749L192.225 53.2607ZM176.989 46.9639H173.874V48.9639H176.989V46.9639ZM229.014 52.4951L228.302 53.1977L228.304 53.2L229.014 52.4951ZM218.309 47.9639L218.318 46.9639H218.309V47.9639ZM198.938 47.9639V46.9639H197.938V47.9639H198.938ZM198.938 89H197.938V90H198.938V89ZM210.351 89V90H211.351V89H210.351ZM210.351 81.665L211.127 81.0344L209.351 78.8485V81.665H210.351ZM211.115 82.543L211.848 81.862L211.846 81.8606L211.115 82.543ZM232.582 89V90H233.582V89H232.582ZM232.582 77.5869H233.582V76.5869H232.582V77.5869ZM224.397 77.1621L223.989 76.2494L221.143 77.5229L224.199 78.1422L224.397 77.1621ZM230.911 71.6396L231.744 72.1929L231.746 72.1901L230.911 71.6396ZM210.351 66.627H209.351V67.627H210.351V66.627ZM210.351 61.0195V60.0195H209.351V61.0195H210.351ZM234.432 63.2285C234.432 58.7739 232.855 54.9425 229.723 51.7903L228.304 53.2C231.063 55.9762 232.432 59.3003 232.432 63.2285H234.432ZM229.725 51.7925C226.594 48.6214 222.773 47.004 218.318 46.9639L218.3 48.9638C222.227 48.9992 225.542 50.4027 228.302 53.1977L229.725 51.7925ZM218.309 46.9639H198.938V48.9639H218.309V46.9639ZM197.938 47.9639V89H199.938V47.9639H197.938ZM198.938 90H210.351V88H198.938V90ZM211.351 89V81.665H209.351V89H211.351ZM209.574 82.2956C209.834 82.6154 210.104 82.9253 210.384 83.2253L211.846 81.8606C211.598 81.5942 211.358 81.3189 211.127 81.0344L209.574 82.2956ZM210.383 83.2239C214.636 87.798 220.958 90 229.155 90V88C221.304 88 215.6 85.8973 211.848 81.862L210.383 83.2239ZM229.155 90H232.582V88H229.155V90ZM233.582 89V77.5869H231.582V89H233.582ZM232.582 76.5869H229.155V78.5869H232.582V76.5869ZM229.155 76.5869C227.432 76.5869 225.914 76.4492 224.596 76.182L224.199 78.1422C225.675 78.4414 227.329 78.5869 229.155 78.5869V76.5869ZM224.806 78.0749C227.679 76.7889 229.997 74.8231 231.744 72.1929L230.078 71.0864C228.54 73.4028 226.515 75.1186 223.989 76.2494L224.806 78.0749ZM231.746 72.1901C233.534 69.4775 234.432 66.4824 234.432 63.2285H232.432C232.432 66.0918 231.649 68.7041 230.076 71.0892L231.746 72.1901ZM211.351 66.627V61.0195H209.351V66.627H211.351ZM210.351 62.0195H217.289V60.0195H210.351V62.0195ZM217.289 62.0195C217.798 62.0195 218.204 62.1879 218.564 62.5479L219.979 61.1337C219.244 60.3987 218.328 60.0195 217.289 60.0195V62.0195ZM218.564 62.5479C218.924 62.908 219.093 63.3145 219.093 63.8232H221.093C221.093 62.7838 220.714 61.8687 219.979 61.1337L218.564 62.5479ZM219.093 63.8232C219.093 64.332 218.924 64.7385 218.564 65.0986L219.979 66.5128C220.714 65.7778 221.093 64.8626 221.093 63.8232H219.093ZM218.564 65.0986C218.204 65.4586 217.798 65.627 217.289 65.627V67.627C218.328 67.627 219.244 67.2478 219.979 66.5128L218.564 65.0986ZM217.289 65.627H210.351V67.627H217.289V65.627ZM258.07 47.9639V46.9639H257.565L257.265 47.3707L258.07 47.9639ZM246.261 63.9932H245.261V67.0364L247.066 64.5863L246.261 63.9932ZM246.261 47.9639H247.261V46.9639H246.261V47.9639ZM234.848 47.9639V46.9639H233.848V47.9639H234.848ZM234.848 89H233.848V90H234.848V89ZM246.261 89V90H247.261V89H246.261ZM246.261 78.5498L247.131 78.0577L245.261 74.7483V78.5498H246.261ZM247.932 81.0137L248.724 80.404L248.718 80.3952L248.711 80.3867L247.932 81.0137ZM249.121 82.4297L248.384 83.1054L248.39 83.1125L248.397 83.1194L249.121 82.4297ZM272.825 89V90H273.825V89H272.825ZM272.825 77.5869H273.825V76.5869H272.825V77.5869ZM257.447 74.6133L256.726 75.3055L256.73 75.3101L257.447 74.6133ZM255.352 71.1582L254.553 70.5565L254.224 70.9928L254.414 71.5051L255.352 71.1582ZM272.825 47.9639L273.624 48.5656L274.831 46.9639H272.825V47.9639ZM257.265 47.3707L245.456 63.4L247.066 64.5863L258.875 48.557L257.265 47.3707ZM247.261 63.9932V47.9639H245.261V63.9932H247.261ZM246.261 46.9639H234.848V48.9639H246.261V46.9639ZM233.848 47.9639V89H235.848V47.9639H233.848ZM234.848 90H246.261V88H234.848V90ZM247.261 89V78.5498H245.261V89H247.261ZM245.39 79.0419C245.908 79.9576 246.495 80.824 247.153 81.6407L248.711 80.3867C248.122 79.6552 247.596 78.879 247.131 78.0577L245.39 79.0419ZM247.139 81.6234C247.534 82.1369 247.949 82.6309 248.384 83.1054L249.858 81.754C249.462 81.3222 249.084 80.8722 248.724 80.404L247.139 81.6234ZM248.397 83.1194C252.797 87.7381 258.821 90 266.34 90V88C259.246 88 253.791 85.8817 249.845 81.74L248.397 83.1194ZM266.34 90H272.825V88H266.34V90ZM273.825 89V77.5869H271.825V89H273.825ZM272.825 76.5869H266.34V78.5869H272.825V76.5869ZM266.34 76.5869C262.486 76.5869 259.831 75.6323 258.165 73.9165L256.73 75.3101C258.915 77.5591 262.189 78.5869 266.34 78.5869V76.5869ZM258.169 73.9211C257.39 73.1084 256.759 72.0796 256.289 70.8113L254.414 71.5051C254.964 72.9933 255.73 74.2679 256.726 75.3055L258.169 73.9211ZM256.15 71.7599L273.624 48.5656L272.026 47.3622L254.553 70.5565L256.15 71.7599ZM272.825 46.9639H258.07V48.9639H272.825V46.9639ZM284.635 47.9639V46.9639H283.635V47.9639H284.635ZM284.635 89H283.635V90H284.635V89ZM314.371 89V90H315.371V89H314.371ZM314.371 77.5869H315.371V76.5869H314.371V77.5869ZM296.048 77.5869H295.048V78.5869H296.048V77.5869ZM296.048 74.1885V73.1885H295.048V74.1885H296.048ZM314.371 74.1885V75.1885H315.371V74.1885H314.371ZM314.371 62.7754H315.371V61.7754H314.371V62.7754ZM296.048 62.7754H295.048V63.7754H296.048V62.7754ZM296.048 59.3486V58.3486H295.048V59.3486H296.048ZM314.371 59.3486V60.3486H315.371V59.3486H314.371ZM314.371 47.9639H315.371V46.9639H314.371V47.9639ZM283.635 47.9639V89H285.635V47.9639H283.635ZM284.635 90H314.371V88H284.635V90ZM315.371 89V77.5869H313.371V89H315.371ZM314.371 76.5869H296.048V78.5869H314.371V76.5869ZM297.048 77.5869V74.1885H295.048V77.5869H297.048ZM296.048 75.1885H314.371V73.1885H296.048V75.1885ZM315.371 74.1885V62.7754H313.371V74.1885H315.371ZM314.371 61.7754H296.048V63.7754H314.371V61.7754ZM297.048 62.7754V59.3486H295.048V62.7754H297.048ZM296.048 60.3486H314.371V58.3486H296.048V60.3486ZM315.371 59.3486V47.9639H313.371V59.3486H315.371ZM314.371 46.9639H284.635V48.9639H314.371V46.9639ZM355.747 47.9639L356.595 48.4939L357.551 46.9639H355.747V47.9639ZM341.304 47.9639V46.9639H340.747L340.453 47.4375L341.304 47.9639ZM335.781 56.8848L334.932 57.4131L335.783 58.7811L336.632 57.4111L335.781 56.8848ZM330.23 47.9639L331.08 47.4356L330.786 46.9639H330.23V47.9639ZM315.787 47.9639V46.9639H313.983L314.939 48.4939L315.787 47.9639ZM315.929 48.1904L316.777 47.6617L316.777 47.6604L315.929 48.1904ZM328.56 68.4678L329.409 68.996L329.737 68.4674L329.408 67.9391L328.56 68.4678ZM315.929 88.7734L316.777 89.3034L316.778 89.3016L315.929 88.7734ZM315.787 89L314.939 88.47L313.983 90H315.787V89ZM330.23 89V90H330.786L331.08 89.5283L330.23 89ZM335.781 80.0791L336.632 79.5527L335.783 78.1828L334.932 79.5508L335.781 80.0791ZM341.304 89L340.453 89.5264L340.747 90H341.304V89ZM355.747 89V90H357.551L356.595 88.47L355.747 89ZM355.605 88.7734L354.756 89.3016L354.757 89.3034L355.605 88.7734ZM342.975 68.4678L342.126 67.9391L341.797 68.4674L342.125 68.996L342.975 68.4678ZM355.605 48.1904L354.757 47.6604L354.757 47.6617L355.605 48.1904ZM355.747 46.9639H341.304V48.9639H355.747V46.9639ZM340.453 47.4375L334.931 56.3584L336.632 57.4111L342.154 48.4902L340.453 47.4375ZM336.63 56.3565L331.08 47.4356L329.381 48.4922L334.932 57.4131L336.63 56.3565ZM330.23 46.9639H315.787V48.9639H330.23V46.9639ZM314.939 48.4939L315.081 48.7204L316.777 47.6604L316.635 47.4339L314.939 48.4939ZM315.08 48.7191L327.711 68.9965L329.408 67.9391L316.777 47.6617L315.08 48.7191ZM327.71 67.9396L315.08 88.2453L316.778 89.3016L329.409 68.996L327.71 67.9396ZM315.081 88.2434L314.939 88.47L316.635 89.53L316.777 89.3034L315.081 88.2434ZM315.787 90H330.23V88H315.787V90ZM331.08 89.5283L336.63 80.6074L334.932 79.5508L329.381 88.4717L331.08 89.5283ZM334.931 80.6055L340.453 89.5264L342.154 88.4736L336.632 79.5527L334.931 80.6055ZM341.304 90H355.747V88H341.304V90ZM356.595 88.47L356.453 88.2434L354.757 89.3034L354.899 89.53L356.595 88.47ZM356.455 88.2453L343.824 67.9396L342.125 68.996L354.756 89.3016L356.455 88.2453ZM343.823 68.9965L356.454 48.7191L354.757 47.6617L342.126 67.9391L343.823 68.9965ZM356.453 48.7204L356.595 48.4939L354.899 47.4339L354.757 47.6604L356.453 48.7204ZM357.191 47.9639V46.9639H356.191V47.9639H357.191ZM357.191 89H356.191V90H357.191V89ZM368.604 89V90H369.604V89H368.604ZM368.604 78.4932V77.4932H367.604V78.4932H368.604ZM376.562 78.4932V79.4932L376.572 79.4931L376.562 78.4932ZM387.268 73.9902L387.977 74.6951L387.979 74.6928L387.268 73.9902ZM387.268 52.4951L386.556 53.1977L386.558 53.2L387.268 52.4951ZM376.562 47.9639L376.572 46.9639H376.562V47.9639ZM368.604 66.627H367.604V67.627H368.604V66.627ZM368.604 61.0195V60.0195H367.604V61.0195H368.604ZM356.191 47.9639V89H358.191V47.9639H356.191ZM357.191 90H368.604V88H357.191V90ZM369.604 89V78.4932H367.604V89H369.604ZM368.604 79.4932H376.562V77.4932H368.604V79.4932ZM376.572 79.4931C381.025 79.453 384.845 77.8466 387.977 74.6951L386.558 73.2854C383.799 76.0622 380.483 77.4578 376.553 77.4932L376.572 79.4931ZM387.979 74.6928C391.109 71.5226 392.686 67.683 392.686 63.2285H390.686C390.686 67.1569 389.317 70.4917 386.556 73.2876L387.979 74.6928ZM392.686 63.2285C392.686 58.7739 391.109 54.9425 387.977 51.7903L386.558 53.2C389.317 55.9762 390.686 59.3003 390.686 63.2285H392.686ZM387.979 51.7925C384.848 48.6214 381.027 47.004 376.572 46.9639L376.553 48.9638C380.481 48.9992 383.796 50.4027 386.556 53.1977L387.979 51.7925ZM376.562 46.9639H357.191V48.9639H376.562V46.9639ZM369.604 66.627V61.0195H367.604V66.627H369.604ZM368.604 62.0195H375.543V60.0195H368.604V62.0195ZM375.543 62.0195C376.052 62.0195 376.458 62.1879 376.818 62.5479L378.232 61.1337C377.497 60.3987 376.582 60.0195 375.543 60.0195V62.0195ZM376.818 62.5479C377.178 62.908 377.347 63.3145 377.347 63.8232H379.347C379.347 62.7838 378.967 61.8687 378.232 61.1337L376.818 62.5479ZM377.347 63.8232C377.347 64.332 377.178 64.7385 376.818 65.0986L378.232 66.5128C378.967 65.7778 379.347 64.8626 379.347 63.8232H377.347ZM376.818 65.0986C376.458 65.4586 376.052 65.627 375.543 65.627V67.627C376.582 67.627 377.497 67.2478 378.232 66.5128L376.818 65.0986ZM375.543 65.627H368.604V67.627H375.543V65.627ZM393.102 47.9639V46.9639H392.102V47.9639H393.102ZM393.102 89H392.102V90H393.102V89ZM422.838 89V90H423.838V89H422.838ZM422.838 77.5869H423.838V76.5869H422.838V77.5869ZM404.515 77.5869H403.515V78.5869H404.515V77.5869ZM404.515 74.1885V73.1885H403.515V74.1885H404.515ZM422.838 74.1885V75.1885H423.838V74.1885H422.838ZM422.838 62.7754H423.838V61.7754H422.838V62.7754ZM404.515 62.7754H403.515V63.7754H404.515V62.7754ZM404.515 59.3486V58.3486H403.515V59.3486H404.515ZM422.838 59.3486V60.3486H423.838V59.3486H422.838ZM422.838 47.9639H423.838V46.9639H422.838V47.9639ZM392.102 47.9639V89H394.102V47.9639H392.102ZM393.102 90H422.838V88H393.102V90ZM423.838 89V77.5869H421.838V89H423.838ZM422.838 76.5869H404.515V78.5869H422.838V76.5869ZM405.515 77.5869V74.1885H403.515V77.5869H405.515ZM404.515 75.1885H422.838V73.1885H404.515V75.1885ZM423.838 74.1885V62.7754H421.838V74.1885H423.838ZM422.838 61.7754H404.515V63.7754H422.838V61.7754ZM405.515 62.7754V59.3486H403.515V62.7754H405.515ZM404.515 60.3486H422.838V58.3486H404.515V60.3486ZM423.838 59.3486V47.9639H421.838V59.3486H423.838ZM422.838 46.9639H393.102V48.9639H422.838V46.9639ZM435.667 66.627H434.667V67.627H435.667V66.627ZM435.667 61.0195V60.0195H434.667V61.0195H435.667ZM471.634 89V90H472.634V89H471.634ZM471.634 47.9639H472.634V46.9639H471.634V47.9639ZM460.221 47.9639V46.9639H459.221V47.9639H460.221ZM460.221 77.5869V78.5869H461.221V77.5869H460.221ZM449.714 77.5869L449.23 76.7116L449.714 78.5869V77.5869ZM456.228 71.6396L457.061 72.1929L457.062 72.1901L456.228 71.6396ZM454.33 52.4951L453.618 53.1977L453.621 53.2L454.33 52.4951ZM443.625 47.9639L443.634 46.9639H443.625V47.9639ZM424.254 47.9639V46.9639H423.254V47.9639H424.254ZM424.254 89H423.254V90H424.254V89ZM435.667 89V90H436.667V89H435.667ZM435.667 81.665L436.402 80.9869L434.667 79.1068V81.665H435.667ZM442.436 89L441.701 89.6782L441.998 90H442.436V89ZM436.667 66.627V61.0195H434.667V66.627H436.667ZM435.667 62.0195H442.605V60.0195H435.667V62.0195ZM442.605 62.0195C443.114 62.0195 443.521 62.1879 443.881 62.5479L445.295 61.1337C444.56 60.3987 443.645 60.0195 442.605 60.0195V62.0195ZM443.881 62.5479C444.241 62.908 444.409 63.3145 444.409 63.8232H446.409C446.409 62.7838 446.03 61.8687 445.295 61.1337L443.881 62.5479ZM444.409 63.8232C444.409 64.332 444.241 64.7385 443.881 65.0986L445.295 66.5128C446.03 65.7778 446.409 64.8626 446.409 63.8232H444.409ZM443.881 65.0986C443.521 65.4586 443.114 65.627 442.605 65.627V67.627C443.645 67.627 444.56 67.2478 445.295 66.5128L443.881 65.0986ZM442.605 65.627H435.667V67.627H442.605V65.627ZM472.634 89V47.9639H470.634V89H472.634ZM471.634 46.9639H460.221V48.9639H471.634V46.9639ZM459.221 47.9639V77.5869H461.221V47.9639H459.221ZM460.221 76.5869H449.714V78.5869H460.221V76.5869ZM450.197 78.4622C453.032 76.8961 455.326 74.8054 457.061 72.1929L455.395 71.0864C453.844 73.4206 451.795 75.2947 449.23 76.7116L450.197 78.4622ZM457.062 72.1901C458.851 69.4775 459.748 66.4824 459.748 63.2285H457.748C457.748 66.0918 456.965 68.7041 455.393 71.0892L457.062 72.1901ZM459.748 63.2285C459.748 58.7739 458.172 54.9425 455.039 51.7903L453.621 53.2C456.379 55.9762 457.748 59.3003 457.748 63.2285H459.748ZM455.042 51.7925C451.911 48.6214 448.09 47.004 443.634 46.9639L443.616 48.9638C447.543 48.9992 450.859 50.4027 453.618 53.1977L455.042 51.7925ZM443.625 46.9639H424.254V48.9639H443.625V46.9639ZM423.254 47.9639V89H425.254V47.9639H423.254ZM424.254 90H435.667V88H424.254V90ZM436.667 89V81.665H434.667V89H436.667ZM434.932 82.3432L441.701 89.6782L443.17 88.3218L436.402 80.9869L434.932 82.3432ZM442.436 90H471.634V88H442.436V90ZM473.475 47.9639V46.9639H472.475V47.9639H473.475ZM473.475 89H472.475V90H473.475V89ZM503.211 89V90H504.211V89H503.211ZM503.211 77.5869H504.211V76.5869H503.211V77.5869ZM484.888 77.5869H483.888V78.5869H484.888V77.5869ZM484.888 74.1885V73.1885H483.888V74.1885H484.888ZM503.211 74.1885V75.1885H504.211V74.1885H503.211ZM503.211 62.7754H504.211V61.7754H503.211V62.7754ZM484.888 62.7754H483.888V63.7754H484.888V62.7754ZM484.888 59.3486V58.3486H483.888V59.3486H484.888ZM503.211 59.3486V60.3486H504.211V59.3486H503.211ZM503.211 47.9639H504.211V46.9639H503.211V47.9639ZM472.475 47.9639V89H474.475V47.9639H472.475ZM473.475 90H503.211V88H473.475V90ZM504.211 89V77.5869H502.211V89H504.211ZM503.211 76.5869H484.888V78.5869H503.211V76.5869ZM485.888 77.5869V74.1885H483.888V77.5869H485.888ZM484.888 75.1885H503.211V73.1885H484.888V75.1885ZM504.211 74.1885V62.7754H502.211V74.1885H504.211ZM503.211 61.7754H484.888V63.7754H503.211V61.7754ZM485.888 62.7754V59.3486H483.888V62.7754H485.888ZM484.888 60.3486H503.211V58.3486H484.888V60.3486ZM504.211 59.3486V47.9639H502.211V59.3486H504.211ZM503.211 46.9639H473.475V48.9639H503.211V46.9639ZM531.191 69.2891L530.377 69.8697L532.191 72.4136V69.2891H531.191ZM515.983 47.9639L516.798 47.3832L516.499 46.9639H515.983V47.9639ZM504.627 47.9639V46.9639H503.627V47.9639H504.627ZM504.627 89H503.627V90H504.627V89ZM516.04 89V90H517.04V89H516.04ZM516.04 67.6465L516.856 67.0678L515.04 64.5091V67.6465H516.04ZM531.191 89L530.376 89.5787L530.675 90H531.191V89ZM542.604 89V90H543.604V89H542.604ZM542.604 47.9639H543.604V46.9639H542.604V47.9639ZM531.191 47.9639V46.9639H530.191V47.9639H531.191ZM532.006 68.7084L516.798 47.3832L515.169 48.5445L530.377 69.8697L532.006 68.7084ZM515.983 46.9639H504.627V48.9639H515.983V46.9639ZM503.627 47.9639V89H505.627V47.9639H503.627ZM504.627 90H516.04V88H504.627V90ZM517.04 89V67.6465H515.04V89H517.04ZM515.224 68.2252L530.376 89.5787L532.007 88.4213L516.856 67.0678L515.224 68.2252ZM531.191 90H542.604V88H531.191V90ZM543.604 89V47.9639H541.604V89H543.604ZM542.604 46.9639H531.191V48.9639H542.604V46.9639ZM530.191 47.9639V69.2891H532.191V47.9639H530.191ZM580.525 47.9639H581.525V46.9639H580.525V47.9639ZM580.525 89V90H581.525V89H580.525ZM580.525 77.5869H581.525V76.5869H580.525V77.5869ZM558.124 74.9248L558.831 74.2177L558.827 74.214L558.124 74.9248ZM558.067 62.0107L557.36 61.3036L557.357 61.3074L558.067 62.0107ZM580.525 59.3486V60.3486H581.525V59.3486H580.525ZM580.525 46.9639H564.581V48.9639H580.525V46.9639ZM564.581 46.9639C558.634 46.9639 553.537 49.0697 549.346 53.2607L550.76 54.6749C554.574 50.8606 559.162 48.9639 564.581 48.9639V46.9639ZM549.346 53.2607C545.155 57.4509 543.049 62.5387 543.049 68.4678H545.049C545.049 63.0687 546.945 58.4898 550.76 54.6749L549.346 53.2607ZM543.049 68.4678C543.049 74.4147 545.155 79.5122 549.346 83.7032L550.76 82.289C546.946 78.4748 545.049 73.8867 545.049 68.4678H543.049ZM549.346 83.7032C553.537 87.8942 558.634 90 564.581 90V88C559.162 88 554.574 86.1032 550.76 82.289L549.346 83.7032ZM564.581 90H580.525V88H564.581V90ZM581.525 89V77.5869H579.525V89H581.525ZM580.525 76.5869H564.581V78.5869H580.525V76.5869ZM564.581 76.5869C562.314 76.5869 560.417 75.8032 558.831 74.2177L557.417 75.6319C559.381 77.5959 561.788 78.5869 564.581 78.5869V76.5869ZM558.827 74.214C557.224 72.6276 556.434 70.7315 556.434 68.4678H554.434C554.434 71.264 555.437 73.6725 557.421 75.6356L558.827 74.214ZM556.434 68.4678C556.434 66.1972 557.21 64.2988 558.778 62.7141L557.357 61.3074C555.413 63.2722 554.434 65.6784 554.434 68.4678H556.434ZM558.774 62.7178C560.357 61.1354 562.272 60.3486 564.581 60.3486V58.3486C561.755 58.3486 559.327 59.3366 557.36 61.3036L558.774 62.7178ZM564.581 60.3486H580.525V58.3486H564.581V60.3486ZM581.525 59.3486V47.9639H579.525V59.3486H581.525ZM581.941 47.9639V46.9639H580.941V47.9639H581.941ZM581.941 89H580.941V90H581.941V89ZM611.678 89V90H612.678V89H611.678ZM611.678 77.5869H612.678V76.5869H611.678V77.5869ZM593.354 77.5869H592.354V78.5869H593.354V77.5869ZM593.354 74.1885V73.1885H592.354V74.1885H593.354ZM611.678 74.1885V75.1885H612.678V74.1885H611.678ZM611.678 62.7754H612.678V61.7754H611.678V62.7754ZM593.354 62.7754H592.354V63.7754H593.354V62.7754ZM593.354 59.3486V58.3486H592.354V59.3486H593.354ZM611.678 59.3486V60.3486H612.678V59.3486H611.678ZM611.678 47.9639H612.678V46.9639H611.678V47.9639ZM580.941 47.9639V89H582.941V47.9639H580.941ZM581.941 90H611.678V88H581.941V90ZM612.678 89V77.5869H610.678V89H612.678ZM611.678 76.5869H593.354V78.5869H611.678V76.5869ZM594.354 77.5869V74.1885H592.354V77.5869H594.354ZM593.354 75.1885H611.678V73.1885H593.354V75.1885ZM612.678 74.1885V62.7754H610.678V74.1885H612.678ZM611.678 61.7754H593.354V63.7754H611.678V61.7754ZM594.354 62.7754V59.3486H592.354V62.7754H594.354ZM593.354 60.3486H611.678V58.3486H593.354V60.3486ZM612.678 59.3486V47.9639H610.678V59.3486H612.678ZM611.678 46.9639H581.941V48.9639H611.678V46.9639Z" fill="#CEB7FF"/>
</g>
<g filter="url(#filter1_d_21_4024)">
<path d="M5.5 4.5H613.5V19.5H5.5V4.5Z" stroke="#CEB7FF" shape-rendering="crispEdges"/>
</g>
<g filter="url(#filter2_d_21_4024)">
<path d="M5.5 112.5H613.5V127.5H5.5V112.5Z" stroke="#CEB7FF" shape-rendering="crispEdges"/>
</g>
<defs>
<filter id="filter0_d_21_4024" x="0" y="42.9639" width="616.678" height="51.0361" filterUnits="userSpaceOnUse" color-interpolation-filters="sRGB">
<feFlood flood-opacity="0" result="BackgroundImageFix"/>
<feColorMatrix in="SourceAlpha" type="matrix" values="0 0 0 0 0 0 0 0 0 0 0 0 0 0 0 0 0 0 127 0" result="hardAlpha"/>
<feOffset/>
<feGaussianBlur stdDeviation="2.5"/>
<feComposite in2="hardAlpha" operator="out"/>
<feColorMatrix type="matrix" values="0 0 0 0 0.701961 0 0 0 0 0.466667 0 0 0 0 1 0 0 0 1 0"/>
<feBlend mode="normal" in2="BackgroundImageFix" result="effect1_dropShadow_21_4024"/>
<feBlend mode="normal" in="SourceGraphic" in2="effect1_dropShadow_21_4024" result="shape"/>
</filter>
<filter id="filter1_d_21_4024" x="1" y="0" width="617" height="24" filterUnits="userSpaceOnUse" color-interpolation-filters="sRGB">
<feFlood flood-opacity="0" result="BackgroundImageFix"/>
<feColorMatrix in="SourceAlpha" type="matrix" values="0 0 0 0 0 0 0 0 0 0 0 0 0 0 0 0 0 0 127 0" result="hardAlpha"/>
<feOffset/>
<feGaussianBlur stdDeviation="2"/>
<feComposite in2="hardAlpha" operator="out"/>
<feColorMatrix type="matrix" values="0 0 0 0 0.807843 0 0 0 0 0.717647 0 0 0 0 1 0 0 0 1 0"/>
<feBlend mode="normal" in2="BackgroundImageFix" result="effect1_dropShadow_21_4024"/>
<feBlend mode="normal" in="SourceGraphic" in2="effect1_dropShadow_21_4024" result="shape"/>
</filter>
<filter id="filter2_d_21_4024" x="1" y="108" width="617" height="24" filterUnits="userSpaceOnUse" color-interpolation-filters="sRGB">
<feFlood flood-opacity="0" result="BackgroundImageFix"/>
<feColorMatrix in="SourceAlpha" type="matrix" values="0 0 0 0 0 0 0 0 0 0 0 0 0 0 0 0 0 0 127 0" result="hardAlpha"/>
<feOffset/>
<feGaussianBlur stdDeviation="2"/>
<feComposite in2="hardAlpha" operator="out"/>
<feColorMatrix type="matrix" values="0 0 0 0 0.807843 0 0 0 0 0.717647 0 0 0 0 1 0 0 0 1 0"/>
<feBlend mode="normal" in2="BackgroundImageFix" result="effect1_dropShadow_21_4024"/>
<feBlend mode="normal" in="SourceGraphic" in2="effect1_dropShadow_21_4024" result="shape"/>
</filter>
</defs>
</svg>
