<svg width="271" height="52" viewBox="0 0 271 52" fill="none" xmlns="http://www.w3.org/2000/svg">
<g filter="url(#filter0_d_9_293)">
<path d="M5 47H4V48H5V47ZM5 5.96387V4.96387H4V5.96387H5ZM16.4131 5.96387H17.4131V4.96387H16.4131V5.96387ZM16.4131 47V48H17.4131V47H16.4131ZM6 47V5.96387H4V47H6ZM5 6.96387H16.4131V4.96387H5V6.96387ZM15.4131 5.96387V47H17.4131V5.96387H15.4131ZM16.4131 46H5V48H16.4131V46ZM47.4805 32.2451L46.5452 31.8912L46.0328 33.2451H47.4805V32.2451ZM55.2402 32.2451V33.2451H56.6879L56.1755 31.8912L55.2402 32.2451ZM51.3604 21.9932L52.2956 21.6392L51.3604 19.1679L50.4251 21.6392L51.3604 21.9932ZM44.4785 5.96387V4.96387H43.799L43.5488 5.59558L44.4785 5.96387ZM58.2422 5.96387L59.1762 5.60675L58.9305 4.96387H58.2422V5.96387ZM73.9316 47V48H75.3846L74.8657 46.6429L73.9316 47ZM60.8193 47L59.886 47.359L60.1325 48H60.8193V47ZM59.2617 42.9502L60.1951 42.5912L59.9485 41.9502H59.2617V42.9502ZM43.4307 42.9502V41.9502H42.7394L42.4951 42.5969L43.4307 42.9502ZM41.9014 47V48H42.5927L42.8369 47.3533L41.9014 47ZM28.2227 47L27.2929 46.6317L26.7509 48H28.2227V47ZM47.4805 33.2451H55.2402V31.2451H47.4805V33.2451ZM56.1755 31.8912L52.2956 21.6392L50.4251 22.3471L54.305 32.5991L56.1755 31.8912ZM50.4251 21.6392L46.5452 31.8912L48.4157 32.5991L52.2956 22.3471L50.4251 21.6392ZM44.4785 6.96387H58.2422V4.96387H44.4785V6.96387ZM57.3081 6.32099L72.9976 47.3571L74.8657 46.6429L59.1762 5.60675L57.3081 6.32099ZM73.9316 46H60.8193V48H73.9316V46ZM61.7527 46.641L60.1951 42.5912L58.3284 43.3092L59.886 47.359L61.7527 46.641ZM59.2617 41.9502H43.4307V43.9502H59.2617V41.9502ZM42.4951 42.5969L40.9658 46.6467L42.8369 47.3533L44.3662 43.3035L42.4951 42.5969ZM41.9014 46H28.2227V48H41.9014V46ZM29.1524 47.3683L45.4082 6.33216L43.5488 5.59558L27.2929 46.6317L29.1524 47.3683ZM97.7773 24.5137L96.8892 24.9733L97.8476 26.825L98.6917 24.9185L97.7773 24.5137ZM105.99 5.96387V4.96387H105.339L105.076 5.55902L105.99 5.96387ZM120.235 5.96387H121.235V4.96387H120.235V5.96387ZM120.235 47V48H121.235V47H120.235ZM108.822 47H107.822V48H108.822V47ZM108.822 28.9883H109.822V25.473L107.972 28.4619L108.822 28.9883ZM97.7773 46.8301L96.9265 47.3555L97.7763 48.7317L98.6276 47.3564L97.7773 46.8301ZM86.7607 28.9883L87.6116 28.4629L85.7607 25.4654V28.9883H86.7607ZM86.7607 47V48H87.7607V47H86.7607ZM75.3477 47H74.3477V48H75.3477V47ZM75.3477 5.96387V4.96387H74.3477V5.96387H75.3477ZM88.1768 5.96387L89.0649 5.50422L88.7852 4.96387H88.1768V5.96387ZM98.6917 24.9185L106.905 6.36871L105.076 5.55902L96.863 24.1088L98.6917 24.9185ZM105.99 6.96387H120.235V4.96387H105.99V6.96387ZM119.235 5.96387V47H121.235V5.96387H119.235ZM120.235 46H108.822V48H120.235V46ZM109.822 47V28.9883H107.822V47H109.822ZM107.972 28.4619L96.9271 46.3037L98.6276 47.3564L109.673 29.5146L107.972 28.4619ZM98.6282 46.3047L87.6116 28.4629L85.9099 29.5137L96.9265 47.3555L98.6282 46.3047ZM85.7607 28.9883V47H87.7607V28.9883H85.7607ZM86.7607 46H75.3477V48H86.7607V46ZM76.3477 47V5.96387H74.3477V47H76.3477ZM75.3477 6.96387H88.1768V4.96387H75.3477V6.96387ZM87.2887 6.42351L96.8892 24.9733L98.6654 24.054L89.0649 5.50422L87.2887 6.42351ZM142.41 5.96387V4.96387H141.41V5.96387H142.41ZM174.894 5.96387H175.894V4.96387H174.894V5.96387ZM174.894 17.3486V18.3486H175.894V17.3486H174.894ZM164.358 17.3486V16.3486H163.358V17.3486H164.358ZM164.358 47V48H165.358V47H164.358ZM152.945 47H151.945V48H152.945V47ZM152.945 17.3486H153.945V16.3486H152.945V17.3486ZM142.41 17.3486H141.41V18.3486H142.41V17.3486ZM142.41 6.96387H174.894V4.96387H142.41V6.96387ZM173.894 5.96387V17.3486H175.894V5.96387H173.894ZM174.894 16.3486H164.358V18.3486H174.894V16.3486ZM163.358 17.3486V47H165.358V17.3486H163.358ZM164.358 46H152.945V48H164.358V46ZM153.945 47V17.3486H151.945V47H153.945ZM152.945 16.3486H142.41V18.3486H152.945V16.3486ZM143.41 17.3486V5.96387H141.41V17.3486H143.41ZM204.8 20.0107L205.513 19.3093L205.507 19.3036L204.8 20.0107ZM188.657 20.0107L187.95 19.3036L187.944 19.3093L188.657 20.0107ZM195.171 36.5869H198.286V34.5869H195.171V36.5869ZM198.286 36.5869C201.068 36.5869 203.476 35.6063 205.45 33.6319L204.036 32.2177C202.442 33.8117 200.545 34.5869 198.286 34.5869V36.5869ZM205.45 33.6319C207.419 31.6633 208.434 29.2578 208.434 26.4678H206.434C206.434 28.7187 205.636 30.618 204.036 32.2177L205.45 33.6319ZM208.434 26.4678C208.434 23.6868 207.454 21.282 205.513 19.3093L204.087 20.7122C205.657 22.3079 206.434 24.2077 206.434 26.4678H208.434ZM205.507 19.3036C203.53 17.327 201.121 16.3486 198.286 16.3486V18.3486C200.605 18.3486 202.501 19.1262 204.093 20.7178L205.507 19.3036ZM198.286 16.3486H195.171V18.3486H198.286V16.3486ZM195.171 16.3486C192.336 16.3486 189.927 17.327 187.95 19.3036L189.364 20.7178C190.956 19.1262 192.852 18.3486 195.171 18.3486V16.3486ZM187.944 19.3093C186.003 21.282 185.023 23.6868 185.023 26.4678H187.023C187.023 24.2077 187.8 22.3079 189.37 20.7122L187.944 19.3093ZM185.023 26.4678C185.023 29.2578 186.038 31.6633 188.007 33.6319L189.421 32.2177C187.821 30.618 187.023 28.7187 187.023 26.4678H185.023ZM188.007 33.6319C189.981 35.6063 192.389 36.5869 195.171 36.5869V34.5869C192.912 34.5869 191.015 33.8117 189.421 32.2177L188.007 33.6319ZM195.171 6.96387H198.286V4.96387H195.171V6.96387ZM198.286 6.96387C203.714 6.96387 208.302 8.86966 212.107 12.6749L213.522 11.2607C209.34 7.07956 204.243 4.96387 198.286 4.96387V6.96387ZM212.107 12.6749C215.913 16.4806 217.818 21.0691 217.818 26.4678H219.818C219.818 20.5383 217.702 15.4412 213.522 11.2607L212.107 12.6749ZM217.818 26.4678C217.818 31.8955 215.913 36.4838 212.107 40.289L213.522 41.7032C217.703 37.5221 219.818 32.4248 219.818 26.4678H217.818ZM212.107 40.289C208.302 44.0942 203.714 46 198.286 46V48C204.243 48 209.34 45.8843 213.522 41.7032L212.107 40.289ZM198.286 46H195.171V48H198.286V46ZM195.171 46C189.743 46 185.155 44.0942 181.35 40.289L179.935 41.7032C184.117 45.8843 189.214 48 195.171 48V46ZM181.35 40.289C177.544 36.4838 175.639 31.8955 175.639 26.4678H173.639C173.639 32.4248 175.754 37.5221 179.935 41.7032L181.35 40.289ZM175.639 26.4678C175.639 21.0691 177.544 16.4806 181.35 12.6749L179.935 11.2607C175.755 15.4412 173.639 20.5383 173.639 26.4678H175.639ZM181.35 12.6749C185.155 8.86966 189.743 6.96387 195.171 6.96387V4.96387C189.214 4.96387 184.117 7.07956 179.935 11.2607L181.35 12.6749ZM242.664 24.5137L241.776 24.9733L242.734 26.825L243.578 24.9185L242.664 24.5137ZM250.877 5.96387V4.96387H250.226L249.963 5.55902L250.877 5.96387ZM265.122 5.96387H266.122V4.96387H265.122V5.96387ZM265.122 47V48H266.122V47H265.122ZM253.709 47H252.709V48H253.709V47ZM253.709 28.9883H254.709V25.473L252.859 28.4619L253.709 28.9883ZM242.664 46.8301L241.813 47.3555L242.663 48.7317L243.514 47.3564L242.664 46.8301ZM231.647 28.9883L232.498 28.4629L230.647 25.4654V28.9883H231.647ZM231.647 47V48H232.647V47H231.647ZM220.234 47H219.234V48H220.234V47ZM220.234 5.96387V4.96387H219.234V5.96387H220.234ZM233.063 5.96387L233.952 5.50422L233.672 4.96387H233.063V5.96387ZM243.578 24.9185L251.791 6.36871L249.963 5.55902L241.75 24.1088L243.578 24.9185ZM250.877 6.96387H265.122V4.96387H250.877V6.96387ZM264.122 5.96387V47H266.122V5.96387H264.122ZM265.122 46H253.709V48H265.122V46ZM254.709 47V28.9883H252.709V47H254.709ZM252.859 28.4619L241.814 46.3037L243.514 47.3564L254.559 29.5146L252.859 28.4619ZM243.515 46.3047L232.498 28.4629L230.797 29.5137L241.813 47.3555L243.515 46.3047ZM230.647 28.9883V47H232.647V28.9883H230.647ZM231.647 46H220.234V48H231.647V46ZM221.234 47V5.96387H219.234V47H221.234ZM220.234 6.96387H233.063V4.96387H220.234V6.96387ZM232.175 6.42351L241.776 24.9733L243.552 24.054L233.952 5.50422L232.175 6.42351Z" fill="#CEB7FF"/>
</g>
<defs>
<filter id="filter0_d_9_293" x="0" y="0.963867" width="270.122" height="51.0361" filterUnits="userSpaceOnUse" color-interpolation-filters="sRGB">
<feFlood flood-opacity="0" result="BackgroundImageFix"/>
<feColorMatrix in="SourceAlpha" type="matrix" values="0 0 0 0 0 0 0 0 0 0 0 0 0 0 0 0 0 0 127 0" result="hardAlpha"/>
<feOffset/>
<feGaussianBlur stdDeviation="2.5"/>
<feComposite in2="hardAlpha" operator="out"/>
<feColorMatrix type="matrix" values="0 0 0 0 0.701961 0 0 0 0 0.466667 0 0 0 0 1 0 0 0 1 0"/>
<feBlend mode="normal" in2="BackgroundImageFix" result="effect1_dropShadow_9_293"/>
<feBlend mode="normal" in="SourceGraphic" in2="effect1_dropShadow_9_293" result="shape"/>
</filter>
</defs>
</svg>
