<svg width="110" height="110" viewBox="0 0 110 110" fill="none" xmlns="http://www.w3.org/2000/svg">
<path d="M23.2634 20.5523C22.5159 24.7134 21.868 28.2696 21.8182 28.4345C21.7351 28.7462 23.1969 28.7645 50.8212 28.7645C78.4454 28.7645 79.9072 28.7828 79.8241 29.0761C79.7743 29.2594 79.4421 31.1842 79.06 33.3472C78.678 35.5102 78.2959 37.6733 78.1962 38.1499L78.0301 39.0298L48.9441 39.0664L19.8581 39.1214L18.496 46.8204C17.7319 51.0548 17.1173 54.5743 17.1173 54.6476C17.1006 54.7393 30.1736 54.7943 46.1534 54.7943H75.1896L73.6448 63.3548C72.781 68.0841 72.0501 72.1169 72.0003 72.3369C71.9173 72.7035 70.605 73.2167 60.3393 76.9746C53.9773 79.2842 48.6783 81.1906 48.5621 81.1906C48.3793 81.1906 28.3962 72.8318 28.2965 72.7035C28.2799 72.6851 28.5457 71.072 28.9111 69.1106C29.26 67.1492 29.559 65.3895 29.559 65.2062C29.559 64.8945 29.2434 64.8762 22.466 64.9129L15.3731 64.9679L13.6622 74.3899C12.7319 79.5775 11.9678 83.8303 12.001 83.8486C12.0177 83.8669 19.5757 87.0565 28.7949 90.9426L45.5554 98L64.7579 90.9426C75.3225 87.0748 84.0267 83.8303 84.0932 83.757C84.1929 83.647 96.9668 13.6416 97 13.0367C97 13.0183 80.7211 13 60.8044 13H24.6255L23.2634 20.5523Z" fill="white"/>
</svg>
