<?xml version="1.0" encoding="UTF-8"?> <svg xmlns="http://www.w3.org/2000/svg" width="174" height="51" viewBox="0 0 174 51" fill="none"><g clip-path="url(#clip0_539_2843)"><path d="M0 21.8483C0 20.5728 1.02388 19.5386 2.28668 19.5386H7.08056C8.34335 19.5386 9.36723 20.5728 9.36723 21.8483C9.36723 23.1238 8.34335 24.1581 7.08056 24.1581H2.28668C1.02388 24.1581 0 23.1238 0 21.8483Z" fill="#828A8F"></path><path d="M164.633 21.8483C164.633 20.5728 165.657 19.5386 166.919 19.5386H171.713C172.976 19.5386 174 20.5728 174 21.8483C174 23.1238 172.976 24.1581 171.713 24.1581H166.919C165.657 24.1581 164.633 23.1238 164.633 21.8483Z" fill="#828A8F"></path><path d="M155.596 12.6095C155.596 11.334 156.62 10.2998 157.883 10.2998H162.677C163.94 10.2998 164.963 11.334 164.963 12.6095C164.963 13.8851 163.94 14.9193 162.677 14.9193H157.883C156.62 14.9193 155.596 13.8851 155.596 12.6095Z" fill="#828A8F"></path><path d="M155.596 31.0876C155.596 29.812 156.62 28.7778 157.883 28.7778H162.677C163.94 28.7778 164.963 29.812 164.963 31.0876C164.963 32.3631 163.94 33.3973 162.677 33.3973H157.883C156.62 33.3973 155.596 32.3631 155.596 31.0876Z" fill="#ED1C24"></path><path d="M160.17 21.8483C160.17 23.1238 159.146 24.1581 157.883 24.1581C156.62 24.1581 155.596 23.1238 155.596 21.8483C155.596 20.5728 156.62 19.5386 157.883 19.5386C159.146 19.5386 160.17 20.5728 160.17 21.8483Z" fill="#828A8F"></path><path d="M18.5137 31.0876C18.5137 32.3631 17.4898 33.3973 16.227 33.3973H11.4332C10.1704 33.3973 9.14648 32.3631 9.14648 31.0876C9.14648 29.812 10.1704 28.7778 11.4332 28.7778H16.227C17.4898 28.7778 18.5137 29.812 18.5137 31.0876Z" fill="#828A8F"></path><path d="M13.9404 12.6095C13.9404 11.334 14.9643 10.2998 16.2271 10.2998C17.4899 10.2998 18.5138 11.334 18.5138 12.6095C18.5138 13.8851 17.4899 14.9193 16.2271 14.9193C14.9643 14.9193 13.9404 13.8851 13.9404 12.6095Z" fill="#828A8F"></path><path d="M4.9043 12.6095C4.9043 11.334 5.92818 10.2998 7.19097 10.2998C8.45376 10.2998 9.47765 11.334 9.47765 12.6095C9.47765 13.8851 8.45376 14.9193 7.19097 14.9193C5.92818 14.9193 4.9043 13.8851 4.9043 12.6095Z" fill="#ED1C24"></path><path d="M18.5138 21.8483C18.5138 23.1238 17.4899 24.1581 16.2271 24.1581C14.9643 24.1581 13.9404 23.1238 13.9404 21.8483C13.9404 20.5728 14.9643 19.5386 16.2271 19.5386C17.4899 19.5386 18.5138 20.5728 18.5138 21.8483Z" fill="#828A8F"></path><path d="M139.587 28.7775C135.799 28.7775 132.727 25.6748 132.727 21.8482C132.727 18.0217 135.799 14.919 139.587 14.919C143.376 14.919 146.447 18.0217 146.447 21.8482C146.447 25.6748 143.376 28.7775 139.587 28.7775ZM139.587 10.2969C133.273 10.2969 128.154 15.4679 128.154 21.8456C128.154 28.2232 133.273 33.397 139.587 33.397C145.901 33.397 151.021 28.2259 151.021 21.8456C151.021 15.4653 145.901 10.2969 139.587 10.2969Z" fill="#3163B8"></path><path d="M71.1129 28.7777C67.2352 28.7777 64.1085 25.5292 64.2581 21.578C64.392 18.0219 67.2352 15.1075 70.7558 14.9272C72.1735 14.8556 73.5019 15.2162 74.623 15.8898C75.4946 16.4149 76.6051 16.3008 77.3244 15.5742L77.3822 15.5185C78.4376 14.4525 78.2144 12.6678 76.9306 11.9015C75.169 10.8487 73.1029 10.26 70.8976 10.2997C64.9354 10.4111 60.0103 15.2109 59.6979 21.2253C59.3513 27.8867 64.5968 33.3972 71.1155 33.3972C73.2315 33.3972 75.2137 32.8164 76.9123 31.8061C78.2039 31.0371 78.4428 29.2497 77.3822 28.1784L77.377 28.1731C76.6392 27.4279 75.4946 27.2847 74.5941 27.823C73.5728 28.4303 72.3835 28.7803 71.1155 28.7803" fill="#3163B8"></path><path d="M120.22 10.2969C117.645 10.2969 115.271 11.1561 113.36 12.6066C113.36 11.3311 112.336 10.2969 111.073 10.2969C109.811 10.2969 108.787 11.3311 108.787 12.6066V31.0872C108.787 32.3628 109.811 33.397 111.073 33.397C112.336 33.397 113.36 32.3628 113.36 31.0872V21.8482C113.36 18.0217 116.432 14.919 120.22 14.919C121.488 14.919 122.677 15.2664 123.699 15.8737C124.599 16.4093 125.744 16.2688 126.484 15.521C127.547 14.447 127.308 12.657 126.014 11.888C124.316 10.8776 122.336 10.2969 120.22 10.2969Z" fill="#3163B8"></path><path d="M52.8194 33.3998C51.5566 33.3998 50.5327 32.3656 50.5327 31.0901V2.30974C50.5327 1.03421 51.5566 0 52.8194 0C54.0822 0 55.1061 1.03421 55.1061 2.30974V31.0874C55.1061 32.3629 54.0822 33.3972 52.8194 33.3972" fill="#3163B8"></path><path d="M92.8165 10.2999C86.2505 10.1938 80.9289 15.6751 81.2046 22.3445C81.4435 28.1414 85.9827 32.9041 91.706 33.3628C92.0105 33.3867 92.3098 33.3999 92.6091 33.3999C93.8798 33.3999 94.9141 32.3737 94.9141 31.0902C94.9141 29.8226 93.9008 28.7778 92.6458 28.7805C92.4883 28.7805 92.3308 28.7752 92.1706 28.7645C88.6894 28.5338 85.904 25.638 85.7727 22.1164C85.6257 18.1758 88.7367 14.9326 92.6012 14.9193C96.4185 14.9061 99.4875 18.1068 99.4875 21.9626V31.0902C99.4875 32.3657 100.511 33.3999 101.774 33.3999C103.037 33.3999 104.061 32.3657 104.061 31.0902V22.005C104.061 15.6751 99.0806 10.4033 92.8139 10.3025" fill="#3163B8"></path><path d="M27.7553 45.2718C27.7343 44.7786 27.5768 44.3675 27.2827 44.0414C26.9887 43.7152 26.5739 43.5534 26.0331 43.5534C25.781 43.5534 25.5474 43.6012 25.3321 43.694C25.1168 43.7868 24.9278 43.9141 24.765 44.0758C24.6022 44.2376 24.4736 44.4206 24.3765 44.6248C24.2793 44.8316 24.2242 45.0464 24.2084 45.2718H27.7553ZM28.5219 45.5184V45.6855C28.5219 45.7465 28.5193 45.8101 28.5114 45.8764H24.1979C24.2058 46.139 24.2583 46.3856 24.3528 46.6163C24.45 46.8497 24.5812 47.0512 24.7519 47.2236C24.9225 47.3959 25.1221 47.5338 25.3531 47.6346C25.5815 47.7354 25.8309 47.7858 26.0987 47.7858C26.4925 47.7858 26.8312 47.6929 27.1147 47.51C27.4009 47.327 27.6161 47.1148 27.7658 46.8762L28.3329 47.3243C28.0204 47.7221 27.6792 48.0059 27.3037 48.1782C26.9283 48.3506 26.5266 48.4381 26.0987 48.4381C25.7128 48.4381 25.3557 48.3692 25.0249 48.2313C24.6941 48.0934 24.4106 47.8998 24.1743 47.6532C23.938 47.4065 23.749 47.1148 23.6125 46.7781C23.476 46.4413 23.4077 46.0753 23.4077 45.6775C23.4077 45.2798 23.4733 44.9138 23.6072 44.577C23.7411 44.2403 23.9249 43.9486 24.1638 43.7019C24.4001 43.4553 24.6784 43.2617 24.9987 43.1238C25.3163 42.9859 25.6629 42.917 26.0331 42.917C26.44 42.917 26.7997 42.9859 27.1121 43.1238C27.4245 43.2617 27.6818 43.45 27.8892 43.6834C28.0966 43.9194 28.2541 44.1952 28.3617 44.5081C28.4694 44.8237 28.5219 45.1604 28.5219 45.5184Z" fill="#828A8F"></path><path d="M33.1687 48.3033H32.3339L30.21 43.0474H31.0553L32.746 47.4945H32.767L34.4683 43.0474H35.2795L33.1661 48.3033" fill="#828A8F"></path><path d="M41.3176 45.2718C41.2966 44.7786 41.1365 44.3675 40.845 44.0414C40.551 43.7152 40.1362 43.5534 39.5954 43.5534C39.3433 43.5534 39.1097 43.6012 38.8944 43.694C38.6791 43.7868 38.4901 43.9141 38.3273 44.0758C38.1646 44.2376 38.0333 44.4206 37.9388 44.6248C37.8416 44.8316 37.7865 45.0464 37.7734 45.2718H41.3202H41.3176ZM42.0842 45.5184V45.6855C42.0842 45.7465 42.0816 45.8101 42.0737 45.8764H37.7603C37.7681 46.139 37.8206 46.3856 37.9152 46.6163C38.0123 46.8497 38.1436 47.0512 38.3168 47.2236C38.4875 47.3959 38.687 47.5338 38.918 47.6346C39.1464 47.7354 39.3958 47.7858 39.6636 47.7858C40.0574 47.7858 40.3961 47.6929 40.6796 47.51C40.9658 47.327 41.1811 47.1148 41.3307 46.8762L41.8978 47.3243C41.5854 47.7221 41.2441 48.0059 40.8687 48.1782C40.4932 48.3506 40.0916 48.4381 39.6636 48.4381C39.2777 48.4381 38.9207 48.3692 38.5899 48.2313C38.2591 48.0934 37.9755 47.8998 37.7393 47.6532C37.503 47.4065 37.314 47.1148 37.1774 46.7781C37.0409 46.4413 36.9727 46.0753 36.9727 45.6775C36.9727 45.2798 37.0383 44.9138 37.1722 44.577C37.3061 44.2403 37.4899 43.9486 37.7288 43.7019C37.965 43.4553 38.2433 43.2617 38.5636 43.1238C38.8813 42.9859 39.2278 42.917 39.598 42.917C40.0049 42.917 40.3646 42.9859 40.677 43.1238C40.9894 43.2617 41.2467 43.45 41.4541 43.6834C41.6615 43.9194 41.819 44.1952 41.9267 44.5081C42.0343 44.8237 42.0868 45.1604 42.0868 45.5184" fill="#828A8F"></path><path d="M44.5864 43.6546C44.5785 43.4292 44.568 43.2277 44.5522 43.0474H45.2742C45.29 43.1906 45.3005 43.347 45.3083 43.5194C45.3162 43.6917 45.3188 43.8349 45.3188 43.9463H45.3425C45.4895 43.6387 45.7126 43.3894 46.0093 43.1985C46.306 43.0076 46.6394 42.9121 47.0096 42.9121C47.1067 42.9121 47.1933 42.9148 47.2695 42.9227C47.3482 42.9307 47.427 42.9439 47.5084 42.9678L47.4086 43.697C47.364 43.6811 47.2905 43.6679 47.1855 43.652C47.0805 43.6361 46.9781 43.6308 46.8731 43.6308C46.6735 43.6308 46.4792 43.6679 46.2955 43.7421C46.1091 43.8164 45.9489 43.9357 45.8124 44.0948C45.6759 44.2566 45.563 44.4608 45.479 44.71C45.3924 44.9593 45.3504 45.2616 45.3504 45.6117V48.3006H44.5943V44.2009C44.5943 44.0603 44.5916 43.8747 44.5838 43.6493" fill="#828A8F"></path><path d="M51.2807 47.4839H51.3043L52.9163 43.0474H53.738L51.1468 49.661C50.9919 50.0641 50.7924 50.3876 50.5508 50.6316C50.3093 50.8756 49.9628 50.9975 49.5112 50.9975C49.2802 50.9975 49.0544 50.9763 48.8339 50.9313L48.9126 50.2338C49.0911 50.2948 49.2749 50.324 49.4692 50.324C49.7291 50.324 49.9312 50.2418 50.0809 50.0827C50.2279 49.9209 50.3592 49.6928 50.4694 49.3932L50.8921 48.2927L48.6685 43.0474H49.5138L51.2807 47.4839Z" fill="#828A8F"></path><path d="M58.1489 43.6888H56.6813V46.7544C56.6813 46.9479 56.6997 47.1097 56.7364 47.237C56.7732 47.3643 56.8283 47.4624 56.8966 47.534C56.9675 47.6056 57.0515 47.6533 57.146 47.6799C57.2431 47.7064 57.3455 47.7196 57.4584 47.7196C57.5608 47.7196 57.6711 47.7037 57.7866 47.6745C57.9021 47.6454 58.0097 47.6029 58.1147 47.5499L58.1489 48.2129C58.015 48.2659 57.8758 48.3057 57.7314 48.3322C57.587 48.3587 57.4295 48.372 57.2589 48.372C57.1171 48.372 56.9701 48.3534 56.8152 48.3163C56.6603 48.2792 56.5159 48.2076 56.382 48.1015C56.2481 47.9981 56.1379 47.8549 56.0538 47.6745C55.9698 47.4942 55.9252 47.2582 55.9252 46.9665V43.6888H54.8462V43.0498H55.9252V41.5674H56.6813V43.0498H58.1489V43.6888Z" fill="#828A8F"></path><path d="M61.0183 43.9144C61.1601 43.6068 61.3937 43.3628 61.7193 43.1851C62.0448 43.0048 62.394 42.9147 62.7642 42.9147C63.4231 42.9147 63.9193 43.1135 64.2475 43.5087C64.5783 43.9064 64.7411 44.4288 64.7411 45.0812V48.3032H63.985V45.3941C63.985 45.1183 63.9639 44.8664 63.9193 44.641C63.8747 44.4156 63.7986 44.2247 63.6909 44.0629C63.5833 43.9011 63.4389 43.7765 63.2577 43.6863C63.0766 43.5962 62.8482 43.5511 62.5751 43.5511C62.3756 43.5511 62.1813 43.5909 61.9923 43.6757C61.8033 43.7579 61.6353 43.8826 61.4856 44.0523C61.336 44.222 61.2178 44.4342 61.1312 44.6914C61.0419 44.9486 60.9973 45.2536 60.9973 45.6063V48.3005H60.2412V39.812H60.9973V43.9117H61.0183" fill="#828A8F"></path><path d="M68.356 48.3032H67.5999V43.0473H68.356V48.3032ZM68.5109 41.0266C68.5109 41.1831 68.4558 41.313 68.3455 41.4138C68.2352 41.5145 68.1118 41.5649 67.9779 41.5649C67.8441 41.5649 67.7233 41.5145 67.6104 41.4138C67.5001 41.313 67.4424 41.1831 67.4424 41.0266C67.4424 40.8701 67.4975 40.7402 67.6104 40.6394C67.7207 40.5387 67.8441 40.4883 67.9779 40.4883C68.1118 40.4883 68.2326 40.5387 68.3455 40.6394C68.4558 40.7402 68.5109 40.8701 68.5109 41.0266Z" fill="#828A8F"></path><path d="M71.9344 43.0498C71.9501 43.193 71.9606 43.3494 71.9685 43.5218C71.9764 43.6942 71.979 43.8374 71.979 43.9488H72.0026C72.1497 43.6412 72.3912 43.3919 72.7246 43.2009C73.058 43.01 73.4098 42.9146 73.78 42.9146C74.439 42.9146 74.9351 43.1134 75.2633 43.5086C75.5915 43.9063 75.7569 44.4287 75.7569 45.0811V48.3031H75.0008V45.394C75.0008 45.1182 74.9771 44.8663 74.9351 44.6409C74.8905 44.4155 74.8144 44.2246 74.7067 44.0628C74.5991 43.901 74.4547 43.7764 74.2736 43.6862C74.0924 43.5961 73.864 43.551 73.591 43.551C73.3914 43.551 73.1972 43.5908 73.0081 43.6756C72.8191 43.7578 72.6511 43.8825 72.5014 44.0522C72.3518 44.2219 72.2337 44.434 72.147 44.6913C72.0578 44.9485 72.0131 45.2535 72.0131 45.6062V48.3004H71.257V44.2007C71.257 44.0601 71.2544 43.8745 71.2465 43.6491C71.2387 43.4237 71.2282 43.2222 71.2124 43.0418H71.9344" fill="#828A8F"></path><path d="M79.0283 45.6088C79.0283 45.8873 79.0729 46.1471 79.1622 46.3938C79.2514 46.6404 79.3801 46.8578 79.5455 47.0461C79.7109 47.2344 79.9183 47.3802 80.1624 47.489C80.4066 47.5977 80.6849 47.6507 80.9973 47.6507C81.2861 47.6507 81.5539 47.603 81.798 47.5049C82.0422 47.4068 82.2548 47.2689 82.4307 47.0885C82.6092 46.9082 82.7484 46.6934 82.8481 46.4441C82.9479 46.1922 82.9978 45.9138 82.9978 45.6088C82.9978 45.3304 82.9479 45.0705 82.8481 44.8239C82.7484 44.5772 82.6092 44.3598 82.4307 44.1715C82.2522 43.9832 82.0422 43.8347 81.798 43.7234C81.5539 43.612 81.2861 43.5563 80.9973 43.5563C80.6849 43.5563 80.4066 43.612 80.1624 43.7234C79.9183 43.8347 79.7135 43.9859 79.5455 44.1715C79.3801 44.3598 79.2514 44.5746 79.1622 44.8239C79.0729 45.0705 79.0283 45.333 79.0283 45.6088ZM78.8839 49.3585C79.0913 49.629 79.3748 49.857 79.7345 50.0427C80.0942 50.231 80.4748 50.3238 80.8739 50.3238C81.2441 50.3238 81.5591 50.2681 81.819 50.162C82.0789 50.0533 82.2889 49.9048 82.4465 49.7191C82.6066 49.5309 82.7221 49.3134 82.7956 49.0615C82.8691 48.8096 82.9059 48.5444 82.9059 48.258V47.2689H82.8849C82.6854 47.5977 82.4018 47.8523 82.0343 48.0326C81.6667 48.2129 81.2939 48.3031 80.9159 48.3031C80.509 48.3031 80.1388 48.2368 79.8106 48.1015C79.4798 47.9663 79.1989 47.7807 78.9653 47.5446C78.7316 47.3086 78.5505 47.0275 78.4218 46.6961C78.2932 46.3672 78.2275 46.0119 78.2275 45.63C78.2275 45.2482 78.2932 44.9034 78.4218 44.5746C78.5505 44.2458 78.7342 43.9567 78.9653 43.7101C79.1989 43.4635 79.4798 43.2672 79.8106 43.1267C80.1414 42.9835 80.509 42.9146 80.9159 42.9146C81.2939 42.9146 81.6641 43.0047 82.0264 43.185C82.3887 43.3654 82.6749 43.6226 82.8823 43.9594H82.9033V43.0498H83.6594V48.2606C83.6594 48.5444 83.62 48.8493 83.5412 49.1702C83.4625 49.4911 83.3181 49.7881 83.1081 50.0586C82.8954 50.3291 82.6092 50.5518 82.2469 50.7321C81.8846 50.9125 81.4147 51.0026 80.8345 51.0026C80.3514 51.0026 79.892 50.9098 79.4562 50.7215C79.0178 50.5333 78.645 50.276 78.3326 49.9472L78.876 49.3638" fill="#828A8F"></path><path d="M90.9576 48.3032H90.2015V43.0473H90.9576V48.3032ZM91.1125 41.0266C91.1125 41.1831 91.0573 41.313 90.9471 41.4138C90.8368 41.5145 90.7134 41.5649 90.5795 41.5649C90.4456 41.5649 90.3249 41.5145 90.212 41.4138C90.1017 41.313 90.0439 41.1831 90.0439 41.0266C90.0439 40.8701 90.0991 40.7402 90.212 40.6394C90.3222 40.5387 90.4456 40.4883 90.5795 40.4883C90.7134 40.4883 90.8342 40.5387 90.9471 40.6394C91.0573 40.7402 91.1125 40.8701 91.1125 41.0266Z" fill="#828A8F"></path><path d="M96.6259 44.2962C96.5157 44.0788 96.345 43.9011 96.1192 43.7632C95.8935 43.6253 95.6362 43.5564 95.3474 43.5564C95.2135 43.5564 95.0796 43.5723 94.9483 43.6014C94.8145 43.6306 94.6963 43.681 94.5913 43.7473C94.4889 43.8136 94.4049 43.9011 94.3419 44.0045C94.2789 44.1079 94.2474 44.2326 94.2474 44.3758C94.2474 44.6224 94.3471 44.8107 94.5467 44.9433C94.7462 45.0732 95.0612 45.1846 95.4918 45.2747C96.1061 45.402 96.5603 45.5877 96.8543 45.829C97.1458 46.0729 97.2928 46.3991 97.2928 46.8128C97.2928 47.1125 97.235 47.3644 97.1195 47.5712C97.004 47.7781 96.8543 47.9451 96.6706 48.0777C96.4842 48.2077 96.2768 48.3031 96.0431 48.3588C95.8095 48.4145 95.5732 48.4437 95.3369 48.4437C94.9431 48.4437 94.5624 48.3615 94.1922 48.1971C93.8221 48.0326 93.5175 47.7754 93.2812 47.4227L93.8825 46.9746C94.0163 47.2079 94.2132 47.4015 94.4732 47.558C94.7331 47.7144 95.0166 47.794 95.329 47.794C95.4918 47.794 95.6467 47.7781 95.7963 47.7489C95.946 47.7197 96.0746 47.6667 96.1849 47.5924C96.2951 47.5182 96.3844 47.4227 96.4527 47.306C96.5183 47.1894 96.5524 47.0462 96.5524 46.8738C96.5524 46.598 96.4212 46.3885 96.1586 46.2506C95.8961 46.1127 95.5154 45.9828 95.0192 45.8635C94.8643 45.8263 94.6989 45.7786 94.5257 45.7229C94.3524 45.6672 94.1896 45.585 94.0426 45.4763C93.893 45.3676 93.7722 45.2323 93.6751 45.0653C93.5779 44.9008 93.5307 44.694 93.5307 44.4474C93.5307 44.1769 93.5832 43.9488 93.6856 43.7579C93.7879 43.567 93.9271 43.4105 94.103 43.2859C94.2763 43.1612 94.4758 43.0711 94.6989 43.0101C94.9221 42.9517 95.1505 42.9199 95.3868 42.9199C95.7491 42.9199 96.1009 43.0021 96.4422 43.1665C96.7835 43.331 97.0381 43.5643 97.2088 43.864L96.6312 44.3015" fill="#828A8F"></path><path d="M107.988 45.6775C107.988 45.3858 107.944 45.1101 107.855 44.8528C107.765 44.5956 107.637 44.3702 107.471 44.1793C107.306 43.9883 107.098 43.8372 106.854 43.7258C106.61 43.6144 106.332 43.5587 106.019 43.5587C105.731 43.5587 105.463 43.6118 105.219 43.7205C104.975 43.8292 104.762 43.9804 104.586 44.1687C104.407 44.3596 104.268 44.585 104.169 44.8422C104.069 45.0995 104.019 45.3779 104.019 45.6775C104.019 45.9772 104.069 46.2556 104.169 46.5129C104.268 46.7701 104.407 46.9955 104.586 47.1811C104.764 47.3694 104.975 47.5153 105.219 47.624C105.463 47.7327 105.731 47.7858 106.019 47.7858C106.332 47.7858 106.607 47.7327 106.854 47.624C107.098 47.5153 107.303 47.3668 107.471 47.1758C107.639 46.9849 107.765 46.7595 107.855 46.5023C107.944 46.245 107.988 45.9692 107.988 45.6775ZM104.108 50.9998H103.352V43.0496H104.108V43.9592H104.142C104.358 43.6144 104.644 43.3545 105.003 43.1795C105.363 43.0045 105.728 42.917 106.098 42.917C106.505 42.917 106.875 42.9886 107.203 43.1291C107.534 43.2723 107.815 43.4659 108.049 43.7125C108.282 43.9592 108.464 44.2509 108.592 44.5876C108.721 44.9244 108.787 45.2877 108.787 45.6775C108.787 46.0674 108.721 46.4307 108.592 46.7675C108.464 47.1042 108.28 47.3959 108.049 47.6426C107.815 47.8892 107.534 48.0854 107.203 48.226C106.873 48.3665 106.505 48.4408 106.098 48.4408C105.728 48.4408 105.363 48.3532 105.003 48.1756C104.644 48.0006 104.358 47.7486 104.142 47.4171H104.108V50.9998Z" fill="#828A8F"></path><path d="M115.67 45.6775C115.67 45.3858 115.623 45.1101 115.531 44.8528C115.439 44.5956 115.308 44.3702 115.137 44.1793C114.966 43.9883 114.759 43.8372 114.515 43.7258C114.271 43.6144 113.995 43.5587 113.693 43.5587C113.391 43.5587 113.116 43.6144 112.877 43.7258C112.635 43.8372 112.43 43.991 112.26 44.1793C112.089 44.3702 111.958 44.5956 111.866 44.8528C111.774 45.1101 111.727 45.3858 111.727 45.6775C111.727 45.9692 111.774 46.245 111.866 46.5023C111.958 46.7595 112.089 46.9849 112.26 47.1758C112.43 47.3668 112.635 47.5179 112.877 47.624C113.118 47.7327 113.389 47.7858 113.693 47.7858C113.998 47.7858 114.271 47.7327 114.515 47.624C114.759 47.5153 114.966 47.3668 115.137 47.1758C115.308 46.9849 115.439 46.7595 115.531 46.5023C115.623 46.245 115.67 45.9692 115.67 45.6775ZM116.471 45.6775C116.471 46.0753 116.402 46.4413 116.266 46.7781C116.129 47.1148 115.938 47.4065 115.694 47.6532C115.449 47.8998 115.155 48.0934 114.814 48.2313C114.473 48.3692 114.097 48.4381 113.69 48.4381C113.284 48.4381 112.919 48.3692 112.58 48.2313C112.239 48.0934 111.947 47.8998 111.7 47.6532C111.456 47.4065 111.265 47.1148 111.128 46.7781C110.992 46.4413 110.923 46.0753 110.923 45.6775C110.923 45.2798 110.992 44.9138 111.128 44.577C111.265 44.2403 111.456 43.9486 111.7 43.7019C111.945 43.4553 112.239 43.2617 112.58 43.1238C112.921 42.9859 113.291 42.917 113.69 42.917C114.09 42.917 114.473 42.9859 114.814 43.1238C115.155 43.2617 115.447 43.4553 115.694 43.7019C115.938 43.9486 116.129 44.2403 116.266 44.577C116.402 44.9138 116.471 45.2798 116.471 45.6775Z" fill="#828A8F"></path><path d="M121.75 44.2962C121.64 44.0788 121.469 43.9011 121.244 43.7632C121.018 43.6253 120.761 43.5564 120.472 43.5564C120.338 43.5564 120.204 43.5723 120.07 43.6014C119.936 43.6306 119.818 43.681 119.716 43.7473C119.611 43.8136 119.529 43.9011 119.466 44.0045C119.403 44.1079 119.372 44.2326 119.372 44.3758C119.372 44.6224 119.471 44.8107 119.674 44.9433C119.873 45.0732 120.188 45.1846 120.619 45.2747C121.233 45.402 121.687 45.5877 121.981 45.829C122.273 46.0729 122.42 46.3991 122.42 46.8128C122.42 47.1125 122.362 47.3644 122.246 47.5712C122.131 47.7781 121.981 47.9451 121.798 48.0777C121.611 48.2077 121.404 48.3031 121.17 48.3588C120.936 48.4145 120.7 48.4437 120.464 48.4437C120.07 48.4437 119.689 48.3615 119.319 48.1971C118.949 48.0326 118.644 47.7754 118.408 47.4227L119.009 46.9746C119.143 47.2079 119.34 47.4015 119.597 47.558C119.857 47.7144 120.144 47.794 120.453 47.794C120.616 47.794 120.771 47.7781 120.921 47.7489C121.068 47.7197 121.199 47.6667 121.309 47.5924C121.419 47.5182 121.509 47.4227 121.577 47.306C121.643 47.1894 121.677 47.0462 121.677 46.8738C121.677 46.598 121.545 46.3885 121.283 46.2506C121.02 46.1127 120.64 45.9828 120.144 45.8635C119.989 45.8263 119.823 45.7786 119.647 45.7229C119.474 45.6672 119.311 45.585 119.164 45.4763C119.015 45.3676 118.894 45.2323 118.797 45.0653C118.7 44.9008 118.652 44.694 118.652 44.4474C118.652 44.1769 118.705 43.9488 118.807 43.7579C118.91 43.567 119.051 43.4105 119.225 43.2859C119.398 43.1612 119.597 43.0711 119.818 43.0101C120.041 42.9517 120.27 42.9199 120.508 42.9199C120.871 42.9199 121.223 43.0021 121.564 43.1665C121.905 43.331 122.16 43.5643 122.33 43.864L121.753 44.3015" fill="#828A8F"></path><path d="M127.576 44.2962C127.466 44.0788 127.295 43.9011 127.069 43.7632C126.844 43.6253 126.586 43.5564 126.298 43.5564C126.164 43.5564 126.03 43.5723 125.896 43.6014C125.762 43.6306 125.644 43.681 125.541 43.7473C125.436 43.8136 125.355 43.9011 125.292 44.0045C125.229 44.1079 125.198 44.2326 125.198 44.3758C125.198 44.6224 125.297 44.8107 125.497 44.9433C125.696 45.0732 126.011 45.1846 126.442 45.2747C127.056 45.402 127.51 45.5877 127.805 45.829C128.096 46.0729 128.243 46.3991 128.243 46.8128C128.243 47.1125 128.185 47.3644 128.07 47.5712C127.954 47.7781 127.805 47.9451 127.621 48.0777C127.434 48.2077 127.227 48.3031 126.993 48.3588C126.76 48.4145 126.523 48.4437 126.287 48.4437C125.893 48.4437 125.513 48.3615 125.142 48.1971C124.772 48.0326 124.468 47.7754 124.231 47.4227L124.833 46.9746C124.967 47.2079 125.163 47.4015 125.423 47.558C125.683 47.7144 125.967 47.794 126.279 47.794C126.442 47.794 126.597 47.7781 126.747 47.7489C126.896 47.7197 127.025 47.6667 127.135 47.5924C127.248 47.5182 127.335 47.4227 127.403 47.306C127.468 47.1894 127.503 47.0462 127.503 46.8738C127.503 46.598 127.371 46.3885 127.109 46.2506C126.846 46.1127 126.466 45.9828 125.969 45.8635C125.815 45.8263 125.649 45.7786 125.473 45.7229C125.3 45.6672 125.137 45.585 124.99 45.4763C124.843 45.3676 124.72 45.2323 124.623 45.0653C124.525 44.9008 124.478 44.694 124.478 44.4474C124.478 44.1769 124.531 43.9488 124.633 43.7579C124.736 43.567 124.875 43.4105 125.051 43.2859C125.224 43.1612 125.423 43.0711 125.647 43.0101C125.87 42.9517 126.098 42.9199 126.337 42.9199C126.699 42.9199 127.051 43.0021 127.392 43.1665C127.734 43.331 127.988 43.5643 128.159 43.864L127.581 44.3015" fill="#828A8F"></path><path d="M131.401 48.3032H130.645V43.0473H131.401V48.3032ZM131.556 41.0266C131.556 41.1831 131.501 41.313 131.388 41.4138C131.278 41.5145 131.154 41.5649 131.02 41.5649C130.886 41.5649 130.763 41.5145 130.653 41.4138C130.542 41.313 130.487 41.1831 130.487 41.0266C130.487 40.8701 130.542 40.7402 130.653 40.6394C130.763 40.5387 130.886 40.4883 131.02 40.4883C131.154 40.4883 131.275 40.5387 131.388 40.6394C131.498 40.7402 131.556 40.8701 131.556 41.0266Z" fill="#828A8F"></path><path d="M138.962 45.6779C138.962 45.3862 138.917 45.1104 138.828 44.8532C138.739 44.596 138.61 44.3706 138.445 44.1796C138.277 43.9887 138.072 43.8376 137.828 43.7262C137.584 43.6148 137.305 43.5591 136.993 43.5591C136.704 43.5591 136.436 43.6122 136.192 43.7209C135.948 43.8296 135.735 43.9808 135.56 44.169C135.381 44.36 135.242 44.5854 135.142 44.8426C135.042 45.0998 134.993 45.3783 134.993 45.6779C134.993 45.9776 135.042 46.256 135.142 46.5133C135.242 46.7705 135.381 46.9959 135.56 47.1815C135.738 47.3698 135.948 47.5156 136.192 47.6244C136.436 47.7331 136.704 47.7861 136.993 47.7861C137.305 47.7861 137.584 47.7331 137.828 47.6244C138.072 47.5156 138.277 47.3671 138.445 47.1762C138.61 46.9853 138.739 46.7599 138.828 46.5026C138.917 46.2454 138.962 45.9696 138.962 45.6779ZM135.082 47.4175V48.3059H134.326V39.8174H135.082V43.9622H135.105C135.329 43.6175 135.617 43.3576 135.972 43.1826C136.329 43.0075 136.694 42.92 137.072 42.92C137.479 42.92 137.849 42.9916 138.177 43.1322C138.508 43.2754 138.789 43.469 139.022 43.7156C139.256 43.9622 139.437 44.2539 139.568 44.5907C139.697 44.9275 139.763 45.2908 139.763 45.6806C139.763 46.0704 139.697 46.4337 139.568 46.7705C139.44 47.1073 139.256 47.399 139.022 47.6456C138.789 47.8922 138.508 48.0884 138.177 48.229C137.846 48.3695 137.479 48.4438 137.072 48.4438C136.694 48.4438 136.326 48.3563 135.972 48.1839C135.617 48.0115 135.329 47.757 135.105 47.4202H135.082" fill="#828A8F"></path><path d="M143.052 48.303H142.296V39.8145H143.052V48.303Z" fill="#828A8F"></path><path d="M149.933 45.2718C149.912 44.7786 149.752 44.3675 149.461 44.0414C149.169 43.7152 148.752 43.5534 148.211 43.5534C147.959 43.5534 147.725 43.6012 147.51 43.694C147.295 43.7868 147.106 43.9141 146.943 44.0758C146.78 44.2376 146.649 44.4206 146.555 44.6248C146.457 44.8316 146.402 45.0464 146.389 45.2718H149.936H149.933ZM150.7 45.5184V45.6855C150.7 45.7465 150.697 45.8101 150.689 45.8764H146.376C146.384 46.139 146.436 46.3856 146.531 46.6163C146.628 46.8497 146.762 47.0512 146.933 47.2236C147.103 47.3959 147.303 47.5338 147.534 47.6346C147.762 47.7354 148.012 47.7858 148.279 47.7858C148.673 47.7858 149.012 47.6929 149.295 47.51C149.582 47.327 149.797 47.1148 149.946 46.8762L150.514 47.3243C150.204 47.7221 149.86 48.0059 149.484 48.1782C149.109 48.3506 148.707 48.4381 148.279 48.4381C147.893 48.4381 147.536 48.3692 147.206 48.2313C146.875 48.0934 146.591 47.8998 146.355 47.6532C146.119 47.4065 145.932 47.1148 145.793 46.7781C145.657 46.4413 145.588 46.0753 145.588 45.6775C145.588 45.2798 145.654 44.9138 145.788 44.577C145.922 44.2403 146.106 43.9486 146.344 43.7019C146.581 43.4553 146.859 43.2617 147.179 43.1238C147.497 42.9859 147.844 42.917 148.214 42.917C148.621 42.917 148.98 42.9859 149.293 43.1238C149.605 43.2617 149.862 43.45 150.07 43.6834C150.277 43.9194 150.435 44.1952 150.542 44.5081C150.65 44.8237 150.703 45.1604 150.703 45.5184" fill="#828A8F"></path><path d="M34.2449 10.3021C28.0045 10.4506 23.0898 15.4706 23.0898 22.0338C23.0898 28.2285 28.2066 33.3996 34.5232 33.3996C36.6366 33.3996 38.6188 32.8188 40.3174 31.8085C41.6117 31.0394 41.8506 29.2495 40.7873 28.1755C40.0469 27.4277 38.9023 27.2871 38.0018 27.8228C36.9832 28.43 35.7939 28.7774 34.5232 28.7774C30.7375 28.7774 27.6632 25.6721 27.6632 21.8482C27.6632 18.0243 30.7375 14.919 34.5206 14.919H34.5232C37.5109 14.919 40.0496 16.8469 40.9921 19.5385H34.5232C33.2604 19.5385 32.2365 20.5727 32.2365 21.8482C32.2365 23.1237 33.2604 24.1579 34.5232 24.1579H43.6699C44.9196 24.1579 45.954 23.1449 45.9566 21.8827V21.8482C45.9566 15.3777 40.6875 10.1483 34.2449 10.3021Z" fill="#3163B8"></path></g><defs><clipPath id="clip0_539_2843"><rect width="174" height="51" fill="white"></rect></clipPath></defs></svg> 