<svg xmlns="http://www.w3.org/2000/svg" xmlns:xlink="http://www.w3.org/1999/xlink" width="85" height="70.833" viewBox="0 0 85 70.833">
  <defs>
    <clipPath id="clip-path">
      <rect id="Rectangle_2204" data-name="Rectangle 2204" width="85" height="70.833" transform="translate(0 0)" fill="none"/>
    </clipPath>
  </defs>
  <g id="Group_2081" data-name="Group 2081" transform="translate(0 0.004)">
    <g id="Group_2080" data-name="Group 2080" transform="translate(0 -0.004)" clip-path="url(#clip-path)">
      <path id="Path_3561" data-name="Path 3561" d="M977.04,385.3a14.167,14.167,0,1,1-14.167-14.167A14.167,14.167,0,0,1,977.04,385.3" transform="translate(-892.04 -348.969)" fill="#0c6ff9"/>
      <path id="Path_3562" data-name="Path 3562" d="M54.542,36.33A16.3,16.3,0,0,1,67.495,20.381a35.418,35.418,0,1,0-.824,31.7A16.3,16.3,0,0,1,54.542,36.33" transform="translate(0 0.005)" fill="#0c6ff9"/>
      <path id="Path_3563" data-name="Path 3563" d="M1128.785,501.239c0,3.087-2.8,2.971-2.8,5.247v.328H1123.8v-.328c0-3.26,2.8-2.855,2.8-5.112a1.679,1.679,0,0,0-1.652-1.91c-1.335,0-1.752,1.2-1.752,2.2h-2.186c0-2.8,1.519-4.379,3.922-4.379a3.683,3.683,0,0,1,3.855,3.955m-5.123,8.508a1.248,1.248,0,1,1,1.235,1.427,1.314,1.314,0,0,1-1.235-1.427" transform="translate(-1054.05 -467.581)" fill="#fff"/>
      <path id="Path_3564" data-name="Path 3564" d="M279.607,432.451v3.976H277.9v-3.87a1.443,1.443,0,0,0-1.484-1.657,1.726,1.726,0,0,0-1.657,1.458v4.069h-1.71v-9.371h1.71v3.831a2.482,2.482,0,0,1,2.28-1.484c1.259,0,2.571.888,2.571,3.049" transform="translate(-256.737 -401.548)" fill="#fff"/>
      <path id="Path_3565" data-name="Path 3565" d="M407.393,469.927a3.605,3.605,0,1,1-3.605-3.592,3.549,3.549,0,0,1,3.605,3.592m-5.554,0a1.959,1.959,0,1,0,1.948-2.081,1.958,1.958,0,0,0-1.948,2.081" transform="translate(-376.279 -438.48)" fill="#fff"/>
      <path id="Path_3566" data-name="Path 3566" d="M536.964,468.552l-2.532,6.893h-1.617l-1.789-4.865-1.789,4.865h-1.6l-2.531-6.893h1.7l1.657,4.812,1.829-4.812h1.5l1.816,4.812,1.657-4.812Z" transform="translate(-493.737 -440.565)" fill="#fff"/>
      <path id="Path_3567" data-name="Path 3567" d="M745.277,429.227c0,1.3-.7,1.935-2.346,3.95l-.9,1.113h3.247V435.8h-6.283v-.252l2.372-2.876c1.71-2.094,2.134-2.558,2.134-3.367a1.281,1.281,0,0,0-1.352-1.379,1.324,1.324,0,0,0-1.352,1.5v.239H739.02v-.239a2.932,2.932,0,0,1,3.128-3.035,2.9,2.9,0,0,1,3.128,2.836" transform="translate(-694.854 -400.922)" fill="#fff"/>
      <path id="Path_3568" data-name="Path 3568" d="M274.129,659.842h-4.971a1.753,1.753,0,0,0,1.842,1.3,2.9,2.9,0,0,0,1.683-.464l1.047,1.021a3.636,3.636,0,0,1-2.8,1.047,3.579,3.579,0,1,1-.132-7.157c1.564,0,3.738,1.18,3.327,4.255m-4.957-1.352h3.248A1.6,1.6,0,0,0,270.8,657.2a1.7,1.7,0,0,0-1.63,1.286" transform="translate(-251.311 -616.428)" fill="#fff"/>
      <path id="Path_3569" data-name="Path 3569" d="M399.357,616.308v9.371h-1.9V624.8h-.093a2.291,2.291,0,0,1-2,1.007,3.584,3.584,0,0,1,0-7.157,2.291,2.291,0,0,1,2,1.007h.093v-3.354Zm-1.856,5.925a1.8,1.8,0,0,0-1.856-1.9,1.9,1.9,0,0,0,0,3.791,1.8,1.8,0,0,0,1.856-1.9" transform="translate(-368.561 -579.495)" fill="#fff"/>
      <path id="Path_3570" data-name="Path 3570" d="M537.742,661.767V657.8h1.9v3.831c0,1.127.649,1.537,1.365,1.537a1.592,1.592,0,0,0,1.511-1.339V657.8h1.9V664.7h-1.9v-1.3a2.426,2.426,0,0,1-2.213,1.432c-1.246,0-2.558-.888-2.558-3.062" transform="translate(-505.622 -618.513)" fill="#fff"/>
    </g>
  </g>
</svg>
