<svg width="110" height="110" viewBox="0 0 110 110" fill="none" xmlns="http://www.w3.org/2000/svg">
<path d="M23.9781 2H28.7495V6.7142H33.1143V2H37.886V16.2757H33.1145V11.4954H28.7497V16.2757H23.9783L23.9781 2Z" fill="white"/>
<path d="M44.1606 6.73405H39.96V2H53.135V6.73405H48.9325V16.2757H44.1608L44.1606 6.73405Z" fill="white"/>
<path d="M55.2259 2H60.2013L63.2618 7.01607L66.3192 2H71.2964V16.2757H66.5446V9.1999L63.2618 14.2757H63.1797L59.8947 9.1999V16.2757H55.2259V2Z" fill="white"/>
<path d="M73.6711 2H78.444V11.557H85.1541V16.2757H73.6711V2Z" fill="white"/>
<path fill-rule="evenodd" clip-rule="evenodd" d="M17 22.8045L23.8255 99.36L54.4541 107.863L85.1673 99.348L92 22.8045H17ZM42.0756 57.4574H76.2926L76.0635 59.9787L73.7159 86.2837L54.5 91.6094V91.6109L54.4568 91.6229L35.2237 86.2837L33.9083 71.5413H43.3336L44.002 79.0296L54.4589 81.8531L54.4675 81.8508L64.9395 79.0236L66.0293 66.8465H33.4887L30.9563 38.4534H77.9877L77.147 47.8427H41.2175L42.0756 57.4574Z" fill="white"/>
</svg>
