<svg width="110" height="110" viewBox="0 0 110 110" fill="none" xmlns="http://www.w3.org/2000/svg">
<path d="M12 13V98H97V13H12ZM57.5357 79.0268C57.5357 87.301 52.6482 91.3347 45.5731 91.3347C39.1829 91.3347 35.4737 88.0258 33.5915 84.0319L40.0955 80.095C41.3497 82.3205 42.3021 84.2027 45.04 84.2027C47.3167 84.2027 49.1875 83.1762 49.1875 79.1824V52.4643H57.5357V79.0268ZM76.3856 91.145C68.969 91.145 64.1763 87.7981 61.8369 83.1762L68.3504 79.4062C70.058 82.2029 72.2874 84.0661 76.2243 84.0661C79.5333 84.0661 81.4552 82.6013 81.4552 80.3189C81.4552 77.581 79.4763 76.6115 75.824 75.0064L73.828 74.1488C68.064 71.6974 64.2427 68.6162 64.2427 62.1103C64.2427 56.1204 68.8058 51.7452 75.9378 51.7452C81.017 51.7452 84.6655 53.3238 87.2933 57.9457L81.0625 61.9509C79.6926 59.4977 78.2165 58.5357 75.9284 58.5357C73.589 58.5357 72.1052 60.0194 72.1052 61.9509C72.1052 64.3472 73.589 65.3167 77.0117 66.8004L79.0077 67.6561C85.7982 70.5666 89.6213 73.5378 89.6213 80.2088C89.6232 87.3997 83.9749 91.145 76.3856 91.145Z" fill="white"/>
</svg>
