<svg width="110" height="110" viewBox="0 0 110 110" fill="none" xmlns="http://www.w3.org/2000/svg">
<path d="M29.7109 41.1446H47.8646V42.5875H31.375V53.447H46.8813V54.8899H31.375V66.8126H48.0537V68.2555H29.7109V41.1446ZM49.4908 41.1446H51.4197L59.967 53.0673L68.7034 41.1446L80.5864 26L61.0638 54.3203L71.1239 68.2555H69.1195L59.967 55.5733L50.7767 68.2555H48.8101L58.9459 54.3203L49.4908 41.1446ZM71.8425 42.5875V41.1446H92.5301V42.5875H82.9994V68.2555H81.3353V42.5875H71.8425ZM7 41.1446H9.0801L37.7635 84.0666L25.91 68.2555L8.73972 43.195L8.66408 68.2555H7V41.1446ZM92.3624 66.3771C92.0224 66.3771 91.7674 66.1137 91.7674 65.7733C91.7674 65.4329 92.0224 65.1694 92.3624 65.1694C92.7064 65.1694 92.9574 65.4329 92.9574 65.7733C92.9574 66.1137 92.7064 66.3771 92.3624 66.3771ZM93.9976 64.7885H94.888C94.9002 65.2708 95.2523 65.595 95.7704 65.595C96.3491 65.595 96.677 65.2464 96.677 64.594V60.4602H97.5836V64.598C97.5836 65.7733 96.9036 66.4501 95.7784 66.4501C94.7221 66.4501 93.9976 65.7936 93.9976 64.7885ZM98.7695 64.7358H99.668C99.7449 65.291 100.287 65.6436 101.068 65.6436C101.797 65.6436 102.331 65.2667 102.331 64.748C102.331 64.3022 101.991 64.0347 101.218 63.8523L100.465 63.6699C99.409 63.4227 98.9273 62.9121 98.9273 62.0529C98.9273 61.0114 99.7773 60.3184 101.052 60.3184C102.238 60.3184 103.104 61.0114 103.157 61.9962H102.275C102.19 61.4572 101.72 61.1208 101.04 61.1208C100.324 61.1208 99.8461 61.4653 99.8461 61.9921C99.8461 62.4095 100.154 62.6487 100.915 62.827L101.558 62.985C102.756 63.2647 103.25 63.751 103.25 64.6304C103.25 65.749 102.384 66.4501 101 66.4501C99.7045 66.4501 98.8343 65.7814 98.7695 64.7358Z" fill="white"/>
</svg>
