<svg width="110" height="110" viewBox="0 0 110 110" fill="none" xmlns="http://www.w3.org/2000/svg">
<path d="M54.914 64.4294C59.8455 64.4294 63.8434 60.4316 63.8434 55.5C63.8434 50.5684 59.8455 46.5706 54.914 46.5706C49.9824 46.5706 45.9845 50.5684 45.9845 55.5C45.9845 60.4316 49.9824 64.4294 54.914 64.4294Z" fill="white"/>
<path d="M54.914 64.4294C59.8455 64.4294 63.8434 60.4316 63.8434 55.5C63.8434 50.5684 59.8455 46.5706 54.914 46.5706C49.9824 46.5706 45.9845 50.5684 45.9845 55.5C45.9845 60.4316 49.9824 64.4294 54.914 64.4294Z" stroke="white" stroke-width="4"/>
<path d="M54.914 73.7944C81.3761 73.7944 102.828 65.6037 102.828 55.5C102.828 45.3963 81.3761 37.2056 54.914 37.2056C28.4518 37.2056 7 45.3963 7 55.5C7 65.6037 28.4518 73.7944 54.914 73.7944Z" stroke="white" stroke-width="4"/>
<path d="M39.0705 64.6472C52.3016 87.5641 70.1209 102.047 78.8709 96.9947C87.621 91.9428 83.9885 69.2697 70.7574 46.3528C57.5263 23.4359 39.7071 8.95343 30.957 14.0053C22.2069 19.0572 25.8395 41.7303 39.0705 64.6472Z" stroke="white" stroke-width="4"/>
<path d="M39.0705 46.3528C25.8395 69.2697 22.2069 91.9428 30.957 96.9947C39.7071 102.047 57.5263 87.5641 70.7574 64.6472C83.9885 41.7303 87.621 19.0572 78.8709 14.0053C70.1209 8.95343 52.3016 23.4359 39.0705 46.3528Z" stroke="white" stroke-width="4"/>
</svg>
