<svg width="110" height="110" viewBox="0 0 110 110" fill="none" xmlns="http://www.w3.org/2000/svg">
<g clip-path="url(#clip0_1001_308)">
<mask id="mask0_1001_308" style="mask-type:luminance" maskUnits="userSpaceOnUse" x="7" y="26" width="97" height="58">
<path d="M7 26H103.25V83.75H7V26Z" fill="white"/>
</mask>
<g mask="url(#mask0_1001_308)">
<path fill-rule="evenodd" clip-rule="evenodd" d="M55.125 26C42.2917 26 34.2708 32.4167 31.0625 45.25C35.875 38.8333 41.4896 36.4271 47.9062 38.0312C51.5673 38.9456 54.1839 41.6032 57.0803 44.5424C61.7983 49.3317 67.2596 54.875 79.1875 54.875C92.0208 54.875 100.042 48.4583 103.25 35.625C98.4375 42.0417 92.8229 44.4479 86.4062 42.8437C82.7452 41.9294 80.1286 39.2718 77.2322 36.3326C72.5142 31.5433 67.0529 26 55.125 26ZM31.0625 54.875C18.2292 54.875 10.2083 61.2917 7 74.125C11.8125 67.7083 17.4271 65.3021 23.8438 66.9062C27.5048 67.8224 30.1214 70.4782 33.0178 73.4174C37.7358 78.2067 43.1971 83.75 55.125 83.75C67.9583 83.75 75.9792 77.3333 79.1875 64.5C74.375 70.9167 68.7604 73.3229 62.3438 71.7187C58.6827 70.8044 56.0661 68.1468 53.1697 65.2076C48.4517 60.4183 42.9904 54.875 31.0625 54.875Z" fill="white"/>
</g>
</g>
<defs>
<clipPath id="clip0_1001_308">
<rect width="96.25" height="58.8194" fill="white" transform="translate(7 26)"/>
</clipPath>
</defs>
</svg>
