<svg width="110" height="110" viewBox="0 0 110 110" fill="none" xmlns="http://www.w3.org/2000/svg">
<path fill-rule="evenodd" clip-rule="evenodd" d="M12 13H97V98H12V13ZM64.627 80.8978V80.5684L64.3115 80.6414C64.4158 80.7283 64.521 80.8138 64.627 80.8978ZM64.627 80.8978V88.8691C65.9717 89.5664 67.6152 90.0811 69.4414 90.4297C71.2676 90.7783 73.2598 90.9443 75.252 90.9443C77.2441 90.9443 79.0703 90.7617 80.8965 90.3799C82.7227 89.9981 84.2168 89.3672 85.5449 88.5537C86.8896 87.6738 88.0352 86.5615 88.6992 85.0674C89.3633 83.5733 89.8779 81.9131 89.8779 79.7549C89.8779 78.2441 89.6455 76.9326 89.1973 75.7705C88.749 74.6084 88.1016 73.6123 87.2051 72.7822C86.3584 71.9024 85.3789 71.1221 84.2168 70.458C83.0547 69.794 81.7266 69.0967 80.2324 68.4658C79.5533 68.188 78.9507 67.9166 78.3535 67.6476C77.9872 67.4825 77.6229 67.3184 77.2441 67.1543C76.3809 66.7227 75.6338 66.291 75.0859 65.8594C74.4717 65.4111 74.0068 64.9463 73.6748 64.4648C73.3428 63.9668 73.1768 63.4189 73.1768 62.8047C73.1768 62.2403 73.3245 61.7256 73.625 61.2607C73.9255 60.7959 74.3389 60.4141 74.8701 60.082C75.4014 59.75 76.0654 59.501 76.8623 59.3184C77.6426 59.1357 78.5059 59.0527 79.5185 59.0527C80.2158 59.0527 80.9463 59.1042 81.6767 59.2088C82.4404 59.3134 83.2207 59.4744 84.001 59.6902C84.7813 59.9061 85.5449 60.1717 86.3252 60.5037C87.0557 60.8358 87.7363 61.2176 88.3174 61.6492V53.8465C87.0557 53.365 85.6611 52.9998 84.167 52.7674C82.6728 52.535 81.0127 52.4187 79.0205 52.4187C77.0283 52.4187 75.2021 52.6346 73.376 53.0496C71.5498 53.4646 70.0557 54.1287 68.7275 55.0418C67.3828 55.9383 66.4033 57.034 65.5732 58.5281C64.793 59.9226 64.4111 61.5164 64.4111 63.5086C64.4111 65.9988 65.125 68.157 66.5693 69.8172C67.9971 71.6434 70.2217 72.9715 73.0439 74.2996C74.038 74.703 74.9321 75.1064 75.8021 75.499C75.9346 75.5587 76.0665 75.6183 76.1982 75.6775C77.1943 76.1258 78.0244 76.5906 78.6885 77.0721C79.4023 77.5535 79.9668 78.0848 80.3486 78.6492C80.7637 79.2137 80.9795 79.8777 80.9795 80.6414C80.9795 81.1726 80.85 81.6707 80.5976 82.1355C80.3453 82.6004 79.9502 82.9989 79.4189 83.3309C78.8877 83.6629 78.2402 83.9285 77.4268 84.1277C76.6465 84.3104 75.7666 84.41 74.6045 84.41C72.7783 84.41 70.9521 84.0945 69.292 83.4637C67.5933 82.8769 66.0383 82.0171 64.627 80.8978ZM61.3066 60.1484H50.6816V90.5293H42.2148V60.1484H31.5898V53.3418H61.3066V60.1484Z" fill="white"/>
</svg>
